<svg xmlns="http://www.w3.org/2000/svg" xmlns:xlink="http://www.w3.org/1999/xlink" xmlns:lucid="lucid" width="901" height="376.91"><g transform="translate(-2340 7310.754842285761)" lucid:page-tab-id="0_0"><path d="M-2500-13000h6500v10500h-6500z" fill="#fff"/><path d="M2500-7142.65c0 11.04-8.95 20-20 20s-20-8.96-20-20c0-11.05 8.95-20 20-20s20 8.95 20 20z" stroke="#000" stroke-width="2"/><path d="M2340-7216.65a6 6 0 0 1 6-6h228a6 6 0 0 1 6 6v48a6 6 0 0 1-6 6h-228a6 6 0 0 1-6-6z" fill="none"/><use xlink:href="#a" transform="matrix(1,0,0,1,2340,-7222.655114528757) translate(51.15776909722223 38.083767361111114)"/><path d="M2501.5-7142.64l4.66.15 4.4.43 3.87.62 3.5.8 3.3.97 3.2 1.18 3.27 1.45 3.67 1.92 5.66 3.47 11.6 7.4 3.67 1.9 3.28 1.46 3.2 1.17 3.28.98 3.5.8 3.88.62h.14" stroke="#3a414a" stroke-linejoin="round" fill="none"/><path d="M2501.53-7143.1l-.03.94-.55-.02.05-.43-.02-.53z" stroke="#3a414a" stroke-width=".05" fill="#3a414a"/><path d="M2561.3-7127.83l16.7 11.02-17.9 8.93m17.9-8.94l-8.48-.52" stroke="#3a414a" fill="none"/><path d="M2608-7186.75c-15.46 0-28 12.54-28 28v84c0 15.47 12.54 28 28 28h164c15.46 0 28-12.53 28-28v-84c0-15.46-12.54-28-28-28z" stroke="#000" stroke-width="2" fill="#fff"/><path d="M2580-7142.75h220" stroke="#000" stroke-width="2" fill="none"/><use xlink:href="#b" transform="matrix(1,0,0,1,2624,-7186.747102126703) translate(44.896267361111114 30.08376736111111)"/><use xlink:href="#c" transform="matrix(1,0,0,1,2602,-7126.747102126703) translate(17.417100694444457 40.083767361111114)"/><use xlink:href="#d" transform="matrix(1,0,0,1,2602,-7126.747102126703) translate(78.22439236111111 40.083767361111114)"/><use xlink:href="#e" transform="matrix(1,0,0,1,2602,-7126.747102126703) translate(92.48220486111111 40.083767361111114)"/><use xlink:href="#f" transform="matrix(1,0,0,1,2602,-7126.747102126703) translate(127.63845486111111 40.083767361111114)"/><path d="M3028-7186.75c-15.46 0-28 12.54-28 28v84c0 15.47 12.54 28 28 28h184c15.46 0 28-12.53 28-28v-84c0-15.46-12.54-28-28-28z" stroke="#000" stroke-width="2" fill="#fff"/><path d="M3000-7142.75h240" stroke="#000" stroke-width="2" fill="none"/><use xlink:href="#g" transform="matrix(1,0,0,1,3048,-7186.747102126703) translate(54.96983506944444 30.08376736111111)"/><use xlink:href="#h" transform="matrix(1,0,0,1,3024,-7126.747102126703) translate(26.14322916666667 40.083767361111114)"/><use xlink:href="#i" transform="matrix(1,0,0,1,3024,-7126.747102126703) translate(86.95052083333334 40.083767361111114)"/><use xlink:href="#j" transform="matrix(1,0,0,1,3024,-7126.747102126703) translate(101.20833333333333 40.083767361111114)"/><use xlink:href="#k" transform="matrix(1,0,0,1,3024,-7126.747102126703) translate(139.40277777777777 40.083767361111114)"/><path d="M2903.22-7298.27l-6.45.54-13.55 1.7-12.78 2.17-11.92 2.53-11 2.82-10.07 3.03-9.18 3.2-8.34 3.28-7.54 3.37-6.83 3.38-6.17 3.4-5.58 3.37-5.05 3.35-4.57 3.32-4.15 3.28-3.77 3.25-3.43 3.22-3.1 3.18-2.85 3.15-2.6 3.13-2.35 3.1-2.15 3.1-1.95 3.08-1.78 3.08-1.6 3.08-1.46 3.1-1.3 3.1-1.17 3.13-1.03 3.16-.9 3.2-.76 3.27-.63 3.32-.5 3.4-.36 3.47-.22 3.56-.07 3.2-.95-.02.07-3.2v-.02l.23-3.6v-.02l.37-3.5.5-3.43v-.02l.64-3.34h.02l.77-3.28v-.02l.9-3.23v-.02l1.03-3.2 1.18-3.16h.02v-.02l1.3-3.13h.02v-.02l1.47-3.1v-.02l1.63-3.1 1.8-3.1v-.02l1.98-3.1h.02l2.16-3.12v-.02l2.38-3.12 2.6-3.15h.02v-.02l2.86-3.16v-.02l3.14-3.2v-.02h.02l3.44-3.23 3.8-3.28 4.17-3.3h.02v-.02l4.6-3.33h.02l5.06-3.38h.02l5.6-3.4 6.2-3.4h.02l6.84-3.4h.02l7.56-3.38h.02l8.35-3.3v-.02l9.2-3.2h.02l10.1-3.05h.02l11.02-2.83 11.95-2.53h.02l12.8-2.16h.02l13.56-1.72h.02l6.54-.55zm65.7-.4h.02l13.57 1.7h.02l12.8 2.18h.02l11.94 2.55h.02l11.02 2.83h.02l10.1 3.05 9.2 3.2h.02l8.35 3.3h.02v.02l7.57 3.36v.02l6.85 3.4 6.2 3.4h.02l5.6 3.4 5.07 3.37h.02l4.6 3.34 4.17 3.3v.02l3.8 3.27 3.45 3.24 3.14 3.2v.02h.02l2.85 3.16 2.6 3.16 2.4 3.13v.02l2.16 3.1v.02l1.97 3.1 1.8 3.1v.02l1.63 3.1 1.47 3.12v.02l1.32 3.12v.02l1.18 3.15v.02l1.04 3.2.9 3.23v.02l.78 3.28v.02l.64 3.34v.02l.5 3.4v.02l.15 1.38-.95.1-.14-1.36-.5-3.4-.64-3.3-.76-3.27-.9-3.2-1.02-3.17-1.17-3.14-1.3-3.1-1.46-3.1-1.6-3.07-1.78-3.08-1.95-3.1-2.15-3.08-2.36-3.1-2.58-3.13-2.84-3.16-3.12-3.2-3.42-3.2-3.77-3.25-4.15-3.3-4.57-3.32-5.04-3.35-5.58-3.38-6.16-3.4-6.83-3.37-7.55-3.36-8.33-3.3-9.17-3.2-10.08-3.03-11-2.83-11.9-2.53-12.8-2.16-13.54-1.7-6.48-.55v-.95z" stroke="#3a414a" stroke-width=".05" fill="#3a414a"/><path d="M2746.05-7188.25v.5h-.96v-.52z" fill="#3a414a"/><path stroke="#3a414a" stroke-width=".05" fill="#3a414a"/><path d="M3129.4-7206.38l-9.4 18.58-11.4-17.42.8-.52 9.97 15.25-.37-6.7.95-.06.37 6.72 8.22-16.27z" stroke="#3a414a" stroke-width=".05" fill="#3a414a"/><g><use xlink:href="#l" transform="matrix(1,0,0,1,2903.2205419648067,-7310.754842285761) translate(0 17.22222222222222)"/></g><path d="M3120-7045.24l-.08 3.17-.22 3.57-.37 3.47-.5 3.38-.63 3.32-.76 3.25-.9 3.2-1.02 3.17-1.17 3.1-1.3 3.12-1.45 3.08-1.6 3.07-1.78 3.07-1.95 3.08-2.15 3.08-2.35 3.1-2.58 3.1-2.84 3.16-3.1 3.17-3.42 3.2-3.76 3.24-4.13 3.28-4.55 3.3-5.03 3.34-5.56 3.35-6.13 3.38-6.78 3.36-7.52 3.33-8.28 3.28-9.13 3.2-10.02 3-10.93 2.8-11.85 2.52-12.7 2.15-13.47 1.7-14.07 1.18-14.45.6h-14.58l-14.45-.6-14.06-1.2-13.47-1.68-12.7-2.15-11.86-2.52-10.93-2.8-10-3.02-9.14-3.18-8.28-3.28-7.5-3.33-6.8-3.38-6.13-3.37-5.56-3.36-5.03-3.35-4.54-3.3-4.14-3.28-3.75-3.24-3.4-3.2-3.12-3.18-2.83-3.14-2.58-3.1-2.35-3.1-2.15-3.1-1.95-3.06-1.78-3.07-1.6-3.08-1.46-3.1-1.3-3.1-1.16-3.12-1.03-3.16-.9-3.2-.75-3.26-.64-3.3-.5-3.4-.13-1.28" stroke="#3a414a" stroke-linejoin="round" fill="none"/><path d="M3120.46-7045.22l-.95-.02.03-.5h.94z" stroke="#3a414a" stroke-width=".05" fill="#3a414a"/><path d="M2739.46-7026.9l9-17.85 10.97 16.73m-10.95-16.73l.47 8.5" stroke="#3a414a" fill="none"/><defs><path d="M135 0v-1490h591c327 0 492 160 492 383 0 177-115 286-268 320v15c168 8 326 140 326 361 0 236-176 411-512 411H135zm305-251h264c179 0 258-76 258-189 0-125-97-215-250-215H440v404zm0-613h241c131 0 228-74 228-194 0-109-79-183-222-183H440v377" id="m"/><path d="M428-1490V0H128v-1490h300" id="n"/><path d="M128 0v-1118h300V0H128zm150-1264c-91 0-165-68-165-154 0-85 74-154 165-154 90 0 165 69 165 154 0 86-75 154-165 154" id="o"/><path d="M428-647V0H128v-1118h283l4 231c63-156 176-245 348-245 232 0 384 159 384 421V0H847v-659c0-139-76-222-202-222-128 0-217 86-217 234" id="p"/><path d="M128 0v-1490h300v802h17l366-430h347L740-633 1179 0H826L514-456l-86 97V0H128" id="q"/><path d="M625 442c-280 0-454-114-503-274l258-72c28 63 97 128 243 128 153 0 246-69 246-216v-206h-23C805-108 717-16 536-16 284-16 81-191 81-561c0-378 208-571 456-571 188 0 280 113 321 202h13v-188h295V-9c0 303-226 451-541 451zm5-686c153 0 240-119 240-319 0-198-86-329-240-329-158 0-241 137-241 329 0 195 85 319 241 319" id="r"/><path d="M75-1237v-253h1217v253H837V0H531v-1237H75" id="s"/><path d="M440 22C227 22 68-92 68-313c0-250 202-322 422-343 195-21 271-24 271-105 0-95-63-149-175-149-116 0-187 57-211 129l-275-46c57-194 237-305 487-305 240 0 474 108 474 379V0H777v-155h-10C713-51 605 22 440 22zm85-211c140 0 238-93 238-211v-121c-37 26-156 42-222 51-111 16-185 59-185 149 0 87 70 132 169 132" id="t"/><path d="M572 22C302 22 117-98 78-306l279-48c29 105 101 156 224 156 114 0 185-48 185-115 0-118-228-130-337-155-215-49-322-150-322-317 0-215 187-347 470-347 265 0 424 116 466 298l-266 47c-24-76-87-130-196-130-98 0-174 46-174 113 0 56 38 95 144 117l201 40c216 44 320 143 320 302 0 220-207 367-500 367" id="u"/><g id="a"><use transform="matrix(0.010850694444444444,0,0,0.010850694444444444,0,0)" xlink:href="#m"/><use transform="matrix(0.010850694444444444,0,0,0.010850694444444444,14.702690972222221,0)" xlink:href="#n"/><use transform="matrix(0.010850694444444444,0,0,0.010850694444444444,20.724826388888886,0)" xlink:href="#o"/><use transform="matrix(0.010850694444444444,0,0,0.010850694444444444,26.74696180555555,0)" xlink:href="#p"/><use transform="matrix(0.010850694444444444,0,0,0.010850694444444444,40.581597222222214,0)" xlink:href="#q"/><use transform="matrix(0.010850694444444444,0,0,0.010850694444444444,53.47222222222221,0)" xlink:href="#o"/><use transform="matrix(0.010850694444444444,0,0,0.010850694444444444,59.49435763888888,0)" xlink:href="#p"/><use transform="matrix(0.010850694444444444,0,0,0.010850694444444444,73.32899305555554,0)" xlink:href="#r"/><use transform="matrix(0.010850694444444444,0,0,0.010850694444444444,86.24131944444443,0)" xlink:href="#s"/><use transform="matrix(0.010850694444444444,0,0,0.010850694444444444,99.44661458333331,0)" xlink:href="#t"/><use transform="matrix(0.010850694444444444,0,0,0.010850694444444444,112.34809027777776,0)" xlink:href="#u"/><use transform="matrix(0.010850694444444444,0,0,0.010850694444444444,124.79383680555553,0)" xlink:href="#q"/></g><path d="M789 20C394 20 94-260 94-744c0-487 300-766 695-766s695 279 695 766c0 485-300 764-695 764zm0-271c231 0 385-174 385-493 0-321-154-495-385-495s-385 175-385 495c0 319 154 493 385 493" id="v"/><path d="M135 0v-1490h980v253H440v416h609v249H440V0H135" id="w"/><g id="b"><use transform="matrix(0.010850694444444444,0,0,0.010850694444444444,0,0)" xlink:href="#v"/><use transform="matrix(0.010850694444444444,0,0,0.010850694444444444,17.122395833333332,0)" xlink:href="#w"/><use transform="matrix(0.010850694444444444,0,0,0.010850694444444444,30.164930555555554,0)" xlink:href="#w"/></g><path d="M628 24c-324 0-524-230-524-574 0-343 198-582 503-582 237 0 487 146 487 559v75H286c9 234 145 362 343 362 132 0 231-58 273-172l174 48C1024-91 857 24 628 24zM287-650h624c-17-190-120-322-304-322-192 0-309 151-320 322" id="x"/><path d="M338-670V0H158v-1118h173l1 207c72-158 192-221 342-221 226 0 378 139 378 422V0H872v-695c0-172-96-275-252-275-161 0-282 109-282 300" id="y"/><path d="M598-1118v154H368v674c0 100 37 144 132 144 23 0 62-6 92-12L629-6c-37 13-88 20-134 20-193 0-307-107-307-290v-688H20v-154h168v-266h180v266h230" id="z"/><path d="M158 0v-1118h174v172h12c41-113 157-188 290-188 26 0 70 2 91 3v181c-11-2-60-10-108-10-161 0-279 109-279 260V0H158" id="A"/><path d="M140 405l46-156c120 36 205 19 263-150l32-93L54-1118h197c107 313 237 620 324 950 87-331 219-637 326-950h196L606 167c-68 178-176 259-334 259-64 0-113-12-132-21" id="B"/><g id="c"><use transform="matrix(0.010850694444444444,0,0,0.010850694444444444,0,0)" xlink:href="#x"/><use transform="matrix(0.010850694444444444,0,0,0.010850694444444444,12.955729166666666,0)" xlink:href="#y"/><use transform="matrix(0.010850694444444444,0,0,0.010850694444444444,26.085069444444443,0)" xlink:href="#z"/><use transform="matrix(0.010850694444444444,0,0,0.010850694444444444,33.35503472222222,0)" xlink:href="#A"/><use transform="matrix(0.010850694444444444,0,0,0.010850694444444444,42.06814236111111,0)" xlink:href="#B"/></g><path d="M692-1560L212 224H46l480-1784h166" id="C"/><use transform="matrix(0.010850694444444444,0,0,0.010850694444444444,0,0)" xlink:href="#C" id="d"/><path d="M613 24c-304 0-509-231-509-576 0-350 205-580 509-580 305 0 511 230 511 580 0 345-206 576-511 576zm0-161c226 0 329-195 329-415 0-222-103-419-329-419-223 0-326 196-326 419 0 220 103 415 326 415" id="D"/><path d="M678-1118v154H420V0H240v-964H20v-154h220v-149c0-194 155-293 318-293 85 0 141 18 168 30l-50 154c-19-6-47-17-97-17-111 0-159 58-159 166v109h258" id="E"/><g id="e"><use transform="matrix(0.010850694444444444,0,0,0.010850694444444444,0,0)" xlink:href="#D"/><use transform="matrix(0.010850694444444444,0,0,0.010850694444444444,13.324652777777777,0)" xlink:href="#E"/><use transform="matrix(0.010850694444444444,0,0,0.010850694444444444,20.68142361111111,0)" xlink:href="#E"/></g><path d="M338-1490V0H158v-1490h180" id="F"/><path d="M577 24c-279 0-473-224-473-580 0-354 195-576 474-576 218 0 287 134 324 193h14v-551h180V0H922v-173h-20C865-111 790 24 577 24zm27-161c203 0 314-172 314-421 0-247-108-413-314-413-212 0-317 181-317 413 0 235 108 421 317 421" id="G"/><g id="f"><use transform="matrix(0.010850694444444444,0,0,0.010850694444444444,0,0)" xlink:href="#F"/><use transform="matrix(0.010850694444444444,0,0,0.010850694444444444,5.381944444444445,0)" xlink:href="#x"/><use transform="matrix(0.010850694444444444,0,0,0.010850694444444444,18.33767361111111,0)" xlink:href="#G"/></g><path d="M135 0v-1490h340l471 754c59 97 122 210 187 365-32-387-14-721-19-1119h312V0h-341C855-382 627-689 427-1113c32 420 16 695 20 1113H135" id="H"/><g id="g"><use transform="matrix(0.010850694444444444,0,0,0.010850694444444444,0,0)" xlink:href="#v"/><use transform="matrix(0.010850694444444444,0,0,0.010850694444444444,17.122395833333332,0)" xlink:href="#H"/></g><g id="h"><use transform="matrix(0.010850694444444444,0,0,0.010850694444444444,0,0)" xlink:href="#x"/><use transform="matrix(0.010850694444444444,0,0,0.010850694444444444,12.955729166666666,0)" xlink:href="#y"/><use transform="matrix(0.010850694444444444,0,0,0.010850694444444444,26.085069444444443,0)" xlink:href="#z"/><use transform="matrix(0.010850694444444444,0,0,0.010850694444444444,33.35503472222222,0)" xlink:href="#A"/><use transform="matrix(0.010850694444444444,0,0,0.010850694444444444,42.06814236111111,0)" xlink:href="#B"/></g><use transform="matrix(0.010850694444444444,0,0,0.010850694444444444,0,0)" xlink:href="#C" id="i"/><g id="j"><use transform="matrix(0.010850694444444444,0,0,0.010850694444444444,0,0)" xlink:href="#F"/><use transform="matrix(0.010850694444444444,0,0,0.010850694444444444,5.381944444444445,0)" xlink:href="#x"/><use transform="matrix(0.010850694444444444,0,0,0.010850694444444444,18.33767361111111,0)" xlink:href="#G"/></g><g id="k"><use transform="matrix(0.010850694444444444,0,0,0.010850694444444444,0,0)" xlink:href="#D"/><use transform="matrix(0.010850694444444444,0,0,0.010850694444444444,13.324652777777777,0)" xlink:href="#y"/></g><path d="M538 24C308 24 148-78 108-271l171-41c32 123 123 178 257 178 156 0 256-77 256-169 0-77-54-128-164-154l-186-44c-203-48-300-148-300-305 0-192 176-326 414-326 230 0 351 112 402 269l-163 42c-31-80-94-158-238-158-133 0-233 69-233 162 0 83 57 129 188 160l169 40c203 48 298 149 298 302 0 196-179 339-441 339" id="I"/><path d="M471 26C259 26 90-98 90-318c0-256 228-303 435-329 202-27 287-16 287-108 0-139-79-219-234-219-161 0-248 86-283 164l-173-57c86-203 278-265 451-265 150 0 419 46 419 395V0H815v-152h-12C765-73 660 26 471 26zm31-159c199 0 310-134 310-271v-155c-30 35-226 55-295 64-131 17-246 59-246 186 0 116 97 176 231 176" id="J"/><g id="l"><use transform="matrix(0.008680555555555556,0,0,0.008680555555555556,0,0)" xlink:href="#I"/><use transform="matrix(0.008680555555555556,0,0,0.008680555555555556,9.383680555555555,0)" xlink:href="#z"/><use transform="matrix(0.008680555555555556,0,0,0.008680555555555556,15.286458333333332,0)" xlink:href="#J"/><use transform="matrix(0.008680555555555556,0,0,0.008680555555555556,25.269097222222225,0)" xlink:href="#A"/><use transform="matrix(0.008680555555555556,0,0,0.008680555555555556,32.239583333333336,0)" xlink:href="#z"/><use transform="matrix(0.008680555555555556,0,0,0.008680555555555556,37.88194444444444,0)" xlink:href="#x"/><use transform="matrix(0.008680555555555556,0,0,0.008680555555555556,48.24652777777778,0)" xlink:href="#G"/></g></defs></g></svg>