<svg xmlns="http://www.w3.org/2000/svg" xmlns:xlink="http://www.w3.org/1999/xlink" xmlns:lucid="lucid" width="1498.77" height="868.81"><g transform="translate(-2279 3341)" lucid:page-tab-id="0_0"><path d="M-1500-7500h5500v5500h-5500z" fill="#fff"/><path d="M2520-3133.2c0 11.06-8.95 20-20 20s-20-8.94-20-20c0-11.03 8.95-20 20-20s20 8.97 20 20z" stroke="#000" stroke-width="2"/><path d="M2644-3096.35c-13.26 0-24 10.75-24 24v72c0 13.26 10.74 24 24 24h262c13.26 0 24-10.74 24-24v-72c0-13.25-10.74-24-24-24z" stroke="#000" stroke-width="2" fill="#fff"/><path d="M2620-3052.35h310" stroke="#000" stroke-width="2" fill="none"/><use xlink:href="#a" transform="matrix(1,0,0,1,2682,-3096.3455734444024) translate(68.82465277777777 30.08376736111111)"/><use xlink:href="#b" transform="matrix(1,0,0,1,2651,-3036.3455734444024) translate(4.9516059027777715 30.08376736111111)"/><use xlink:href="#c" transform="matrix(1,0,0,1,2651,-3036.3455734444024) translate(65.75889756944443 30.08376736111111)"/><use xlink:href="#d" transform="matrix(1,0,0,1,2651,-3036.3455734444024) translate(80.01671006944443 30.08376736111111)"/><use xlink:href="#e" transform="matrix(1,0,0,1,2651,-3036.3455734444024) translate(118.22200520833331 30.08376736111111)"/><path d="M2521.5-3133.18l1.35.04 1.77.13 1.7.2 1.66.3 1.6.4 1.6.44 1.56.54 1.55.63 1.55.73 1.57.82 1.6.95 1.62 1.08 1.68 1.25 1.74 1.44 1.84 1.67 1.95 1.98 2.12 2.38 2.34 2.9 2.7 3.72 3.24 5.02 4.55 7.9 18.96 35.7 3.25 5 2.7 3.7 2.33 2.93 2.12 2.37 1.95 1.98 1.84 1.68 1.74 1.44 1.68 1.24 1.63 1.1 1.58.93 1.57.84 1.56.72 1.56.62 1.56.54.86.25" stroke="#3a414a" stroke-linejoin="round" fill="none"/><path d="M2521.53-3133.65l-.03.95-.55-.02.05-.42-.02-.52z" stroke="#3a414a" stroke-width=".05" fill="#3a414a"/><path d="M2602.22-3048.76l15.8 12.28-18.54 7.54m18.53-7.54l-8.4-1.16" stroke="#3a414a" fill="none"/><path d="M2430-3207.2a6 6 0 0 1 6-6h228a6 6 0 0 1 6 6v48a6 6 0 0 1-6 6h-228a6 6 0 0 1-6-6z" fill="none"/><use xlink:href="#f" transform="matrix(1,0,0,1,2430,-3213.1886737818886) translate(50.414496527777786 38.083767361111114)"/><path d="M3188-3340c-15.46 0-28 12.54-28 28v84c0 15.46 12.54 28 28 28h384c15.46 0 28-12.54 28-28v-84c0-15.46-12.54-28-28-28z" stroke="#000" stroke-width="2" fill="#fff"/><path d="M3160-3296h440" stroke="#000" stroke-width="2" fill="none"/><use xlink:href="#g" transform="matrix(1,0,0,1,3248,-3340) translate(4.94921875 30.08376736111111)"/><use xlink:href="#h" transform="matrix(1,0,0,1,3248,-3340) translate(112.3493923611111 30.08376736111111)"/><use xlink:href="#i" transform="matrix(1,0,0,1,3204,-3280) translate(74.87152777777777 23.95095486111111)"/><use xlink:href="#j" transform="matrix(1,0,0,1,3204,-3280) translate(116.06076388888889 23.95095486111111)"/><use xlink:href="#k" transform="matrix(1,0,0,1,3204,-3280) translate(135.91753472222223 23.95095486111111)"/><use xlink:href="#l" transform="matrix(1,0,0,1,3204,-3280) translate(163.27213541666666 23.95095486111111)"/><use xlink:href="#m" transform="matrix(1,0,0,1,3204,-3280) translate(62.61024305555556 56.21657986111111)"/><use xlink:href="#n" transform="matrix(1,0,0,1,3204,-3280) translate(120.28168402777777 56.21657986111111)"/><use xlink:href="#o" transform="matrix(1,0,0,1,3204,-3280) translate(215.88715277777777 56.21657986111111)"/><use xlink:href="#p" transform="matrix(1,0,0,1,3204,-3280) translate(242.51475694444446 56.21657986111111)"/><path d="M2863.54-3231.24l-8.28 4.1-7.44 4.1-6.73 4.07-6.12 4.06-5.58 4.04-5.12 4.06-4.7 4.06-4.36 4.08-4.02 4.1-3.74 4.16-3.47 4.2-3.25 4.26-3 4.33-2.82 4.4-2.6 4.54-2.44 4.65-2.27 4.78-2.08 4.95-1.9 5.14-1.75 5.35-1.56 5.58-1.37 5.86-1.17 6.17-.97 6.53-.73 6.94-.46 7.4-.15 7.46-.97-.02.16-7.47v-.02l.46-7.42v-.02l.73-6.95v-.02l.96-6.55v-.02l1.18-6.2 1.38-5.9 1.57-5.6v-.02l1.74-5.37v-.02l1.92-5.16v-.02l2.1-4.97 2.27-4.82v-.02l2.45-4.67v-.02l2.63-4.55h.02v-.02l2.82-4.43 3.04-4.36 3.26-4.3 3.5-4.2v-.02l3.76-4.17 4.05-4.13v-.02l4.38-4.1 4.74-4.08 5.14-4.08h.02v-.02l5.6-4.07h.02l6.13-4.07h.02l6.73-4.1h.02l7.46-4.1h.02l7.7-3.83h2.27zm286.02-38.2l-56.77.45-58.42 2.35-38.25 3.16-28.9 3.64-23.1 3.9-12.57 2.65h-4.58l16.97-3.6h.02l23.1-3.9h.02l28.92-3.63h.02l38.27-3.17h.02l58.44-2.34h.02l56.77-.46z" stroke="#3a414a" stroke-width=".05" fill="#3a414a"/><path d="M2775.5-3097.85l-.03.5h-.94v-.52z" fill="#3a414a"/><path stroke="#3a414a" stroke-width=".05" fill="#3a414a"/><path d="M3158.95-3270l-17.95 10.56-.48-.82 15.7-9.24-6.72.05v-.95l6.72-.05-15.86-9 .47-.8z" stroke="#3a414a" stroke-width=".05" fill="#3a414a"/><use xlink:href="#q" transform="matrix(1,0,0,1,2769.265540056875,-3253.306407639185) translate(0 17.22222222222222)"/><use xlink:href="#r" transform="matrix(1,0,0,1,2769.265540056875,-3253.306407639185) translate(65.94618055555556 17.22222222222222)"/><use xlink:href="#s" transform="matrix(1,0,0,1,2769.265540056875,-3253.306407639185) translate(164.89583333333331 17.22222222222222)"/><path d="M3322-2953.2c-17.67 0-32 14.34-32 32v96c0 17.68 14.33 32 32 32h306c17.67 0 32-14.32 32-32v-96c0-17.66-14.33-32-32-32z" stroke="#000" stroke-width="2" fill="#fff"/><path d="M3290-2909.2h370" stroke="#000" stroke-width="2" fill="none"/><use xlink:href="#g" transform="matrix(1,0,0,1,3364,-2953.1886737818886) translate(7.809895833333343 30.08376736111111)"/><use xlink:href="#t" transform="matrix(1,0,0,1,3364,-2953.1886737818886) translate(115.21006944444444 30.08376736111111)"/><use xlink:href="#b" transform="matrix(1,0,0,1,3327,-2893.1886737818886) translate(67.91102430555557 33.950954861111114)"/><use xlink:href="#c" transform="matrix(1,0,0,1,3327,-2893.1886737818886) translate(128.71831597222223 33.950954861111114)"/><use xlink:href="#u" transform="matrix(1,0,0,1,3327,-2893.1886737818886) translate(142.97612847222223 33.950954861111114)"/><use xlink:href="#k" transform="matrix(1,0,0,1,3327,-2893.1886737818886) translate(156.49609375 33.950954861111114)"/><use xlink:href="#v" transform="matrix(1,0,0,1,3327,-2893.1886737818886) translate(183.85069444444446 33.950954861111114)"/><use xlink:href="#w" transform="matrix(1,0,0,1,3327,-2893.1886737818886) translate(58.329861111111114 66.21657986111111)"/><use xlink:href="#x" transform="matrix(1,0,0,1,3327,-2893.1886737818886) translate(99.51909722222223 66.21657986111111)"/><use xlink:href="#y" transform="matrix(1,0,0,1,3327,-2893.1886737818886) translate(119.37586805555556 66.21657986111111)"/><use xlink:href="#z" transform="matrix(1,0,0,1,3327,-2893.1886737818886) translate(146.73046875 66.21657986111111)"/><path d="M3447.2-3050.66h.02v.02l4.68 7.36v.02l3.77 6.52 3.2 6.12h.02v.02l2.76 5.9v.02l2.47 5.84v.02l2.2 5.88 1.95 6v.02l1.73 6.2v.02h.02l1.5 6.48h.02l1.3 6.85v.02l1.08 7.28v.02l.82 7.85v.02l.54 8.52-.95.06-.53-8.5-.82-7.84-1.07-7.27-1.3-6.82-1.5-6.45-1.73-6.18-1.94-5.97-2.18-5.86-2.45-5.82-2.77-5.9-3.18-6.08-3.76-6.5-4.66-7.32-27.58-36.98h1.18zm-66.53-138.95l.53 8.52.82 7.83 1.07 7.27 1.3 6.8 1.5 6.46 1.73 6.18 1.94 5.97 2.18 5.86 2.45 5.82 2.77 5.88 3.18 6.1 3.76 6.5 1.17 1.8h-1.13l-.84-1.3v-.02l-3.77-6.53-3.2-6.12h-.02l-2.76-5.92-2.47-5.85v-.02l-2.2-5.87v-.02l-1.95-6v-.02l-1.73-6.2h-.02l-1.5-6.48h-.02v-.02l-1.3-6.84-1.08-7.3v-.02l-.82-7.85-.54-8.55v-.02l-.18-8.92h.95z" stroke="#3a414a" stroke-width=".05" fill="#3a414a"/><path d="M3380.5-3198.5l-.96.03v-.53h.93z" fill="#3a414a"/><path stroke="#3a414a" stroke-width=".05" fill="#3a414a"/><path d="M3485.03-2972.48l-10.03 18.24-10.78-17.8.8-.5 9.45 15.6-.14-6.74.95-.02.14 6.73 8.78-15.97z" stroke="#3a414a" stroke-width=".05" fill="#3a414a"/><use xlink:href="#A" transform="matrix(1,0,0,1,3379.514028958825,-3108.5920032281815) translate(0 17.22222222222222)"/><use xlink:href="#B" transform="matrix(1,0,0,1,3379.514028958825,-3108.5920032281815) translate(15.416666666666668 17.22222222222222)"/><use xlink:href="#C" transform="matrix(1,0,0,1,3379.514028958825,-3108.5920032281815) translate(43.75868055555556 17.22222222222222)"/><path d="M3146.58-2923.57l10.5 8 9.12 6.33 8.37 5.32 7.96 4.6 7.74 4.04 7.64 3.6 7.66 3.2 7.74 2.9 7.92 2.57 8.17 2.27 8.5 2 8.93 1.7 9.44 1.4 10.1 1.04 10.84.7 11.3.23v.95l-11.32-.24h-.02l-10.87-.68h-.02l-10.12-1.06h-.02l-9.46-1.4h-.02l-8.95-1.7-8.53-2h-.02v-.02l-8.2-2.28-7.95-2.6h-.02l-7.76-2.88h-.02l-7.67-3.23v-.02h-.02l-7.65-3.6-7.77-4.07-8-4.6v-.02l-8.4-5.33h-.02l-9.13-6.36v-.02l-10.54-8h-.02l-9.73-8.1h1.5zm-203.76-113h.02l10.87.68h.02l10.12 1.07h.02l9.46 1.4h.02l8.95 1.7 8.53 2h.02l8.2 2.3 7.95 2.58h.02l7.76 2.9h.02l7.67 3.23h.02l7.65 3.6v.02l7.77 4.05 8 4.62 8.4 5.34v.02h.02l9.13 6.36 10.54 8h.02v.02l9.63 8.47h-1.44l-8.78-7.74-10.5-7.98-9.12-6.34-8.37-5.3-7.96-4.6-7.74-4.05-7.64-3.6-7.66-3.22-7.74-2.88-7.92-2.57-8.17-2.28-8.5-2-8.93-1.7-9.44-1.4-10.1-1.05-10.84-.68-2.37-.05.02-.95z" stroke="#3a414a" stroke-width=".05" fill="#3a414a"/><path d="M3289-2873.66v.95l-.53-.02.02-.95z" fill="#3a414a"/><path stroke="#3a414a" stroke-width=".05" fill="#3a414a"/><path d="M2949.75-3045.55l-15.97 8.8 6.73.13v.94l-6.74-.13 15.6 9.42-.5.82-17.8-10.78 18.23-10.04z" stroke="#3a414a" stroke-width=".05" fill="#3a414a"/><use xlink:href="#D" transform="matrix(1,0,0,1,2962.441913282788,-2978.2326657868384) translate(0 17.22222222222222)"/><use xlink:href="#E" transform="matrix(1,0,0,1,2962.441913282788,-2978.2326657868384) translate(61.47569444444444 17.22222222222222)"/><use xlink:href="#F" transform="matrix(1,0,0,1,2962.441913282788,-2978.2326657868384) translate(74.00173611111111 17.22222222222222)"/><use xlink:href="#G" transform="matrix(1,0,0,1,2962.441913282788,-2978.2326657868384) translate(84.72222222222223 17.22222222222222)"/><use xlink:href="#H" transform="matrix(1,0,0,1,2962.441913282788,-2978.2326657868384) translate(113.06423611111111 17.22222222222222)"/><use xlink:href="#I" transform="matrix(1,0,0,1,2962.441913282788,-2978.2326657868384) translate(148.03819444444446 17.22222222222222)"/><use xlink:href="#J" transform="matrix(1,0,0,1,2962.441913282788,-2978.2326657868384) translate(159.14930555555557 17.22222222222222)"/><use xlink:href="#K" transform="matrix(1,0,0,1,2962.441913282788,-2978.2326657868384) translate(229.99131944444446 17.22222222222222)"/><use xlink:href="#L" transform="matrix(1,0,0,1,2962.441913282788,-2978.2326657868384) translate(246.26736111111111 17.22222222222222)"/><use xlink:href="#q" transform="matrix(1,0,0,1,2962.441913282788,-2978.2326657868384) translate(0 43.034722222222214)"/><use xlink:href="#r" transform="matrix(1,0,0,1,2962.441913282788,-2978.2326657868384) translate(65.94618055555556 43.034722222222214)"/><use xlink:href="#M" transform="matrix(1,0,0,1,2962.441913282788,-2978.2326657868384) translate(164.89583333333331 43.034722222222214)"/><use xlink:href="#N" transform="matrix(1,0,0,1,2962.441913282788,-2978.2326657868384) translate(257.45659722222223 43.034722222222214)"/><path d="M3752.06-3070.4v.02l1.97 15.6 1.27 15.1v.02l.6 14.38v13.54l-.5 12.53-.97 11.55v.02l-1.33 10.55v.02l-1.63 9.6v.02l-1.85 8.72v.02l-2.03 7.9-.02.02-2.16 7.16v.02l-2.26 6.5-2.34 5.9v.02l-2.4 5.36v.02l-2.42 4.9-2.46 4.46v.02l-2.48 4.08-2.5 3.75v.02l-2.5 3.44v.02l-2.5 3.16h-.02l-2.52 2.93-2.53 2.7h-.02l-2.55 2.5-2.56 2.3v.02h-.02l-2.57 2.12h-.02v.02l-2.6 1.97v.02l-2.64 1.83-2.68 1.7-2.7 1.57h-.02l-2.76 1.44h-.02l-2.8 1.33h-.02l-2.87 1.2h-.02l-2.93 1.1h-.02l-3.02 1h-.02l-3.1.87h-.02l-3.23.76h-.02l-3.34.64h-.02l-3.47.5h-.02l-3.6.4h-.02l-3.8.23-3.5.08v-.95l3.46-.08 3.77-.23 3.6-.38 3.44-.5 3.32-.64 3.18-.75 3.1-.86 3-1 2.9-1.08 2.86-1.2 2.8-1.3 2.72-1.43 2.68-1.56 2.65-1.68 2.6-1.82 2.58-1.95 2.56-2.13 2.54-2.3 2.52-2.46 2.5-2.66 2.5-2.9 2.5-3.14 2.48-3.42 2.47-3.72 2.46-4.06 2.45-4.44 2.4-4.87 2.4-5.35 2.32-5.88 2.25-6.48 2.15-7.15 2.02-7.88 1.84-8.7 1.6-9.58 1.34-10.54.96-11.5.53-12.53v-13.48l-.6-14.36-1.28-15.08-1.98-15.56-.22-1.28h.97zm-139-199.32h.02l3.95.58h.02l3.93.76h.02l3.92.92h.02l3.93 1.1h.02l3.93 1.3h.02l3.97 1.48h.02l4 1.7h.02l4.07 1.9 4.13 2.16 4.2 2.43v.02l4.26 2.7h.02l4.34 3.03h.02l4.43 3.38h.02l4.54 3.76 4.65 4.2h.02l4.76 4.68h.02l4.9 5.23v.02l5.02 5.8v.02l5.14 6.5h.02l5.25 7.23 5.36 8.06 5.4 8.95h.02v.02l5.44 9.9 5.4 10.92h.02v.02l5.32 11.94v.02l5.14 12.96v.02l4.85 13.92v.02l4.45 14.74v.02l3.95 15.36v.02l1.9 8.9h-.97l-1.85-8.7-3.93-15.34-4.44-14.72-4.84-13.9-5.14-12.94-5.3-11.93-5.4-10.9-5.43-9.87-5.4-8.9-5.33-8.04-5.24-7.2-5.12-6.47-5-5.8-4.88-5.2-4.75-4.66-4.63-4.18-4.52-3.74-4.42-3.36-4.32-3-4.23-2.7-4.16-2.4-4.1-2.14-4.03-1.9-4-1.68-3.94-1.47-3.93-1.27-3.9-1.1-3.9-.9-3.92-.76-3.92-.58-2.58-.27.1-.94z" stroke="#3a414a" stroke-width=".05" fill="#3a414a"/><path d="M3661.53-2872.72h-.53v-.94h.5z" fill="#3a414a"/><path stroke="#3a414a" stroke-width=".05" fill="#3a414a"/><path d="M3620.02-3278.63l-16.23 8.3 6.7.34-.04.96-6.72-.34 15.3 9.9-.5.8-17.5-11.32 18.55-9.48z" stroke="#3a414a" stroke-width=".05" fill="#3a414a"/><g><use xlink:href="#O" transform="matrix(1,0,0,1,3721.360689747862,-3093.0295338035885) translate(0 17.22222222222222)"/><use xlink:href="#P" transform="matrix(1,0,0,1,3721.360689747862,-3093.0295338035885) translate(19.626736111111114 17.22222222222222)"/><use xlink:href="#C" transform="matrix(1,0,0,1,3721.360689747862,-3093.0295338035885) translate(35.902777777777786 17.22222222222222)"/></g><path d="M2308-2833.2c-15.46 0-28 12.55-28 28v84c0 15.47 12.54 28 28 28h384c15.46 0 28-12.53 28-28v-84c0-15.45-12.54-28-28-28z" stroke="#000" stroke-width="2" fill="#fff"/><path d="M2280-2789.2h440" stroke="#000" stroke-width="2" fill="none"/><g><use xlink:href="#Q" transform="matrix(1,0,0,1,2368,-2833.1886737818886) translate(5.019748263888886 30.08376736111111)"/><use xlink:href="#R" transform="matrix(1,0,0,1,2368,-2833.1886737818886) translate(112.27886284722221 30.08376736111111)"/></g><g><use xlink:href="#S" transform="matrix(1,0,0,1,2324,-2773.1886737818886) translate(79.85199652777777 23.95095486111111)"/><use xlink:href="#c" transform="matrix(1,0,0,1,2324,-2773.1886737818886) translate(113.03342013888889 23.95095486111111)"/><use xlink:href="#j" transform="matrix(1,0,0,1,2324,-2773.1886737818886) translate(127.29123263888889 23.95095486111111)"/><use xlink:href="#k" transform="matrix(1,0,0,1,2324,-2773.1886737818886) translate(147.14800347222223 23.95095486111111)"/><use xlink:href="#T" transform="matrix(1,0,0,1,2324,-2773.1886737818886) translate(174.50260416666666 23.95095486111111)"/><use xlink:href="#U" transform="matrix(1,0,0,1,2324,-2773.1886737818886) translate(97.435546875 56.21657986111111)"/><use xlink:href="#V" transform="matrix(1,0,0,1,2324,-2773.1886737818886) translate(135.64084201388889 56.21657986111111)"/></g><path d="M2882-2633.2c-17.67 0-32 14.34-32 32v96c0 17.68 14.33 32 32 32h356c17.67 0 32-14.32 32-32v-96c0-17.66-14.33-32-32-32z" stroke="#000" stroke-width="2" fill="#fff"/><path d="M2850-2589.2h420" stroke="#000" stroke-width="2" fill="none"/><g><use xlink:href="#Q" transform="matrix(1,0,0,1,2934,-2633.1886737818886) translate(22.88042534722223 30.08376736111111)"/><use xlink:href="#W" transform="matrix(1,0,0,1,2934,-2633.1886737818886) translate(130.13953993055554 30.08376736111111)"/></g><g><use xlink:href="#X" transform="matrix(1,0,0,1,2892,-2573.1886737818886) translate(91.03602430555556 33.950954861111114)"/><use xlink:href="#Y" transform="matrix(1,0,0,1,2892,-2573.1886737818886) translate(151.84331597222223 33.950954861111114)"/><use xlink:href="#Z" transform="matrix(1,0,0,1,2892,-2573.1886737818886) translate(166.10112847222223 33.950954861111114)"/><use xlink:href="#aa" transform="matrix(1,0,0,1,2892,-2573.1886737818886) translate(200.72569444444446 33.950954861111114)"/><use xlink:href="#w" transform="matrix(1,0,0,1,2892,-2573.1886737818886) translate(78.32986111111111 66.21657986111111)"/><use xlink:href="#x" transform="matrix(1,0,0,1,2892,-2573.1886737818886) translate(119.51909722222223 66.21657986111111)"/><use xlink:href="#y" transform="matrix(1,0,0,1,2892,-2573.1886737818886) translate(139.37586805555554 66.21657986111111)"/><use xlink:href="#z" transform="matrix(1,0,0,1,2892,-2573.1886737818886) translate(166.73046875 66.21657986111111)"/></g><path d="M2569.77-2885.48l-15 5.2-10.32 4.07-7.63 3.38-5.9 2.92-4.68 2.57-3.8 2.3-3.15 2.1-2.65 1.9-2.23 1.77-1.9 1.65-1.66 1.53-1.43 1.46-1.24 1.38-1.1 1.3-.97 1.28-.84 1.22-.76 1.18-.67 1.15-.58 1.13-.53 1.1-.45 1.07-.2.54-.9-.34.2-.54h.02v-.02l.46-1.1.53-1.13.6-1.14v-.02h.02l.67-1.16v-.02l.77-1.2.86-1.25.98-1.3h.02l1.1-1.34h.02l1.26-1.4v-.02l1.45-1.48 1.67-1.57v-.02l1.94-1.66h.02v-.02l2.25-1.78h.02l2.64-1.93v-.02l3.18-2.1 3.84-2.33h.02l4.7-2.6h.02l5.9-2.92h.02l7.66-3.4v-.02l10.35-4.07h.02l15.03-5.2v-.02h.02l8.05-2.18h3.6zm205.7-89.35l-.02.62-.07 1.12v.02l-.12 1.1-.16 1.1-.2 1.1-.26 1.08-.3 1.1-.36 1.08v.02l-.4 1.08h-.02v.02l-.46 1.1v.02l-.53 1.1v.02l-.6 1.15v.02h-.02l-.67 1.17-.77 1.2v.02l-.86 1.24-.98 1.3h-.02l-1.1 1.34v.02h-.02l-1.26 1.4-1.45 1.48v.02l-1.67 1.56-1.94 1.67h-.02l-2.25 1.8h-.02l-2.64 1.93-3.18 2.1v.02l-3.84 2.3v.02h-.02l-4.7 2.58h-.02l-5.9 2.94h-.02l-7.66 3.4-10.35 4.1h-.02l-15.03 5.2h-.02l-26.2 7.86h-.02l-19.14 5.2h-3.6l22.48-6.12 26.2-7.83 15-5.2 10.33-4.08 7.63-3.4 5.9-2.9 4.68-2.58 3.8-2.3 3.15-2.1 2.65-1.9 2.23-1.78 1.9-1.64 1.66-1.55 1.43-1.46 1.24-1.38 1.1-1.33.97-1.26.84-1.2.76-1.2.67-1.14.58-1.12.53-1.1.45-1.08.4-1.06.34-1.06.3-1.05.24-1.06.2-1.06.16-1.06.1-1.07.08-1.1v-.6z" stroke="#3a414a" stroke-width=".05" fill="#3a414a"/><path d="M2775.46-2974.82l-.95-.02.03-.5h.94z" fill="#3a414a"/><path stroke="#3a414a" stroke-width=".05" fill="#3a414a"/><path d="M2500.03-2837l1.2-6.62.93.17-1.2 6.62 11.78-13.9.73.6-13.46 15.9-7.02-19.6.9-.33z" stroke="#3a414a" stroke-width=".05" fill="#3a414a"/><g><use xlink:href="#ab" transform="matrix(1,0,0,1,2490.822697080659,-2910.090098525802) translate(0 17.22222222222222)"/><use xlink:href="#r" transform="matrix(1,0,0,1,2490.822697080659,-2910.090098525802) translate(68.74131944444444 17.22222222222222)"/><use xlink:href="#ac" transform="matrix(1,0,0,1,2490.822697080659,-2910.090098525802) translate(167.69097222222223 17.22222222222222)"/></g><path d="M2801.06-2610.4l4.56 11.56 3.58 8.08 3.02 6.1 2.62 4.76 2.33 3.86 2.1 3.17 1.94 2.66 1.8 2.25 1.66 1.92 1.56 1.67 1.48 1.45 1.4 1.26 1.35 1.1 1.3 1 1.24.86 1.2.77 1.2.68 1.15.6 1.14.54 1.1.47 1.1.4-.33.9-1.1-.42h-.02l-1.14-.5-1.16-.54h-.02l-1.18-.63h-.02l-1.2-.7-1.24-.78h-.02l-1.27-.9h-.02l-1.3-1h-.02l-1.37-1.14h-.02l-1.43-1.3-1.5-1.47h-.02l-1.57-1.68h-.02v-.02l-1.67-1.94h-.02v-.02l-1.8-2.26v-.02l-1.95-2.68-2.13-3.2v-.02l-2.35-3.88-2.64-4.8v-.02l-3.03-6.1v-.02l-3.6-8.1v-.02l-4.58-11.6v-.02l-12-37.4h1zm-78.84-153.24h.02l1.2.08 1.17.12h.02l1.16.17h.02l1.13.22h.02l1.13.27h.02l1.13.32h.02l1.13.37v.02l1.15.42h.02l1.14.5 1.16.54h.02l1.18.63v.02h.02l1.2.7 1.24.78h.02l1.27.9h.02l1.3 1h.02l1.37 1.14h.02l1.43 1.3 1.5 1.47v.02h.02l1.57 1.68v.02h.02l1.67 1.94v.02h.02l1.8 2.27 1.95 2.7 2.13 3.2 2.35 3.9 2.64 4.8v.02l3.03 6.1v.02l3.6 8.1 4.58 11.6 6.95 20.13 5.5 17.15h-1l-5.4-16.85-6.94-20.1-4.56-11.56-3.58-8.1-3.02-6.07-2.62-4.78-2.33-3.86-2.1-3.17-1.94-2.67-1.8-2.25-1.66-1.93-1.56-1.67-1.48-1.45-1.4-1.27-1.35-1.1-1.3-1-1.24-.86-1.2-.77-1.2-.7-1.15-.6-1.14-.53-1.1-.47-1.13-.4-1.1-.38-1.1-.3-1.12-.26-1.12-.23-1.13-.16-1.14-.1-1.17-.1h-.7v-.95z" stroke="#3a414a" stroke-width=".05" fill="#3a414a"/><path d="M2721.53-2763.65l-.03.95h-.5v-.96z" fill="#3a414a"/><path stroke="#3a414a" stroke-width=".05" fill="#3a414a"/><path d="M2848.95-2553.2l-19.52 7.26-.33-.9 17.1-6.34-6.65-1.13.16-.94 6.64 1.12-14.04-11.62.6-.73z" stroke="#3a414a" stroke-width=".05" fill="#3a414a"/><g><use xlink:href="#O" transform="matrix(1,0,0,1,2749.2248459059165,-2669.0185646580917) translate(0 17.22222222222222)"/><use xlink:href="#ad" transform="matrix(1,0,0,1,2749.2248459059165,-2669.0185646580917) translate(19.626736111111114 17.22222222222222)"/><use xlink:href="#ae" transform="matrix(1,0,0,1,2749.2248459059165,-2669.0185646580917) translate(47.96875000000001 17.22222222222222)"/></g><path d="M2641.43-2546.1l10.4 4.9 11.58 4.85 12.9 4.8 14.4 4.67 16.12 4.5 18.07 4.22 20.2 3.85 22.56 3.32 24.96 2.6 27.26 1.72 28.63.6v.94l-28.65-.6h-.02l-27.28-1.7h-.02l-24.98-2.62h-.02l-22.57-3.33h-.02l-20.24-3.86h-.02l-18.1-4.24-16.15-4.5h-.02l-14.4-4.7h-.02l-12.9-4.8h-.02l-11.6-4.86-10.44-4.9v-.02h-.02l-9.4-4.92h-.02l-1.12-.65h1.94zm-97.5-134.68l.6 7.13.86 6.8 1.1 6.5 1.32 6.28 1.55 6.04 1.77 5.84 1.97 5.68 2.2 5.53 2.4 5.4 2.62 5.28 2.86 5.2 3.1 5.1 3.34 5.04 3.62 4.98 3.92 4.95 4.24 4.9 4.6 4.9 5 4.9 5.4 4.87 3.82 3.15h-1.5l-2.93-2.43h-.02l-5.44-4.9v-.02l-5-4.9h-.02l-4.62-4.9v-.02l-4.26-4.94h-.02l-3.93-4.97v-.02h-.02l-3.64-5v-.02l-3.37-5.07v-.02l-3.1-5.13h-.02l-2.86-5.22h-.02v-.02l-2.63-5.28v-.02l-2.42-5.4v-.02l-2.2-5.56-2-5.7v-.02l-1.77-5.87v-.02l-1.56-6.05v-.02l-1.34-6.28v-.02l-1.1-6.53v-.02l-.87-6.83v-.02l-.6-7.14v-.04l-.1-2 .95-.03z" stroke="#3a414a" stroke-width=".05" fill="#3a414a"/><path d="M2849-2506.06v.9l-.53.04.02-.95z" fill="#3a414a"/><path stroke="#3a414a" stroke-width=".05" fill="#3a414a"/><path d="M2554.03-2674.4l-.8.5-9.57-15.53.2 6.72-.95.02-.2-6.72-8.64 16.04-.84-.45 9.9-18.34z" stroke="#3a414a" stroke-width=".05" fill="#3a414a"/><g><use xlink:href="#A" transform="matrix(1,0,0,1,2586.0131527852404,-2572.329849244191) translate(0 17.22222222222222)"/><use xlink:href="#af" transform="matrix(1,0,0,1,2586.0131527852404,-2572.329849244191) translate(15.416666666666668 17.22222222222222)"/><use xlink:href="#ae" transform="matrix(1,0,0,1,2586.0131527852404,-2572.329849244191) translate(31.692708333333336 17.22222222222222)"/></g><path d="M3051.45-2696.8l2.35 8.4 2 8.46v.02l1.63 8.57v.02l1.3 8.77v.02l.95 9.05v.02l.6 9.4v.02l.18 9.36-.95.02-.18-9.34-.6-9.38-.94-9.03-1.3-8.75-1.62-8.55-1.98-8.43-2.33-8.37-1.93-5.9 1-.02zm-145.74-264.76l1.84 9.6 2.2 9.4 2.6 9.28 3 9.26 3.48 9.33 4 9.52 4.65 9.87 5.47 10.45 6.6 11.43 8.38 13.17 58.63 78.67 11.58 16.62 8 12.58v.02l1.5 2.6h-1.1l-1.2-2.12-7.98-12.55-11.57-16.6-58.63-78.66h-.02v-.02l-8.4-13.2v-.02l-6.62-11.44v-.02l-5.48-10.47v-.02l-4.66-9.88v-.02l-4.02-9.53v-.02l-3.5-9.35v-.02l-3-9.27-2.6-9.3v-.02h-.02l-2.2-9.43v-.02l-1.84-9.62-.98-6.63.94-.14z" stroke="#3a414a" stroke-width=".05" fill="#3a414a"/><path d="M3060.47-2634.2h-.94l-.02-.5.96-.02z" fill="#3a414a"/><path stroke="#3a414a" stroke-width=".05" fill="#3a414a"/><path d="M2915.67-2960.82l-.76.57-11-14.53.84 6.68-.94.12-.84-6.68-7.07 16.8-.9-.37 8.1-19.2z" stroke="#3a414a" stroke-width=".05" fill="#3a414a"/><g><use xlink:href="#ag" transform="matrix(1,0,0,1,2896.2657464185213,-2749.7681016589922) translate(0 17.22222222222222)"/><use xlink:href="#ah" transform="matrix(1,0,0,1,2896.2657464185213,-2749.7681016589922) translate(61.47569444444444 17.22222222222222)"/><use xlink:href="#ai" transform="matrix(1,0,0,1,2896.2657464185213,-2749.7681016589922) translate(74.00173611111111 17.22222222222222)"/><use xlink:href="#aj" transform="matrix(1,0,0,1,2896.2657464185213,-2749.7681016589922) translate(84.72222222222223 17.22222222222222)"/><use xlink:href="#ak" transform="matrix(1,0,0,1,2896.2657464185213,-2749.7681016589922) translate(113.06423611111111 17.22222222222222)"/><use xlink:href="#al" transform="matrix(1,0,0,1,2896.2657464185213,-2749.7681016589922) translate(147.03993055555557 17.22222222222222)"/><use xlink:href="#am" transform="matrix(1,0,0,1,2896.2657464185213,-2749.7681016589922) translate(158.15104166666669 17.22222222222222)"/><use xlink:href="#an" transform="matrix(1,0,0,1,2896.2657464185213,-2749.7681016589922) translate(228.99305555555557 17.22222222222222)"/><use xlink:href="#ao" transform="matrix(1,0,0,1,2896.2657464185213,-2749.7681016589922) translate(245.26909722222223 17.22222222222222)"/><use xlink:href="#ap" transform="matrix(1,0,0,1,2896.2657464185213,-2749.7681016589922) translate(0 43.034722222222214)"/><use xlink:href="#aq" transform="matrix(1,0,0,1,2896.2657464185213,-2749.7681016589922) translate(68.74131944444444 43.034722222222214)"/><use xlink:href="#ar" transform="matrix(1,0,0,1,2896.2657464185213,-2749.7681016589922) translate(167.69097222222223 43.034722222222214)"/><use xlink:href="#as" transform="matrix(1,0,0,1,2896.2657464185213,-2749.7681016589922) translate(260.25173611111114 43.034722222222214)"/></g><defs><path d="M440-1490V0H135v-1490h305" id="at"/><path d="M659 0H135v-1490h529c448 0 721 280 721 744 0 466-273 746-726 746zM440-263h204c287 0 437-148 437-483 0-333-150-481-435-481H440v964" id="au"/><path d="M135 0v-1490h305v1237h643V0H135" id="av"/><path d="M135 0v-1490h997v253H440v360h640v249H440v375h694V0H135" id="aw"/><g id="a"><use transform="matrix(0.010850694444444444,0,0,0.010850694444444444,0,0)" xlink:href="#at"/><use transform="matrix(0.010850694444444444,0,0,0.010850694444444444,6.239149305555555,0)" xlink:href="#au"/><use transform="matrix(0.010850694444444444,0,0,0.010850694444444444,22.28732638888889,0)" xlink:href="#av"/><use transform="matrix(0.010850694444444444,0,0,0.010850694444444444,34.85243055555555,0)" xlink:href="#aw"/></g><path d="M628 24c-324 0-524-230-524-574 0-343 198-582 503-582 237 0 487 146 487 559v75H286c9 234 145 362 343 362 132 0 231-58 273-172l174 48C1024-91 857 24 628 24zM287-650h624c-17-190-120-322-304-322-192 0-309 151-320 322" id="ax"/><path d="M338-670V0H158v-1118h173l1 207c72-158 192-221 342-221 226 0 378 139 378 422V0H872v-695c0-172-96-275-252-275-161 0-282 109-282 300" id="ay"/><path d="M598-1118v154H368v674c0 100 37 144 132 144 23 0 62-6 92-12L629-6c-37 13-88 20-134 20-193 0-307-107-307-290v-688H20v-154h168v-266h180v266h230" id="az"/><path d="M158 0v-1118h174v172h12c41-113 157-188 290-188 26 0 70 2 91 3v181c-11-2-60-10-108-10-161 0-279 109-279 260V0H158" id="aA"/><path d="M140 405l46-156c120 36 205 19 263-150l32-93L54-1118h197c107 313 237 620 324 950 87-331 219-637 326-950h196L606 167c-68 178-176 259-334 259-64 0-113-12-132-21" id="aB"/><g id="b"><use transform="matrix(0.010850694444444444,0,0,0.010850694444444444,0,0)" xlink:href="#ax"/><use transform="matrix(0.010850694444444444,0,0,0.010850694444444444,12.955729166666666,0)" xlink:href="#ay"/><use transform="matrix(0.010850694444444444,0,0,0.010850694444444444,26.085069444444443,0)" xlink:href="#az"/><use transform="matrix(0.010850694444444444,0,0,0.010850694444444444,33.35503472222222,0)" xlink:href="#aA"/><use transform="matrix(0.010850694444444444,0,0,0.010850694444444444,42.06814236111111,0)" xlink:href="#aB"/></g><path d="M692-1560L212 224H46l480-1784h166" id="aC"/><use transform="matrix(0.010850694444444444,0,0,0.010850694444444444,0,0)" xlink:href="#aC" id="c"/><path d="M538 24C308 24 148-78 108-271l171-41c32 123 123 178 257 178 156 0 256-77 256-169 0-77-54-128-164-154l-186-44c-203-48-300-148-300-305 0-192 176-326 414-326 230 0 351 112 402 269l-163 42c-31-80-94-158-238-158-133 0-233 69-233 162 0 83 57 129 188 160l169 40c203 48 298 149 298 302 0 196-179 339-441 339" id="aD"/><g id="d"><use transform="matrix(0.010850694444444444,0,0,0.010850694444444444,0,0)" xlink:href="#aD"/><use transform="matrix(0.010850694444444444,0,0,0.010850694444444444,11.729600694444445,0)" xlink:href="#ax"/><use transform="matrix(0.010850694444444444,0,0,0.010850694444444444,24.68532986111111,0)" xlink:href="#az"/></g><path d="M577 24c-279 0-473-224-473-580 0-354 195-576 474-576 218 0 287 134 324 193h14v-551h180V0H922v-173h-20C865-111 790 24 577 24zm27-161c203 0 314-172 314-421 0-247-108-413-314-413-212 0-317 181-317 413 0 235 108 421 317 421" id="aE"/><path d="M158 0v-1118h180V0H158zm91-1301c-68 0-125-53-125-119s57-119 125-119c69 0 126 53 126 119s-57 119-126 119" id="aF"/><path d="M471 26C259 26 90-98 90-318c0-256 228-303 435-329 202-27 287-16 287-108 0-139-79-219-234-219-161 0-248 86-283 164l-173-57c86-203 278-265 451-265 150 0 419 46 419 395V0H815v-152h-12C765-73 660 26 471 26zm31-159c199 0 310-134 310-271v-155c-30 35-226 55-295 64-131 17-246 59-246 186 0 116 97 176 231 176" id="aG"/><path d="M613 24c-304 0-509-231-509-576 0-350 205-580 509-580 216 0 392 114 453 309l-173 49c-33-115-133-197-280-197-223 0-326 196-326 419 0 220 103 415 326 415 150 0 252-85 285-206l172 49C1010-95 832 24 613 24" id="aH"/><path d="M218-607c0-325 108-727 258-974h175c-155 315-250 682-250 974 0 265 78 531 250 886H476C306-10 218-315 218-607" id="aI"/><path d="M798-719v166H144v-166h654" id="aJ"/><path d="M653-1490V0H466v-1314h-10L96-1047v-204l324-239h233" id="aK"/><path d="M96 279C273-86 346-350 346-607c0-292-95-659-250-974h175c150 246 258 650 258 974 0 297-91 602-258 886H96" id="aL"/><g id="e"><use transform="matrix(0.010850694444444444,0,0,0.010850694444444444,0,0)" xlink:href="#aE"/><use transform="matrix(0.010850694444444444,0,0,0.010850694444444444,13.606770833333332,0)" xlink:href="#aF"/><use transform="matrix(0.010850694444444444,0,0,0.010850694444444444,18.98871527777778,0)" xlink:href="#aD"/><use transform="matrix(0.010850694444444444,0,0,0.010850694444444444,30.71831597222222,0)" xlink:href="#az"/><use transform="matrix(0.010850694444444444,0,0,0.010850694444444444,38.09678819444444,0)" xlink:href="#aG"/><use transform="matrix(0.010850694444444444,0,0,0.010850694444444444,50.57508680555556,0)" xlink:href="#ay"/><use transform="matrix(0.010850694444444444,0,0,0.010850694444444444,63.70442708333333,0)" xlink:href="#aH"/><use transform="matrix(0.010850694444444444,0,0,0.010850694444444444,76.39973958333334,0)" xlink:href="#ax"/><use transform="matrix(0.010850694444444444,0,0,0.010850694444444444,89.35546875000001,0)" xlink:href="#aI"/><use transform="matrix(0.010850694444444444,0,0,0.010850694444444444,97.46093750000001,0)" xlink:href="#aJ"/><use transform="matrix(0.010850694444444444,0,0,0.010850694444444444,107.68229166666669,0)" xlink:href="#aK"/><use transform="matrix(0.010850694444444444,0,0,0.010850694444444444,116.7209201388889,0)" xlink:href="#aL"/></g><path d="M645 0H180v-1490h484c435 0 692 280 692 742 0 466-257 748-711 748zM370-168h263c363 0 539-218 539-580 0-358-176-574-521-574H370v1154" id="aM"/><path d="M98-1322v-168h1126v168H757V0H567v-1322H98" id="aN"/><path d="M158 0v-1490h180v865h22l478-493h223L593-638 1096 0H865L456-523 338-412V0H158" id="aO"/><g id="f"><use transform="matrix(0.010850694444444444,0,0,0.010850694444444444,0,0)" xlink:href="#aM"/><use transform="matrix(0.010850694444444444,0,0,0.010850694444444444,16.03732638888889,0)" xlink:href="#aF"/><use transform="matrix(0.010850694444444444,0,0,0.010850694444444444,21.419270833333336,0)" xlink:href="#aD"/><use transform="matrix(0.010850694444444444,0,0,0.010850694444444444,33.14887152777778,0)" xlink:href="#az"/><use transform="matrix(0.010850694444444444,0,0,0.010850694444444444,40.52734375,0)" xlink:href="#aG"/><use transform="matrix(0.010850694444444444,0,0,0.010850694444444444,53.00564236111112,0)" xlink:href="#ay"/><use transform="matrix(0.010850694444444444,0,0,0.010850694444444444,66.13498263888889,0)" xlink:href="#aH"/><use transform="matrix(0.010850694444444444,0,0,0.010850694444444444,78.83029513888889,0)" xlink:href="#ax"/><use transform="matrix(0.010850694444444444,0,0,0.010850694444444444,90.04991319444444,0)" xlink:href="#aN"/><use transform="matrix(0.010850694444444444,0,0,0.010850694444444444,102.76692708333333,0)" xlink:href="#aG"/><use transform="matrix(0.010850694444444444,0,0,0.010850694444444444,115.24522569444444,0)" xlink:href="#aD"/><use transform="matrix(0.010850694444444444,0,0,0.010850694444444444,126.97482638888889,0)" xlink:href="#aO"/></g><path d="M75-1237v-253h1217v253H837V0H531v-1237H75" id="aP"/><path d="M49 0l509-1490h400L1480 0h-339l-115-346H497L386 0H49zm524-585h374c-75-213-124-402-192-666-66 268-110 453-182 666" id="aQ"/><path d="M135 0v-1490h305c1 251 0 501-5 746 157-254 405-512 598-746h373L849-845 1422 0h-361L638-644 440-426V0H135" id="aR"/><path d="M789 20C394 20 94-260 94-744c0-487 300-766 695-766s695 279 695 766c0 485-300 764-695 764zm0-271c231 0 385-174 385-493 0-321-154-495-385-495s-385 175-385 495c0 319 154 493 385 493" id="aS"/><path d="M135 0v-1490h980v253H440v416h609v249H440V0H135" id="aT"/><g id="g"><use transform="matrix(0.010850694444444444,0,0,0.010850694444444444,0,0)" xlink:href="#aP"/><use transform="matrix(0.010850694444444444,0,0,0.010850694444444444,12.858072916666666,0)" xlink:href="#aQ"/><use transform="matrix(0.010850694444444444,0,0,0.010850694444444444,29.44878472222222,0)" xlink:href="#aR"/><use transform="matrix(0.010850694444444444,0,0,0.010850694444444444,45.431857638888886,0)" xlink:href="#aw"/><use transform="matrix(0.010850694444444444,0,0,0.010850694444444444,58.93012152777778,0)" xlink:href="#aS"/><use transform="matrix(0.010850694444444444,0,0,0.010850694444444444,76.0525173611111,0)" xlink:href="#aT"/><use transform="matrix(0.010850694444444444,0,0,0.010850694444444444,89.09505208333331,0)" xlink:href="#aT"/></g><path d="M135 0v-1490h468l242 684c30 94 76 293 111 455 34-161 80-360 110-455l238-684h470V0h-307c0-447-3-765 11-1227-122 503-246 788-395 1227H826C676-435 552-717 427-1215c15 453 11 775 11 1215H135" id="aU"/><path d="M135 0v-1490h340l471 754c59 97 122 210 187 365-32-387-14-721-19-1119h312V0h-341C855-382 627-689 427-1113c32 420 16 695 20 1113H135" id="aV"/><path d="M135 0v-1490h581c339 0 533 192 533 485 0 204-94 351-264 424L1302 0H964L680-532H440V0H135zm305-779h220c186 0 274-77 274-226 0-150-88-233-275-233H440v459" id="aW"/><path d="M795 20C377 20 94-272 94-743c0-483 302-767 694-767 335 0 593 206 635 500h-310c-42-142-154-229-320-229-230 0-389 177-389 493s154 495 393 495c212 0 340-120 345-311H818v-232h620v186c0 391-269 628-643 628" id="aX"/><g id="h"><use transform="matrix(0.010850694444444444,0,0,0.010850694444444444,0,0)" xlink:href="#aU"/><use transform="matrix(0.010850694444444444,0,0,0.010850694444444444,20.703125,0)" xlink:href="#aS"/><use transform="matrix(0.010850694444444444,0,0,0.010850694444444444,37.82552083333333,0)" xlink:href="#aV"/><use transform="matrix(0.010850694444444444,0,0,0.010850694444444444,54.76345486111111,0)" xlink:href="#at"/><use transform="matrix(0.010850694444444444,0,0,0.010850694444444444,61.002604166666664,0)" xlink:href="#aP"/><use transform="matrix(0.010850694444444444,0,0,0.010850694444444444,75.13020833333333,0)" xlink:href="#aS"/><use transform="matrix(0.010850694444444444,0,0,0.010850694444444444,92.25260416666666,0)" xlink:href="#aW"/><use transform="matrix(0.010850694444444444,0,0,0.010850694444444444,106.84678819444441,0)" xlink:href="#at"/><use transform="matrix(0.010850694444444444,0,0,0.010850694444444444,113.08593749999997,0)" xlink:href="#aV"/><use transform="matrix(0.010850694444444444,0,0,0.010850694444444444,130.02387152777777,0)" xlink:href="#aX"/></g><path d="M613 24c-304 0-509-231-509-576 0-350 205-580 509-580 305 0 511 230 511 580 0 345-206 576-511 576zm0-161c226 0 329-195 329-415 0-222-103-419-329-419-223 0-326 196-326 419 0 220 103 415 326 415" id="aY"/><g id="i"><use transform="matrix(0.010850694444444444,0,0,0.010850694444444444,0,0)" xlink:href="#aE"/><use transform="matrix(0.010850694444444444,0,0,0.010850694444444444,13.606770833333332,0)" xlink:href="#aY"/><use transform="matrix(0.010850694444444444,0,0,0.010850694444444444,26.931423611111104,0)" xlink:href="#aC"/></g><use transform="matrix(0.010850694444444444,0,0,0.010850694444444444,0,0)" xlink:href="#aE" id="j"/><path d="M295 13c-75 0-135-60-135-135s60-135 135-135 135 60 135 135S370 13 295 13zm0-809c-75 0-135-60-135-135s60-135 135-135 135 60 135 135-60 135-135 135" id="aZ"/><path d="M226-283v-166h904v166H226zm0-434v-166h904v166H226" id="ba"/><g id="k"><use transform="matrix(0.010850694444444444,0,0,0.010850694444444444,0,0)" xlink:href="#aZ"/><use transform="matrix(0.010850694444444444,0,0,0.010850694444444444,6.401909722222222,0)" xlink:href="#ba"/></g><path d="M158 0v-1118h175l1 205c55-151 181-225 313-225 147 0 245 90 285 228 53-141 190-228 352-228 194 0 352 125 352 384V0h-181v-749c0-161-105-225-225-225-151 0-243 103-243 244V0H807v-767c0-124-93-207-219-207-131 0-250 92-250 270V0H158" id="bb"/><path d="M537 14c-226 0-379-139-379-422v-710h180v695c0 172 97 275 253 275 160 0 281-109 281-300v-670h181V0H879v-209C806-46 684 14 537 14" id="bc"/><path d="M128 359l88-567h206L266 359H128zM323-796c-75 0-135-60-135-135s60-135 135-135 135 60 135 135-60 135-135 135" id="bd"/><g id="l"><use transform="matrix(0.010850694444444444,0,0,0.010850694444444444,0,0)" xlink:href="#bb"/><use transform="matrix(0.010850694444444444,0,0,0.010850694444444444,19.466145833333332,0)" xlink:href="#ax"/><use transform="matrix(0.010850694444444444,0,0,0.010850694444444444,32.638888888888886,0)" xlink:href="#aG"/><use transform="matrix(0.010850694444444444,0,0,0.010850694444444444,45.1171875,0)" xlink:href="#aD"/><use transform="matrix(0.010850694444444444,0,0,0.010850694444444444,56.84678819444444,0)" xlink:href="#bc"/><use transform="matrix(0.010850694444444444,0,0,0.010850694444444444,69.98697916666666,0)" xlink:href="#aA"/><use transform="matrix(0.010850694444444444,0,0,0.010850694444444444,77.98394097222221,0)" xlink:href="#ax"/><use transform="matrix(0.010850694444444444,0,0,0.010850694444444444,90.93967013888889,0)" xlink:href="#aI"/><use transform="matrix(0.010850694444444444,0,0,0.010850694444444444,99.04513888888889,0)" xlink:href="#aL"/><use transform="matrix(0.010850694444444444,0,0,0.010850694444444444,107.15060763888889,0)" xlink:href="#bd"/></g><g id="m"><use transform="matrix(0.010850694444444444,0,0,0.010850694444444444,0,0)" xlink:href="#aD"/><use transform="matrix(0.010850694444444444,0,0,0.010850694444444444,11.729600694444445,0)" xlink:href="#ax"/><use transform="matrix(0.010850694444444444,0,0,0.010850694444444444,24.68532986111111,0)" xlink:href="#ay"/><use transform="matrix(0.010850694444444444,0,0,0.010850694444444444,37.814670138888886,0)" xlink:href="#aE"/></g><g id="n"><use transform="matrix(0.010850694444444444,0,0,0.010850694444444444,0,0)" xlink:href="#aE"/><use transform="matrix(0.010850694444444444,0,0,0.010850694444444444,13.606770833333332,0)" xlink:href="#aF"/><use transform="matrix(0.010850694444444444,0,0,0.010850694444444444,18.98871527777778,0)" xlink:href="#aD"/><use transform="matrix(0.010850694444444444,0,0,0.010850694444444444,30.71831597222222,0)" xlink:href="#az"/><use transform="matrix(0.010850694444444444,0,0,0.010850694444444444,38.09678819444444,0)" xlink:href="#aG"/><use transform="matrix(0.010850694444444444,0,0,0.010850694444444444,50.57508680555556,0)" xlink:href="#ay"/><use transform="matrix(0.010850694444444444,0,0,0.010850694444444444,63.70442708333333,0)" xlink:href="#aH"/><use transform="matrix(0.010850694444444444,0,0,0.010850694444444444,76.39973958333334,0)" xlink:href="#ax"/></g><g id="o"><use transform="matrix(0.010850694444444444,0,0,0.010850694444444444,0,0)" xlink:href="#az"/><use transform="matrix(0.010850694444444444,0,0,0.010850694444444444,7.052951388888888,0)" xlink:href="#aY"/></g><path d="M180 0v-1490h510c348 0 508 194 508 460 0 198-88 351-276 417L1256 0h-220L726-579c-117 2-238 0-356 1V0H180zm190-747h312c235 0 327-108 327-283 0-177-92-293-329-293H370v576" id="be"/><path d="M763 24c-353 0-583-224-583-531v-983h190v968c0 214 149 370 393 370 243 0 391-156 391-370v-968h190v983c0 307-230 531-581 531" id="bf"/><g id="p"><use transform="matrix(0.010850694444444444,0,0,0.010850694444444444,0,0)" xlink:href="#aM"/><use transform="matrix(0.010850694444444444,0,0,0.010850694444444444,16.03732638888889,0)" xlink:href="#be"/><use transform="matrix(0.010850694444444444,0,0,0.010850694444444444,30.338541666666664,0)" xlink:href="#bf"/></g><path fill="#333" d="M683-1118v229H474v562c0 71 29 104 102 104 23 0 73-7 95-13l43 225C647 9 580 16 520 16 296 16 174-96 174-301v-588H20v-229h154v-266h300v266h209" id="bg"/><path fill="#333" d="M440 22C227 22 68-92 68-313c0-250 202-322 422-343 195-21 271-24 271-105 0-95-63-149-175-149-116 0-187 57-211 129l-275-46c57-194 237-305 487-305 240 0 474 108 474 379V0H777v-155h-10C713-51 605 22 440 22zm85-211c140 0 238-93 238-211v-121c-37 26-156 42-222 51-111 16-185 59-185 149 0 87 70 132 169 132" id="bh"/><path fill="#333" d="M128 0v-1490h300v802h17l366-430h347L740-633 1179 0H826L514-456l-86 97V0H128" id="bi"/><path fill="#333" d="M633 22C291 22 81-200 81-553c0-345 210-579 537-579 292 0 525 185 525 567v84H378c7 183 109 277 260 277 105 0 184-46 216-132l272 51C1071-99 893 22 633 22zM380-669h474c-15-146-94-237-233-237-143 0-229 99-241 237" id="bj"/><path fill="#333" d="M628 22C291 22 81-210 81-554c0-346 210-578 547-578 336 0 547 232 547 578 0 344-211 576-547 576zm0-236c160 0 242-146 242-341 0-197-82-341-242-341S387-753 387-555c0 195 81 341 241 341" id="bk"/><path fill="#333" d="M750-1118v229H516V0H217v-889H20v-229h197v-86c0-238 156-356 363-356 94 0 178 20 215 31l-54 226c-25-7-61-15-100-15-123-3-131 84-125 200h234" id="bl"/><g id="q"><use transform="matrix(0.008680555555555556,0,0,0.008680555555555556,0,0)" xlink:href="#bg"/><use transform="matrix(0.008680555555555556,0,0,0.008680555555555556,6.597222222222222,0)" xlink:href="#bh"/><use transform="matrix(0.008680555555555556,0,0,0.008680555555555556,16.91840277777778,0)" xlink:href="#bi"/><use transform="matrix(0.008680555555555556,0,0,0.008680555555555556,26.831597222222218,0)" xlink:href="#bj"/><use transform="matrix(0.008680555555555556,0,0,0.008680555555555556,37.421875,0)" xlink:href="#bk"/><use transform="matrix(0.008680555555555556,0,0,0.008680555555555556,48.32465277777778,0)" xlink:href="#bl"/><use transform="matrix(0.008680555555555556,0,0,0.008680555555555556,54.661458333333336,0)" xlink:href="#bl"/></g><path fill="#333" d="M128 0v-1118h278l12 217c60-163 185-234 319-234 143 0 236 81 288 251 63-172 205-251 359-251 205 0 357 138 357 381V0h-301v-697c0-126-76-187-177-187-114 0-184 79-184 196V0H789v-705c0-109-72-179-174-179-106 0-187 74-187 208V0H128" id="bm"/><path fill="#333" d="M428-647V0H128v-1118h283l4 231c63-156 176-245 348-245 232 0 384 159 384 421V0H847v-659c0-139-76-222-202-222-128 0-217 86-217 234" id="bn"/><path fill="#333" d="M128 0v-1118h300V0H128zm150-1264c-91 0-165-68-165-154 0-85 74-154 165-154 90 0 165 69 165 154 0 86-75 154-165 154" id="bo"/><path fill="#333" d="M128 0v-1118h290v195h12c54-169 184-238 367-200v268c-27-8-86-15-130-15-138 0-239 95-239 234V0H128" id="bp"/><path fill="#333" d="M625 442c-280 0-454-114-503-274l258-72c28 63 97 128 243 128 153 0 246-69 246-216v-206h-23C805-108 717-16 536-16 284-16 81-191 81-561c0-378 208-571 456-571 188 0 280 113 321 202h13v-188h295V-9c0 303-226 451-541 451zm5-686c153 0 240-119 240-319 0-198-86-329-240-329-158 0-241 137-241 329 0 195 85 319 241 319" id="bq"/><g id="r"><use transform="matrix(0.008680555555555556,0,0,0.008680555555555556,0,0)" xlink:href="#bm"/><use transform="matrix(0.008680555555555556,0,0,0.008680555555555556,16.223958333333336,0)" xlink:href="#bk"/><use transform="matrix(0.008680555555555556,0,0,0.008680555555555556,27.12673611111111,0)" xlink:href="#bn"/><use transform="matrix(0.008680555555555556,0,0,0.008680555555555556,38.19444444444444,0)" xlink:href="#bo"/><use transform="matrix(0.008680555555555556,0,0,0.008680555555555556,43.012152777777786,0)" xlink:href="#bg"/><use transform="matrix(0.008680555555555556,0,0,0.008680555555555556,49.348958333333336,0)" xlink:href="#bk"/><use transform="matrix(0.008680555555555556,0,0,0.008680555555555556,60.251736111111114,0)" xlink:href="#bp"/><use transform="matrix(0.008680555555555556,0,0,0.008680555555555556,67.62152777777779,0)" xlink:href="#bo"/><use transform="matrix(0.008680555555555556,0,0,0.008680555555555556,72.43923611111111,0)" xlink:href="#bn"/><use transform="matrix(0.008680555555555556,0,0,0.008680555555555556,83.50694444444444,0)" xlink:href="#bq"/></g><path fill="#333" d="M1163 418H863v-597h-10C812-89 719 19 537 19 279 19 81-185 81-557c0-382 206-575 454-575 190 0 278 113 318 202h15v-188h295V418zM629-222c153 0 240-134 240-336 0-203-86-334-240-334-158 0-240 138-240 334 0 197 84 336 240 336" id="br"/><path fill="#333" d="M513 14c-232 0-385-159-385-421v-711h300v659c0 139 76 222 202 222 127 0 217-86 217-234v-647h301V0H864l-4-232C797-74 683 14 513 14" id="bs"/><path fill="#333" d="M572 22C302 22 117-98 78-306l279-48c29 105 101 156 224 156 114 0 185-48 185-115 0-118-228-130-337-155-215-49-322-150-322-317 0-215 187-347 470-347 265 0 424 116 466 298l-266 47c-24-76-87-130-196-130-98 0-174 46-174 113 0 56 38 95 144 117l201 40c216 44 320 143 320 302 0 220-207 367-500 367" id="bt"/><path fill="#333" d="M537 19C279 19 81-185 81-557c0-382 206-575 454-575 190 0 278 113 318 202h10v-560h300V0H868v-179h-15C812-89 719 19 537 19zm92-241c153 0 240-134 240-336 0-203-86-334-240-334-158 0-240 138-240 334 0 197 84 336 240 336" id="bu"/><g id="s"><use transform="matrix(0.008680555555555556,0,0,0.008680555555555556,0,0)" xlink:href="#bp"/><use transform="matrix(0.008680555555555556,0,0,0.008680555555555556,6.805555555555556,0)" xlink:href="#bj"/><use transform="matrix(0.008680555555555556,0,0,0.008680555555555556,17.395833333333336,0)" xlink:href="#br"/><use transform="matrix(0.008680555555555556,0,0,0.008680555555555556,28.602430555555557,0)" xlink:href="#bs"/><use transform="matrix(0.008680555555555556,0,0,0.008680555555555556,39.67013888888889,0)" xlink:href="#bt"/><use transform="matrix(0.008680555555555556,0,0,0.008680555555555556,49.626736111111114,0)" xlink:href="#bg"/><use transform="matrix(0.008680555555555556,0,0,0.008680555555555556,55.963541666666664,0)" xlink:href="#bj"/><use transform="matrix(0.008680555555555556,0,0,0.008680555555555556,66.55381944444444,0)" xlink:href="#bu"/></g><path d="M449 0L49-1490h333c89 395 194 758 253 1185 65-426 176-790 269-1185h317c93 394 201 758 268 1181 60-425 164-788 253-1181h334L1675 0h-348c-90-376-204-711-266-1118C1004-714 886-373 798 0H449" id="bv"/><g id="t"><use transform="matrix(0.010850694444444444,0,0,0.010850694444444444,0,0)" xlink:href="#bv"/><use transform="matrix(0.010850694444444444,0,0,0.010850694444444444,21.46267361111111,0)" xlink:href="#aQ"/><use transform="matrix(0.010850694444444444,0,0,0.010850694444444444,38.053385416666664,0)" xlink:href="#at"/><use transform="matrix(0.010850694444444444,0,0,0.010850694444444444,44.29253472222222,0)" xlink:href="#aP"/><use transform="matrix(0.010850694444444444,0,0,0.010850694444444444,59.12543402777778,0)" xlink:href="#at"/><use transform="matrix(0.010850694444444444,0,0,0.010850694444444444,65.36458333333333,0)" xlink:href="#aV"/><use transform="matrix(0.010850694444444444,0,0,0.010850694444444444,82.30251736111111,0)" xlink:href="#aX"/></g><use transform="matrix(0.010850694444444444,0,0,0.010850694444444444,0,0)" xlink:href="#az" id="u"/><path d="M409 0L70-1118h191c89 329 165 560 243 925 75-353 154-601 240-925h192c85 325 161 564 235 922 77-354 157-598 244-922h191L1267 0h-179c-86-307-176-590-250-913C763-588 675-308 588 0H409" id="bw"/><g id="v"><use transform="matrix(0.010850694444444444,0,0,0.010850694444444444,0,0)" xlink:href="#ay"/><use transform="matrix(0.010850694444444444,0,0,0.010850694444444444,13.129340277777777,0)" xlink:href="#aY"/><use transform="matrix(0.010850694444444444,0,0,0.010850694444444444,26.052517361111104,0)" xlink:href="#bw"/></g><g id="w"><use transform="matrix(0.010850694444444444,0,0,0.010850694444444444,0,0)" xlink:href="#aE"/><use transform="matrix(0.010850694444444444,0,0,0.010850694444444444,13.606770833333332,0)" xlink:href="#aY"/><use transform="matrix(0.010850694444444444,0,0,0.010850694444444444,26.931423611111104,0)" xlink:href="#aC"/></g><use transform="matrix(0.010850694444444444,0,0,0.010850694444444444,0,0)" xlink:href="#aE" id="x"/><g id="y"><use transform="matrix(0.010850694444444444,0,0,0.010850694444444444,0,0)" xlink:href="#aZ"/><use transform="matrix(0.010850694444444444,0,0,0.010850694444444444,6.401909722222222,0)" xlink:href="#ba"/></g><g id="z"><use transform="matrix(0.010850694444444444,0,0,0.010850694444444444,0,0)" xlink:href="#bb"/><use transform="matrix(0.010850694444444444,0,0,0.010850694444444444,19.466145833333332,0)" xlink:href="#ax"/><use transform="matrix(0.010850694444444444,0,0,0.010850694444444444,32.638888888888886,0)" xlink:href="#aG"/><use transform="matrix(0.010850694444444444,0,0,0.010850694444444444,45.1171875,0)" xlink:href="#aD"/><use transform="matrix(0.010850694444444444,0,0,0.010850694444444444,56.84678819444444,0)" xlink:href="#bc"/><use transform="matrix(0.010850694444444444,0,0,0.010850694444444444,69.98697916666666,0)" xlink:href="#aA"/><use transform="matrix(0.010850694444444444,0,0,0.010850694444444444,77.98394097222221,0)" xlink:href="#ax"/></g><use transform="matrix(0.008680555555555556,0,0,0.008680555555555556,0,0)" xlink:href="#bu" id="A"/><path fill="#333" d="M1224-471L205-19v-287l694-281v-14L205-883v-289l1019 454v247" id="bx"/><path fill="#333" d="M197-230v-252h997v252H197zm0-479v-251h997v251H197" id="by"/><g id="B"><use transform="matrix(0.008680555555555556,0,0,0.008680555555555556,0,0)" xlink:href="#bx"/><use transform="matrix(0.008680555555555556,0,0,0.008680555555555556,12.065972222222223,0)" xlink:href="#by"/></g><path fill="#333" d="M659 0H135v-1490h529c448 0 721 280 721 744 0 466-273 746-726 746zM440-263h204c287 0 437-148 437-483 0-333-150-481-435-481H440v964" id="bz"/><path fill="#333" d="M749-1490V0H444v-1221h-10L93-980v-279l329-231h327" id="bA"/><g id="C"><use transform="matrix(0.008680555555555556,0,0,0.008680555555555556,0,0)" xlink:href="#bz"/><use transform="matrix(0.008680555555555556,0,0,0.008680555555555556,12.838541666666668,0)" xlink:href="#bA"/></g><path fill="#333" d="M182 279v-1860h488v228H471V51h199v228H182" id="bB"/><path fill="#333" d="M361 0L31-1118h315c68 295 127 523 188 845 63-317 128-551 199-845h276c71 296 131 525 196 846 57-321 119-552 186-846h319L1378 0h-305c-73-261-148-486-204-771C813-484 740-261 666 0H361" id="bC"/><path fill="#333" d="M169-607c0-330 107-732 258-974h279c-145 311-231 674-231 974 0 262 67 512 231 886H427C258-1 169-307 169-607" id="bD"/><path fill="#333" d="M67 279c166-379 230-627 230-886 0-300-86-663-230-974h278c151 241 258 644 258 974 0 302-90 608-258 886H67" id="bE"/><g id="D"><use transform="matrix(0.008680555555555556,0,0,0.008680555555555556,0,0)" xlink:href="#bB"/><use transform="matrix(0.008680555555555556,0,0,0.008680555555555556,7.022569444444445,0)" xlink:href="#bn"/><use transform="matrix(0.008680555555555556,0,0,0.008680555555555556,18.09027777777778,0)" xlink:href="#bk"/><use transform="matrix(0.008680555555555556,0,0,0.008680555555555556,28.75,0)" xlink:href="#bC"/><use transform="matrix(0.008680555555555556,0,0,0.008680555555555556,43.86284722222222,0)" xlink:href="#bD"/><use transform="matrix(0.008680555555555556,0,0,0.008680555555555556,50.564236111111114,0)" xlink:href="#bE"/></g><path fill="#333" d="M818-733v240H140v-240h678" id="bF"/><use transform="matrix(0.008680555555555556,0,0,0.008680555555555556,0,0)" xlink:href="#bF" id="E"/><use transform="matrix(0.008680555555555556,0,0,0.008680555555555556,0,0)" xlink:href="#bg" id="F"/><g id="G"><use transform="matrix(0.008680555555555556,0,0,0.008680555555555556,0,0)" xlink:href="#bx"/><use transform="matrix(0.008680555555555556,0,0,0.008680555555555556,12.065972222222223,0)" xlink:href="#by"/></g><path fill="#333" d="M75-1237v-253h1217v253H837V0H531v-1237H75" id="bG"/><path fill="#333" d="M102 279V51h199v-1404H102v-228h489V279H102" id="bH"/><g id="H"><use transform="matrix(0.008680555555555556,0,0,0.008680555555555556,0,0)" xlink:href="#bG"/><use transform="matrix(0.008680555555555556,0,0,0.008680555555555556,11.866319444444445,0)" xlink:href="#bA"/><use transform="matrix(0.008680555555555556,0,0,0.008680555555555556,19.852430555555557,0)" xlink:href="#bH"/></g><path fill="#333" d="M768-1560L288 224H28l480-1784h260" id="bI"/><use transform="matrix(0.008680555555555556,0,0,0.008680555555555556,0,0)" xlink:href="#bI" id="I"/><path fill="#333" d="M440-1490V0H135v-1490h305" id="bJ"/><g id="J"><use transform="matrix(0.008680555555555556,0,0,0.008680555555555556,0,0)" xlink:href="#bu"/><use transform="matrix(0.008680555555555556,0,0,0.008680555555555556,11.206597222222223,0)" xlink:href="#bp"/><use transform="matrix(0.008680555555555556,0,0,0.008680555555555556,18.01215277777778,0)" xlink:href="#bk"/><use transform="matrix(0.008680555555555556,0,0,0.008680555555555556,28.914930555555557,0)" xlink:href="#bn"/><use transform="matrix(0.008680555555555556,0,0,0.008680555555555556,39.98263888888889,0)" xlink:href="#bj"/><use transform="matrix(0.008680555555555556,0,0,0.008680555555555556,50.57291666666667,0)" xlink:href="#bJ"/><use transform="matrix(0.008680555555555556,0,0,0.008680555555555556,55.564236111111114,0)" xlink:href="#bn"/></g><use transform="matrix(0.008680555555555556,0,0,0.008680555555555556,0,0)" xlink:href="#by" id="K"/><path fill="#333" d="M428-1490V0H128v-1490h300" id="bK"/><path fill="#333" d="M119 395l88-620h300L323 395H119zM360-723c-97 0-173-75-173-172s76-172 173-172c98 0 174 75 174 172s-76 172-174 172" id="bL"/><g id="L"><use transform="matrix(0.008680555555555556,0,0,0.008680555555555556,0,0)" xlink:href="#bl"/><use transform="matrix(0.008680555555555556,0,0,0.008680555555555556,6.7274305555555545,0)" xlink:href="#bh"/><use transform="matrix(0.008680555555555556,0,0,0.008680555555555556,17.04861111111111,0)" xlink:href="#bK"/><use transform="matrix(0.008680555555555556,0,0,0.008680555555555556,21.866319444444443,0)" xlink:href="#bt"/><use transform="matrix(0.008680555555555556,0,0,0.008680555555555556,31.822916666666664,0)" xlink:href="#bj"/><use transform="matrix(0.008680555555555556,0,0,0.008680555555555556,42.41319444444444,0)" xlink:href="#bL"/></g><g id="M"><use transform="matrix(0.008680555555555556,0,0,0.008680555555555556,0,0)" xlink:href="#bp"/><use transform="matrix(0.008680555555555556,0,0,0.008680555555555556,6.805555555555556,0)" xlink:href="#bj"/><use transform="matrix(0.008680555555555556,0,0,0.008680555555555556,17.395833333333336,0)" xlink:href="#br"/><use transform="matrix(0.008680555555555556,0,0,0.008680555555555556,28.602430555555557,0)" xlink:href="#bs"/><use transform="matrix(0.008680555555555556,0,0,0.008680555555555556,39.67013888888889,0)" xlink:href="#bj"/><use transform="matrix(0.008680555555555556,0,0,0.008680555555555556,50.26041666666667,0)" xlink:href="#bt"/><use transform="matrix(0.008680555555555556,0,0,0.008680555555555556,60.21701388888889,0)" xlink:href="#bg"/><use transform="matrix(0.008680555555555556,0,0,0.008680555555555556,66.55381944444444,0)" xlink:href="#bj"/><use transform="matrix(0.008680555555555556,0,0,0.008680555555555556,77.14409722222223,0)" xlink:href="#bu"/></g><g id="N"><use transform="matrix(0.008680555555555556,0,0,0.008680555555555556,0,0)" xlink:href="#bk"/><use transform="matrix(0.008680555555555556,0,0,0.008680555555555556,10.902777777777779,0)" xlink:href="#bl"/><use transform="matrix(0.008680555555555556,0,0,0.008680555555555556,17.239583333333336,0)" xlink:href="#bl"/></g><use transform="matrix(0.008680555555555556,0,0,0.008680555555555556,0,0)" xlink:href="#bu" id="O"/><path fill="#333" d="M166-471v-247l1019-454v289L492-601v13l693 282v287" id="bM"/><use transform="matrix(0.008680555555555556,0,0,0.008680555555555556,0,0)" xlink:href="#bM" id="P"/><g id="Q"><use transform="matrix(0.010850694444444444,0,0,0.010850694444444444,0,0)" xlink:href="#av"/><use transform="matrix(0.010850694444444444,0,0,0.010850694444444444,12.565104166666666,0)" xlink:href="#aQ"/><use transform="matrix(0.010850694444444444,0,0,0.010850694444444444,29.15581597222222,0)" xlink:href="#aV"/><use transform="matrix(0.010850694444444444,0,0,0.010850694444444444,46.09375,0)" xlink:href="#au"/><use transform="matrix(0.010850694444444444,0,0,0.010850694444444444,62.14192708333333,0)" xlink:href="#at"/><use transform="matrix(0.010850694444444444,0,0,0.010850694444444444,68.38107638888889,0)" xlink:href="#aV"/><use transform="matrix(0.010850694444444444,0,0,0.010850694444444444,85.31901041666666,0)" xlink:href="#aX"/></g><g id="R"><use transform="matrix(0.010850694444444444,0,0,0.010850694444444444,0,0)" xlink:href="#aU"/><use transform="matrix(0.010850694444444444,0,0,0.010850694444444444,20.703125,0)" xlink:href="#aS"/><use transform="matrix(0.010850694444444444,0,0,0.010850694444444444,37.82552083333333,0)" xlink:href="#aV"/><use transform="matrix(0.010850694444444444,0,0,0.010850694444444444,54.76345486111111,0)" xlink:href="#at"/><use transform="matrix(0.010850694444444444,0,0,0.010850694444444444,61.002604166666664,0)" xlink:href="#aP"/><use transform="matrix(0.010850694444444444,0,0,0.010850694444444444,75.13020833333333,0)" xlink:href="#aS"/><use transform="matrix(0.010850694444444444,0,0,0.010850694444444444,92.25260416666666,0)" xlink:href="#aW"/><use transform="matrix(0.010850694444444444,0,0,0.010850694444444444,106.84678819444441,0)" xlink:href="#at"/><use transform="matrix(0.010850694444444444,0,0,0.010850694444444444,113.08593749999997,0)" xlink:href="#aV"/><use transform="matrix(0.010850694444444444,0,0,0.010850694444444444,130.02387152777777,0)" xlink:href="#aX"/></g><g id="S"><use transform="matrix(0.010850694444444444,0,0,0.010850694444444444,0,0)" xlink:href="#aE"/><use transform="matrix(0.010850694444444444,0,0,0.010850694444444444,13.606770833333332,0)" xlink:href="#aY"/></g><g id="T"><use transform="matrix(0.010850694444444444,0,0,0.010850694444444444,0,0)" xlink:href="#bb"/><use transform="matrix(0.010850694444444444,0,0,0.010850694444444444,19.466145833333332,0)" xlink:href="#ax"/><use transform="matrix(0.010850694444444444,0,0,0.010850694444444444,32.638888888888886,0)" xlink:href="#aG"/><use transform="matrix(0.010850694444444444,0,0,0.010850694444444444,45.1171875,0)" xlink:href="#aD"/><use transform="matrix(0.010850694444444444,0,0,0.010850694444444444,56.84678819444444,0)" xlink:href="#bc"/><use transform="matrix(0.010850694444444444,0,0,0.010850694444444444,69.98697916666666,0)" xlink:href="#aA"/><use transform="matrix(0.010850694444444444,0,0,0.010850694444444444,77.98394097222221,0)" xlink:href="#ax"/><use transform="matrix(0.010850694444444444,0,0,0.010850694444444444,90.93967013888889,0)" xlink:href="#bd"/></g><g id="U"><use transform="matrix(0.010850694444444444,0,0,0.010850694444444444,0,0)" xlink:href="#aD"/><use transform="matrix(0.010850694444444444,0,0,0.010850694444444444,11.729600694444445,0)" xlink:href="#ax"/><use transform="matrix(0.010850694444444444,0,0,0.010850694444444444,24.68532986111111,0)" xlink:href="#az"/></g><g id="V"><use transform="matrix(0.010850694444444444,0,0,0.010850694444444444,0,0)" xlink:href="#aE"/><use transform="matrix(0.010850694444444444,0,0,0.010850694444444444,13.606770833333332,0)" xlink:href="#aF"/><use transform="matrix(0.010850694444444444,0,0,0.010850694444444444,18.98871527777778,0)" xlink:href="#aD"/><use transform="matrix(0.010850694444444444,0,0,0.010850694444444444,30.71831597222222,0)" xlink:href="#az"/><use transform="matrix(0.010850694444444444,0,0,0.010850694444444444,38.09678819444444,0)" xlink:href="#aG"/><use transform="matrix(0.010850694444444444,0,0,0.010850694444444444,50.57508680555556,0)" xlink:href="#ay"/><use transform="matrix(0.010850694444444444,0,0,0.010850694444444444,63.70442708333333,0)" xlink:href="#aH"/><use transform="matrix(0.010850694444444444,0,0,0.010850694444444444,76.39973958333334,0)" xlink:href="#ax"/><use transform="matrix(0.010850694444444444,0,0,0.010850694444444444,89.35546875000001,0)" xlink:href="#aI"/><use transform="matrix(0.010850694444444444,0,0,0.010850694444444444,97.2113715277778,0)" xlink:href="#aE"/><use transform="matrix(0.010850694444444444,0,0,0.010850694444444444,110.81814236111111,0)" xlink:href="#aL"/></g><g id="W"><use transform="matrix(0.010850694444444444,0,0,0.010850694444444444,0,0)" xlink:href="#bv"/><use transform="matrix(0.010850694444444444,0,0,0.010850694444444444,21.46267361111111,0)" xlink:href="#aQ"/><use transform="matrix(0.010850694444444444,0,0,0.010850694444444444,38.053385416666664,0)" xlink:href="#at"/><use transform="matrix(0.010850694444444444,0,0,0.010850694444444444,44.29253472222222,0)" xlink:href="#aP"/><use transform="matrix(0.010850694444444444,0,0,0.010850694444444444,59.12543402777778,0)" xlink:href="#at"/><use transform="matrix(0.010850694444444444,0,0,0.010850694444444444,65.36458333333333,0)" xlink:href="#aV"/><use transform="matrix(0.010850694444444444,0,0,0.010850694444444444,82.30251736111111,0)" xlink:href="#aX"/></g><g id="X"><use transform="matrix(0.010850694444444444,0,0,0.010850694444444444,0,0)" xlink:href="#ax"/><use transform="matrix(0.010850694444444444,0,0,0.010850694444444444,12.955729166666666,0)" xlink:href="#ay"/><use transform="matrix(0.010850694444444444,0,0,0.010850694444444444,26.085069444444443,0)" xlink:href="#az"/><use transform="matrix(0.010850694444444444,0,0,0.010850694444444444,33.35503472222222,0)" xlink:href="#aA"/><use transform="matrix(0.010850694444444444,0,0,0.010850694444444444,42.06814236111111,0)" xlink:href="#aB"/></g><use transform="matrix(0.010850694444444444,0,0,0.010850694444444444,0,0)" xlink:href="#aC" id="Y"/><g id="Z"><use transform="matrix(0.010850694444444444,0,0,0.010850694444444444,0,0)" xlink:href="#az"/><use transform="matrix(0.010850694444444444,0,0,0.010850694444444444,7.269965277777778,0)" xlink:href="#aZ"/><use transform="matrix(0.010850694444444444,0,0,0.010850694444444444,13.671875,0)" xlink:href="#ba"/></g><g id="aa"><use transform="matrix(0.010850694444444444,0,0,0.010850694444444444,0,0)" xlink:href="#ay"/><use transform="matrix(0.010850694444444444,0,0,0.010850694444444444,13.129340277777777,0)" xlink:href="#aY"/><use transform="matrix(0.010850694444444444,0,0,0.010850694444444444,26.052517361111104,0)" xlink:href="#bw"/></g><g id="ab"><use transform="matrix(0.008680555555555556,0,0,0.008680555555555556,0,0)" xlink:href="#bK"/><use transform="matrix(0.008680555555555556,0,0,0.008680555555555556,4.817708333333334,0)" xlink:href="#bh"/><use transform="matrix(0.008680555555555556,0,0,0.008680555555555556,15.13888888888889,0)" xlink:href="#bn"/><use transform="matrix(0.008680555555555556,0,0,0.008680555555555556,26.206597222222225,0)" xlink:href="#bu"/><use transform="matrix(0.008680555555555556,0,0,0.008680555555555556,37.41319444444444,0)" xlink:href="#bo"/><use transform="matrix(0.008680555555555556,0,0,0.008680555555555556,42.23090277777778,0)" xlink:href="#bn"/><use transform="matrix(0.008680555555555556,0,0,0.008680555555555556,53.298611111111114,0)" xlink:href="#bq"/></g><g id="ac"><use transform="matrix(0.008680555555555556,0,0,0.008680555555555556,0,0)" xlink:href="#bp"/><use transform="matrix(0.008680555555555556,0,0,0.008680555555555556,6.805555555555556,0)" xlink:href="#bj"/><use transform="matrix(0.008680555555555556,0,0,0.008680555555555556,17.395833333333336,0)" xlink:href="#br"/><use transform="matrix(0.008680555555555556,0,0,0.008680555555555556,28.602430555555557,0)" xlink:href="#bs"/><use transform="matrix(0.008680555555555556,0,0,0.008680555555555556,39.67013888888889,0)" xlink:href="#bj"/><use transform="matrix(0.008680555555555556,0,0,0.008680555555555556,50.26041666666667,0)" xlink:href="#bt"/><use transform="matrix(0.008680555555555556,0,0,0.008680555555555556,60.21701388888889,0)" xlink:href="#bg"/><use transform="matrix(0.008680555555555556,0,0,0.008680555555555556,66.55381944444444,0)" xlink:href="#bj"/><use transform="matrix(0.008680555555555556,0,0,0.008680555555555556,77.14409722222223,0)" xlink:href="#bu"/></g><g id="ad"><use transform="matrix(0.008680555555555556,0,0,0.008680555555555556,0,0)" xlink:href="#bM"/><use transform="matrix(0.008680555555555556,0,0,0.008680555555555556,12.065972222222223,0)" xlink:href="#by"/></g><path fill="#333" d="M124 0v-220l528-495c135-132 210-216 210-336 0-133-98-215-231-215-139 0-229 88-229 233H110c0-290 214-477 523-477 315 0 525 182 525 440 0 167-80 305-385 586L548-262v11h630V0H124" id="bN"/><g id="ae"><use transform="matrix(0.008680555555555556,0,0,0.008680555555555556,0,0)" xlink:href="#bz"/><use transform="matrix(0.008680555555555556,0,0,0.008680555555555556,12.838541666666668,0)" xlink:href="#bN"/></g><use transform="matrix(0.008680555555555556,0,0,0.008680555555555556,0,0)" xlink:href="#bx" id="af"/><path d="M182 279v-1860h488v228H471V51h199v228H182" id="bO"/><path d="M428-647V0H128v-1118h283l4 231c63-156 176-245 348-245 232 0 384 159 384 421V0H847v-659c0-139-76-222-202-222-128 0-217 86-217 234" id="bP"/><path d="M628 22C291 22 81-210 81-554c0-346 210-578 547-578 336 0 547 232 547 578 0 344-211 576-547 576zm0-236c160 0 242-146 242-341 0-197-82-341-242-341S387-753 387-555c0 195 81 341 241 341" id="bQ"/><path d="M361 0L31-1118h315c68 295 127 523 188 845 63-317 128-551 199-845h276c71 296 131 525 196 846 57-321 119-552 186-846h319L1378 0h-305c-73-261-148-486-204-771C813-484 740-261 666 0H361" id="bR"/><path d="M169-607c0-330 107-732 258-974h279c-145 311-231 674-231 974 0 262 67 512 231 886H427C258-1 169-307 169-607" id="bS"/><path d="M67 279c166-379 230-627 230-886 0-300-86-663-230-974h278c151 241 258 644 258 974 0 302-90 608-258 886H67" id="bT"/><g id="ag"><use transform="matrix(0.008680555555555556,0,0,0.008680555555555556,0,0)" xlink:href="#bO"/><use transform="matrix(0.008680555555555556,0,0,0.008680555555555556,7.022569444444445,0)" xlink:href="#bP"/><use transform="matrix(0.008680555555555556,0,0,0.008680555555555556,18.09027777777778,0)" xlink:href="#bQ"/><use transform="matrix(0.008680555555555556,0,0,0.008680555555555556,28.75,0)" xlink:href="#bR"/><use transform="matrix(0.008680555555555556,0,0,0.008680555555555556,43.86284722222222,0)" xlink:href="#bS"/><use transform="matrix(0.008680555555555556,0,0,0.008680555555555556,50.564236111111114,0)" xlink:href="#bT"/></g><path d="M818-733v240H140v-240h678" id="bU"/><use transform="matrix(0.008680555555555556,0,0,0.008680555555555556,0,0)" xlink:href="#bU" id="ah"/><path d="M683-1118v229H474v562c0 71 29 104 102 104 23 0 73-7 95-13l43 225C647 9 580 16 520 16 296 16 174-96 174-301v-588H20v-229h154v-266h300v266h209" id="bV"/><use transform="matrix(0.008680555555555556,0,0,0.008680555555555556,0,0)" xlink:href="#bV" id="ai"/><path d="M1224-471L205-19v-287l694-281v-14L205-883v-289l1019 454v247" id="bW"/><path d="M197-230v-252h997v252H197zm0-479v-251h997v251H197" id="bX"/><g id="aj"><use transform="matrix(0.008680555555555556,0,0,0.008680555555555556,0,0)" xlink:href="#bW"/><use transform="matrix(0.008680555555555556,0,0,0.008680555555555556,12.065972222222223,0)" xlink:href="#bX"/></g><path d="M124 0v-220l528-495c135-132 210-216 210-336 0-133-98-215-231-215-139 0-229 88-229 233H110c0-290 214-477 523-477 315 0 525 182 525 440 0 167-80 305-385 586L548-262v11h630V0H124" id="bY"/><path d="M102 279V51h199v-1404H102v-228h489V279H102" id="bZ"/><g id="ak"><use transform="matrix(0.008680555555555556,0,0,0.008680555555555556,0,0)" xlink:href="#aP"/><use transform="matrix(0.008680555555555556,0,0,0.008680555555555556,11.866319444444445,0)" xlink:href="#bY"/><use transform="matrix(0.008680555555555556,0,0,0.008680555555555556,23.064236111111118,0)" xlink:href="#bZ"/></g><path d="M768-1560L288 224H28l480-1784h260" id="ca"/><use transform="matrix(0.008680555555555556,0,0,0.008680555555555556,0,0)" xlink:href="#ca" id="al"/><path d="M537 19C279 19 81-185 81-557c0-382 206-575 454-575 190 0 278 113 318 202h10v-560h300V0H868v-179h-15C812-89 719 19 537 19zm92-241c153 0 240-134 240-336 0-203-86-334-240-334-158 0-240 138-240 334 0 197 84 336 240 336" id="cb"/><path d="M128 0v-1118h290v195h12c54-169 184-238 367-200v268c-27-8-86-15-130-15-138 0-239 95-239 234V0H128" id="cc"/><path d="M633 22C291 22 81-200 81-553c0-345 210-579 537-579 292 0 525 185 525 567v84H378c7 183 109 277 260 277 105 0 184-46 216-132l272 51C1071-99 893 22 633 22zM380-669h474c-15-146-94-237-233-237-143 0-229 99-241 237" id="cd"/><g id="am"><use transform="matrix(0.008680555555555556,0,0,0.008680555555555556,0,0)" xlink:href="#cb"/><use transform="matrix(0.008680555555555556,0,0,0.008680555555555556,11.206597222222223,0)" xlink:href="#cc"/><use transform="matrix(0.008680555555555556,0,0,0.008680555555555556,18.01215277777778,0)" xlink:href="#bQ"/><use transform="matrix(0.008680555555555556,0,0,0.008680555555555556,28.914930555555557,0)" xlink:href="#bP"/><use transform="matrix(0.008680555555555556,0,0,0.008680555555555556,39.98263888888889,0)" xlink:href="#cd"/><use transform="matrix(0.008680555555555556,0,0,0.008680555555555556,50.57291666666667,0)" xlink:href="#at"/><use transform="matrix(0.008680555555555556,0,0,0.008680555555555556,55.564236111111114,0)" xlink:href="#bP"/></g><use transform="matrix(0.008680555555555556,0,0,0.008680555555555556,0,0)" xlink:href="#bX" id="an"/><path d="M513 14c-232 0-385-159-385-421v-711h300v659c0 139 76 222 202 222 127 0 217-86 217-234v-647h301V0H864l-4-232C797-74 683 14 513 14" id="ce"/><path d="M119 395l88-620h300L323 395H119zM360-723c-97 0-173-75-173-172s76-172 173-172c98 0 174 75 174 172s-76 172-174 172" id="cf"/><g id="ao"><use transform="matrix(0.008680555555555556,0,0,0.008680555555555556,0,0)" xlink:href="#bV"/><use transform="matrix(0.008680555555555556,0,0,0.008680555555555556,6.510416666666667,0)" xlink:href="#cc"/><use transform="matrix(0.008680555555555556,0,0,0.008680555555555556,13.75,0)" xlink:href="#ce"/><use transform="matrix(0.008680555555555556,0,0,0.008680555555555556,24.817708333333336,0)" xlink:href="#cd"/><use transform="matrix(0.008680555555555556,0,0,0.008680555555555556,35.407986111111114,0)" xlink:href="#cf"/></g><path d="M428-1490V0H128v-1490h300" id="cg"/><path d="M440 22C227 22 68-92 68-313c0-250 202-322 422-343 195-21 271-24 271-105 0-95-63-149-175-149-116 0-187 57-211 129l-275-46c57-194 237-305 487-305 240 0 474 108 474 379V0H777v-155h-10C713-51 605 22 440 22zm85-211c140 0 238-93 238-211v-121c-37 26-156 42-222 51-111 16-185 59-185 149 0 87 70 132 169 132" id="ch"/><path d="M128 0v-1118h300V0H128zm150-1264c-91 0-165-68-165-154 0-85 74-154 165-154 90 0 165 69 165 154 0 86-75 154-165 154" id="ci"/><path d="M625 442c-280 0-454-114-503-274l258-72c28 63 97 128 243 128 153 0 246-69 246-216v-206h-23C805-108 717-16 536-16 284-16 81-191 81-561c0-378 208-571 456-571 188 0 280 113 321 202h13v-188h295V-9c0 303-226 451-541 451zm5-686c153 0 240-119 240-319 0-198-86-329-240-329-158 0-241 137-241 329 0 195 85 319 241 319" id="cj"/><g id="ap"><use transform="matrix(0.008680555555555556,0,0,0.008680555555555556,0,0)" xlink:href="#cg"/><use transform="matrix(0.008680555555555556,0,0,0.008680555555555556,4.817708333333334,0)" xlink:href="#ch"/><use transform="matrix(0.008680555555555556,0,0,0.008680555555555556,15.13888888888889,0)" xlink:href="#bP"/><use transform="matrix(0.008680555555555556,0,0,0.008680555555555556,26.206597222222225,0)" xlink:href="#cb"/><use transform="matrix(0.008680555555555556,0,0,0.008680555555555556,37.41319444444444,0)" xlink:href="#ci"/><use transform="matrix(0.008680555555555556,0,0,0.008680555555555556,42.23090277777778,0)" xlink:href="#bP"/><use transform="matrix(0.008680555555555556,0,0,0.008680555555555556,53.298611111111114,0)" xlink:href="#cj"/></g><path d="M128 0v-1118h278l12 217c60-163 185-234 319-234 143 0 236 81 288 251 63-172 205-251 359-251 205 0 357 138 357 381V0h-301v-697c0-126-76-187-177-187-114 0-184 79-184 196V0H789v-705c0-109-72-179-174-179-106 0-187 74-187 208V0H128" id="ck"/><g id="aq"><use transform="matrix(0.008680555555555556,0,0,0.008680555555555556,0,0)" xlink:href="#ck"/><use transform="matrix(0.008680555555555556,0,0,0.008680555555555556,16.223958333333336,0)" xlink:href="#bQ"/><use transform="matrix(0.008680555555555556,0,0,0.008680555555555556,27.12673611111111,0)" xlink:href="#bP"/><use transform="matrix(0.008680555555555556,0,0,0.008680555555555556,38.19444444444444,0)" xlink:href="#ci"/><use transform="matrix(0.008680555555555556,0,0,0.008680555555555556,43.012152777777786,0)" xlink:href="#bV"/><use transform="matrix(0.008680555555555556,0,0,0.008680555555555556,49.348958333333336,0)" xlink:href="#bQ"/><use transform="matrix(0.008680555555555556,0,0,0.008680555555555556,60.251736111111114,0)" xlink:href="#cc"/><use transform="matrix(0.008680555555555556,0,0,0.008680555555555556,67.62152777777779,0)" xlink:href="#ci"/><use transform="matrix(0.008680555555555556,0,0,0.008680555555555556,72.43923611111111,0)" xlink:href="#bP"/><use transform="matrix(0.008680555555555556,0,0,0.008680555555555556,83.50694444444444,0)" xlink:href="#cj"/></g><path d="M1163 418H863v-597h-10C812-89 719 19 537 19 279 19 81-185 81-557c0-382 206-575 454-575 190 0 278 113 318 202h15v-188h295V418zM629-222c153 0 240-134 240-336 0-203-86-334-240-334-158 0-240 138-240 334 0 197 84 336 240 336" id="cl"/><path d="M572 22C302 22 117-98 78-306l279-48c29 105 101 156 224 156 114 0 185-48 185-115 0-118-228-130-337-155-215-49-322-150-322-317 0-215 187-347 470-347 265 0 424 116 466 298l-266 47c-24-76-87-130-196-130-98 0-174 46-174 113 0 56 38 95 144 117l201 40c216 44 320 143 320 302 0 220-207 367-500 367" id="cm"/><g id="ar"><use transform="matrix(0.008680555555555556,0,0,0.008680555555555556,0,0)" xlink:href="#cc"/><use transform="matrix(0.008680555555555556,0,0,0.008680555555555556,6.805555555555556,0)" xlink:href="#cd"/><use transform="matrix(0.008680555555555556,0,0,0.008680555555555556,17.395833333333336,0)" xlink:href="#cl"/><use transform="matrix(0.008680555555555556,0,0,0.008680555555555556,28.602430555555557,0)" xlink:href="#ce"/><use transform="matrix(0.008680555555555556,0,0,0.008680555555555556,39.67013888888889,0)" xlink:href="#cd"/><use transform="matrix(0.008680555555555556,0,0,0.008680555555555556,50.26041666666667,0)" xlink:href="#cm"/><use transform="matrix(0.008680555555555556,0,0,0.008680555555555556,60.21701388888889,0)" xlink:href="#bV"/><use transform="matrix(0.008680555555555556,0,0,0.008680555555555556,66.55381944444444,0)" xlink:href="#cd"/><use transform="matrix(0.008680555555555556,0,0,0.008680555555555556,77.14409722222223,0)" xlink:href="#cb"/></g><path d="M750-1118v229H516V0H217v-889H20v-229h197v-86c0-238 156-356 363-356 94 0 178 20 215 31l-54 226c-25-7-61-15-100-15-123-3-131 84-125 200h234" id="cn"/><g id="as"><use transform="matrix(0.008680555555555556,0,0,0.008680555555555556,0,0)" xlink:href="#bQ"/><use transform="matrix(0.008680555555555556,0,0,0.008680555555555556,10.902777777777779,0)" xlink:href="#cn"/><use transform="matrix(0.008680555555555556,0,0,0.008680555555555556,17.239583333333336,0)" xlink:href="#cn"/></g></defs></g></svg>