<svg xmlns="http://www.w3.org/2000/svg" xmlns:xlink="http://www.w3.org/1999/xlink" xmlns:lucid="lucid" width="1277" height="721"><g transform="translate(-4980 4600)" lucid:page-tab-id="0_0"><path d="M-1500-7500h8000v5500h-8000z" fill="#fff"/><path d="M5120-4520c0 11.05-8.95 20-20 20s-20-8.95-20-20 8.95-20 20-20 20 8.95 20 20z" stroke="#000" stroke-width="2"/><path d="M5228-4000c-13.26 0-24 10.74-24 24v72c0 13.26 10.74 24 24 24h152c13.26 0 24-10.74 24-24v-72c0-13.26-10.74-24-24-24z" stroke="#000" stroke-width="2" fill="#fff"/><path d="M5204-3956h200" stroke="#000" stroke-width="2" fill="none"/><use xlink:href="#a" transform="matrix(1,0,0,1,5244,-4000) translate(9.093967013888886 30.08376736111111)"/><use xlink:href="#b" transform="matrix(1,0,0,1,5224,-3940) translate(2.3361545138889 21.52777777777778)"/><use xlink:href="#c" transform="matrix(1,0,0,1,5224,-3940) translate(35.51757812500001 21.52777777777778)"/><use xlink:href="#d" transform="matrix(1,0,0,1,5224,-3940) translate(49.77539062500001 21.52777777777778)"/><use xlink:href="#e" transform="matrix(1,0,0,1,5224,-3940) translate(109.04188368055556 21.52777777777778)"/><use xlink:href="#f" transform="matrix(1,0,0,1,5224,-3940) translate(57.327473958333336 53.79340277777778)"/><path d="M5304.48-4010.44h-.95v-138.8h.95zm0-160.3h-.95v-147.76h.95z" stroke="#3a414a" stroke-width=".05" fill="#3a414a"/><path d="M5304.48-4318.48h-.95v-.52h.95z" fill="#3a414a"/><path stroke="#3a414a" stroke-width=".05" fill="#3a414a"/><path d="M5314.4-4019.08l-10.4 18.03-10.4-18.03.8-.48 9.13 15.8v-6.74h.95v6.73l9.1-15.8z" stroke="#3a414a" stroke-width=".05" fill="#3a414a"/><use xlink:href="#g" transform="matrix(1,0,0,1,5213.605034722223,-4170.752823357183) translate(0 17.22222222222222)"/><use xlink:href="#h" transform="matrix(1,0,0,1,5213.605034722223,-4170.752823357183) translate(47.97743055555556 17.22222222222222)"/><use xlink:href="#i" transform="matrix(1,0,0,1,5213.605034722223,-4170.752823357183) translate(92.43923611111111 17.22222222222222)"/><path d="M5860-4000c-13.26 0-24 10.74-24 24v72c0 13.26 10.74 24 24 24h372c13.26 0 24-10.74 24-24v-72c0-13.26-10.74-24-24-24z" stroke="#000" stroke-width="2" fill="#fff"/><path d="M5836-3956h420" stroke="#000" stroke-width="2" fill="none"/><use xlink:href="#j" transform="matrix(1,0,0,1,5920,-4000) translate(95.02126736111111 30.08376736111111)"/><use xlink:href="#k" transform="matrix(1,0,0,1,5878,-3940) translate(57.420572916666686 30.08376736111111)"/><use xlink:href="#l" transform="matrix(1,0,0,1,5878,-3940) translate(118.22786458333334 30.08376736111111)"/><use xlink:href="#m" transform="matrix(1,0,0,1,5878,-3940) translate(132.48567708333334 30.08376736111111)"/><use xlink:href="#n" transform="matrix(1,0,0,1,5878,-3940) translate(170.69097222222223 30.08376736111111)"/><use xlink:href="#o" transform="matrix(1,0,0,1,5878,-3940) translate(225.56293402777777 30.08376736111111)"/><path d="M5565.58-3939.53H5405.5v-.94h160.08zm258.35 0H5672.8v-.94h151.13z" stroke="#3a414a" stroke-width=".05" fill="#3a414a"/><path d="M5405.52-3939.53h-.52v-.94h.52z" fill="#3a414a"/><path stroke="#3a414a" stroke-width=".05" fill="#3a414a"/><path d="M5833.32-3940l-18.03 10.4-.48-.8 15.78-9.13h-6.73v-.94h6.73l-15.78-9.12.47-.8z" stroke="#3a414a" stroke-width=".05" fill="#3a414a"/><use xlink:href="#p" transform="matrix(1,0,0,1,5565.5839419470385,-3950.7552083333335) translate(0 17.22222222222222)"/><use xlink:href="#q" transform="matrix(1,0,0,1,5565.5839419470385,-3950.7552083333335) translate(44.46180555555556 17.22222222222222)"/><use xlink:href="#r" transform="matrix(1,0,0,1,5565.5839419470385,-3950.7552083333335) translate(63.44618055555556 17.22222222222222)"/><path d="M5965-4300c-13.26 0-24 10.74-24 24v72c0 13.26 10.74 24 24 24h162c13.26 0 24-10.74 24-24v-72c0-13.26-10.74-24-24-24z" stroke="#000" stroke-width="2" fill="#fff"/><path d="M5941-4256h210" stroke="#000" stroke-width="2" fill="none"/><use xlink:href="#s" transform="matrix(1,0,0,1,5983,-4300) translate(13.048828125 30.08376736111111)"/><use xlink:href="#b" transform="matrix(1,0,0,1,5962,-4240) translate(4.800781250000014 21.52777777777778)"/><use xlink:href="#c" transform="matrix(1,0,0,1,5962,-4240) translate(37.98220486111112 21.52777777777778)"/><use xlink:href="#t" transform="matrix(1,0,0,1,5962,-4240) translate(52.24001736111112 21.52777777777778)"/><use xlink:href="#e" transform="matrix(1,0,0,1,5962,-4240) translate(114.57725694444444 21.52777777777778)"/><use xlink:href="#f" transform="matrix(1,0,0,1,5962,-4240) translate(61.327473958333336 53.79340277777778)"/><path d="M6046.48-4001.5h-.95v-46.86h.95zm0-68.37h-.95v-99.7h.95z" stroke="#3a414a" stroke-width=".05" fill="#3a414a"/><path d="M6046.48-4001h-.95v-.5h.95z" fill="#3a414a"/><path stroke="#3a414a" stroke-width=".05" fill="#3a414a"/><path d="M6056.4-4160.92l-.8.48-9.13-15.8v6.74h-.95v-6.73l-9.1 15.8-.83-.5 10.4-18.02z" stroke="#3a414a" stroke-width=".05" fill="#3a414a"/><use xlink:href="#u" transform="matrix(1,0,0,1,5954.125000000001,-4069.8725664006192) translate(0 17.22222222222222)"/><use xlink:href="#h" transform="matrix(1,0,0,1,5954.125000000001,-4069.8725664006192) translate(50.9375 17.22222222222222)"/><use xlink:href="#i" transform="matrix(1,0,0,1,5954.125000000001,-4069.8725664006192) translate(95.39930555555556 17.22222222222222)"/><path d="M5634.95-4076.87l-21.1 16.08h-.02v.02l-16.14 11.22h-.02l-14.1 8.98h-.02l-13.08 7.56h-.02l-12.53 6.56-12.28 5.8h-.02l-12.23 5.14h-.02l-12.35 4.6h-.02l-12.6 4.1h-.02l-13.05 3.65-13.6 3.2h-.02l-14.3 2.72h-.02l-15.22 2.25h-.02l-16.3 1.7h-.02l-17.65 1.12h-.02l-18.8.4-.03-.96 18.8-.4 17.63-1.1 16.28-1.7 15.2-2.24 14.28-2.73 13.6-3.2 13-3.62 12.6-4.1 12.34-4.58 12.2-5.14 12.26-5.76 12.5-6.54 13.07-7.55 14.1-8.94 16.1-11.2 21.1-16.07 21.08-17.07h1.5zm295.3-141.67l-9.85.2-17.64 1.1-16.28 1.72-15.2 2.24-14.28 2.72-13.58 3.18-13 3.64-12.62 4.1-12.33 4.58-12.2 5.13-12.26 5.77-12.5 6.54-13.05 7.54-14.1 8.96-16.1 11.2-41.7 33.74h-1.5l42.62-34.48v-.02h.02l16.12-11.23v-.02h.02l14.1-8.96h.02l13.08-7.57h.02l12.52-6.56v-.02h.02l12.27-5.77h.02l12.2-5.14h.02l12.36-4.6h.02l12.62-4.1h.02l13.04-3.65h.02l13.6-3.2 14.32-2.72h.02l15.2-2.24h.02l16.32-1.72 17.67-1.1h.02l9.87-.2z" stroke="#3a414a" stroke-width=".05" fill="#3a414a"/><path d="M5399.36-3991.8h-.12l-.83-.92.94-.02z" fill="#3a414a"/><path stroke="#3a414a" stroke-width=".05" fill="#3a414a"/><path d="M5939.64-4219.2l-17.82 10.77-.5-.8 15.6-9.45-6.72.14-.02-.95 6.73-.13-15.96-8.78.45-.85z" stroke="#3a414a" stroke-width=".05" fill="#3a414a"/><g><use xlink:href="#u" transform="matrix(1,0,0,1,5577.625117550736,-4116.183834577423) translate(0 17.22222222222222)"/><use xlink:href="#h" transform="matrix(1,0,0,1,5577.625117550736,-4116.183834577423) translate(50.9375 17.22222222222222)"/><use xlink:href="#i" transform="matrix(1,0,0,1,5577.625117550736,-4116.183834577423) translate(95.39930555555556 17.22222222222222)"/></g><path d="M5250.32-4460c-15.47 0-28 12.54-28 28v84c0 15.46 12.53 28 28 28h354.33c15.46 0 28-12.54 28-28v-84c0-15.46-12.54-28-28-28z" stroke="#000" stroke-width="2" fill="#fff"/><path d="M5222.32-4416h410.33" stroke="#000" stroke-width="2" fill="none"/><g><use xlink:href="#v" transform="matrix(1,0,0,1,5304.383255443167,-4460) translate(86.72699652777777 30.08376736111111)"/></g><g><use xlink:href="#w" transform="matrix(1,0,0,1,5263.349922109834,-4400) translate(45.58181423611113 40.083767361111114)"/><use xlink:href="#c" transform="matrix(1,0,0,1,5263.349922109834,-4400) translate(106.3891059027778 40.083767361111114)"/><use xlink:href="#x" transform="matrix(1,0,0,1,5263.349922109834,-4400) translate(120.64691840277779 40.083767361111114)"/><use xlink:href="#y" transform="matrix(1,0,0,1,5263.349922109834,-4400) translate(158.85221354166669 40.083767361111114)"/><use xlink:href="#z" transform="matrix(1,0,0,1,5263.349922109834,-4400) translate(213.72417534722223 40.083767361111114)"/></g><path d="M5936.4-4407.4h.02l11.1 1.4h.02l9.4 1.6h.02l8.13 1.72 7.1 1.82h.02l6.27 1.9 5.6 1.95h.02l5.04 2h.02l4.57 2.03h.02l4.17 2.08h.02v.02l3.83 2.1 3.55 2.15v.02l3.3 2.16 3.06 2.23h.02l2.86 2.26v.02h.02l2.67 2.3v.02h.02l2.5 2.36h.02v.02l2.37 2.42v.02l2.25 2.5 2.14 2.57 2.02 2.66v.02l1.92 2.75v.02l1.83 2.86v.02l1.73 3 1.65 3.14 1.55 3.3v.02l1.46 3.46v.02l1.38 3.67v.02l1.27 3.9v.02l1.18 4.16v.02l1.05 4.48v.02l.93 4.83v.02l.77 5.24v.02l.6 5.73.4 6.3v.02l.14 6.46-.95.03-.14-6.45-.4-6.27-.6-5.7-.76-5.23-.92-4.8-1.04-4.47-1.16-4.15-1.26-3.88-1.36-3.65-1.44-3.45-1.54-3.26-1.63-3.12-1.7-2.97-1.8-2.84-1.92-2.73-2-2.64-2.1-2.56-2.24-2.48-2.35-2.4-2.5-2.36-2.67-2.3-2.83-2.24-3.04-2.2-3.25-2.18-3.52-2.13-3.82-2.1-4.14-2.05-4.56-2.03-5.02-2-5.58-1.93-6.25-1.88-7.07-1.82-8.1-1.7-9.38-1.6-11.1-1.4-5.2-.42v-.95zm-126.7 4.1l-163.84 13.64h-.02l-2.74.03v-.95l2.7-.03 163.9-13.64z" stroke="#3a414a" stroke-width=".05" fill="#3a414a"/><path d="M6046.48-4301h-.95v-.5l.93-.03z" fill="#3a414a"/><path stroke="#3a414a" stroke-width=".05" fill="#3a414a"/><path d="M5652.1-4399.8l-15.68 9.3 6.72-.08v.95l-6.7.07 15.87 8.95-.46.82-18.14-10.22 17.92-10.6z" stroke="#3a414a" stroke-width=".05" fill="#3a414a"/><g><use xlink:href="#p" transform="matrix(1,0,0,1,5809.713277436086,-4418.848931051964) translate(0 17.22222222222222)"/><use xlink:href="#q" transform="matrix(1,0,0,1,5809.713277436086,-4418.848931051964) translate(44.46180555555556 17.22222222222222)"/><use xlink:href="#A" transform="matrix(1,0,0,1,5809.713277436086,-4418.848931051964) translate(63.44618055555556 17.22222222222222)"/></g><path d="M5100-4498.5l.1 4.2.3 4.6.46 4.46.64 4.36.8 4.27 1 4.17 1.14 4.1 1.3 4 1.47 3.95 1.63 3.86 1.8 3.8 1.94 3.73 2.1 3.68 2.3 3.6 2.45 3.52 2.63 3.46 2.8 3.4 2.98 3.3 3.17 3.23 3.35 3.14 3.54 3.06 3.72 2.95 3.92 2.85 4.1 2.73 4.32 2.6 4.5 2.48 4.66 2.32 4.86 2.16 5.02 2 5.2 1.8 5.34 1.62 5.5 1.4 5.63 1.2 5.75.98 5.86.74 5.6.47" stroke="#3a414a" stroke-linejoin="round" fill="none"/><path d="M5099.95-4499l.53-.02v.53l-.94.02-.02-.57z" stroke="#3a414a" stroke-width=".05" fill="#3a414a"/><path d="M5203.34-4400.6l16.98 10.57-17.65 9.4m17.65-9.4l-8.5-.3" stroke="#3a414a" fill="none"/><path d="M4980-4594a6 6 0 0 1 6-6h228a6 6 0 0 1 6 6v48a6 6 0 0 1-6 6h-228a6 6 0 0 1-6-6z" fill="none"/><g><use xlink:href="#B" transform="matrix(1,0,0,1,4980,-4600) translate(28.002387152777786 38.083767361111114)"/></g><defs><path d="M789 20C394 20 94-260 94-744c0-487 300-766 695-766s695 279 695 766c0 485-300 764-695 764zm0-271c231 0 385-174 385-493 0-321-154-495-385-495s-385 175-385 495c0 319 154 493 385 493" id="C"/><path d="M135 0v-1490h581c339 0 533 210 533 503 0 295-197 500-540 500H440V0H135zm305-733h220c186 0 274-104 274-254s-88-251-275-251H440v505" id="D"/><path d="M135 0v-1490h997v253H440v360h640v249H440v375h694V0H135" id="E"/><path d="M135 0v-1490h340l471 754c59 97 122 210 187 365-32-387-14-721-19-1119h312V0h-341C855-382 627-689 427-1113c32 420 16 695 20 1113H135" id="F"/><path d="M440-1490V0H135v-1490h305" id="G"/><path d="M795 20C377 20 94-272 94-743c0-483 302-767 694-767 335 0 593 206 635 500h-310c-42-142-154-229-320-229-230 0-389 177-389 493s154 495 393 495c212 0 340-120 345-311H818v-232h620v186c0 391-269 628-643 628" id="H"/><g id="a"><use transform="matrix(0.010850694444444444,0,0,0.010850694444444444,0,0)" xlink:href="#C"/><use transform="matrix(0.010850694444444444,0,0,0.010850694444444444,17.122395833333332,0)" xlink:href="#D"/><use transform="matrix(0.010850694444444444,0,0,0.010850694444444444,31.521267361111104,0)" xlink:href="#E"/><use transform="matrix(0.010850694444444444,0,0,0.010850694444444444,45.01953125,0)" xlink:href="#F"/><use transform="matrix(0.010850694444444444,0,0,0.010850694444444444,61.95746527777778,0)" xlink:href="#G"/><use transform="matrix(0.010850694444444444,0,0,0.010850694444444444,68.19661458333333,0)" xlink:href="#F"/><use transform="matrix(0.010850694444444444,0,0,0.010850694444444444,85.13454861111111,0)" xlink:href="#H"/></g><path d="M577 24c-279 0-473-224-473-580 0-354 195-576 474-576 218 0 287 134 324 193h14v-551h180V0H922v-173h-20C865-111 790 24 577 24zm27-161c203 0 314-172 314-421 0-247-108-413-314-413-212 0-317 181-317 413 0 235 108 421 317 421" id="I"/><path d="M613 24c-304 0-509-231-509-576 0-350 205-580 509-580 305 0 511 230 511 580 0 345-206 576-511 576zm0-161c226 0 329-195 329-415 0-222-103-419-329-419-223 0-326 196-326 419 0 220 103 415 326 415" id="J"/><g id="b"><use transform="matrix(0.010850694444444444,0,0,0.010850694444444444,0,0)" xlink:href="#I"/><use transform="matrix(0.010850694444444444,0,0,0.010850694444444444,13.606770833333332,0)" xlink:href="#J"/></g><path d="M692-1560L212 224H46l480-1784h166" id="K"/><use transform="matrix(0.010850694444444444,0,0,0.010850694444444444,0,0)" xlink:href="#K" id="c"/><path d="M158 418v-1536h174v179h20c37-59 106-193 324-193 279 0 474 222 474 576 0 356-194 580-473 580-213 0-288-135-325-197h-14v591H158zm492-555c209 0 317-186 317-421 0-232-105-413-317-413-206 0-314 166-314 413 0 249 111 421 314 421" id="L"/><path d="M628 24c-324 0-524-230-524-574 0-343 198-582 503-582 237 0 487 146 487 559v75H286c9 234 145 362 343 362 132 0 231-58 273-172l174 48C1024-91 857 24 628 24zM287-650h624c-17-190-120-322-304-322-192 0-309 151-320 322" id="M"/><path d="M338-670V0H158v-1118h173l1 207c72-158 192-221 342-221 226 0 378 139 378 422V0H872v-695c0-172-96-275-252-275-161 0-282 109-282 300" id="N"/><g id="d"><use transform="matrix(0.010850694444444444,0,0,0.010850694444444444,0,0)" xlink:href="#J"/><use transform="matrix(0.010850694444444444,0,0,0.010850694444444444,13.324652777777777,0)" xlink:href="#L"/><use transform="matrix(0.010850694444444444,0,0,0.010850694444444444,26.931423611111104,0)" xlink:href="#M"/><use transform="matrix(0.010850694444444444,0,0,0.010850694444444444,39.88715277777777,0)" xlink:href="#N"/></g><path d="M158 0v-1118h174v172h12c41-113 157-188 290-188 26 0 70 2 91 3v181c-11-2-60-10-108-10-161 0-279 109-279 260V0H158" id="O"/><g id="e"><use transform="matrix(0.010850694444444444,0,0,0.010850694444444444,0,0)" xlink:href="#I"/><use transform="matrix(0.010850694444444444,0,0,0.010850694444444444,13.606770833333332,0)" xlink:href="#J"/><use transform="matrix(0.010850694444444444,0,0,0.010850694444444444,26.931423611111104,0)" xlink:href="#J"/><use transform="matrix(0.010850694444444444,0,0,0.010850694444444444,40.256076388888886,0)" xlink:href="#O"/></g><path d="M538 24C308 24 148-78 108-271l171-41c32 123 123 178 257 178 156 0 256-77 256-169 0-77-54-128-164-154l-186-44c-203-48-300-148-300-305 0-192 176-326 414-326 230 0 351 112 402 269l-163 42c-31-80-94-158-238-158-133 0-233 69-233 162 0 83 57 129 188 160l169 40c203 48 298 149 298 302 0 196-179 339-441 339" id="P"/><path d="M598-1118v154H368v674c0 100 37 144 132 144 23 0 62-6 92-12L629-6c-37 13-88 20-134 20-193 0-307-107-307-290v-688H20v-154h168v-266h180v266h230" id="Q"/><g id="f"><use transform="matrix(0.010850694444444444,0,0,0.010850694444444444,0,0)" xlink:href="#P"/><use transform="matrix(0.010850694444444444,0,0,0.010850694444444444,11.729600694444445,0)" xlink:href="#Q"/><use transform="matrix(0.010850694444444444,0,0,0.010850694444444444,18.782552083333332,0)" xlink:href="#M"/><use transform="matrix(0.010850694444444444,0,0,0.010850694444444444,31.73828125,0)" xlink:href="#L"/></g><path d="M628 22C291 22 81-210 81-554c0-346 210-578 547-578 336 0 547 232 547 578 0 344-211 576-547 576zm0-236c160 0 242-146 242-341 0-197-82-341-242-341S387-753 387-555c0 195 81 341 241 341" id="R"/><path d="M128 418v-1536h295v188h14c41-89 129-202 319-202 248 0 453 193 453 575 0 372-197 576-455 576-183 0-275-108-317-198h-9v597H128zm534-640c156 0 240-139 240-336 0-196-83-334-240-334-154 0-241 131-241 334 0 202 88 336 241 336" id="S"/><path d="M633 22C291 22 81-200 81-553c0-345 210-579 537-579 292 0 525 185 525 567v84H378c7 183 109 277 260 277 105 0 184-46 216-132l272 51C1071-99 893 22 633 22zM380-669h474c-15-146-94-237-233-237-143 0-229 99-241 237" id="T"/><path d="M428-647V0H128v-1118h283l4 231c63-156 176-245 348-245 232 0 384 159 384 421V0H847v-659c0-139-76-222-202-222-128 0-217 86-217 234" id="U"/><g id="g"><use transform="matrix(0.008680555555555556,0,0,0.008680555555555556,0,0)" xlink:href="#R"/><use transform="matrix(0.008680555555555556,0,0,0.008680555555555556,10.902777777777779,0)" xlink:href="#S"/><use transform="matrix(0.008680555555555556,0,0,0.008680555555555556,22.109375,0)" xlink:href="#T"/><use transform="matrix(0.008680555555555556,0,0,0.008680555555555556,32.69965277777778,0)" xlink:href="#U"/></g><path d="M537 19C279 19 81-185 81-557c0-382 206-575 454-575 190 0 278 113 318 202h10v-560h300V0H868v-179h-15C812-89 719 19 537 19zm92-241c153 0 240-134 240-336 0-203-86-334-240-334-158 0-240 138-240 334 0 197 84 336 240 336" id="V"/><path d="M128 0v-1118h290v195h12c54-169 184-238 367-200v268c-27-8-86-15-130-15-138 0-239 95-239 234V0H128" id="W"/><g id="h"><use transform="matrix(0.008680555555555556,0,0,0.008680555555555556,0,0)" xlink:href="#V"/><use transform="matrix(0.008680555555555556,0,0,0.008680555555555556,11.206597222222223,0)" xlink:href="#R"/><use transform="matrix(0.008680555555555556,0,0,0.008680555555555556,22.109375,0)" xlink:href="#R"/><use transform="matrix(0.008680555555555556,0,0,0.008680555555555556,33.01215277777778,0)" xlink:href="#W"/></g><path d="M1163 418H863v-597h-10C812-89 719 19 537 19 279 19 81-185 81-557c0-382 206-575 454-575 190 0 278 113 318 202h15v-188h295V418zM629-222c153 0 240-134 240-336 0-203-86-334-240-334-158 0-240 138-240 334 0 197 84 336 240 336" id="X"/><path d="M513 14c-232 0-385-159-385-421v-711h300v659c0 139 76 222 202 222 127 0 217-86 217-234v-647h301V0H864l-4-232C797-74 683 14 513 14" id="Y"/><path d="M572 22C302 22 117-98 78-306l279-48c29 105 101 156 224 156 114 0 185-48 185-115 0-118-228-130-337-155-215-49-322-150-322-317 0-215 187-347 470-347 265 0 424 116 466 298l-266 47c-24-76-87-130-196-130-98 0-174 46-174 113 0 56 38 95 144 117l201 40c216 44 320 143 320 302 0 220-207 367-500 367" id="Z"/><path d="M683-1118v229H474v562c0 71 29 104 102 104 23 0 73-7 95-13l43 225C647 9 580 16 520 16 296 16 174-96 174-301v-588H20v-229h154v-266h300v266h209" id="aa"/><g id="i"><use transform="matrix(0.008680555555555556,0,0,0.008680555555555556,0,0)" xlink:href="#W"/><use transform="matrix(0.008680555555555556,0,0,0.008680555555555556,6.805555555555556,0)" xlink:href="#T"/><use transform="matrix(0.008680555555555556,0,0,0.008680555555555556,17.395833333333336,0)" xlink:href="#X"/><use transform="matrix(0.008680555555555556,0,0,0.008680555555555556,28.602430555555557,0)" xlink:href="#Y"/><use transform="matrix(0.008680555555555556,0,0,0.008680555555555556,39.67013888888889,0)" xlink:href="#T"/><use transform="matrix(0.008680555555555556,0,0,0.008680555555555556,50.26041666666667,0)" xlink:href="#Z"/><use transform="matrix(0.008680555555555556,0,0,0.008680555555555556,60.21701388888889,0)" xlink:href="#aa"/><use transform="matrix(0.008680555555555556,0,0,0.008680555555555556,66.55381944444444,0)" xlink:href="#T"/><use transform="matrix(0.008680555555555556,0,0,0.008680555555555556,77.14409722222223,0)" xlink:href="#V"/></g><g id="j"><use transform="matrix(0.010850694444444444,0,0,0.010850694444444444,0,0)" xlink:href="#C"/><use transform="matrix(0.010850694444444444,0,0,0.010850694444444444,17.122395833333332,0)" xlink:href="#D"/><use transform="matrix(0.010850694444444444,0,0,0.010850694444444444,31.521267361111104,0)" xlink:href="#E"/><use transform="matrix(0.010850694444444444,0,0,0.010850694444444444,45.01953125,0)" xlink:href="#F"/></g><path d="M140 405l46-156c120 36 205 19 263-150l32-93L54-1118h197c107 313 237 620 324 950 87-331 219-637 326-950h196L606 167c-68 178-176 259-334 259-64 0-113-12-132-21" id="ab"/><g id="k"><use transform="matrix(0.010850694444444444,0,0,0.010850694444444444,0,0)" xlink:href="#M"/><use transform="matrix(0.010850694444444444,0,0,0.010850694444444444,12.955729166666666,0)" xlink:href="#N"/><use transform="matrix(0.010850694444444444,0,0,0.010850694444444444,26.085069444444443,0)" xlink:href="#Q"/><use transform="matrix(0.010850694444444444,0,0,0.010850694444444444,33.35503472222222,0)" xlink:href="#O"/><use transform="matrix(0.010850694444444444,0,0,0.010850694444444444,42.06814236111111,0)" xlink:href="#ab"/></g><use transform="matrix(0.010850694444444444,0,0,0.010850694444444444,0,0)" xlink:href="#K" id="l"/><g id="m"><use transform="matrix(0.010850694444444444,0,0,0.010850694444444444,0,0)" xlink:href="#P"/><use transform="matrix(0.010850694444444444,0,0,0.010850694444444444,11.729600694444445,0)" xlink:href="#M"/><use transform="matrix(0.010850694444444444,0,0,0.010850694444444444,24.68532986111111,0)" xlink:href="#Q"/></g><g id="n"><use transform="matrix(0.010850694444444444,0,0,0.010850694444444444,0,0)" xlink:href="#I"/><use transform="matrix(0.010850694444444444,0,0,0.010850694444444444,13.606770833333332,0)" xlink:href="#J"/><use transform="matrix(0.010850694444444444,0,0,0.010850694444444444,26.931423611111104,0)" xlink:href="#J"/><use transform="matrix(0.010850694444444444,0,0,0.010850694444444444,40.256076388888886,0)" xlink:href="#O"/></g><g id="o"><use transform="matrix(0.010850694444444444,0,0,0.010850694444444444,0,0)" xlink:href="#J"/><use transform="matrix(0.010850694444444444,0,0,0.010850694444444444,13.324652777777777,0)" xlink:href="#L"/><use transform="matrix(0.010850694444444444,0,0,0.010850694444444444,26.931423611111104,0)" xlink:href="#M"/><use transform="matrix(0.010850694444444444,0,0,0.010850694444444444,39.88715277777777,0)" xlink:href="#N"/></g><g id="p"><use transform="matrix(0.008680555555555556,0,0,0.008680555555555556,0,0)" xlink:href="#V"/><use transform="matrix(0.008680555555555556,0,0,0.008680555555555556,11.206597222222223,0)" xlink:href="#R"/><use transform="matrix(0.008680555555555556,0,0,0.008680555555555556,22.109375,0)" xlink:href="#R"/><use transform="matrix(0.008680555555555556,0,0,0.008680555555555556,33.01215277777778,0)" xlink:href="#W"/></g><path d="M128 0v-1118h300V0H128zm150-1264c-91 0-165-68-165-154 0-85 74-154 165-154 90 0 165 69 165 154 0 86-75 154-165 154" id="ac"/><g id="q"><use transform="matrix(0.008680555555555556,0,0,0.008680555555555556,0,0)" xlink:href="#ac"/><use transform="matrix(0.008680555555555556,0,0,0.008680555555555556,4.817708333333334,0)" xlink:href="#Z"/></g><g id="r"><use transform="matrix(0.008680555555555556,0,0,0.008680555555555556,0,0)" xlink:href="#R"/><use transform="matrix(0.008680555555555556,0,0,0.008680555555555556,10.902777777777779,0)" xlink:href="#S"/><use transform="matrix(0.008680555555555556,0,0,0.008680555555555556,22.109375,0)" xlink:href="#T"/><use transform="matrix(0.008680555555555556,0,0,0.008680555555555556,32.69965277777778,0)" xlink:href="#U"/></g><path d="M786 20C389 20 94-260 94-744c0-487 299-766 692-766 339 0 597 194 641 529h-309c-28-162-156-258-326-258-233 0-388 179-388 495 0 323 157 493 387 493 170 0 298-97 328-259h309c-34 277-266 530-642 530" id="ad"/><path d="M135 0v-1490h305v1237h643V0H135" id="ae"/><path d="M681 22C323 22 94-145 85-462h297c10 151 131 226 296 226 163 0 271-77 271-190 0-102-95-149-257-189l-164-41c-252-61-403-188-403-405 0-269 236-449 560-449 330 0 546 183 551 445H941c-11-119-106-188-259-188-156 0-244 72-244 172-3 156 226 185 373 221 250 61 445 186 445 436 0 271-213 446-575 446" id="af"/><g id="s"><use transform="matrix(0.010850694444444444,0,0,0.010850694444444444,0,0)" xlink:href="#ad"/><use transform="matrix(0.010850694444444444,0,0,0.010850694444444444,16.438802083333332,0)" xlink:href="#ae"/><use transform="matrix(0.010850694444444444,0,0,0.010850694444444444,28.37456597222222,0)" xlink:href="#C"/><use transform="matrix(0.010850694444444444,0,0,0.010850694444444444,45.49696180555556,0)" xlink:href="#af"/><use transform="matrix(0.010850694444444444,0,0,0.010850694444444444,60.04774305555555,0)" xlink:href="#G"/><use transform="matrix(0.010850694444444444,0,0,0.010850694444444444,66.28689236111111,0)" xlink:href="#F"/><use transform="matrix(0.010850694444444444,0,0,0.010850694444444444,83.22482638888889,0)" xlink:href="#H"/></g><path d="M613 24c-304 0-509-231-509-576 0-350 205-580 509-580 216 0 392 114 453 309l-173 49c-33-115-133-197-280-197-223 0-326 196-326 419 0 220 103 415 326 415 150 0 252-85 285-206l172 49C1010-95 832 24 613 24" id="ag"/><path d="M338-1490V0H158v-1490h180" id="ah"/><g id="t"><use transform="matrix(0.010850694444444444,0,0,0.010850694444444444,0,0)" xlink:href="#ag"/><use transform="matrix(0.010850694444444444,0,0,0.010850694444444444,12.6953125,0)" xlink:href="#ah"/><use transform="matrix(0.010850694444444444,0,0,0.010850694444444444,18.077256944444443,0)" xlink:href="#J"/><use transform="matrix(0.010850694444444444,0,0,0.010850694444444444,31.40190972222222,0)" xlink:href="#P"/><use transform="matrix(0.010850694444444444,0,0,0.010850694444444444,43.131510416666664,0)" xlink:href="#M"/></g><path d="M628 22C291 22 81-210 81-554c0-346 210-578 547-578 265 0 455 142 497 372l-279 52c-25-116-99-188-215-188-160 0-244 139-244 341 0 200 84 341 244 341 116 0 193-74 217-195l279 51C1085-123 896 22 628 22" id="ai"/><path d="M428-1490V0H128v-1490h300" id="aj"/><g id="u"><use transform="matrix(0.008680555555555556,0,0,0.008680555555555556,0,0)" xlink:href="#ai"/><use transform="matrix(0.008680555555555556,0,0,0.008680555555555556,10.460069444444445,0)" xlink:href="#aj"/><use transform="matrix(0.008680555555555556,0,0,0.008680555555555556,15.277777777777779,0)" xlink:href="#R"/><use transform="matrix(0.008680555555555556,0,0,0.008680555555555556,26.180555555555557,0)" xlink:href="#Z"/><use transform="matrix(0.008680555555555556,0,0,0.008680555555555556,36.13715277777778,0)" xlink:href="#T"/></g><g id="v"><use transform="matrix(0.010850694444444444,0,0,0.010850694444444444,0,0)" xlink:href="#ad"/><use transform="matrix(0.010850694444444444,0,0,0.010850694444444444,16.438802083333332,0)" xlink:href="#ae"/><use transform="matrix(0.010850694444444444,0,0,0.010850694444444444,28.37456597222222,0)" xlink:href="#C"/><use transform="matrix(0.010850694444444444,0,0,0.010850694444444444,45.49696180555556,0)" xlink:href="#af"/><use transform="matrix(0.010850694444444444,0,0,0.010850694444444444,60.04774305555555,0)" xlink:href="#E"/></g><g id="w"><use transform="matrix(0.010850694444444444,0,0,0.010850694444444444,0,0)" xlink:href="#M"/><use transform="matrix(0.010850694444444444,0,0,0.010850694444444444,12.955729166666666,0)" xlink:href="#N"/><use transform="matrix(0.010850694444444444,0,0,0.010850694444444444,26.085069444444443,0)" xlink:href="#Q"/><use transform="matrix(0.010850694444444444,0,0,0.010850694444444444,33.35503472222222,0)" xlink:href="#O"/><use transform="matrix(0.010850694444444444,0,0,0.010850694444444444,42.06814236111111,0)" xlink:href="#ab"/></g><g id="x"><use transform="matrix(0.010850694444444444,0,0,0.010850694444444444,0,0)" xlink:href="#P"/><use transform="matrix(0.010850694444444444,0,0,0.010850694444444444,11.729600694444445,0)" xlink:href="#M"/><use transform="matrix(0.010850694444444444,0,0,0.010850694444444444,24.68532986111111,0)" xlink:href="#Q"/></g><g id="y"><use transform="matrix(0.010850694444444444,0,0,0.010850694444444444,0,0)" xlink:href="#I"/><use transform="matrix(0.010850694444444444,0,0,0.010850694444444444,13.606770833333332,0)" xlink:href="#J"/><use transform="matrix(0.010850694444444444,0,0,0.010850694444444444,26.931423611111104,0)" xlink:href="#J"/><use transform="matrix(0.010850694444444444,0,0,0.010850694444444444,40.256076388888886,0)" xlink:href="#O"/></g><g id="z"><use transform="matrix(0.010850694444444444,0,0,0.010850694444444444,0,0)" xlink:href="#ag"/><use transform="matrix(0.010850694444444444,0,0,0.010850694444444444,12.6953125,0)" xlink:href="#ah"/><use transform="matrix(0.010850694444444444,0,0,0.010850694444444444,18.077256944444443,0)" xlink:href="#J"/><use transform="matrix(0.010850694444444444,0,0,0.010850694444444444,31.40190972222222,0)" xlink:href="#P"/><use transform="matrix(0.010850694444444444,0,0,0.010850694444444444,43.131510416666664,0)" xlink:href="#M"/><use transform="matrix(0.010850694444444444,0,0,0.010850694444444444,56.08723958333333,0)" xlink:href="#I"/></g><g id="A"><use transform="matrix(0.008680555555555556,0,0,0.008680555555555556,0,0)" xlink:href="#ai"/><use transform="matrix(0.008680555555555556,0,0,0.008680555555555556,10.460069444444445,0)" xlink:href="#aj"/><use transform="matrix(0.008680555555555556,0,0,0.008680555555555556,15.277777777777779,0)" xlink:href="#R"/><use transform="matrix(0.008680555555555556,0,0,0.008680555555555556,26.180555555555557,0)" xlink:href="#Z"/><use transform="matrix(0.008680555555555556,0,0,0.008680555555555556,36.13715277777778,0)" xlink:href="#T"/><use transform="matrix(0.008680555555555556,0,0,0.008680555555555556,46.72743055555556,0)" xlink:href="#V"/></g><path d="M659 0H135v-1490h529c448 0 721 280 721 744 0 466-273 746-726 746zM440-263h204c287 0 437-148 437-483 0-333-150-481-435-481H440v964" id="ak"/><path d="M75-1237v-253h1217v253H837V0H531v-1237H75" id="al"/><path d="M440 22C227 22 68-92 68-313c0-250 202-322 422-343 195-21 271-24 271-105 0-95-63-149-175-149-116 0-187 57-211 129l-275-46c57-194 237-305 487-305 240 0 474 108 474 379V0H777v-155h-10C713-51 605 22 440 22zm85-211c140 0 238-93 238-211v-121c-37 26-156 42-222 51-111 16-185 59-185 149 0 87 70 132 169 132" id="am"/><path d="M128 0v-1490h300v802h17l366-430h347L740-633 1179 0H826L514-456l-86 97V0H128" id="an"/><g id="B"><use transform="matrix(0.010850694444444444,0,0,0.010850694444444444,0,0)" xlink:href="#ak"/><use transform="matrix(0.010850694444444444,0,0,0.010850694444444444,16.048177083333332,0)" xlink:href="#R"/><use transform="matrix(0.010850694444444444,0,0,0.010850694444444444,29.676649305555554,0)" xlink:href="#R"/><use transform="matrix(0.010850694444444444,0,0,0.010850694444444444,43.30512152777777,0)" xlink:href="#W"/><use transform="matrix(0.010850694444444444,0,0,0.010850694444444444,52.354600694444436,0)" xlink:href="#ad"/><use transform="matrix(0.010850694444444444,0,0,0.010850694444444444,68.79340277777777,0)" xlink:href="#R"/><use transform="matrix(0.010850694444444444,0,0,0.010850694444444444,82.421875,0)" xlink:href="#U"/><use transform="matrix(0.010850694444444444,0,0,0.010850694444444444,96.25651041666666,0)" xlink:href="#aa"/><use transform="matrix(0.010850694444444444,0,0,0.010850694444444444,104.39453125,0)" xlink:href="#W"/><use transform="matrix(0.010850694444444444,0,0,0.010850694444444444,112.90147569444444,0)" xlink:href="#R"/><use transform="matrix(0.010850694444444444,0,0,0.010850694444444444,126.52994791666666,0)" xlink:href="#aj"/><use transform="matrix(0.010850694444444444,0,0,0.010850694444444444,132.55208333333331,0)" xlink:href="#al"/><use transform="matrix(0.010850694444444444,0,0,0.010850694444444444,145.7573784722222,0)" xlink:href="#am"/><use transform="matrix(0.010850694444444444,0,0,0.010850694444444444,158.65885416666666,0)" xlink:href="#Z"/><use transform="matrix(0.010850694444444444,0,0,0.010850694444444444,171.10460069444443,0)" xlink:href="#an"/></g></defs></g></svg>