<svg xmlns="http://www.w3.org/2000/svg" xmlns:xlink="http://www.w3.org/1999/xlink" xmlns:lucid="lucid" width="1814" height="1421"><g transform="translate(1221 6160)" lucid:page-tab-id="0_0"><path d="M-2500-13000h6500v10500h-6500z" fill="#fff"/><path d="M-620-6154a6 6 0 0 1 6-6h228a6 6 0 0 1 6 6v48a6 6 0 0 1-6 6h-228a6 6 0 0 1-6-6z" fill="none"/><use xlink:href="#a" transform="matrix(1,0,0,1,-620,-6160) translate(62.518446180555564 38.083767361111114)"/><path d="M-556-6000c-33.14 0-60 26.86-60 60v180c0 33.14 26.86 60 60 60h453.42c33.14 0 60-26.86 60-60v-180c0-33.14-26.86-60-60-60z" stroke="#000" stroke-width="2" fill="#fff"/><path d="M-613.83-5956h569.08" stroke="#000" stroke-width="2" fill="none"/><use xlink:href="#b" transform="matrix(1,0,0,1,-501.3162356370114,-6000) translate(143.76193576388889 30.08376736111111)"/><use xlink:href="#c" transform="matrix(1,0,0,1,-558.6581178185057,-5940) translate(195.09244791666669 55.55251736111112)"/><use xlink:href="#d" transform="matrix(1,0,0,1,-558.6581178185057,-5940) translate(255.89973958333334 55.55251736111112)"/><use xlink:href="#e" transform="matrix(1,0,0,1,-558.6581178185057,-5940) translate(72.70203993055557 87.81814236111111)"/><use xlink:href="#f" transform="matrix(1,0,0,1,-558.6581178185057,-5940) translate(199.49782986111111 120.08376736111111)"/><use xlink:href="#g" transform="matrix(1,0,0,1,-558.6581178185057,-5940) translate(232.20182291666669 120.08376736111111)"/><use xlink:href="#h" transform="matrix(1,0,0,1,-558.6581178185057,-5940) translate(159.13324652777777 152.34939236111111)"/><use xlink:href="#i" transform="matrix(1,0,0,1,-558.6581178185057,-5940) translate(211.09722222222223 152.34939236111111)"/><use xlink:href="#j" transform="matrix(1,0,0,1,-558.6581178185057,-5940) translate(267.04340277777777 152.34939236111111)"/><use xlink:href="#k" transform="matrix(1,0,0,1,-558.6581178185057,-5940) translate(37.71940104166666 184.61501736111111)"/><use xlink:href="#l" transform="matrix(1,0,0,1,-558.6581178185057,-5940) translate(131.33919270833331 184.61501736111111)"/><use xlink:href="#m" transform="matrix(1,0,0,1,-558.6581178185057,-5940) translate(145.59700520833331 184.61501736111111)"/><use xlink:href="#n" transform="matrix(1,0,0,1,-558.6581178185057,-5940) translate(183.5310329861111 184.61501736111111)"/><use xlink:href="#o" transform="matrix(1,0,0,1,-558.6581178185057,-5940) translate(330.49283854166663 184.61501736111111)"/><path d="M-572.7-5060c-35.36 0-64 28.65-64 64v192c0 35.35 28.64 64 64 64h445.4c35.36 0 64-28.65 64-64v-192c0-35.35-28.64-64-64-64z" stroke="#000" stroke-width="2" fill="#fff"/><path d="M-633.5-5016h567" stroke="#000" stroke-width="2" fill="none"/><use xlink:href="#p" transform="matrix(1,0,0,1,-522.0256465444829,-5060) translate(108.04144965277777 30.08376736111111)"/><use xlink:href="#q" transform="matrix(1,0,0,1,-579.3675287259772,-5000) translate(195.09244791666669 65.55251736111111)"/><use xlink:href="#r" transform="matrix(1,0,0,1,-579.3675287259772,-5000) translate(255.89973958333334 65.55251736111111)"/><use xlink:href="#s" transform="matrix(1,0,0,1,-579.3675287259772,-5000) translate(37.87131076388894 97.81814236111111)"/><use xlink:href="#t" transform="matrix(1,0,0,1,-579.3675287259772,-5000) translate(170.66753472222223 130.08376736111111)"/><use xlink:href="#u" transform="matrix(1,0,0,1,-579.3675287259772,-5000) translate(233.00477430555554 130.08376736111111)"/><use xlink:href="#v" transform="matrix(1,0,0,1,-579.3675287259772,-5000) translate(159.13324652777777 162.34939236111111)"/><use xlink:href="#w" transform="matrix(1,0,0,1,-579.3675287259772,-5000) translate(211.09722222222223 162.34939236111111)"/><use xlink:href="#x" transform="matrix(1,0,0,1,-579.3675287259772,-5000) translate(267.04340277777777 162.34939236111111)"/><use xlink:href="#y" transform="matrix(1,0,0,1,-579.3675287259772,-5000) translate(53.07313368055554 194.61501736111111)"/><use xlink:href="#z" transform="matrix(1,0,0,1,-579.3675287259772,-5000) translate(140.4429253472222 194.61501736111111)"/><use xlink:href="#A" transform="matrix(1,0,0,1,-579.3675287259772,-5000) translate(154.7007378472222 194.61501736111111)"/><use xlink:href="#B" transform="matrix(1,0,0,1,-579.3675287259772,-5000) translate(192.63476562499997 194.61501736111111)"/><use xlink:href="#C" transform="matrix(1,0,0,1,-579.3675287259772,-5000) translate(339.59657118055554 194.61501736111111)"/><path d="M121.1-5585.5c-33.74 0-61.1 27.35-61.1 61.1v183.3c0 33.75 27.36 61.1 61.1 61.1h409.8c33.75 0 61.1-27.35 61.1-61.1v-183.3c0-33.75-27.36-61.1-61.1-61.1z" stroke="#000" stroke-width="2" fill="#fff"/><path d="M62.44-5541.5h527.12" stroke="#000" stroke-width="2" fill="none"/><use xlink:href="#D" transform="matrix(1,0,0,1,166.4,-5585.5) translate(90.90277777777777 30.08376736111111)"/><use xlink:href="#E" transform="matrix(1,0,0,1,113.2,-5525.5) translate(178.59244791666669 42.41970486111112)"/><use xlink:href="#F" transform="matrix(1,0,0,1,113.2,-5525.5) translate(239.39973958333334 42.41970486111112)"/><use xlink:href="#G" transform="matrix(1,0,0,1,113.2,-5525.5) translate(17.0852864583334 74.68532986111111)"/><use xlink:href="#H" transform="matrix(1,0,0,1,113.2,-5525.5) translate(155.70290798611111 106.95095486111111)"/><use xlink:href="#u" transform="matrix(1,0,0,1,113.2,-5525.5) translate(214.96940104166666 106.95095486111111)"/><use xlink:href="#I" transform="matrix(1,0,0,1,113.2,-5525.5) translate(80.94162326388889 139.21657986111111)"/><use xlink:href="#J" transform="matrix(1,0,0,1,113.2,-5525.5) translate(118.87565104166666 139.21657986111111)"/><use xlink:href="#K" transform="matrix(1,0,0,1,113.2,-5525.5) translate(169.94986979166666 139.21657986111111)"/><use xlink:href="#L" transform="matrix(1,0,0,1,113.2,-5525.5) translate(276.66644965277777 139.21657986111111)"/><use xlink:href="#M" transform="matrix(1,0,0,1,113.2,-5525.5) translate(168.615234375 171.48220486111111)"/><use xlink:href="#N" transform="matrix(1,0,0,1,113.2,-5525.5) translate(224.56141493055554 171.48220486111111)"/><use xlink:href="#O" transform="matrix(1,0,0,1,113.2,-5525.5) translate(70.82335069444446 203.74782986111111)"/><use xlink:href="#P" transform="matrix(1,0,0,1,113.2,-5525.5) translate(121.58289930555557 203.74782986111111)"/><use xlink:href="#Q" transform="matrix(1,0,0,1,113.2,-5525.5) translate(156.73914930555557 203.74782986111111)"/><use xlink:href="#R" transform="matrix(1,0,0,1,113.2,-5525.5) translate(275.5217013888889 203.74782986111111)"/><path d="M-1096-5600c-35.35 0-64 28.65-64 64v192c0 35.35 28.65 64 64 64h404c35.35 0 64-28.65 64-64v-192c0-35.35-28.65-64-64-64z" stroke="#000" stroke-width="2" fill="#fff"/><path d="M-1156.8-5556h525.6" stroke="#000" stroke-width="2" fill="none"/><use xlink:href="#S" transform="matrix(1,0,0,1,-1053.6,-5600) translate(110.01627604166667 30.08376736111111)"/><use xlink:href="#c" transform="matrix(1,0,0,1,-1106.8,-5540) translate(178.59244791666669 49.41970486111112)"/><use xlink:href="#T" transform="matrix(1,0,0,1,-1106.8,-5540) translate(239.39973958333334 49.41970486111112)"/><use xlink:href="#U" transform="matrix(1,0,0,1,-1106.8,-5540) translate(34.34874131944446 81.68532986111111)"/><use xlink:href="#V" transform="matrix(1,0,0,1,-1106.8,-5540) translate(155.70290798611111 113.95095486111111)"/><use xlink:href="#W" transform="matrix(1,0,0,1,-1106.8,-5540) translate(214.96940104166666 113.95095486111111)"/><use xlink:href="#X" transform="matrix(1,0,0,1,-1106.8,-5540) translate(68.93532986111111 146.21657986111111)"/><use xlink:href="#Y" transform="matrix(1,0,0,1,-1106.8,-5540) translate(151.92144097222223 146.21657986111111)"/><use xlink:href="#Z" transform="matrix(1,0,0,1,-1106.8,-5540) translate(270.70399305555554 146.21657986111111)"/><use xlink:href="#aa" transform="matrix(1,0,0,1,-1106.8,-5540) translate(168.615234375 178.48220486111111)"/><use xlink:href="#ab" transform="matrix(1,0,0,1,-1106.8,-5540) translate(224.56141493055554 178.48220486111111)"/><use xlink:href="#ac" transform="matrix(1,0,0,1,-1106.8,-5540) translate(61.33984375 210.74782986111111)"/><use xlink:href="#ad" transform="matrix(1,0,0,1,-1106.8,-5540) translate(99.27387152777777 210.74782986111111)"/><use xlink:href="#ae" transform="matrix(1,0,0,1,-1106.8,-5540) translate(246.23567708333331 210.74782986111111)"/><path d="M-480-6080c0 11.05-8.95 20-20 20s-20-8.95-20-20 8.95-20 20-20 20 8.95 20 20z" stroke="#000" stroke-width="2"/><path d="M-499.98-6058.5v.14l.04.3.05.32.06.3.08.32.1.32.1.3.1.34.15.32.15.34.17.34.2.36.24.36.27.38.3.4.34.42.4.43.45.46.53.5.6.52.73.57.86.62 1.02.68 1.24.75 1.53.84 1.9.95 2.46 1.07 3.2 1.27 4.4 1.52 6.3 1.9 9.95 2.54 20 4.18 68.97 13.03 9.95 2.54 6.3 1.9 4.4 1.52 3.2 1.27 2.46 1.08 1.9.96 1.54.84 1.24.75 1.03.68.86.62.47.38" stroke="#3a414a" stroke-linejoin="round" fill="none"/><path d="M-500.05-6059l.53-.02v.52l-.94.02-.02-.57z" stroke="#3a414a" stroke-width=".05" fill="#3a414a"/><path d="M-335.75-6021.86l.12 20-17.38-9.9m17.37 9.9l-4.3-7.34" stroke="#3a414a" fill="none"/><path d="M226.1-5020.5v.02l-10.82 11.05v.02h-.02l-11.3 10.6v.02h-.02l-11.8 10.2h-.02l-12.28 9.73-.02.02-12.73 9.25h-.02l-13.2 8.77h-.02l-13.63 8.26-14.07 7.73-14.48 7.18h-.02l-14.86 6.63h-.02v.02l-15.25 6.03h-.02l-15.6 5.45h-.02l-16 4.83-16.34 4.2h-.02l-16.67 3.54h-.02l-17 2.88H-.2l-17.33 2.2h-.02l-17.65 1.48h-.02l-17.6.73-.05-.94 17.6-.74 17.63-1.48 17.3-2.2 17-2.86 16.65-3.54 16.33-4.18 15.96-4.82 15.6-5.44 15.22-6.02 14.85-6.6 14.45-7.18 14.03-7.72 13.6-8.24 13.2-8.75 12.7-9.25 12.27-9.7 11.8-10.2 11.3-10.6 10.8-11.03 8.2-9.13h1.3zm100.36-257.98l-.34 16.6v.02l-1.06 16.76v.02l-1.72 16.42v.02l-2.38 16.1-3 15.8h-.02l-3.63 15.47v.02l-4.22 15.15v.02l-4.83 14.85v.02l-5.42 14.53v.02l-5.98 14.23v.02l-6.56 13.9v.02h-.02l-7.1 13.6v.02h-.02l-7.66 13.27v.02l-8.2 12.93h-.02v.02l-8.74 12.58h-.02v.02l-3.24 4.26h-1.2l3.68-4.83 8.73-12.56 8.2-12.92 7.64-13.25 7.1-13.57 6.53-13.9 5.98-14.2 5.4-14.53 4.82-14.83 4.22-15.14 3.6-15.44 3.02-15.76 2.37-16.07 1.72-16.4 1.05-16.74.34-16.6z" stroke="#3a414a" stroke-width=".05" fill="#3a414a"/><path d="M326.46-5278.47l-.95-.02.02-.5h.96z" fill="#3a414a"/><path stroke="#3a414a" stroke-width=".05" fill="#3a414a"/><path d="M-43.84-4909.8l-15.68 9.3 6.72-.1v.97l-6.7.07 15.88 8.93-.47.83-18.14-10.2 17.9-10.62z" stroke="#3a414a" stroke-width=".05" fill="#3a414a"/><g><use xlink:href="#af" transform="matrix(1,0,0,1,200.29217817380368,-5051.768834392444) translate(0 17.22222222222222)"/></g><path d="M-860.18-5077.37l6.43 16.26 6.62 14.86 6.74 13.6 6.84 12.42 6.9 11.38 6.9 10.43 6.97 9.56 6.98 8.8 7 8.1 7 7.47 7.02 6.88 7.06 6.37 7.1 5.87 7.14 5.42 7.2 5 7.28 4.63 7.37 4.25 7.48 3.9 7.6 3.6 7.76 3.24 7.9 2.94 8.13 2.64 8.34 2.33 8.6 2.02 8.88 1.7 9.2 1.35 9.58 1 10 .64 9.96.22-.02.94-10-.2-10.02-.63h-.02l-9.6-1-9.24-1.38h-.02l-8.9-1.7h-.02l-8.62-2.02-8.38-2.34v-.02l-8.15-2.64-7.95-2.96h-.02l-7.77-3.27h-.02l-7.62-3.6h-.02l-7.5-3.92-7.4-4.27h-.02l-7.3-4.63v-.02l-7.23-5v-.02h-.02l-7.16-5.44v-.02l-7.12-5.9h-.02l-7.07-6.37-7.06-6.9v-.02l-7.03-7.48-7.02-8.12v-.02l-7-8.82-6.97-9.6v-.02l-6.95-10.44v-.02l-6.9-11.4h-.02v-.02l-6.83-12.44v-.02l-6.76-13.6v-.02l-6.62-14.9-6.45-16.3-3.44-9.9h1zm-33.2-187.32l1.2 28.28 2.28 27.37 3.3 26.07 4.13 24.52 4.85 22.82 5.4 21.1 1.85 6.1h-1l-1.76-5.84v-.02l-5.42-21.1v-.02l-4.85-22.85v-.02l-4.15-24.53v-.02l-3.3-26.1-2.3-27.4v-.02l-1.18-28.3-.05-4.88h.95z" stroke="#3a414a" stroke-width=".05" fill="#3a414a"/><path d="M-637.7-4900.48v.95h-.54l.02-.96z" fill="#3a414a"/><path stroke="#3a414a" stroke-width=".05" fill="#3a414a"/><path d="M-883.4-5261.03l-.82.5-9.28-15.7.07 6.72h-.95l-.07-6.72-8.94 15.88-.82-.47 10.22-18.15z" stroke="#3a414a" stroke-width=".05" fill="#3a414a"/><g><use xlink:href="#ag" transform="matrix(1,0,0,1,-1155.0224687742586,-5108.442514585959) translate(0 17.22222222222222)"/><use xlink:href="#ah" transform="matrix(1,0,0,1,-1155.0224687742586,-5108.442514585959) translate(41.736111111111114 17.22222222222222)"/><use xlink:href="#ai" transform="matrix(1,0,0,1,-1155.0224687742586,-5108.442514585959) translate(98.72395833333334 17.22222222222222)"/><use xlink:href="#aj" transform="matrix(1,0,0,1,-1155.0224687742586,-5108.442514585959) translate(203.13368055555557 17.22222222222222)"/><use xlink:href="#ak" transform="matrix(1,0,0,1,-1155.0224687742586,-5108.442514585959) translate(304.9045138888889 17.22222222222222)"/><use xlink:href="#al" transform="matrix(1,0,0,1,-1155.0224687742586,-5108.442514585959) translate(322.3263888888889 17.22222222222222)"/><use xlink:href="#am" transform="matrix(1,0,0,1,-1155.0224687742586,-5108.442514585959) translate(382.2916666666667 17.22222222222222)"/><use xlink:href="#an" transform="matrix(1,0,0,1,-1155.0224687742586,-5108.442514585959) translate(410.390625 17.22222222222222)"/></g><path d="M-854.83-5731.6l-5.2 8.2-4.83 8.35-4.45 8.5-4.08 8.66-3.7 8.83-3.35 9-2.98 9.14-2.6 9.34-2.25 9.54-1.85 9.73-1.47 9.95-1.07 10.2-.66 10.45-.22 10.24h-.94l.2-10.26v-.02l.67-10.47v-.02l1.08-10.2v-.02l1.48-9.98v-.02l1.86-9.75v-.02l2.25-9.55v-.02l2.6-9.35h.02l2.97-9.2 3.35-9v-.02l3.73-8.84v-.02l4.1-8.68v-.02l4.45-8.52v-.02l4.85-8.37 5.22-8.22v-.02l4.67-6.7h1.16zm228.4-117.75l-11.27.47-13.57 1.14-13.36 1.7-13.1 2.2-12.83 2.73-12.52 3.2-12.2 3.68-11.82 4.12-11.45 4.54-11.07 4.92-10.65 5.3-10.23 5.6-9.8 5.95-9.38 6.24-8.94 6.5-8.5 6.73-8.08 6.97-7.64 7.17-7.22 7.38-2.22 2.46h-1.27l2.8-3.1v-.02l7.24-7.38v-.02l7.66-7.18v-.02l8.1-6.98h.02l8.5-6.76h.02l8.97-6.52 9.4-6.25h.02l9.8-5.94h.02v-.02l10.26-5.63h.02l10.67-5.3h.02l11.07-4.94h.02l11.46-4.55h.02l11.85-4.12h.02l12.2-3.7h.02l12.54-3.2h.02v-.02l12.86-2.73h.02l13.12-2.22h.02l13.38-1.68 13.6-1.14h.02l11.3-.48z" stroke="#3a414a" stroke-width=".05" fill="#3a414a"/><path d="M-893.5-5601.5l-.02.5h-.96l.02-.53z" fill="#3a414a"/><path stroke="#3a414a" stroke-width=".05" fill="#3a414a"/><path d="M-617.05-5850l-17.84 10.75-.48-.8 15.62-9.42-6.73.12v-.95l6.72-.12-15.95-8.82.46-.83z" stroke="#3a414a" stroke-width=".05" fill="#3a414a"/><g><use xlink:href="#ao" transform="matrix(1,0,0,1,-882.132405538418,-5760.357123456805) translate(0.005000000000002558 17.22222222222222)"/></g><path d="M-1220-4980h292l48 48v192h-340z" stroke="#000" stroke-width="2" fill="#fff"/><path d="M-928-4979.05v47.05h47.05" stroke="#000" stroke-width="2" fill="#fff"/><g><use xlink:href="#ap" transform="matrix(1,0,0,1,-1215,-4975) translate(0 110.65972222222223)"/><use xlink:href="#aq" transform="matrix(1,0,0,1,-1215,-4975) translate(161.90972222222226 110.65972222222223)"/><use xlink:href="#ar" transform="matrix(1,0,0,1,-1215,-4975) translate(0 136.47222222222223)"/></g><path d="M-922.92-4977.05l2-2.1 1.46-1.7m3.2-4l1.75-2.5 1.98-3.14 1.73-3.04m2.33-4.58l1.82-4.06 2.1-5.43m1.62-4.88l.9-2.73 2.1-7.1m1.46-4.93l2.9-9.85m1.47-4.92l1.1-3.7 1.7-4.4.7-1.55m2.2-4.62l.1-.15 1.4-2.5 1.4-2.2 1.4-1.97 1.36-1.73m3.48-3.78l1.05-1 1.6-1.4 1.7-1.32 1.78-1.27 1.9-1.2.1-.04m4.53-2.4l2.03-.9 2.64-1.03.08-.03" stroke="#3a414a" stroke-linejoin="round" fill="none"/><path d="M-922.57-4976.73l-.36.38-.68-.67.34-.36z" stroke="#3a414a" stroke-width=".05" fill="#3a414a"/><path d="M-861.86-5079.2l.48-.17" stroke="#3a414a" fill="none"/><path d="M281.92-5722.5v.02l5.54 7.6v.02l5.12 7.68 4.7 7.78h.02l4.32 7.88v.02l3.97 7.98 3.6 8.13h.02v.02l3.28 8.28v.02l2.94 8.44v.02l2.62 8.65v.02l2.3 8.88v.02l1.93 9.14 1.6 9.44v.02l1.23 9.76v.02l.85 10.13v.02l.27 6.54-.95.04-.27-6.54-.85-10.1-1.23-9.75-1.6-9.42-1.93-9.12-2.27-8.86-2.6-8.63-2.94-8.43-3.26-8.25-3.6-8.1-3.96-7.97-4.3-7.85-4.7-7.75-5.1-7.66-5.5-7.6-5.45-6.86h1.2zm-298.65-127.45h.02l24.5 1.54 23.85 2.5h.02l22.93 3.38h.02l21.83 4.16h.02l20.6 4.84h.02l19.32 5.4h.02l18.02 5.85h.02l16.73 6.22h.02l15.5 6.52h.02l14.33 6.74v.02l13.24 6.9v.02h.02l12.2 7.04h.02l11.26 7.15v.02l10.4 7.2v.02l9.6 7.28h.02l8.85 7.33h.02l8.17 7.38 2.18 2.14h-1.35l-1.48-1.44-8.16-7.35-8.84-7.3-9.57-7.27-10.37-7.2-11.24-7.13-12.18-7.03-13.2-6.9-14.3-6.73-15.5-6.5-16.7-6.2-18-5.86-19.3-5.38-20.6-4.83-21.8-4.15-22.92-3.4-23.82-2.5-24.48-1.53-24.33-.52.03-.94z" stroke="#3a414a" stroke-width=".05" fill="#3a414a"/><path d="M-41.05-5850.46l-.02.95-.5-.02v-.95z" fill="#3a414a"/><path stroke="#3a414a" stroke-width=".05" fill="#3a414a"/><path d="M335.98-5604.82l-9.98 18.27-10.84-17.78.8-.5 9.5 15.57-.16-6.73h.95l.16 6.72 8.75-16z" stroke="#3a414a" stroke-width=".05" fill="#3a414a"/><g><use xlink:href="#ag" transform="matrix(1,0,0,1,60.49716756220363,-5750.300389566861) translate(0.0049999999999954525 17.22222222222222)"/><use xlink:href="#ah" transform="matrix(1,0,0,1,60.49716756220363,-5750.300389566861) translate(41.74111111111111 17.22222222222222)"/><use xlink:href="#ai" transform="matrix(1,0,0,1,60.49716756220363,-5750.300389566861) translate(98.72895833333334 17.22222222222222)"/><use xlink:href="#am" transform="matrix(1,0,0,1,60.49716756220363,-5750.300389566861) translate(203.13868055555557 17.22222222222222)"/><use xlink:href="#aj" transform="matrix(1,0,0,1,60.49716756220363,-5750.300389566861) translate(231.2376388888889 17.22222222222222)"/><use xlink:href="#ak" transform="matrix(1,0,0,1,60.49716756220363,-5750.300389566861) translate(333.0084722222222 17.22222222222222)"/><use xlink:href="#as" transform="matrix(1,0,0,1,60.49716756220363,-5750.300389566861) translate(350.4303472222222 17.22222222222222)"/></g><path d="M-169.34-5477.17l16.05 6.75 17.52 6.5 19.05 6.2 20.7 5.76 22.33 5.23 24 4.57 25.5 3.77 26.87 2.83 27.87 1.75 27.96.6-.02.93-27.97-.57-27.9-1.75h-.02l-26.88-2.83h-.02l-25.54-3.77h-.02l-24-4.57h-.02l-22.37-5.24h-.02l-20.7-5.78-19.08-6.2h-.02l-17.53-6.52h-.02l-16.06-6.75h-.02l-4.7-2.2h2.22zM-328.3-5682.9l.84 10.18 1.23 9.77 1.6 9.4 1.93 9.12 2.26 8.82 2.6 8.58 2.9 8.37 3.25 8.18 3.58 8.02 3.9 7.88 4.28 7.76 4.63 7.65 5.03 7.57 5.45 7.5 5.9 7.45 6.4 7.4 6.9 7.36 7.5 7.33 8.1 7.3 8.82 7.3 9.57 7.26 10.4 7.23 8.56 5.43h-1.77l-7.3-4.63-10.44-7.25v-.02l-9.6-7.27-8.84-7.3-.02-.02-8.13-7.32h-.02l-7.5-7.36-6.93-7.4h-.02l-6.4-7.42-5.92-7.47-5.48-7.53-5.05-7.6v-.02l-4.66-7.67v-.02l-4.3-7.78v-.02l-3.92-7.9-3.58-8.05-3.26-8.2v-.02l-2.93-8.4v-.02l-2.6-8.6v-.02l-2.28-8.85v-.02l-1.94-9.13v-.02l-1.6-9.44v-.02l-1.24-9.8-.86-10.2v-.02l-.28-6.7.95-.04z" stroke="#3a414a" stroke-width=".05" fill="#3a414a"/><path d="M59-5433.23v.95h-.53l.02-.96z" fill="#3a414a"/><path stroke="#3a414a" stroke-width=".05" fill="#3a414a"/><path d="M-318.46-5681.17l-.8.5-9.5-15.57.17 6.73h-.94l-.16-6.72-8.74 16-.83-.46 9.98-18.27z" stroke="#3a414a" stroke-width=".05" fill="#3a414a"/><g><use xlink:href="#at" transform="matrix(1,0,0,1,-261.59571081765426,-5500.022862684502) translate(0 17.22222222222222)"/><use xlink:href="#au" transform="matrix(1,0,0,1,-261.59571081765426,-5500.022862684502) translate(53.263888888888886 17.22222222222222)"/></g><path d="M-424.27-5331.03l7.56 11.38 7.44 12.3v.02l7.3 13.3 7.13 14.35v.02l6.9 15.47v.02l6.6 16.67 6.23 17.9 5.77 19.14v.02l5.23 20.36v.02l4.58 21.54v.02l3.82 22.6v.02l2.98 23.53v.02l2.03 24.23v.02l1.05 24.66v.02l.03 2.95h-.95l-.04-2.93-1.04-24.66-2.03-24.2-2.96-23.5-3.82-22.6-4.57-21.5-5.22-20.35-5.76-19.1-6.22-17.87-6.6-16.64-6.86-15.47-7.1-14.33-7.3-13.26-7.43-12.27-7.55-11.35-6.13-8.45h1.17zm-191.37-109.2h.02l10.88.68h.02l10.5 1.1 10.14 1.5h.02l9.8 1.87h.02l9.54 2.24h.02l9.28 2.6h.02l9.05 2.94h.02l8.85 3.3h.02l8.7 3.66 8.55 4.03h.02l8.4 4.4h.02l8.3 4.8 8.2 5.2h.02v.02l8.12 5.64 8.05 6.1v.02h.02l7.97 6.6v.02h.02l7.92 7.13 7.88 7.72 7.7 8.2h-1.3l-7.08-7.53-7.85-7.7-7.9-7.1-7.96-6.6-8.02-6.1-8.1-5.6-8.18-5.2-8.28-4.8-8.4-4.37-8.52-4-8.67-3.66-8.83-3.3-9.04-2.93-9.26-2.6-9.5-2.22-9.8-1.87-10.1-1.5-10.47-1.1-10.87-.67-10.83-.22v-.94z" stroke="#3a414a" stroke-width=".05" fill="#3a414a"/><path d="M-626.47-5440.46l-.02.95-.5-.02v-.95z" fill="#3a414a"/><path stroke="#3a414a" stroke-width=".05" fill="#3a414a"/><path d="M-339.78-5079.2l-10.22 18.15-10.6-17.92.82-.5 9.28 15.7-.07-6.72h.95l.07 6.72 8.94-15.88z" stroke="#3a414a" stroke-width=".05" fill="#3a414a"/><g><use xlink:href="#at" transform="matrix(1,0,0,1,-508.61404750370554,-5360.438745375932) translate(0 17.22222222222222)"/><use xlink:href="#av" transform="matrix(1,0,0,1,-508.61404750370554,-5360.438745375932) translate(53.263888888888886 17.22222222222222)"/></g><defs><path d="M659 0H135v-1490h529c448 0 721 280 721 744 0 466-273 746-726 746zM440-263h204c287 0 437-148 437-483 0-333-150-481-435-481H440v964" id="aw"/><path d="M128 0v-1118h290v195h12c54-169 184-238 367-200v268c-27-8-86-15-130-15-138 0-239 95-239 234V0H128" id="ax"/><path d="M628 22C291 22 81-210 81-554c0-346 210-578 547-578 336 0 547 232 547 578 0 344-211 576-547 576zm0-236c160 0 242-146 242-341 0-197-82-341-242-341S387-753 387-555c0 195 81 341 241 341" id="ay"/><path d="M428-647V0H128v-1118h283l4 231c63-156 176-245 348-245 232 0 384 159 384 421V0H847v-659c0-139-76-222-202-222-128 0-217 86-217 234" id="az"/><path d="M633 22C291 22 81-200 81-553c0-345 210-579 537-579 292 0 525 185 525 567v84H378c7 183 109 277 260 277 105 0 184-46 216-132l272 51C1071-99 893 22 633 22zM380-669h474c-15-146-94-237-233-237-143 0-229 99-241 237" id="aA"/><path d="M75-1237v-253h1217v253H837V0H531v-1237H75" id="aB"/><path d="M440 22C227 22 68-92 68-313c0-250 202-322 422-343 195-21 271-24 271-105 0-95-63-149-175-149-116 0-187 57-211 129l-275-46c57-194 237-305 487-305 240 0 474 108 474 379V0H777v-155h-10C713-51 605 22 440 22zm85-211c140 0 238-93 238-211v-121c-37 26-156 42-222 51-111 16-185 59-185 149 0 87 70 132 169 132" id="aC"/><path d="M572 22C302 22 117-98 78-306l279-48c29 105 101 156 224 156 114 0 185-48 185-115 0-118-228-130-337-155-215-49-322-150-322-317 0-215 187-347 470-347 265 0 424 116 466 298l-266 47c-24-76-87-130-196-130-98 0-174 46-174 113 0 56 38 95 144 117l201 40c216 44 320 143 320 302 0 220-207 367-500 367" id="aD"/><path d="M128 0v-1490h300v802h17l366-430h347L740-633 1179 0H826L514-456l-86 97V0H128" id="aE"/><g id="a"><use transform="matrix(0.010850694444444444,0,0,0.010850694444444444,0,0)" xlink:href="#aw"/><use transform="matrix(0.010850694444444444,0,0,0.010850694444444444,16.048177083333332,0)" xlink:href="#ax"/><use transform="matrix(0.010850694444444444,0,0,0.010850694444444444,24.55512152777778,0)" xlink:href="#ay"/><use transform="matrix(0.010850694444444444,0,0,0.010850694444444444,38.18359375,0)" xlink:href="#az"/><use transform="matrix(0.010850694444444444,0,0,0.010850694444444444,52.018229166666664,0)" xlink:href="#aA"/><use transform="matrix(0.010850694444444444,0,0,0.010850694444444444,63.51996527777778,0)" xlink:href="#aB"/><use transform="matrix(0.010850694444444444,0,0,0.010850694444444444,76.72526041666666,0)" xlink:href="#aC"/><use transform="matrix(0.010850694444444444,0,0,0.010850694444444444,89.62673611111111,0)" xlink:href="#aD"/><use transform="matrix(0.010850694444444444,0,0,0.010850694444444444,102.07248263888887,0)" xlink:href="#aE"/></g><path d="M135 0v-1490h581c339 0 533 192 533 485 0 204-94 351-264 424L1302 0H964L680-532H440V0H135zm305-779h220c186 0 274-77 274-226 0-150-88-233-275-233H440v459" id="aF"/><path d="M135 0v-1490h997v253H440v360h640v249H440v375h694V0H135" id="aG"/><path d="M681 22C323 22 94-145 85-462h297c10 151 131 226 296 226 163 0 271-77 271-190 0-102-95-149-257-189l-164-41c-252-61-403-188-403-405 0-269 236-449 560-449 330 0 546 183 551 445H941c-11-119-106-188-259-188-156 0-244 72-244 172-3 156 226 185 373 221 250 61 445 186 445 436 0 271-213 446-575 446" id="aH"/><g id="b"><use transform="matrix(0.010850694444444444,0,0,0.010850694444444444,0,0)" xlink:href="#aF"/><use transform="matrix(0.010850694444444444,0,0,0.010850694444444444,14.594184027777777,0)" xlink:href="#aG"/><use transform="matrix(0.010850694444444444,0,0,0.010850694444444444,28.092447916666664,0)" xlink:href="#aH"/><use transform="matrix(0.010850694444444444,0,0,0.010850694444444444,42.643229166666664,0)" xlink:href="#aB"/></g><path d="M628 24c-324 0-524-230-524-574 0-343 198-582 503-582 237 0 487 146 487 559v75H286c9 234 145 362 343 362 132 0 231-58 273-172l174 48C1024-91 857 24 628 24zM287-650h624c-17-190-120-322-304-322-192 0-309 151-320 322" id="aI"/><path d="M338-670V0H158v-1118h173l1 207c72-158 192-221 342-221 226 0 378 139 378 422V0H872v-695c0-172-96-275-252-275-161 0-282 109-282 300" id="aJ"/><path d="M598-1118v154H368v674c0 100 37 144 132 144 23 0 62-6 92-12L629-6c-37 13-88 20-134 20-193 0-307-107-307-290v-688H20v-154h168v-266h180v266h230" id="aK"/><path d="M158 0v-1118h174v172h12c41-113 157-188 290-188 26 0 70 2 91 3v181c-11-2-60-10-108-10-161 0-279 109-279 260V0H158" id="aL"/><path d="M140 405l46-156c120 36 205 19 263-150l32-93L54-1118h197c107 313 237 620 324 950 87-331 219-637 326-950h196L606 167c-68 178-176 259-334 259-64 0-113-12-132-21" id="aM"/><g id="c"><use transform="matrix(0.010850694444444444,0,0,0.010850694444444444,0,0)" xlink:href="#aI"/><use transform="matrix(0.010850694444444444,0,0,0.010850694444444444,12.955729166666666,0)" xlink:href="#aJ"/><use transform="matrix(0.010850694444444444,0,0,0.010850694444444444,26.085069444444443,0)" xlink:href="#aK"/><use transform="matrix(0.010850694444444444,0,0,0.010850694444444444,33.35503472222222,0)" xlink:href="#aL"/><use transform="matrix(0.010850694444444444,0,0,0.010850694444444444,42.06814236111111,0)" xlink:href="#aM"/></g><path d="M692-1560L212 224H46l480-1784h166" id="aN"/><use transform="matrix(0.010850694444444444,0,0,0.010850694444444444,0,0)" xlink:href="#aN" id="d"/><path d="M613 24c-304 0-509-231-509-576 0-350 205-580 509-580 216 0 392 114 453 309l-173 49c-33-115-133-197-280-197-223 0-326 196-326 419 0 220 103 415 326 415 150 0 252-85 285-206l172 49C1010-95 832 24 613 24" id="aO"/><path d="M613 24c-304 0-509-231-509-576 0-350 205-580 509-580 305 0 511 230 511 580 0 345-206 576-511 576zm0-161c226 0 329-195 329-415 0-222-103-419-329-419-223 0-326 196-326 419 0 220 103 415 326 415" id="aP"/><path d="M65 0l393-574-370-544h210c88 136 192 297 267 435 67-142 176-302 264-435h206L661-564 1053 0H844c-94-144-206-310-287-458C484-308 366-142 273 0H65" id="aQ"/><path d="M295 13c-75 0-135-60-135-135s60-135 135-135 135 60 135 135S370 13 295 13" id="aR"/><path d="M538 24C308 24 148-78 108-271l171-41c32 123 123 178 257 178 156 0 256-77 256-169 0-77-54-128-164-154l-186-44c-203-48-300-148-300-305 0-192 176-326 414-326 230 0 351 112 402 269l-163 42c-31-80-94-158-238-158-133 0-233 69-233 162 0 83 57 129 188 160l169 40c203 48 298 149 298 302 0 196-179 339-441 339" id="aS"/><path d="M645 0H180v-1490h484c435 0 692 280 692 742 0 466-257 748-711 748zM370-168h263c363 0 539-218 539-580 0-358-176-574-521-574H370v1154" id="aT"/><path d="M657 26c-323 0-524-166-541-416h195c15 169 171 246 346 246 202 0 356-106 356-265 5-203-294-238-475-293-239-73-380-191-380-389 0-252 224-419 512-419 294 0 499 171 508 396H992c-17-145-151-228-328-228-193 0-321 102-321 242 0 156 175 211 284 241l149 41c160 44 422 134 422 412 0 244-197 432-541 432" id="aU"/><path d="M471 26C259 26 90-98 90-318c0-256 228-303 435-329 202-27 287-16 287-108 0-139-79-219-234-219-161 0-248 86-283 164l-173-57c86-203 278-265 451-265 150 0 419 46 419 395V0H815v-152h-12C765-73 660 26 471 26zm31-159c199 0 310-134 310-271v-155c-30 35-226 55-295 64-131 17-246 59-246 186 0 116 97 176 231 176" id="aV"/><path d="M218-607c0-325 108-727 258-974h175c-155 315-250 682-250 974 0 265 78 531 250 886H476C306-10 218-315 218-607" id="aW"/><path d="M180 0v-1490h510c348 0 508 194 508 460 0 198-88 351-276 417L1256 0h-220L726-579c-117 2-238 0-356 1V0H180zm190-747h312c235 0 327-108 327-283 0-177-92-293-329-293H370v576" id="aX"/><path d="M180 0v-1490h908v168H370v486h669v168H370v500h727V0H180" id="aY"/><path d="M98-1322v-168h1126v168H757V0H567v-1322H98" id="aZ"/><path d="M96 279C273-86 346-350 346-607c0-292-95-659-250-974h175c150 246 258 650 258 974 0 297-91 602-258 886H96" id="ba"/><path d="M128 359l88-567h206L266 359H128zM323-796c-75 0-135-60-135-135s60-135 135-135 135 60 135 135-60 135-135 135" id="bb"/><g id="e"><use transform="matrix(0.010850694444444444,0,0,0.010850694444444444,0,0)" xlink:href="#aO"/><use transform="matrix(0.010850694444444444,0,0,0.010850694444444444,12.6953125,0)" xlink:href="#aP"/><use transform="matrix(0.010850694444444444,0,0,0.010850694444444444,26.01996527777778,0)" xlink:href="#aJ"/><use transform="matrix(0.010850694444444444,0,0,0.010850694444444444,39.14930555555556,0)" xlink:href="#aK"/><use transform="matrix(0.010850694444444444,0,0,0.010850694444444444,46.20225694444445,0)" xlink:href="#aI"/><use transform="matrix(0.010850694444444444,0,0,0.010850694444444444,58.65885416666667,0)" xlink:href="#aQ"/><use transform="matrix(0.010850694444444444,0,0,0.010850694444444444,71.22395833333334,0)" xlink:href="#aK"/><use transform="matrix(0.010850694444444444,0,0,0.010850694444444444,78.49392361111111,0)" xlink:href="#aR"/><use transform="matrix(0.010850694444444444,0,0,0.010850694444444444,84.89583333333334,0)" xlink:href="#aS"/><use transform="matrix(0.010850694444444444,0,0,0.010850694444444444,96.6254340277778,0)" xlink:href="#aI"/><use transform="matrix(0.010850694444444444,0,0,0.010850694444444444,109.58116319444446,0)" xlink:href="#aK"/><use transform="matrix(0.010850694444444444,0,0,0.010850694444444444,116.85112847222224,0)" xlink:href="#aT"/><use transform="matrix(0.010850694444444444,0,0,0.010850694444444444,132.88845486111111,0)" xlink:href="#aL"/><use transform="matrix(0.010850694444444444,0,0,0.010850694444444444,140.88541666666666,0)" xlink:href="#aP"/><use transform="matrix(0.010850694444444444,0,0,0.010850694444444444,154.21006944444443,0)" xlink:href="#aJ"/><use transform="matrix(0.010850694444444444,0,0,0.010850694444444444,167.3394097222222,0)" xlink:href="#aI"/><use transform="matrix(0.010850694444444444,0,0,0.010850694444444444,180.29513888888883,0)" xlink:href="#aU"/><use transform="matrix(0.010850694444444444,0,0,0.010850694444444444,194.55295138888883,0)" xlink:href="#aK"/><use transform="matrix(0.010850694444444444,0,0,0.010850694444444444,201.93142361111111,0)" xlink:href="#aV"/><use transform="matrix(0.010850694444444444,0,0,0.010850694444444444,214.40972222222223,0)" xlink:href="#aK"/><use transform="matrix(0.010850694444444444,0,0,0.010850694444444444,221.46267361111111,0)" xlink:href="#aI"/><use transform="matrix(0.010850694444444444,0,0,0.010850694444444444,234.41840277777774,0)" xlink:href="#aW"/><use transform="matrix(0.010850694444444444,0,0,0.010850694444444444,242.52387152777774,0)" xlink:href="#aX"/><use transform="matrix(0.010850694444444444,0,0,0.010850694444444444,256.82508680555554,0)" xlink:href="#aY"/><use transform="matrix(0.010850694444444444,0,0,0.010850694444444444,270.18229166666663,0)" xlink:href="#aU"/><use transform="matrix(0.010850694444444444,0,0,0.010850694444444444,284.44010416666663,0)" xlink:href="#aZ"/><use transform="matrix(0.010850694444444444,0,0,0.010850694444444444,298.7847222222222,0)" xlink:href="#ba"/><use transform="matrix(0.010850694444444444,0,0,0.010850694444444444,306.8901909722222,0)" xlink:href="#bb"/></g><g id="f"><use transform="matrix(0.010850694444444444,0,0,0.010850694444444444,0,0)" xlink:href="#aP"/><use transform="matrix(0.010850694444444444,0,0,0.010850694444444444,13.324652777777777,0)" xlink:href="#aJ"/></g><path d="M180 0v-1490h190v1322h690V0H180" id="bc"/><path d="M653-1490V0H466v-1314h-10L96-1047v-204l324-239h233" id="bd"/><g id="g"><use transform="matrix(0.010850694444444444,0,0,0.010850694444444444,0,0)" xlink:href="#bc"/><use transform="matrix(0.010850694444444444,0,0,0.010850694444444444,11.555989583333332,0)" xlink:href="#bd"/><use transform="matrix(0.010850694444444444,0,0,0.010850694444444444,20.594618055555554,0)" xlink:href="#bb"/></g><path d="M158 418v-1536h174v179h20c37-59 106-193 324-193 279 0 474 222 474 576 0 356-194 580-473 580-213 0-288-135-325-197h-14v591H158zm492-555c209 0 317-186 317-421 0-232-105-413-317-413-206 0-314 166-314 413 0 249 111 421 314 421" id="be"/><g id="h"><use transform="matrix(0.010850694444444444,0,0,0.010850694444444444,0,0)" xlink:href="#aS"/><use transform="matrix(0.010850694444444444,0,0,0.010850694444444444,11.729600694444445,0)" xlink:href="#aK"/><use transform="matrix(0.010850694444444444,0,0,0.010850694444444444,18.782552083333332,0)" xlink:href="#aP"/><use transform="matrix(0.010850694444444444,0,0,0.010850694444444444,32.10720486111111,0)" xlink:href="#be"/></g><path d="M677 24c-213 0-288-135-325-197h-20V0H158v-1490h180v551h14c37-59 106-193 324-193 279 0 474 222 474 576 0 356-194 580-473 580zm-27-161c209 0 317-186 317-421 0-232-105-413-317-413-206 0-314 166-314 413 0 249 111 421 314 421" id="bf"/><path d="M338-1490V0H158v-1490h180" id="bg"/><path d="M158 0v-1118h180V0H158zm91-1301c-68 0-125-53-125-119s57-119 125-119c69 0 126 53 126 119s-57 119-126 119" id="bh"/><path d="M158 0v-1490h180v865h22l478-493h223L593-638 1096 0H865L456-523 338-412V0H158" id="bi"/><g id="i"><use transform="matrix(0.010850694444444444,0,0,0.010850694444444444,0,0)" xlink:href="#bf"/><use transform="matrix(0.010850694444444444,0,0,0.010850694444444444,13.606770833333332,0)" xlink:href="#bg"/><use transform="matrix(0.010850694444444444,0,0,0.010850694444444444,18.98871527777778,0)" xlink:href="#bh"/><use transform="matrix(0.010850694444444444,0,0,0.010850694444444444,24.37065972222222,0)" xlink:href="#aJ"/><use transform="matrix(0.010850694444444444,0,0,0.010850694444444444,37.5,0)" xlink:href="#bi"/></g><path d="M154 0v-137l495-537c165-179 249-281 249-418 0-156-121-253-280-253-170 0-278 110-278 278H158c0-264 200-443 465-443 266 0 455 183 455 416 0 161-73 288-336 568L416-179v12h687V0H154" id="bj"/><g id="j"><use transform="matrix(0.010850694444444444,0,0,0.010850694444444444,0,0)" xlink:href="#bc"/><use transform="matrix(0.010850694444444444,0,0,0.010850694444444444,12.565104166666666,0)" xlink:href="#bj"/><use transform="matrix(0.010850694444444444,0,0,0.010850694444444444,26.11762152777778,0)" xlink:href="#bb"/></g><path fill="#333" d="M226 279v-1860h398v153H398V126h226v153H226" id="bk"/><path fill="#333" d="M204-479l-12-1011h204L383-479H204zm91 492c-75 0-135-60-135-134 0-75 60-135 135-135 74 0 134 60 134 135 0 74-60 134-134 134" id="bl"/><path fill="#333" d="M471 26C259 26 90-98 90-318c0-256 228-303 435-329 202-27 287-16 287-108 0-139-79-219-234-219-161 0-248 86-283 164l-173-57c86-203 278-265 451-265 150 0 419 46 419 395V0H815v-152h-12C765-73 660 26 471 26zm31-159c199 0 310-134 310-271v-155c-30 35-226 55-295 64-131 17-246 59-246 186 0 116 97 176 231 176" id="bm"/><path fill="#333" d="M338-1490V0H158v-1490h180" id="bn"/><path fill="#333" d="M158 0v-1118h174v172h12c41-113 157-188 290-188 26 0 70 2 91 3v181c-11-2-60-10-108-10-161 0-279 109-279 260V0H158" id="bo"/><path fill="#333" d="M158 0v-1118h175l1 205c55-151 181-225 313-225 147 0 245 90 285 228 53-141 190-228 352-228 194 0 352 125 352 384V0h-181v-749c0-161-105-225-225-225-151 0-243 103-243 244V0H807v-767c0-124-93-207-219-207-131 0-250 92-250 270V0H158" id="bp"/><path fill="#333" d="M123 279V126h226v-1554H123v-153h398V279H123" id="bq"/><g id="k"><use transform="matrix(0.010850694444444444,0,0,0.010850694444444444,0,0)" xlink:href="#bk"/><use transform="matrix(0.010850694444444444,0,0,0.010850694444444444,8.10546875,0)" xlink:href="#bl"/><use transform="matrix(0.010850694444444444,0,0,0.010850694444444444,14.49652777777778,0)" xlink:href="#bm"/><use transform="matrix(0.010850694444444444,0,0,0.010850694444444444,26.97482638888889,0)" xlink:href="#bn"/><use transform="matrix(0.010850694444444444,0,0,0.010850694444444444,32.356770833333336,0)" xlink:href="#bm"/><use transform="matrix(0.010850694444444444,0,0,0.010850694444444444,44.83506944444444,0)" xlink:href="#bo"/><use transform="matrix(0.010850694444444444,0,0,0.010850694444444444,53.54817708333333,0)" xlink:href="#bp"/><use transform="matrix(0.010850694444444444,0,0,0.010850694444444444,73.01432291666666,0)" xlink:href="#bq"/></g><path fill="#333" d="M692-1560L212 224H46l480-1784h166" id="br"/><use transform="matrix(0.010850694444444444,0,0,0.010850694444444444,0,0)" xlink:href="#br" id="l"/><path d="M577 24c-279 0-473-224-473-580 0-354 195-576 474-576 218 0 287 134 324 193h14v-551h180V0H922v-173h-20C865-111 790 24 577 24zm27-161c203 0 314-172 314-421 0-247-108-413-314-413-212 0-317 181-317 413 0 235 108 421 317 421" id="bs"/><g id="m"><use transform="matrix(0.010850694444444444,0,0,0.010850694444444444,0,0)" xlink:href="#bg"/><use transform="matrix(0.010850694444444444,0,0,0.010850694444444444,5.381944444444445,0)" xlink:href="#aO"/><use transform="matrix(0.010850694444444444,0,0,0.010850694444444444,18.077256944444443,0)" xlink:href="#bs"/></g><path d="M158 0v-1118h175l1 205c55-151 181-225 313-225 147 0 245 90 285 228 53-141 190-228 352-228 194 0 352 125 352 384V0h-181v-749c0-161-105-225-225-225-151 0-243 103-243 244V0H807v-767c0-124-93-207-219-207-131 0-250 92-250 270V0H158" id="bt"/><path d="M611 442c-248 0-391-105-460-228l146-94c47 65 117 165 314 165 178 0 307-82 307-266v-224h-17C863-141 792-18 576-18c-268 0-472-195-472-546 0-346 197-568 476-568 216 0 288 133 326 193h17v-179h175V29c0 289-215 413-487 413zm-5-620c203 0 314-146 314-390 0-237-108-403-314-403-213 0-319 180-319 403 0 230 109 390 319 390" id="bu"/><path d="M232-923l-22-567h194l-22 567H232zm340 0l-22-567h194l-22 567H572" id="bv"/><path d="M784 20c-382 0-662-292-662-764 0-473 280-766 662-766s660 293 660 766c0 472-278 764-660 764zm0-176c266 0 475-207 475-588 0-383-209-590-475-590-268 0-477 208-477 590 0 380 209 588 477 588" id="bw"/><path d="M180 0v-1490h224l606 953c40 63 108 177 176 312-27-437-7-821-13-1265h190V0h-226C860-448 622-778 356-1262c27 476 11 792 15 1262H180" id="bx"/><g id="n"><use transform="matrix(0.010850694444444444,0,0,0.010850694444444444,0,0)" xlink:href="#bt"/><use transform="matrix(0.010850694444444444,0,0,0.010850694444444444,19.466145833333332,0)" xlink:href="#aS"/><use transform="matrix(0.010850694444444444,0,0,0.010850694444444444,31.195746527777775,0)" xlink:href="#bu"/><use transform="matrix(0.010850694444444444,0,0,0.010850694444444444,44.82421875,0)" xlink:href="#aW"/><use transform="matrix(0.010850694444444444,0,0,0.010850694444444444,52.9296875,0)" xlink:href="#bv"/><use transform="matrix(0.010850694444444444,0,0,0.010850694444444444,63.28125,0)" xlink:href="#aT"/><use transform="matrix(0.010850694444444444,0,0,0.010850694444444444,79.31857638888889,0)" xlink:href="#aX"/><use transform="matrix(0.010850694444444444,0,0,0.010850694444444444,93.61979166666666,0)" xlink:href="#bw"/><use transform="matrix(0.010850694444444444,0,0,0.010850694444444444,110.61197916666666,0)" xlink:href="#bx"/><use transform="matrix(0.010850694444444444,0,0,0.010850694444444444,127.35460069444441,0)" xlink:href="#aY"/></g><path d="M370-1490V0H180v-1490h190" id="by"/><g id="o"><use transform="matrix(0.010850694444444444,0,0,0.010850694444444444,0,0)" xlink:href="#by"/><use transform="matrix(0.010850694444444444,0,0,0.010850694444444444,5.967881944444445,0)" xlink:href="#bx"/><use transform="matrix(0.010850694444444444,0,0,0.010850694444444444,22.71050347222222,0)" xlink:href="#aU"/><use transform="matrix(0.010850694444444444,0,0,0.010850694444444444,36.96831597222222,0)" xlink:href="#by"/><use transform="matrix(0.010850694444444444,0,0,0.010850694444444444,42.936197916666664,0)" xlink:href="#aT"/><use transform="matrix(0.010850694444444444,0,0,0.010850694444444444,58.97352430555555,0)" xlink:href="#aY"/><use transform="matrix(0.010850694444444444,0,0,0.010850694444444444,72.33072916666667,0)" xlink:href="#bv"/><use transform="matrix(0.010850694444444444,0,0,0.010850694444444444,82.68229166666667,0)" xlink:href="#ba"/></g><path d="M789 20C394 20 94-260 94-744c0-487 300-766 695-766s695 279 695 766c0 485-300 764-695 764zm0-271c231 0 385-174 385-493 0-321-154-495-385-495s-385 175-385 495c0 319 154 493 385 493" id="bz"/><path d="M135 0v-1490h581c339 0 533 210 533 503 0 295-197 500-540 500H440V0H135zm305-733h220c186 0 274-104 274-254s-88-251-275-251H440v505" id="bA"/><path d="M49 0l509-1490h400L1480 0h-339l-115-346H497L386 0H49zm524-585h374c-75-213-124-402-192-666-66 268-110 453-182 666" id="bB"/><path d="M440-1490V0H135v-1490h305" id="bC"/><path d="M135 0v-1490h340l471 754c59 97 122 210 187 365-32-387-14-721-19-1119h312V0h-341C855-382 627-689 427-1113c32 420 16 695 20 1113H135" id="bD"/><path d="M795 20C377 20 94-272 94-743c0-483 302-767 694-767 335 0 593 206 635 500h-310c-42-142-154-229-320-229-230 0-389 177-389 493s154 495 393 495c212 0 340-120 345-311H818v-232h620v186c0 391-269 628-643 628" id="bE"/><g id="p"><use transform="matrix(0.010850694444444444,0,0,0.010850694444444444,0,0)" xlink:href="#bz"/><use transform="matrix(0.010850694444444444,0,0,0.010850694444444444,17.122395833333332,0)" xlink:href="#bA"/><use transform="matrix(0.010850694444444444,0,0,0.010850694444444444,31.521267361111104,0)" xlink:href="#aG"/><use transform="matrix(0.010850694444444444,0,0,0.010850694444444444,45.01953125,0)" xlink:href="#aF"/><use transform="matrix(0.010850694444444444,0,0,0.010850694444444444,59.61371527777778,0)" xlink:href="#bB"/><use transform="matrix(0.010850694444444444,0,0,0.010850694444444444,74.22960069444444,0)" xlink:href="#aB"/><use transform="matrix(0.010850694444444444,0,0,0.010850694444444444,89.0625,0)" xlink:href="#bC"/><use transform="matrix(0.010850694444444444,0,0,0.010850694444444444,95.30164930555556,0)" xlink:href="#bD"/><use transform="matrix(0.010850694444444444,0,0,0.010850694444444444,112.23958333333334,0)" xlink:href="#bE"/></g><g id="q"><use transform="matrix(0.010850694444444444,0,0,0.010850694444444444,0,0)" xlink:href="#aI"/><use transform="matrix(0.010850694444444444,0,0,0.010850694444444444,12.955729166666666,0)" xlink:href="#aJ"/><use transform="matrix(0.010850694444444444,0,0,0.010850694444444444,26.085069444444443,0)" xlink:href="#aK"/><use transform="matrix(0.010850694444444444,0,0,0.010850694444444444,33.35503472222222,0)" xlink:href="#aL"/><use transform="matrix(0.010850694444444444,0,0,0.010850694444444444,42.06814236111111,0)" xlink:href="#aM"/></g><use transform="matrix(0.010850694444444444,0,0,0.010850694444444444,0,0)" xlink:href="#aN" id="r"/><path d="M180 0v-1490h510c348 0 508 209 508 474 0 266-160 477-507 477H370V0H180zm190-706h312c236 0 327-133 327-310 0-176-91-307-329-307H370v617" id="bF"/><path d="M52 0l541-1490h220L1361 0h-200l-149-416H398L254 0H52zm404-582h497c-103-290-145-390-251-756-108 377-145 460-246 756" id="bG"/><path d="M789 20c-398 0-667-293-667-764 0-473 273-766 655-766 315 0 558 198 612 487h-196c-61-191-204-311-415-311-262 0-471 207-471 590 0 380 208 588 482 588 249 0 420-165 425-427H828v-166h572v163c0 370-256 606-611 606" id="bH"/><g id="s"><use transform="matrix(0.010850694444444444,0,0,0.010850694444444444,0,0)" xlink:href="#aO"/><use transform="matrix(0.010850694444444444,0,0,0.010850694444444444,12.6953125,0)" xlink:href="#aP"/><use transform="matrix(0.010850694444444444,0,0,0.010850694444444444,26.01996527777778,0)" xlink:href="#aJ"/><use transform="matrix(0.010850694444444444,0,0,0.010850694444444444,39.14930555555556,0)" xlink:href="#aK"/><use transform="matrix(0.010850694444444444,0,0,0.010850694444444444,46.20225694444445,0)" xlink:href="#aI"/><use transform="matrix(0.010850694444444444,0,0,0.010850694444444444,58.65885416666667,0)" xlink:href="#aQ"/><use transform="matrix(0.010850694444444444,0,0,0.010850694444444444,71.22395833333334,0)" xlink:href="#aK"/><use transform="matrix(0.010850694444444444,0,0,0.010850694444444444,78.49392361111111,0)" xlink:href="#aR"/><use transform="matrix(0.010850694444444444,0,0,0.010850694444444444,84.89583333333334,0)" xlink:href="#aS"/><use transform="matrix(0.010850694444444444,0,0,0.010850694444444444,96.6254340277778,0)" xlink:href="#aI"/><use transform="matrix(0.010850694444444444,0,0,0.010850694444444444,109.58116319444446,0)" xlink:href="#aK"/><use transform="matrix(0.010850694444444444,0,0,0.010850694444444444,116.85112847222224,0)" xlink:href="#aT"/><use transform="matrix(0.010850694444444444,0,0,0.010850694444444444,132.88845486111111,0)" xlink:href="#aL"/><use transform="matrix(0.010850694444444444,0,0,0.010850694444444444,140.88541666666666,0)" xlink:href="#aP"/><use transform="matrix(0.010850694444444444,0,0,0.010850694444444444,154.21006944444443,0)" xlink:href="#aJ"/><use transform="matrix(0.010850694444444444,0,0,0.010850694444444444,167.3394097222222,0)" xlink:href="#aI"/><use transform="matrix(0.010850694444444444,0,0,0.010850694444444444,180.29513888888883,0)" xlink:href="#aU"/><use transform="matrix(0.010850694444444444,0,0,0.010850694444444444,194.55295138888883,0)" xlink:href="#aK"/><use transform="matrix(0.010850694444444444,0,0,0.010850694444444444,201.93142361111111,0)" xlink:href="#aV"/><use transform="matrix(0.010850694444444444,0,0,0.010850694444444444,214.40972222222223,0)" xlink:href="#aK"/><use transform="matrix(0.010850694444444444,0,0,0.010850694444444444,221.46267361111111,0)" xlink:href="#aI"/><use transform="matrix(0.010850694444444444,0,0,0.010850694444444444,234.41840277777774,0)" xlink:href="#aW"/><use transform="matrix(0.010850694444444444,0,0,0.010850694444444444,242.52387152777774,0)" xlink:href="#bw"/><use transform="matrix(0.010850694444444444,0,0,0.010850694444444444,259.5160590277777,0)" xlink:href="#bF"/><use transform="matrix(0.010850694444444444,0,0,0.010850694444444444,273.70876736111103,0)" xlink:href="#aY"/><use transform="matrix(0.010850694444444444,0,0,0.010850694444444444,287.0659722222221,0)" xlink:href="#aX"/><use transform="matrix(0.010850694444444444,0,0,0.010850694444444444,301.3671874999999,0)" xlink:href="#bG"/><use transform="matrix(0.010850694444444444,0,0,0.010850694444444444,314.8111979166666,0)" xlink:href="#aZ"/><use transform="matrix(0.010850694444444444,0,0,0.010850694444444444,329.1558159722221,0)" xlink:href="#by"/><use transform="matrix(0.010850694444444444,0,0,0.010850694444444444,335.1236979166666,0)" xlink:href="#bx"/><use transform="matrix(0.010850694444444444,0,0,0.010850694444444444,351.86631944444434,0)" xlink:href="#bH"/><use transform="matrix(0.010850694444444444,0,0,0.010850694444444444,368.4461805555555,0)" xlink:href="#ba"/><use transform="matrix(0.010850694444444444,0,0,0.010850694444444444,376.5516493055555,0)" xlink:href="#bb"/></g><g id="t"><use transform="matrix(0.010850694444444444,0,0,0.010850694444444444,0,0)" xlink:href="#aO"/><use transform="matrix(0.010850694444444444,0,0,0.010850694444444444,12.6953125,0)" xlink:href="#bg"/><use transform="matrix(0.010850694444444444,0,0,0.010850694444444444,18.077256944444443,0)" xlink:href="#aP"/><use transform="matrix(0.010850694444444444,0,0,0.010850694444444444,31.40190972222222,0)" xlink:href="#aS"/><use transform="matrix(0.010850694444444444,0,0,0.010850694444444444,43.131510416666664,0)" xlink:href="#aI"/></g><g id="u"><use transform="matrix(0.010850694444444444,0,0,0.010850694444444444,0,0)" xlink:href="#bs"/><use transform="matrix(0.010850694444444444,0,0,0.010850694444444444,13.606770833333332,0)" xlink:href="#aP"/><use transform="matrix(0.010850694444444444,0,0,0.010850694444444444,26.931423611111104,0)" xlink:href="#aP"/><use transform="matrix(0.010850694444444444,0,0,0.010850694444444444,40.256076388888886,0)" xlink:href="#aL"/><use transform="matrix(0.010850694444444444,0,0,0.010850694444444444,48.62196180555556,0)" xlink:href="#bb"/></g><g id="v"><use transform="matrix(0.010850694444444444,0,0,0.010850694444444444,0,0)" xlink:href="#aS"/><use transform="matrix(0.010850694444444444,0,0,0.010850694444444444,11.729600694444445,0)" xlink:href="#aK"/><use transform="matrix(0.010850694444444444,0,0,0.010850694444444444,18.782552083333332,0)" xlink:href="#aP"/><use transform="matrix(0.010850694444444444,0,0,0.010850694444444444,32.10720486111111,0)" xlink:href="#be"/></g><g id="w"><use transform="matrix(0.010850694444444444,0,0,0.010850694444444444,0,0)" xlink:href="#bf"/><use transform="matrix(0.010850694444444444,0,0,0.010850694444444444,13.606770833333332,0)" xlink:href="#bg"/><use transform="matrix(0.010850694444444444,0,0,0.010850694444444444,18.98871527777778,0)" xlink:href="#bh"/><use transform="matrix(0.010850694444444444,0,0,0.010850694444444444,24.37065972222222,0)" xlink:href="#aJ"/><use transform="matrix(0.010850694444444444,0,0,0.010850694444444444,37.5,0)" xlink:href="#bi"/></g><g id="x"><use transform="matrix(0.010850694444444444,0,0,0.010850694444444444,0,0)" xlink:href="#bc"/><use transform="matrix(0.010850694444444444,0,0,0.010850694444444444,12.565104166666666,0)" xlink:href="#bj"/><use transform="matrix(0.010850694444444444,0,0,0.010850694444444444,26.11762152777778,0)" xlink:href="#bb"/></g><path d="M226 279v-1860h398v153H398V126h226v153H226" id="bI"/><path d="M204-479l-12-1011h204L383-479H204zm91 492c-75 0-135-60-135-134 0-75 60-135 135-135 74 0 134 60 134 135 0 74-60 134-134 134" id="bJ"/><path d="M123 279V126h226v-1554H123v-153h398V279H123" id="bK"/><g id="y"><use transform="matrix(0.010850694444444444,0,0,0.010850694444444444,0,0)" xlink:href="#bI"/><use transform="matrix(0.010850694444444444,0,0,0.010850694444444444,8.10546875,0)" xlink:href="#bJ"/><use transform="matrix(0.010850694444444444,0,0,0.010850694444444444,14.49652777777778,0)" xlink:href="#aV"/><use transform="matrix(0.010850694444444444,0,0,0.010850694444444444,26.97482638888889,0)" xlink:href="#bg"/><use transform="matrix(0.010850694444444444,0,0,0.010850694444444444,32.356770833333336,0)" xlink:href="#aV"/><use transform="matrix(0.010850694444444444,0,0,0.010850694444444444,44.83506944444444,0)" xlink:href="#aL"/><use transform="matrix(0.010850694444444444,0,0,0.010850694444444444,53.54817708333333,0)" xlink:href="#bt"/><use transform="matrix(0.010850694444444444,0,0,0.010850694444444444,73.01432291666666,0)" xlink:href="#bK"/></g><use transform="matrix(0.010850694444444444,0,0,0.010850694444444444,0,0)" xlink:href="#aN" id="z"/><g id="A"><use transform="matrix(0.010850694444444444,0,0,0.010850694444444444,0,0)" xlink:href="#bg"/><use transform="matrix(0.010850694444444444,0,0,0.010850694444444444,5.381944444444445,0)" xlink:href="#aO"/><use transform="matrix(0.010850694444444444,0,0,0.010850694444444444,18.077256944444443,0)" xlink:href="#bs"/></g><g id="B"><use transform="matrix(0.010850694444444444,0,0,0.010850694444444444,0,0)" xlink:href="#bt"/><use transform="matrix(0.010850694444444444,0,0,0.010850694444444444,19.466145833333332,0)" xlink:href="#aS"/><use transform="matrix(0.010850694444444444,0,0,0.010850694444444444,31.195746527777775,0)" xlink:href="#bu"/><use transform="matrix(0.010850694444444444,0,0,0.010850694444444444,44.82421875,0)" xlink:href="#aW"/><use transform="matrix(0.010850694444444444,0,0,0.010850694444444444,52.9296875,0)" xlink:href="#bv"/><use transform="matrix(0.010850694444444444,0,0,0.010850694444444444,63.28125,0)" xlink:href="#aT"/><use transform="matrix(0.010850694444444444,0,0,0.010850694444444444,79.31857638888889,0)" xlink:href="#aX"/><use transform="matrix(0.010850694444444444,0,0,0.010850694444444444,93.61979166666666,0)" xlink:href="#bw"/><use transform="matrix(0.010850694444444444,0,0,0.010850694444444444,110.61197916666666,0)" xlink:href="#bx"/><use transform="matrix(0.010850694444444444,0,0,0.010850694444444444,127.35460069444441,0)" xlink:href="#aY"/></g><path d="M763 24c-353 0-583-224-583-531v-983h190v968c0 214 149 370 393 370 243 0 391-156 391-370v-968h190v983c0 307-230 531-581 531" id="bL"/><g id="C"><use transform="matrix(0.010850694444444444,0,0,0.010850694444444444,0,0)" xlink:href="#bw"/><use transform="matrix(0.010850694444444444,0,0,0.010850694444444444,16.9921875,0)" xlink:href="#bL"/><use transform="matrix(0.010850694444444444,0,0,0.010850694444444444,33.52864583333333,0)" xlink:href="#aZ"/><use transform="matrix(0.010850694444444444,0,0,0.010850694444444444,47.873263888888886,0)" xlink:href="#bv"/><use transform="matrix(0.010850694444444444,0,0,0.010850694444444444,58.224826388888886,0)" xlink:href="#ba"/></g><path d="M135 0v-1490h305c1 251 0 501-5 746 157-254 405-512 598-746h373L849-845 1422 0h-361L638-644 440-426V0H135" id="bM"/><path d="M975 0v231H0V0h975" id="bN"/><path d="M135 0v-1490h980v253H440v416h609v249H440V0H135" id="bO"/><g id="D"><use transform="matrix(0.010850694444444444,0,0,0.010850694444444444,0,0)" xlink:href="#aB"/><use transform="matrix(0.010850694444444444,0,0,0.010850694444444444,12.858072916666666,0)" xlink:href="#bB"/><use transform="matrix(0.010850694444444444,0,0,0.010850694444444444,29.44878472222222,0)" xlink:href="#bM"/><use transform="matrix(0.010850694444444444,0,0,0.010850694444444444,45.431857638888886,0)" xlink:href="#bC"/><use transform="matrix(0.010850694444444444,0,0,0.010850694444444444,51.67100694444444,0)" xlink:href="#bD"/><use transform="matrix(0.010850694444444444,0,0,0.010850694444444444,68.60894097222223,0)" xlink:href="#bE"/><use transform="matrix(0.010850694444444444,0,0,0.010850694444444444,85.28645833333334,0)" xlink:href="#bN"/><use transform="matrix(0.010850694444444444,0,0,0.010850694444444444,94.98697916666666,0)" xlink:href="#bz"/><use transform="matrix(0.010850694444444444,0,0,0.010850694444444444,112.109375,0)" xlink:href="#bO"/><use transform="matrix(0.010850694444444444,0,0,0.010850694444444444,125.15190972222224,0)" xlink:href="#bO"/></g><g id="E"><use transform="matrix(0.010850694444444444,0,0,0.010850694444444444,0,0)" xlink:href="#aI"/><use transform="matrix(0.010850694444444444,0,0,0.010850694444444444,12.955729166666666,0)" xlink:href="#aJ"/><use transform="matrix(0.010850694444444444,0,0,0.010850694444444444,26.085069444444443,0)" xlink:href="#aK"/><use transform="matrix(0.010850694444444444,0,0,0.010850694444444444,33.35503472222222,0)" xlink:href="#aL"/><use transform="matrix(0.010850694444444444,0,0,0.010850694444444444,42.06814236111111,0)" xlink:href="#aM"/></g><use transform="matrix(0.010850694444444444,0,0,0.010850694444444444,0,0)" xlink:href="#aN" id="F"/><path d="M180 0v-1490h190c0 262 1 526-3 784 217-279 467-523 702-784h249L716-845 1319 0h-225L585-716 370-489V0H180" id="bP"/><path d="M934 0v166H0V0h934" id="bQ"/><path d="M180 0v-1490h901v168H370v510h643v168H370V0H180" id="bR"/><g id="G"><use transform="matrix(0.010850694444444444,0,0,0.010850694444444444,0,0)" xlink:href="#aO"/><use transform="matrix(0.010850694444444444,0,0,0.010850694444444444,12.6953125,0)" xlink:href="#aP"/><use transform="matrix(0.010850694444444444,0,0,0.010850694444444444,26.01996527777778,0)" xlink:href="#aJ"/><use transform="matrix(0.010850694444444444,0,0,0.010850694444444444,39.14930555555556,0)" xlink:href="#aK"/><use transform="matrix(0.010850694444444444,0,0,0.010850694444444444,46.20225694444445,0)" xlink:href="#aI"/><use transform="matrix(0.010850694444444444,0,0,0.010850694444444444,58.65885416666667,0)" xlink:href="#aQ"/><use transform="matrix(0.010850694444444444,0,0,0.010850694444444444,71.22395833333334,0)" xlink:href="#aK"/><use transform="matrix(0.010850694444444444,0,0,0.010850694444444444,78.49392361111111,0)" xlink:href="#aR"/><use transform="matrix(0.010850694444444444,0,0,0.010850694444444444,84.89583333333334,0)" xlink:href="#aS"/><use transform="matrix(0.010850694444444444,0,0,0.010850694444444444,96.6254340277778,0)" xlink:href="#aI"/><use transform="matrix(0.010850694444444444,0,0,0.010850694444444444,109.58116319444446,0)" xlink:href="#aK"/><use transform="matrix(0.010850694444444444,0,0,0.010850694444444444,116.85112847222224,0)" xlink:href="#aT"/><use transform="matrix(0.010850694444444444,0,0,0.010850694444444444,132.88845486111111,0)" xlink:href="#aL"/><use transform="matrix(0.010850694444444444,0,0,0.010850694444444444,140.88541666666666,0)" xlink:href="#aP"/><use transform="matrix(0.010850694444444444,0,0,0.010850694444444444,154.21006944444443,0)" xlink:href="#aJ"/><use transform="matrix(0.010850694444444444,0,0,0.010850694444444444,167.3394097222222,0)" xlink:href="#aI"/><use transform="matrix(0.010850694444444444,0,0,0.010850694444444444,180.29513888888883,0)" xlink:href="#aU"/><use transform="matrix(0.010850694444444444,0,0,0.010850694444444444,194.55295138888883,0)" xlink:href="#aK"/><use transform="matrix(0.010850694444444444,0,0,0.010850694444444444,201.93142361111111,0)" xlink:href="#aV"/><use transform="matrix(0.010850694444444444,0,0,0.010850694444444444,214.40972222222223,0)" xlink:href="#aK"/><use transform="matrix(0.010850694444444444,0,0,0.010850694444444444,221.46267361111111,0)" xlink:href="#aI"/><use transform="matrix(0.010850694444444444,0,0,0.010850694444444444,234.41840277777774,0)" xlink:href="#aW"/><use transform="matrix(0.010850694444444444,0,0,0.010850694444444444,242.52387152777774,0)" xlink:href="#aZ"/><use transform="matrix(0.010850694444444444,0,0,0.010850694444444444,254.98046874999994,0)" xlink:href="#bG"/><use transform="matrix(0.010850694444444444,0,0,0.010850694444444444,270.31249999999994,0)" xlink:href="#bP"/><use transform="matrix(0.010850694444444444,0,0,0.010850694444444444,285.2430555555555,0)" xlink:href="#by"/><use transform="matrix(0.010850694444444444,0,0,0.010850694444444444,291.21093749999994,0)" xlink:href="#bx"/><use transform="matrix(0.010850694444444444,0,0,0.010850694444444444,307.9535590277777,0)" xlink:href="#bH"/><use transform="matrix(0.010850694444444444,0,0,0.010850694444444444,324.5334201388888,0)" xlink:href="#bQ"/><use transform="matrix(0.010850694444444444,0,0,0.010850694444444444,333.7890624999999,0)" xlink:href="#bw"/><use transform="matrix(0.010850694444444444,0,0,0.010850694444444444,350.7812499999999,0)" xlink:href="#bR"/><use transform="matrix(0.010850694444444444,0,0,0.010850694444444444,363.89973958333314,0)" xlink:href="#bR"/><use transform="matrix(0.010850694444444444,0,0,0.010850694444444444,377.0182291666665,0)" xlink:href="#ba"/><use transform="matrix(0.010850694444444444,0,0,0.010850694444444444,385.1236979166665,0)" xlink:href="#bb"/></g><g id="H"><use transform="matrix(0.010850694444444444,0,0,0.010850694444444444,0,0)" xlink:href="#aP"/><use transform="matrix(0.010850694444444444,0,0,0.010850694444444444,13.324652777777777,0)" xlink:href="#be"/><use transform="matrix(0.010850694444444444,0,0,0.010850694444444444,26.931423611111104,0)" xlink:href="#aI"/><use transform="matrix(0.010850694444444444,0,0,0.010850694444444444,39.88715277777777,0)" xlink:href="#aJ"/></g><g id="I"><use transform="matrix(0.010850694444444444,0,0,0.010850694444444444,0,0)" xlink:href="#bg"/><use transform="matrix(0.010850694444444444,0,0,0.010850694444444444,5.381944444444445,0)" xlink:href="#aO"/><use transform="matrix(0.010850694444444444,0,0,0.010850694444444444,18.077256944444443,0)" xlink:href="#bs"/></g><g id="J"><use transform="matrix(0.010850694444444444,0,0,0.010850694444444444,0,0)" xlink:href="#bt"/><use transform="matrix(0.010850694444444444,0,0,0.010850694444444444,19.466145833333332,0)" xlink:href="#aS"/><use transform="matrix(0.010850694444444444,0,0,0.010850694444444444,31.195746527777775,0)" xlink:href="#bu"/></g><g id="K"><use transform="matrix(0.010850694444444444,0,0,0.010850694444444444,0,0)" xlink:href="#aW"/><use transform="matrix(0.010850694444444444,0,0,0.010850694444444444,8.10546875,0)" xlink:href="#bv"/><use transform="matrix(0.010850694444444444,0,0,0.010850694444444444,18.45703125,0)" xlink:href="#aZ"/><use transform="matrix(0.010850694444444444,0,0,0.010850694444444444,30.91362847222222,0)" xlink:href="#bG"/><use transform="matrix(0.010850694444444444,0,0,0.010850694444444444,46.24565972222222,0)" xlink:href="#bP"/><use transform="matrix(0.010850694444444444,0,0,0.010850694444444444,61.17621527777778,0)" xlink:href="#by"/><use transform="matrix(0.010850694444444444,0,0,0.010850694444444444,67.14409722222223,0)" xlink:href="#bx"/><use transform="matrix(0.010850694444444444,0,0,0.010850694444444444,83.88671875,0)" xlink:href="#bH"/></g><g id="L"><use transform="matrix(0.010850694444444444,0,0,0.010850694444444444,0,0)" xlink:href="#bw"/><use transform="matrix(0.010850694444444444,0,0,0.010850694444444444,16.9921875,0)" xlink:href="#bR"/><use transform="matrix(0.010850694444444444,0,0,0.010850694444444444,30.110677083333332,0)" xlink:href="#bR"/><use transform="matrix(0.010850694444444444,0,0,0.010850694444444444,43.229166666666664,0)" xlink:href="#bv"/><use transform="matrix(0.010850694444444444,0,0,0.010850694444444444,53.580729166666664,0)" xlink:href="#ba"/><use transform="matrix(0.010850694444444444,0,0,0.010850694444444444,61.686197916666664,0)" xlink:href="#bb"/></g><g id="M"><use transform="matrix(0.010850694444444444,0,0,0.010850694444444444,0,0)" xlink:href="#bf"/><use transform="matrix(0.010850694444444444,0,0,0.010850694444444444,13.606770833333332,0)" xlink:href="#bg"/><use transform="matrix(0.010850694444444444,0,0,0.010850694444444444,18.98871527777778,0)" xlink:href="#bh"/><use transform="matrix(0.010850694444444444,0,0,0.010850694444444444,24.37065972222222,0)" xlink:href="#aJ"/><use transform="matrix(0.010850694444444444,0,0,0.010850694444444444,37.5,0)" xlink:href="#bi"/></g><g id="N"><use transform="matrix(0.010850694444444444,0,0,0.010850694444444444,0,0)" xlink:href="#bc"/><use transform="matrix(0.010850694444444444,0,0,0.010850694444444444,12.565104166666666,0)" xlink:href="#bj"/><use transform="matrix(0.010850694444444444,0,0,0.010850694444444444,26.11762152777778,0)" xlink:href="#bb"/></g><g id="O"><use transform="matrix(0.010850694444444444,0,0,0.010850694444444444,0,0)" xlink:href="#aK"/><use transform="matrix(0.010850694444444444,0,0,0.010850694444444444,7.378472222222222,0)" xlink:href="#aV"/><use transform="matrix(0.010850694444444444,0,0,0.010850694444444444,19.856770833333332,0)" xlink:href="#bi"/><use transform="matrix(0.010850694444444444,0,0,0.010850694444444444,31.553819444444443,0)" xlink:href="#aI"/></g><path d="M678-1118v154H420V0H240v-964H20v-154h220v-149c0-194 155-293 318-293 85 0 141 18 168 30l-50 154c-19-6-47-17-97-17-111 0-159 58-159 166v109h258" id="bS"/><g id="P"><use transform="matrix(0.010850694444444444,0,0,0.010850694444444444,0,0)" xlink:href="#aP"/><use transform="matrix(0.010850694444444444,0,0,0.010850694444444444,13.324652777777777,0)" xlink:href="#bS"/><use transform="matrix(0.010850694444444444,0,0,0.010850694444444444,20.68142361111111,0)" xlink:href="#bS"/></g><g id="Q"><use transform="matrix(0.010850694444444444,0,0,0.010850694444444444,0,0)" xlink:href="#bt"/><use transform="matrix(0.010850694444444444,0,0,0.010850694444444444,19.466145833333332,0)" xlink:href="#aP"/><use transform="matrix(0.010850694444444444,0,0,0.010850694444444444,32.79079861111111,0)" xlink:href="#aJ"/><use transform="matrix(0.010850694444444444,0,0,0.010850694444444444,45.920138888888886,0)" xlink:href="#bh"/><use transform="matrix(0.010850694444444444,0,0,0.010850694444444444,51.30208333333333,0)" xlink:href="#aK"/><use transform="matrix(0.010850694444444444,0,0,0.010850694444444444,58.35503472222222,0)" xlink:href="#aP"/><use transform="matrix(0.010850694444444444,0,0,0.010850694444444444,71.6796875,0)" xlink:href="#aL"/><use transform="matrix(0.010850694444444444,0,0,0.010850694444444444,80.3927951388889,0)" xlink:href="#bh"/><use transform="matrix(0.010850694444444444,0,0,0.010850694444444444,85.77473958333334,0)" xlink:href="#aJ"/><use transform="matrix(0.010850694444444444,0,0,0.010850694444444444,98.90407986111111,0)" xlink:href="#bu"/></g><path d="M1096 418H916v-591h-14C865-111 790 24 577 24c-279 0-473-224-473-580 0-354 195-576 474-576 218 0 287 134 324 193h20v-179h174V418zM604-137c203 0 314-172 314-421 0-247-108-413-314-413-212 0-317 181-317 413 0 235 108 421 317 421" id="bT"/><path d="M537 14c-226 0-379-139-379-422v-710h180v695c0 172 97 275 253 275 160 0 281-109 281-300v-670h181V0H879v-209C806-46 684 14 537 14" id="bU"/><g id="R"><use transform="matrix(0.010850694444444444,0,0,0.010850694444444444,0,0)" xlink:href="#aL"/><use transform="matrix(0.010850694444444444,0,0,0.010850694444444444,7.996961805555555,0)" xlink:href="#aI"/><use transform="matrix(0.010850694444444444,0,0,0.010850694444444444,20.95269097222222,0)" xlink:href="#bT"/><use transform="matrix(0.010850694444444444,0,0,0.010850694444444444,34.55946180555556,0)" xlink:href="#bU"/><use transform="matrix(0.010850694444444444,0,0,0.010850694444444444,47.69965277777778,0)" xlink:href="#aI"/><use transform="matrix(0.010850694444444444,0,0,0.010850694444444444,60.65538194444444,0)" xlink:href="#aS"/><use transform="matrix(0.010850694444444444,0,0,0.010850694444444444,72.38498263888889,0)" xlink:href="#aK"/></g><g id="S"><use transform="matrix(0.010850694444444444,0,0,0.010850694444444444,0,0)" xlink:href="#bc"/><use transform="matrix(0.010850694444444444,0,0,0.010850694444444444,12.565104166666666,0)" xlink:href="#bG"/><use transform="matrix(0.010850694444444444,0,0,0.010850694444444444,27.897135416666664,0)" xlink:href="#bx"/><use transform="matrix(0.010850694444444444,0,0,0.010850694444444444,44.63975694444444,0)" xlink:href="#aT"/><use transform="matrix(0.010850694444444444,0,0,0.010850694444444444,60.67708333333333,0)" xlink:href="#by"/><use transform="matrix(0.010850694444444444,0,0,0.010850694444444444,66.64496527777777,0)" xlink:href="#bx"/><use transform="matrix(0.010850694444444444,0,0,0.010850694444444444,83.38758680555554,0)" xlink:href="#bH"/></g><use transform="matrix(0.010850694444444444,0,0,0.010850694444444444,0,0)" xlink:href="#aN" id="T"/><g id="U"><use transform="matrix(0.010850694444444444,0,0,0.010850694444444444,0,0)" xlink:href="#aO"/><use transform="matrix(0.010850694444444444,0,0,0.010850694444444444,12.6953125,0)" xlink:href="#aP"/><use transform="matrix(0.010850694444444444,0,0,0.010850694444444444,26.01996527777778,0)" xlink:href="#aJ"/><use transform="matrix(0.010850694444444444,0,0,0.010850694444444444,39.14930555555556,0)" xlink:href="#aK"/><use transform="matrix(0.010850694444444444,0,0,0.010850694444444444,46.20225694444445,0)" xlink:href="#aI"/><use transform="matrix(0.010850694444444444,0,0,0.010850694444444444,58.65885416666667,0)" xlink:href="#aQ"/><use transform="matrix(0.010850694444444444,0,0,0.010850694444444444,71.22395833333334,0)" xlink:href="#aK"/><use transform="matrix(0.010850694444444444,0,0,0.010850694444444444,78.49392361111111,0)" xlink:href="#aR"/><use transform="matrix(0.010850694444444444,0,0,0.010850694444444444,84.89583333333334,0)" xlink:href="#aS"/><use transform="matrix(0.010850694444444444,0,0,0.010850694444444444,96.6254340277778,0)" xlink:href="#aI"/><use transform="matrix(0.010850694444444444,0,0,0.010850694444444444,109.58116319444446,0)" xlink:href="#aK"/><use transform="matrix(0.010850694444444444,0,0,0.010850694444444444,116.85112847222224,0)" xlink:href="#aT"/><use transform="matrix(0.010850694444444444,0,0,0.010850694444444444,132.88845486111111,0)" xlink:href="#aL"/><use transform="matrix(0.010850694444444444,0,0,0.010850694444444444,140.88541666666666,0)" xlink:href="#aP"/><use transform="matrix(0.010850694444444444,0,0,0.010850694444444444,154.21006944444443,0)" xlink:href="#aJ"/><use transform="matrix(0.010850694444444444,0,0,0.010850694444444444,167.3394097222222,0)" xlink:href="#aI"/><use transform="matrix(0.010850694444444444,0,0,0.010850694444444444,180.29513888888883,0)" xlink:href="#aU"/><use transform="matrix(0.010850694444444444,0,0,0.010850694444444444,194.55295138888883,0)" xlink:href="#aK"/><use transform="matrix(0.010850694444444444,0,0,0.010850694444444444,201.93142361111111,0)" xlink:href="#aV"/><use transform="matrix(0.010850694444444444,0,0,0.010850694444444444,214.40972222222223,0)" xlink:href="#aK"/><use transform="matrix(0.010850694444444444,0,0,0.010850694444444444,221.46267361111111,0)" xlink:href="#aI"/><use transform="matrix(0.010850694444444444,0,0,0.010850694444444444,234.41840277777774,0)" xlink:href="#aW"/><use transform="matrix(0.010850694444444444,0,0,0.010850694444444444,242.52387152777774,0)" xlink:href="#bc"/><use transform="matrix(0.010850694444444444,0,0,0.010850694444444444,255.0889756944444,0)" xlink:href="#bG"/><use transform="matrix(0.010850694444444444,0,0,0.010850694444444444,270.4210069444444,0)" xlink:href="#bx"/><use transform="matrix(0.010850694444444444,0,0,0.010850694444444444,287.1636284722222,0)" xlink:href="#aT"/><use transform="matrix(0.010850694444444444,0,0,0.010850694444444444,303.2009548611111,0)" xlink:href="#by"/><use transform="matrix(0.010850694444444444,0,0,0.010850694444444444,309.16883680555554,0)" xlink:href="#bx"/><use transform="matrix(0.010850694444444444,0,0,0.010850694444444444,325.9114583333333,0)" xlink:href="#bH"/><use transform="matrix(0.010850694444444444,0,0,0.010850694444444444,342.4913194444444,0)" xlink:href="#ba"/><use transform="matrix(0.010850694444444444,0,0,0.010850694444444444,350.5967881944444,0)" xlink:href="#bb"/></g><g id="V"><use transform="matrix(0.010850694444444444,0,0,0.010850694444444444,0,0)" xlink:href="#aP"/><use transform="matrix(0.010850694444444444,0,0,0.010850694444444444,13.324652777777777,0)" xlink:href="#be"/><use transform="matrix(0.010850694444444444,0,0,0.010850694444444444,26.931423611111104,0)" xlink:href="#aI"/><use transform="matrix(0.010850694444444444,0,0,0.010850694444444444,39.88715277777777,0)" xlink:href="#aJ"/></g><g id="W"><use transform="matrix(0.010850694444444444,0,0,0.010850694444444444,0,0)" xlink:href="#bs"/><use transform="matrix(0.010850694444444444,0,0,0.010850694444444444,13.606770833333332,0)" xlink:href="#aP"/><use transform="matrix(0.010850694444444444,0,0,0.010850694444444444,26.931423611111104,0)" xlink:href="#aP"/><use transform="matrix(0.010850694444444444,0,0,0.010850694444444444,40.256076388888886,0)" xlink:href="#aL"/><use transform="matrix(0.010850694444444444,0,0,0.010850694444444444,48.62196180555556,0)" xlink:href="#bb"/></g><g id="X"><use transform="matrix(0.010850694444444444,0,0,0.010850694444444444,0,0)" xlink:href="#bg"/><use transform="matrix(0.010850694444444444,0,0,0.010850694444444444,5.381944444444445,0)" xlink:href="#aV"/><use transform="matrix(0.010850694444444444,0,0,0.010850694444444444,17.860243055555557,0)" xlink:href="#aJ"/><use transform="matrix(0.010850694444444444,0,0,0.010850694444444444,30.989583333333336,0)" xlink:href="#bs"/><use transform="matrix(0.010850694444444444,0,0,0.010850694444444444,44.59635416666667,0)" xlink:href="#bh"/><use transform="matrix(0.010850694444444444,0,0,0.010850694444444444,49.97829861111111,0)" xlink:href="#aJ"/><use transform="matrix(0.010850694444444444,0,0,0.010850694444444444,63.1076388888889,0)" xlink:href="#bu"/></g><g id="Y"><use transform="matrix(0.010850694444444444,0,0,0.010850694444444444,0,0)" xlink:href="#bt"/><use transform="matrix(0.010850694444444444,0,0,0.010850694444444444,19.466145833333332,0)" xlink:href="#aP"/><use transform="matrix(0.010850694444444444,0,0,0.010850694444444444,32.79079861111111,0)" xlink:href="#aJ"/><use transform="matrix(0.010850694444444444,0,0,0.010850694444444444,45.920138888888886,0)" xlink:href="#bh"/><use transform="matrix(0.010850694444444444,0,0,0.010850694444444444,51.30208333333333,0)" xlink:href="#aK"/><use transform="matrix(0.010850694444444444,0,0,0.010850694444444444,58.35503472222222,0)" xlink:href="#aP"/><use transform="matrix(0.010850694444444444,0,0,0.010850694444444444,71.6796875,0)" xlink:href="#aL"/><use transform="matrix(0.010850694444444444,0,0,0.010850694444444444,80.3927951388889,0)" xlink:href="#bh"/><use transform="matrix(0.010850694444444444,0,0,0.010850694444444444,85.77473958333334,0)" xlink:href="#aJ"/><use transform="matrix(0.010850694444444444,0,0,0.010850694444444444,98.90407986111111,0)" xlink:href="#bu"/></g><g id="Z"><use transform="matrix(0.010850694444444444,0,0,0.010850694444444444,0,0)" xlink:href="#aL"/><use transform="matrix(0.010850694444444444,0,0,0.010850694444444444,7.996961805555555,0)" xlink:href="#aI"/><use transform="matrix(0.010850694444444444,0,0,0.010850694444444444,20.95269097222222,0)" xlink:href="#bT"/><use transform="matrix(0.010850694444444444,0,0,0.010850694444444444,34.55946180555556,0)" xlink:href="#bU"/><use transform="matrix(0.010850694444444444,0,0,0.010850694444444444,47.69965277777778,0)" xlink:href="#aI"/><use transform="matrix(0.010850694444444444,0,0,0.010850694444444444,60.65538194444444,0)" xlink:href="#aS"/><use transform="matrix(0.010850694444444444,0,0,0.010850694444444444,72.38498263888889,0)" xlink:href="#aK"/><use transform="matrix(0.010850694444444444,0,0,0.010850694444444444,79.65494791666666,0)" xlink:href="#bb"/></g><g id="aa"><use transform="matrix(0.010850694444444444,0,0,0.010850694444444444,0,0)" xlink:href="#bf"/><use transform="matrix(0.010850694444444444,0,0,0.010850694444444444,13.606770833333332,0)" xlink:href="#bg"/><use transform="matrix(0.010850694444444444,0,0,0.010850694444444444,18.98871527777778,0)" xlink:href="#bh"/><use transform="matrix(0.010850694444444444,0,0,0.010850694444444444,24.37065972222222,0)" xlink:href="#aJ"/><use transform="matrix(0.010850694444444444,0,0,0.010850694444444444,37.5,0)" xlink:href="#bi"/></g><g id="ab"><use transform="matrix(0.010850694444444444,0,0,0.010850694444444444,0,0)" xlink:href="#bc"/><use transform="matrix(0.010850694444444444,0,0,0.010850694444444444,12.565104166666666,0)" xlink:href="#bj"/><use transform="matrix(0.010850694444444444,0,0,0.010850694444444444,26.11762152777778,0)" xlink:href="#bb"/></g><g id="ac"><use transform="matrix(0.010850694444444444,0,0,0.010850694444444444,0,0)" xlink:href="#bg"/><use transform="matrix(0.010850694444444444,0,0,0.010850694444444444,5.381944444444445,0)" xlink:href="#aO"/><use transform="matrix(0.010850694444444444,0,0,0.010850694444444444,18.077256944444443,0)" xlink:href="#bs"/></g><g id="ad"><use transform="matrix(0.010850694444444444,0,0,0.010850694444444444,0,0)" xlink:href="#bt"/><use transform="matrix(0.010850694444444444,0,0,0.010850694444444444,19.466145833333332,0)" xlink:href="#aS"/><use transform="matrix(0.010850694444444444,0,0,0.010850694444444444,31.195746527777775,0)" xlink:href="#bu"/><use transform="matrix(0.010850694444444444,0,0,0.010850694444444444,44.82421875,0)" xlink:href="#aW"/><use transform="matrix(0.010850694444444444,0,0,0.010850694444444444,52.9296875,0)" xlink:href="#bv"/><use transform="matrix(0.010850694444444444,0,0,0.010850694444444444,63.28125,0)" xlink:href="#aT"/><use transform="matrix(0.010850694444444444,0,0,0.010850694444444444,79.31857638888889,0)" xlink:href="#aX"/><use transform="matrix(0.010850694444444444,0,0,0.010850694444444444,93.61979166666666,0)" xlink:href="#bw"/><use transform="matrix(0.010850694444444444,0,0,0.010850694444444444,110.61197916666666,0)" xlink:href="#bx"/><use transform="matrix(0.010850694444444444,0,0,0.010850694444444444,127.35460069444441,0)" xlink:href="#aY"/></g><g id="ae"><use transform="matrix(0.010850694444444444,0,0,0.010850694444444444,0,0)" xlink:href="#bc"/><use transform="matrix(0.010850694444444444,0,0,0.010850694444444444,12.565104166666666,0)" xlink:href="#bG"/><use transform="matrix(0.010850694444444444,0,0,0.010850694444444444,27.897135416666664,0)" xlink:href="#bx"/><use transform="matrix(0.010850694444444444,0,0,0.010850694444444444,44.63975694444444,0)" xlink:href="#aT"/><use transform="matrix(0.010850694444444444,0,0,0.010850694444444444,60.67708333333333,0)" xlink:href="#by"/><use transform="matrix(0.010850694444444444,0,0,0.010850694444444444,66.64496527777777,0)" xlink:href="#bx"/><use transform="matrix(0.010850694444444444,0,0,0.010850694444444444,83.38758680555554,0)" xlink:href="#bH"/><use transform="matrix(0.010850694444444444,0,0,0.010850694444444444,99.96744791666666,0)" xlink:href="#bv"/><use transform="matrix(0.010850694444444444,0,0,0.010850694444444444,110.31901041666666,0)" xlink:href="#ba"/></g><path fill="#333" d="M182 279v-1860h488v228H471V51h199v228H182" id="bV"/><path fill="#333" d="M206-472l-22-1018h323L485-472H206zM346 19c-104 0-177-69-177-169 0-101 73-170 177-170 105 0 178 69 178 170 0 100-73 169-178 169" id="bW"/><path fill="#333" d="M537 19C279 19 81-185 81-557c0-382 206-575 454-575 190 0 278 113 318 202h10v-560h300V0H868v-179h-15C812-89 719 19 537 19zm92-241c153 0 240-134 240-336 0-203-86-334-240-334-158 0-240 138-240 334 0 197 84 336 240 336" id="bX"/><path fill="#333" d="M128 0v-1118h290v195h12c54-169 184-238 367-200v268c-27-8-86-15-130-15-138 0-239 95-239 234V0H128" id="bY"/><path fill="#333" d="M628 22C291 22 81-210 81-554c0-346 210-578 547-578 336 0 547 232 547 578 0 344-211 576-547 576zm0-236c160 0 242-146 242-341 0-197-82-341-242-341S387-753 387-555c0 195 81 341 241 341" id="bZ"/><path fill="#333" d="M428-647V0H128v-1118h283l4 231c63-156 176-245 348-245 232 0 384 159 384 421V0H847v-659c0-139-76-222-202-222-128 0-217 86-217 234" id="ca"/><path fill="#333" d="M633 22C291 22 81-200 81-553c0-345 210-579 537-579 292 0 525 185 525 567v84H378c7 183 109 277 260 277 105 0 184-46 216-132l272 51C1071-99 893 22 633 22zM380-669h474c-15-146-94-237-233-237-143 0-229 99-241 237" id="cb"/><path fill="#333" d="M440-1490V0H135v-1490h305" id="cc"/><path fill="#333" d="M102 279V51h199v-1404H102v-228h489V279H102" id="cd"/><g id="af"><use transform="matrix(0.008680555555555556,0,0,0.008680555555555556,0,0)" xlink:href="#bV"/><use transform="matrix(0.008680555555555556,0,0,0.008680555555555556,6.701388888888889,0)" xlink:href="#bW"/><use transform="matrix(0.008680555555555556,0,0,0.008680555555555556,12.708333333333334,0)" xlink:href="#bX"/><use transform="matrix(0.008680555555555556,0,0,0.008680555555555556,23.914930555555557,0)" xlink:href="#bY"/><use transform="matrix(0.008680555555555556,0,0,0.008680555555555556,30.72048611111111,0)" xlink:href="#bZ"/><use transform="matrix(0.008680555555555556,0,0,0.008680555555555556,41.62326388888889,0)" xlink:href="#ca"/><use transform="matrix(0.008680555555555556,0,0,0.008680555555555556,52.690972222222236,0)" xlink:href="#cb"/><use transform="matrix(0.008680555555555556,0,0,0.008680555555555556,63.281250000000014,0)" xlink:href="#cc"/><use transform="matrix(0.008680555555555556,0,0,0.008680555555555556,68.27256944444446,0)" xlink:href="#ca"/><use transform="matrix(0.008680555555555556,0,0,0.008680555555555556,79.34027777777779,0)" xlink:href="#cd"/></g><path fill="#333" d="M659 0H135v-1490h529c448 0 721 280 721 744 0 466-273 746-726 746zM440-263h204c287 0 437-148 437-483 0-333-150-481-435-481H440v964" id="ce"/><path fill="#333" d="M135 0v-1490h581c339 0 533 192 533 485 0 204-94 351-264 424L1302 0H964L680-532H440V0H135zm305-779h220c186 0 274-77 274-226 0-150-88-233-275-233H440v459" id="cf"/><path fill="#333" d="M750 21c-371 0-615-218-615-544v-967h305v942c0 174 123 299 310 299s309-125 309-299v-942h306v967c0 326-247 544-615 544" id="cg"/><g id="ag"><use transform="matrix(0.008680555555555556,0,0,0.008680555555555556,0,0)" xlink:href="#ce"/><use transform="matrix(0.008680555555555556,0,0,0.008680555555555556,12.838541666666668,0)" xlink:href="#cf"/><use transform="matrix(0.008680555555555556,0,0,0.008680555555555556,24.513888888888893,0)" xlink:href="#cg"/></g><path fill="#333" d="M572 22C302 22 117-98 78-306l279-48c29 105 101 156 224 156 114 0 185-48 185-115 0-118-228-130-337-155-215-49-322-150-322-317 0-215 187-347 470-347 265 0 424 116 466 298l-266 47c-24-76-87-130-196-130-98 0-174 46-174 113 0 56 38 95 144 117l201 40c216 44 320 143 320 302 0 220-207 367-500 367" id="ch"/><g id="ah"><use transform="matrix(0.008680555555555556,0,0,0.008680555555555556,0,0)" xlink:href="#ch"/><use transform="matrix(0.008680555555555556,0,0,0.008680555555555556,9.956597222222223,0)" xlink:href="#cb"/><use transform="matrix(0.008680555555555556,0,0,0.008680555555555556,20.546875,0)" xlink:href="#ca"/><use transform="matrix(0.008680555555555556,0,0,0.008680555555555556,31.614583333333336,0)" xlink:href="#bX"/><use transform="matrix(0.008680555555555556,0,0,0.008680555555555556,42.82118055555556,0)" xlink:href="#ch"/></g><path fill="#333" d="M789 20C394 20 94-260 94-744c0-487 300-766 695-766s695 279 695 766c0 485-300 764-695 764zm0-271c231 0 385-174 385-493 0-321-154-495-385-495s-385 175-385 495c0 319 154 493 385 493" id="ci"/><path fill="#333" d="M135 0v-1490h581c339 0 533 210 533 503 0 295-197 500-540 500H440V0H135zm305-733h220c186 0 274-104 274-254s-88-251-275-251H440v505" id="cj"/><path fill="#333" d="M135 0v-1490h997v253H440v360h640v249H440v375h694V0H135" id="ck"/><path fill="#333" d="M135 0v-1490h340l471 754c59 97 122 210 187 365-32-387-14-721-19-1119h312V0h-341C855-382 627-689 427-1113c32 420 16 695 20 1113H135" id="cl"/><path fill="#333" d="M975 0v231H0V0h975" id="cm"/><path fill="#333" d="M786 20C389 20 94-260 94-744c0-487 299-766 692-766 339 0 597 194 641 529h-309c-28-162-156-258-326-258-233 0-388 179-388 495 0 323 157 493 387 493 170 0 298-97 328-259h309c-34 277-266 530-642 530" id="cn"/><path fill="#333" d="M135 0v-1490h468l242 684c30 94 76 293 111 455 34-161 80-360 110-455l238-684h470V0h-307c0-447-3-765 11-1227-122 503-246 788-395 1227H826C676-435 552-717 427-1215c15 453 11 775 11 1215H135" id="co"/><g id="ai"><use transform="matrix(0.008680555555555556,0,0,0.008680555555555556,0,0)" xlink:href="#ci"/><use transform="matrix(0.008680555555555556,0,0,0.008680555555555556,13.697916666666668,0)" xlink:href="#cj"/><use transform="matrix(0.008680555555555556,0,0,0.008680555555555556,25.217013888888893,0)" xlink:href="#ck"/><use transform="matrix(0.008680555555555556,0,0,0.008680555555555556,36.015625,0)" xlink:href="#cl"/><use transform="matrix(0.008680555555555556,0,0,0.008680555555555556,49.88715277777778,0)" xlink:href="#cm"/><use transform="matrix(0.008680555555555556,0,0,0.008680555555555556,57.647569444444436,0)" xlink:href="#cn"/><use transform="matrix(0.008680555555555556,0,0,0.008680555555555556,70.79861111111111,0)" xlink:href="#co"/><use transform="matrix(0.008680555555555556,0,0,0.008680555555555556,87.36111111111111,0)" xlink:href="#ce"/></g><path fill="#333" d="M169-607c0-330 107-732 258-974h279c-145 311-231 674-231 974 0 262 67 512 231 886H427C258-1 169-307 169-607" id="cp"/><path fill="#333" d="M128 418v-1536h295v188h14c41-89 129-202 319-202 248 0 453 193 453 575 0 372-197 576-455 576-183 0-275-108-317-198h-9v597H128zm534-640c156 0 240-139 240-336 0-196-83-334-240-334-154 0-241 131-241 334 0 202 88 336 241 336" id="cq"/><path fill="#333" d="M440 22C227 22 68-92 68-313c0-250 202-322 422-343 195-21 271-24 271-105 0-95-63-149-175-149-116 0-187 57-211 129l-275-46c57-194 237-305 487-305 240 0 474 108 474 379V0H777v-155h-10C713-51 605 22 440 22zm85-211c140 0 238-93 238-211v-121c-37 26-156 42-222 51-111 16-185 59-185 149 0 87 70 132 169 132" id="cr"/><path fill="#333" d="M428-1490V0H128v-1490h300" id="cs"/><path fill="#333" d="M128 0v-1118h278l12 217c60-163 185-234 319-234 143 0 236 81 288 251 63-172 205-251 359-251 205 0 357 138 357 381V0h-301v-697c0-126-76-187-177-187-114 0-184 79-184 196V0H789v-705c0-109-72-179-174-179-106 0-187 74-187 208V0H128" id="ct"/><g id="aj"><use transform="matrix(0.008680555555555556,0,0,0.008680555555555556,0,0)" xlink:href="#bV"/><use transform="matrix(0.008680555555555556,0,0,0.008680555555555556,6.701388888888889,0)" xlink:href="#bW"/><use transform="matrix(0.008680555555555556,0,0,0.008680555555555556,12.708333333333334,0)" xlink:href="#cp"/><use transform="matrix(0.008680555555555556,0,0,0.008680555555555556,19.73090277777778,0)" xlink:href="#cq"/><use transform="matrix(0.008680555555555556,0,0,0.008680555555555556,30.9375,0)" xlink:href="#bY"/><use transform="matrix(0.008680555555555556,0,0,0.008680555555555556,37.74305555555556,0)" xlink:href="#cb"/><use transform="matrix(0.008680555555555556,0,0,0.008680555555555556,48.50694444444445,0)" xlink:href="#cr"/><use transform="matrix(0.008680555555555556,0,0,0.008680555555555556,58.82812500000001,0)" xlink:href="#cs"/><use transform="matrix(0.008680555555555556,0,0,0.008680555555555556,63.64583333333334,0)" xlink:href="#cr"/><use transform="matrix(0.008680555555555556,0,0,0.008680555555555556,73.96701388888889,0)" xlink:href="#bY"/><use transform="matrix(0.008680555555555556,0,0,0.008680555555555556,81.33680555555556,0)" xlink:href="#ct"/></g><path fill="#333" d="M522-1970V480H238v-2450h284" id="cu"/><g id="ak"><use transform="matrix(0.008680555555555556,0,0,0.008680555555555556,0,0)" xlink:href="#cu"/><use transform="matrix(0.008680555555555556,0,0,0.008680555555555556,6.605902777777778,0)" xlink:href="#cu"/></g><path fill="#333" d="M67 279c166-379 230-627 230-886 0-300-86-663-230-974h278c151 241 258 644 258 974 0 302-90 608-258 886H67" id="cv"/><g id="al"><use transform="matrix(0.008680555555555556,0,0,0.008680555555555556,0,0)" xlink:href="#cr"/><use transform="matrix(0.008680555555555556,0,0,0.008680555555555556,10.321180555555555,0)" xlink:href="#cs"/><use transform="matrix(0.008680555555555556,0,0,0.008680555555555556,15.13888888888889,0)" xlink:href="#cr"/><use transform="matrix(0.008680555555555556,0,0,0.008680555555555556,25.460069444444443,0)" xlink:href="#bY"/><use transform="matrix(0.008680555555555556,0,0,0.008680555555555556,32.82986111111111,0)" xlink:href="#ct"/><use transform="matrix(0.008680555555555556,0,0,0.008680555555555556,49.05381944444445,0)" xlink:href="#cv"/></g><path fill="#333" d="M579 22C270 22 81-162 81-393c0-177 110-281 274-393-80-101-143-210-143-345 0-213 160-377 403-377 238 0 385 158 385 351 0 138-76 251-198 340l-89 64 251 289c39-73 63-161 63-258h251c0 203-53 358-134 465L1367 0h-316l-91-101C852-17 708 22 579 22zm-69-628c-83 57-139 119-136 201 0 113 86 185 214 185 72 0 145-22 210-63zm56-319c74-50 193-114 190-218 0-69-50-123-139-123s-146 55-146 138c0 67 36 129 95 203" id="cw"/><g id="am"><use transform="matrix(0.008680555555555556,0,0,0.008680555555555556,0,0)" xlink:href="#cw"/><use transform="matrix(0.008680555555555556,0,0,0.008680555555555556,11.944444444444445,0)" xlink:href="#cw"/></g><path fill="#333" d="M128 0v-1118h300V0H128zm150-1264c-91 0-165-68-165-154 0-85 74-154 165-154 90 0 165 69 165 154 0 86-75 154-165 154" id="cx"/><path fill="#333" d="M683-1118v229H474v562c0 71 29 104 102 104 23 0 73-7 95-13l43 225C647 9 580 16 520 16 296 16 174-96 174-301v-588H20v-229h154v-266h300v266h209" id="cy"/><path fill="#333" d="M628 22C291 22 81-210 81-554c0-346 210-578 547-578 265 0 455 142 497 372l-279 52c-25-116-99-188-215-188-160 0-244 139-244 341 0 200 84 341 244 341 116 0 193-74 217-195l279 51C1085-123 896 22 628 22" id="cz"/><g id="an"><use transform="matrix(0.008680555555555556,0,0,0.008680555555555556,0,0)" xlink:href="#bX"/><use transform="matrix(0.008680555555555556,0,0,0.008680555555555556,11.206597222222223,0)" xlink:href="#bY"/><use transform="matrix(0.008680555555555556,0,0,0.008680555555555556,18.01215277777778,0)" xlink:href="#bZ"/><use transform="matrix(0.008680555555555556,0,0,0.008680555555555556,28.914930555555557,0)" xlink:href="#ca"/><use transform="matrix(0.008680555555555556,0,0,0.008680555555555556,39.98263888888889,0)" xlink:href="#cb"/><use transform="matrix(0.008680555555555556,0,0,0.008680555555555556,50.57291666666667,0)" xlink:href="#cx"/><use transform="matrix(0.008680555555555556,0,0,0.008680555555555556,55.39062500000001,0)" xlink:href="#ch"/><use transform="matrix(0.008680555555555556,0,0,0.008680555555555556,65.34722222222223,0)" xlink:href="#ce"/><use transform="matrix(0.008680555555555556,0,0,0.008680555555555556,78.18576388888889,0)" xlink:href="#cb"/><use transform="matrix(0.008680555555555556,0,0,0.008680555555555556,88.77604166666669,0)" xlink:href="#cy"/><use transform="matrix(0.008680555555555556,0,0,0.008680555555555556,95.11284722222224,0)" xlink:href="#cb"/><use transform="matrix(0.008680555555555556,0,0,0.008680555555555556,105.70312500000004,0)" xlink:href="#cz"/><use transform="matrix(0.008680555555555556,0,0,0.008680555555555556,116.16319444444447,0)" xlink:href="#cy"/><use transform="matrix(0.008680555555555556,0,0,0.008680555555555556,122.50000000000001,0)" xlink:href="#cb"/><use transform="matrix(0.008680555555555556,0,0,0.008680555555555556,133.0902777777778,0)" xlink:href="#bX"/><use transform="matrix(0.008680555555555556,0,0,0.008680555555555556,144.29687500000003,0)" xlink:href="#cp"/><use transform="matrix(0.008680555555555556,0,0,0.008680555555555556,150.9982638888889,0)" xlink:href="#cv"/><use transform="matrix(0.008680555555555556,0,0,0.008680555555555556,157.69965277777777,0)" xlink:href="#cd"/></g><g id="ao"><use transform="matrix(0.008680555555555556,0,0,0.008680555555555556,0,0)" xlink:href="#bV"/><use transform="matrix(0.008680555555555556,0,0,0.008680555555555556,6.6059027777777795,0)" xlink:href="#bX"/><use transform="matrix(0.008680555555555556,0,0,0.008680555555555556,17.8125,0)" xlink:href="#bY"/><use transform="matrix(0.008680555555555556,0,0,0.008680555555555556,24.618055555555557,0)" xlink:href="#bZ"/><use transform="matrix(0.008680555555555556,0,0,0.008680555555555556,35.520833333333336,0)" xlink:href="#ca"/><use transform="matrix(0.008680555555555556,0,0,0.008680555555555556,46.58854166666667,0)" xlink:href="#cb"/><use transform="matrix(0.008680555555555556,0,0,0.008680555555555556,57.17881944444445,0)" xlink:href="#cc"/><use transform="matrix(0.008680555555555556,0,0,0.008680555555555556,62.17013888888889,0)" xlink:href="#ca"/><use transform="matrix(0.008680555555555556,0,0,0.008680555555555556,73.23784722222223,0)" xlink:href="#cd"/></g><g id="ap"><use transform="matrix(0.008680555555555556,0,0,0.008680555555555556,0,0)" xlink:href="#bX"/><use transform="matrix(0.008680555555555556,0,0,0.008680555555555556,11.206597222222223,0)" xlink:href="#bY"/><use transform="matrix(0.008680555555555556,0,0,0.008680555555555556,18.01215277777778,0)" xlink:href="#bZ"/><use transform="matrix(0.008680555555555556,0,0,0.008680555555555556,28.914930555555557,0)" xlink:href="#ca"/><use transform="matrix(0.008680555555555556,0,0,0.008680555555555556,39.98263888888889,0)" xlink:href="#cb"/><use transform="matrix(0.008680555555555556,0,0,0.008680555555555556,50.57291666666667,0)" xlink:href="#cx"/><use transform="matrix(0.008680555555555556,0,0,0.008680555555555556,55.39062500000001,0)" xlink:href="#ch"/><use transform="matrix(0.008680555555555556,0,0,0.008680555555555556,65.34722222222223,0)" xlink:href="#ce"/><use transform="matrix(0.008680555555555556,0,0,0.008680555555555556,78.18576388888889,0)" xlink:href="#cb"/><use transform="matrix(0.008680555555555556,0,0,0.008680555555555556,88.77604166666669,0)" xlink:href="#cy"/><use transform="matrix(0.008680555555555556,0,0,0.008680555555555556,95.11284722222224,0)" xlink:href="#cb"/><use transform="matrix(0.008680555555555556,0,0,0.008680555555555556,105.70312500000004,0)" xlink:href="#cz"/><use transform="matrix(0.008680555555555556,0,0,0.008680555555555556,116.16319444444447,0)" xlink:href="#cy"/><use transform="matrix(0.008680555555555556,0,0,0.008680555555555556,122.50000000000001,0)" xlink:href="#cb"/><use transform="matrix(0.008680555555555556,0,0,0.008680555555555556,133.0902777777778,0)" xlink:href="#bX"/><use transform="matrix(0.008680555555555556,0,0,0.008680555555555556,144.29687500000003,0)" xlink:href="#cp"/><use transform="matrix(0.008680555555555556,0,0,0.008680555555555556,150.9982638888889,0)" xlink:href="#cv"/></g><path fill="#333" d="M197-230v-252h997v252H197zm0-479v-251h997v251H197" id="cA"/><use transform="matrix(0.008680555555555556,0,0,0.008680555555555556,0,0)" xlink:href="#cA" id="aq"/><path fill="#333" d="M681 22C323 22 94-145 85-462h297c10 151 131 226 296 226 163 0 271-77 271-190 0-102-95-149-257-189l-164-41c-252-61-403-188-403-405 0-269 236-449 560-449 330 0 546 183 551 445H941c-11-119-106-188-259-188-156 0-244 72-244 172-3 156 226 185 373 221 250 61 445 186 445 436 0 271-213 446-575 446" id="cB"/><path fill="#333" d="M342 19c-98 0-173-75-173-172s75-172 173-172 173 75 173 172S440 19 342 19" id="cC"/><g id="ar"><use transform="matrix(0.008680555555555556,0,0,0.008680555555555556,0,0)" xlink:href="#cj"/><use transform="matrix(0.008680555555555556,0,0,0.008680555555555556,11.519097222222223,0)" xlink:href="#bY"/><use transform="matrix(0.008680555555555556,0,0,0.008680555555555556,18.32465277777778,0)" xlink:href="#cb"/><use transform="matrix(0.008680555555555556,0,0,0.008680555555555556,28.914930555555557,0)" xlink:href="#ch"/><use transform="matrix(0.008680555555555556,0,0,0.008680555555555556,38.87152777777778,0)" xlink:href="#cb"/><use transform="matrix(0.008680555555555556,0,0,0.008680555555555556,49.46180555555556,0)" xlink:href="#ca"/><use transform="matrix(0.008680555555555556,0,0,0.008680555555555556,60.52951388888889,0)" xlink:href="#cz"/><use transform="matrix(0.008680555555555556,0,0,0.008680555555555556,70.98958333333334,0)" xlink:href="#cb"/><use transform="matrix(0.008680555555555556,0,0,0.008680555555555556,81.57986111111111,0)" xlink:href="#cB"/><use transform="matrix(0.008680555555555556,0,0,0.008680555555555556,93.22048611111111,0)" xlink:href="#cb"/><use transform="matrix(0.008680555555555556,0,0,0.008680555555555556,103.8107638888889,0)" xlink:href="#ca"/><use transform="matrix(0.008680555555555556,0,0,0.008680555555555556,114.87847222222221,0)" xlink:href="#ch"/><use transform="matrix(0.008680555555555556,0,0,0.008680555555555556,124.83506944444446,0)" xlink:href="#bZ"/><use transform="matrix(0.008680555555555556,0,0,0.008680555555555556,135.73784722222223,0)" xlink:href="#bY"/><use transform="matrix(0.008680555555555556,0,0,0.008680555555555556,141.86631944444446,0)" xlink:href="#cC"/><use transform="matrix(0.008680555555555556,0,0,0.008680555555555556,147.80381944444446,0)" xlink:href="#cx"/><use transform="matrix(0.008680555555555556,0,0,0.008680555555555556,152.62152777777777,0)" xlink:href="#ch"/><use transform="matrix(0.008680555555555556,0,0,0.008680555555555556,162.57812500000003,0)" xlink:href="#ce"/><use transform="matrix(0.008680555555555556,0,0,0.008680555555555556,175.41666666666669,0)" xlink:href="#cb"/><use transform="matrix(0.008680555555555556,0,0,0.008680555555555556,186.00694444444446,0)" xlink:href="#cy"/><use transform="matrix(0.008680555555555556,0,0,0.008680555555555556,192.34375,0)" xlink:href="#cb"/><use transform="matrix(0.008680555555555556,0,0,0.008680555555555556,202.9340277777778,0)" xlink:href="#cz"/><use transform="matrix(0.008680555555555556,0,0,0.008680555555555556,213.39409722222223,0)" xlink:href="#cy"/><use transform="matrix(0.008680555555555556,0,0,0.008680555555555556,219.73090277777774,0)" xlink:href="#cb"/><use transform="matrix(0.008680555555555556,0,0,0.008680555555555556,230.32118055555554,0)" xlink:href="#bX"/><use transform="matrix(0.008680555555555556,0,0,0.008680555555555556,241.52777777777774,0)" xlink:href="#cp"/><use transform="matrix(0.008680555555555556,0,0,0.008680555555555556,248.22916666666666,0)" xlink:href="#cv"/></g><g id="as"><use transform="matrix(0.008680555555555556,0,0,0.008680555555555556,0,0)" xlink:href="#cr"/><use transform="matrix(0.008680555555555556,0,0,0.008680555555555556,10.321180555555555,0)" xlink:href="#cs"/><use transform="matrix(0.008680555555555556,0,0,0.008680555555555556,15.13888888888889,0)" xlink:href="#cr"/><use transform="matrix(0.008680555555555556,0,0,0.008680555555555556,25.460069444444443,0)" xlink:href="#bY"/><use transform="matrix(0.008680555555555556,0,0,0.008680555555555556,32.82986111111111,0)" xlink:href="#ct"/><use transform="matrix(0.008680555555555556,0,0,0.008680555555555556,49.05381944444445,0)" xlink:href="#cv"/><use transform="matrix(0.008680555555555556,0,0,0.008680555555555556,55.75520833333333,0)" xlink:href="#cd"/></g><g id="at"><use transform="matrix(0.008680555555555556,0,0,0.008680555555555556,0,0)" xlink:href="#cr"/><use transform="matrix(0.008680555555555556,0,0,0.008680555555555556,10.321180555555555,0)" xlink:href="#cs"/><use transform="matrix(0.008680555555555556,0,0,0.008680555555555556,15.13888888888889,0)" xlink:href="#cr"/><use transform="matrix(0.008680555555555556,0,0,0.008680555555555556,25.460069444444443,0)" xlink:href="#bY"/><use transform="matrix(0.008680555555555556,0,0,0.008680555555555556,32.82986111111111,0)" xlink:href="#ct"/></g><g id="au"><use transform="matrix(0.008680555555555556,0,0,0.008680555555555556,0,0)" xlink:href="#bV"/><use transform="matrix(0.008680555555555556,0,0,0.008680555555555556,6.6059027777777795,0)" xlink:href="#bX"/><use transform="matrix(0.008680555555555556,0,0,0.008680555555555556,17.8125,0)" xlink:href="#bY"/><use transform="matrix(0.008680555555555556,0,0,0.008680555555555556,24.618055555555557,0)" xlink:href="#bZ"/><use transform="matrix(0.008680555555555556,0,0,0.008680555555555556,35.520833333333336,0)" xlink:href="#ca"/><use transform="matrix(0.008680555555555556,0,0,0.008680555555555556,46.58854166666667,0)" xlink:href="#cb"/><use transform="matrix(0.008680555555555556,0,0,0.008680555555555556,57.17881944444445,0)" xlink:href="#cc"/><use transform="matrix(0.008680555555555556,0,0,0.008680555555555556,62.17013888888889,0)" xlink:href="#ca"/><use transform="matrix(0.008680555555555556,0,0,0.008680555555555556,73.23784722222223,0)" xlink:href="#cd"/></g><g id="av"><use transform="matrix(0.008680555555555556,0,0,0.008680555555555556,0,0)" xlink:href="#bV"/><use transform="matrix(0.008680555555555556,0,0,0.008680555555555556,6.701388888888889,0)" xlink:href="#bW"/><use transform="matrix(0.008680555555555556,0,0,0.008680555555555556,12.708333333333334,0)" xlink:href="#bX"/><use transform="matrix(0.008680555555555556,0,0,0.008680555555555556,23.914930555555557,0)" xlink:href="#bY"/><use transform="matrix(0.008680555555555556,0,0,0.008680555555555556,30.72048611111111,0)" xlink:href="#bZ"/><use transform="matrix(0.008680555555555556,0,0,0.008680555555555556,41.62326388888889,0)" xlink:href="#ca"/><use transform="matrix(0.008680555555555556,0,0,0.008680555555555556,52.690972222222236,0)" xlink:href="#cb"/><use transform="matrix(0.008680555555555556,0,0,0.008680555555555556,63.281250000000014,0)" xlink:href="#cc"/><use transform="matrix(0.008680555555555556,0,0,0.008680555555555556,68.27256944444446,0)" xlink:href="#ca"/><use transform="matrix(0.008680555555555556,0,0,0.008680555555555556,79.34027777777779,0)" xlink:href="#cd"/></g></defs></g></svg>