<svg xmlns="http://www.w3.org/2000/svg" xmlns:xlink="http://www.w3.org/1999/xlink" xmlns:lucid="lucid" width="1642" height="1007.1"><g transform="translate(-539 7030.01407704975)" lucid:page-tab-id="0_0"><path d="M-3000-13000h7000v10500h-7000z" fill="#fff"/><path d="M563.73-6770.62a6 6 0 0 1 6-6h228a6 6 0 0 1 6 6v48a6 6 0 0 1-6 6h-228a6 6 0 0 1-6-6z" fill="none"/><use xlink:href="#a" transform="matrix(1,0,0,1,563.7301406231163,-6776.620761532835) translate(55.24305555555557 38.083767361111114)"/><path d="M703.73-6706.1c0 11.05-8.95 20-20 20s-20-8.95-20-20 8.95-20 20-20 20 8.95 20 20z" stroke="#000" stroke-width="2"/><path d="M584-6649.8c-24.3 0-44 19.7-44 44v132c0 24.3 19.7 44 44 44h345.73c24.3 0 44-19.7 44-44v-132c0-24.3-19.7-44-44-44z" stroke="#000" stroke-width="2" fill="#fff"/><path d="M540-6605.8h433.73" stroke="#000" stroke-width="2" fill="none"/><use xlink:href="#b" transform="matrix(1,0,0,1,626.7460281246233,-6649.809435314723) translate(81.24327256944444 30.08376736111111)"/><use xlink:href="#c" transform="matrix(1,0,0,1,583.3730140623117,-6589.809435314723) translate(52.75889756944446 47.818142361111114)"/><use xlink:href="#d" transform="matrix(1,0,0,1,583.3730140623117,-6589.809435314723) translate(113.56618923611111 47.818142361111114)"/><use xlink:href="#e" transform="matrix(1,0,0,1,583.3730140623117,-6589.809435314723) translate(127.82400173611111 47.818142361111114)"/><use xlink:href="#f" transform="matrix(1,0,0,1,583.3730140623117,-6589.809435314723) translate(39.244357638888914 80.08376736111111)"/><use xlink:href="#g" transform="matrix(1,0,0,1,583.3730140623117,-6589.809435314723) translate(74.40060763888891 80.08376736111111)"/><use xlink:href="#h" transform="matrix(1,0,0,1,583.3730140623117,-6589.809435314723) translate(113.64756944444446 80.08376736111111)"/><use xlink:href="#i" transform="matrix(1,0,0,1,583.3730140623117,-6589.809435314723) translate(45.906684027777786 112.34939236111111)"/><use xlink:href="#d" transform="matrix(1,0,0,1,583.3730140623117,-6589.809435314723) translate(79.08810763888889 112.34939236111111)"/><use xlink:href="#j" transform="matrix(1,0,0,1,583.3730140623117,-6589.809435314723) translate(93.34592013888889 112.34939236111111)"/><use xlink:href="#k" transform="matrix(1,0,0,1,583.3730140623117,-6589.809435314723) translate(152.6775173611111 112.34939236111111)"/><use xlink:href="#l" transform="matrix(1,0,0,1,583.3730140623117,-6589.809435314723) translate(180.03211805555554 112.34939236111111)"/><path d="M1260.77-6716.62c-25.98 0-47.04 21.06-47.04 47.04v141.12c0 25.98 21.06 47.04 47.04 47.04h339.65c25.98 0 47.04-21.06 47.04-47.04v-141.12c0-25.98-21.06-47.04-47.04-47.04z" stroke="#000" stroke-width="2" fill="#fff"/><path d="M1213.83-6672.62h433.53" stroke="#000" stroke-width="2" fill="none"/><use xlink:href="#m" transform="matrix(1,0,0,1,1300.4761687477396,-6716.620761532835) translate(68.732421875 30.08376736111111)"/><use xlink:href="#c" transform="matrix(1,0,0,1,1257.1031546854279,-6656.620761532835) translate(43.25911458333337 71.95095486111111)"/><use xlink:href="#d" transform="matrix(1,0,0,1,1257.1031546854279,-6656.620761532835) translate(104.06640625000003 71.95095486111111)"/><use xlink:href="#n" transform="matrix(1,0,0,1,1257.1031546854279,-6656.620761532835) translate(118.32421875000003 71.95095486111111)"/><use xlink:href="#i" transform="matrix(1,0,0,1,1257.1031546854279,-6656.620761532835) translate(45.906684027777786 104.21657986111111)"/><use xlink:href="#d" transform="matrix(1,0,0,1,1257.1031546854279,-6656.620761532835) translate(79.08810763888889 104.21657986111111)"/><use xlink:href="#j" transform="matrix(1,0,0,1,1257.1031546854279,-6656.620761532835) translate(93.34592013888889 104.21657986111111)"/><use xlink:href="#k" transform="matrix(1,0,0,1,1257.1031546854279,-6656.620761532835) translate(152.6775173611111 104.21657986111111)"/><use xlink:href="#l" transform="matrix(1,0,0,1,1257.1031546854279,-6656.620761532835) translate(180.03211805555554 104.21657986111111)"/><path d="M1814.25-6686.1c-27.9 0-50.52 22.62-50.52 50.52v151.55c0 27.9 22.62 50.5 50.52 50.5h315.23c27.9 0 50.52-22.6 50.52-50.5v-151.55c0-27.9-22.62-50.52-50.52-50.52z" stroke="#000" stroke-width="2" fill="#fff"/><path d="M1764.15-6642.1h415.43" stroke="#000" stroke-width="2" fill="none"/><use xlink:href="#o" transform="matrix(1,0,0,1,1846.984112498493,-6686.099729645348) translate(84.47808159722223 30.08376736111111)"/><use xlink:href="#p" transform="matrix(1,0,0,1,1805.3571265608048,-6626.099729645348) translate(29.060546875 48.185329861111114)"/><use xlink:href="#q" transform="matrix(1,0,0,1,1805.3571265608048,-6626.099729645348) translate(89.86783854166666 48.185329861111114)"/><use xlink:href="#r" transform="matrix(1,0,0,1,1805.3571265608048,-6626.099729645348) translate(104.12565104166666 48.185329861111114)"/><use xlink:href="#s" transform="matrix(1,0,0,1,1805.3571265608048,-6626.099729645348) translate(88.13715277777779 80.45095486111111)"/><use xlink:href="#t" transform="matrix(1,0,0,1,1805.3571265608048,-6626.099729645348) translate(134.14952256944446 112.71657986111111)"/><use xlink:href="#u" transform="matrix(1,0,0,1,1805.3571265608048,-6626.099729645348) translate(166.853515625 112.71657986111111)"/><use xlink:href="#v" transform="matrix(1,0,0,1,1805.3571265608048,-6626.099729645348) translate(66.11566840277779 144.98220486111111)"/><use xlink:href="#w" transform="matrix(1,0,0,1,1805.3571265608048,-6626.099729645348) translate(72.36566840277779 144.98220486111111)"/><use xlink:href="#x" transform="matrix(1,0,0,1,1805.3571265608048,-6626.099729645348) translate(110.29969618055556 144.98220486111111)"/><path d="M705.23-6706.08l4.4.2 4.7.64 4.47 1.03 4.3 1.4 4.1 1.76 3.93 2.14 3.75 2.5 3.55 2.85 3.33 3.23 3.08 3.57 2.82 3.94 2.5 4.26 2.16 4.58 1.78 4.9 1.37 5.14.63 3.7" stroke="#3a414a" stroke-linejoin="round" fill="none"/><path d="M705.26-6706.55l-.04.95-.54-.03.05-.43-.02-.52z" stroke="#3a414a" stroke-width=".05" fill="#3a414a"/><path d="M765.35-6669.88l-8.57 18.07-11.36-16.46m11.36 16.45l-.68-8.48" stroke="#3a414a" fill="none"/><path d="M1056.64-6850.04l-16.72 4.63-16.24 5.24-15.6 5.77-14.88 6.22-14.02 6.57-13.1 6.82-12.2 7-11.27 7.12-10.34 7.16-9.48 7.17-8.64 7.12-7.87 7.05-7.14 6.97-6.48 6.86-5.85 6.76-5.3 6.64-4.75 6.53-4.3 6.44-3.83 6.32-3.45 6.23-3.06 6.14-2.7 6.07-2.4 6-2.08 5.97-1.8 5.9-1.52 5.9-1.25 5.85-1 5.86-.76 5.87-.5 5.65-.94-.1.5-5.65v-.02l.74-5.88v-.02l1-5.88v-.02l1.27-5.88v-.02l1.54-5.9v-.02l1.8-5.92h.02v-.02l2.1-5.97v-.02l2.4-6.03v-.02l2.73-6.1 3.08-6.17v-.02l3.46-6.24v-.02l3.86-6.34v-.02l4.3-6.44v-.02l4.8-6.55 5.3-6.66v-.02h.02l5.86-6.77h.02l6.48-6.9h.02l7.15-7h.02l7.9-7.07 8.67-7.15 9.5-7.2 10.38-7.18 11.3-7.14 12.22-7v-.02h.02l13.13-6.84h.02l14.04-6.58h.02l14.9-6.23 15.64-5.8h.02l16.26-5.24v-.02h.02l16.6-4.6h4.15zm146.56-13.85h.02l28.9 1.97h.02l30.54 3.36h.02l30.82 4.7 1.78.32 4.77 1.02h.02l5.07 1.3h.02v.02l5.42 1.63h.02l5.78 2.02h.02l6.15 2.44 6.5 2.9h.02l6.83 3.4h.02l7.1 3.9h.02v.02l7.33 4.44 7.46 4.96 7.45 5.42h.02l7.3 5.8v.02h.02l7.06 6.1 6.7 6.28v.02l6.2 6.33h.02l5.68 6.3v.02l5.1 6.16h.02l4.53 5.97h.02v.02l3.97 5.7v.02l3.44 5.42v.02l2.98 5.13v.02l2.54 4.83v.02l2.16 4.55v.02l1.8 4.28v.02l1.5 4.02h.02v.02l1.23 3.8 1 3.58v.02l.8 3.37v.02l.6 3.2h.02l.43 3.03v.02l.3 2.87v.02l.18 2.73h.02v.02l.04 2.12-.95.02-.03-2.12-.18-2.72-.3-2.85-.45-3-.6-3.16-.8-3.35-1-3.56-1.2-3.77-1.5-4-1.8-4.27-2.13-4.54-2.53-4.82-2.96-5.12-3.44-5.4-3.96-5.7-4.5-5.94-5.1-6.15-5.65-6.28-6.2-6.32-6.67-6.26-7.05-6.08-7.3-5.8-7.43-5.4-7.42-4.93-7.3-4.43-7.1-3.9-6.82-3.38-6.47-2.9-6.13-2.42-5.76-2-5.4-1.64-5.08-1.3-4.74-1-1.75-.33-30.8-4.7-30.52-3.35-28.9-1.96-11.5-.3v-.95z" stroke="#3a414a" stroke-width=".05" fill="#3a414a"/><path d="M1431.07-6717.62h-.95v-.5l.94-.03z" fill="#3a414a"/><path stroke="#3a414a" stroke-width=".05" fill="#3a414a"/><path d="M846.93-6653.6l.23-6.72.95.03-.22 6.74 9.64-15.47.8.5-11 17.67-9.8-18.37.84-.45z" stroke="#3a414a" stroke-width=".05" fill="#3a414a"/><use xlink:href="#y" transform="matrix(1,0,0,1,1052.64462110551,-6872.43177774979) translate(0 17.22222222222222)"/><use xlink:href="#z" transform="matrix(1,0,0,1,1052.64462110551,-6872.43177774979) translate(53.949652777777786 17.22222222222222)"/><use xlink:href="#A" transform="matrix(1,0,0,1,1052.64462110551,-6872.43177774979) translate(70.71180555555557 17.22222222222222)"/><use xlink:href="#B" transform="matrix(1,0,0,1,1052.64462110551,-6872.43177774979) translate(132.51736111111114 17.22222222222222)"/><path d="M843.2-6269.8c-21.8 0-39.47 17.66-39.47 39.46v118.4c0 21.8 17.67 39.46 39.47 39.46h351.06c21.8 0 39.47-17.67 39.47-39.46v-118.4c0-21.8-17.67-39.47-39.47-39.47z" stroke="#000" stroke-width="2" fill="#fff"/><path d="M803.73-6225.8h430" stroke="#000" stroke-width="2" fill="none"/><use xlink:href="#C" transform="matrix(1,0,0,1,889.7301406231163,-6269.809435314723) translate(-2.4019097222222 30.08376736111111)"/><use xlink:href="#c" transform="matrix(1,0,0,1,846.7301406231163,-6209.809435314723) translate(88.37369791666667 52.950954861111114)"/><use xlink:href="#d" transform="matrix(1,0,0,1,846.7301406231163,-6209.809435314723) translate(149.18098958333334 52.950954861111114)"/><use xlink:href="#D" transform="matrix(1,0,0,1,846.7301406231163,-6209.809435314723) translate(163.43880208333331 52.950954861111114)"/><use xlink:href="#k" transform="matrix(1,0,0,1,846.7301406231163,-6209.809435314723) translate(184.03342013888889 52.950954861111114)"/><use xlink:href="#E" transform="matrix(1,0,0,1,846.7301406231163,-6209.809435314723) translate(211.38802083333331 52.950954861111114)"/><use xlink:href="#i" transform="matrix(1,0,0,1,846.7301406231163,-6209.809435314723) translate(44.406684027777786 85.21657986111111)"/><use xlink:href="#d" transform="matrix(1,0,0,1,846.7301406231163,-6209.809435314723) translate(77.58810763888889 85.21657986111111)"/><use xlink:href="#j" transform="matrix(1,0,0,1,846.7301406231163,-6209.809435314723) translate(91.84592013888889 85.21657986111111)"/><use xlink:href="#k" transform="matrix(1,0,0,1,846.7301406231163,-6209.809435314723) translate(151.1775173611111 85.21657986111111)"/><use xlink:href="#l" transform="matrix(1,0,0,1,846.7301406231163,-6209.809435314723) translate(178.53211805555554 85.21657986111111)"/><path d="M667.95-6313.58l.1 4.5.3 4.6.52 4.7.72 4.8.95 4.92 1.2 5.04 1.45 5.16 1.73 5.3 2.03 5.38 2.33 5.5 2.65 5.62 3 5.7 3.34 5.73 3.68 5.78 4.03 5.76 4.38 5.73 4.67 5.62 4.96 5.47 5.2 5.27 5.38 5.02 5.52 4.73 5.6 4.4 5.6 4.07 5.6 3.68 5.5 3.32 5.38 2.94 5.24 2.58 5.07 2.24 4.88 1.93 4.7 1.63 4.48 1.34 4.3 1.1 4.12.85 3.93.66 2.87.35-.12.94-2.87-.35h-.02l-3.95-.66-4.14-.87h-.02l-4.32-1.1v-.02h-.02l-4.5-1.35h-.02l-4.72-1.63h-.02l-4.9-1.93h-.02l-5.1-2.26-5.27-2.6h-.02l-5.4-2.95h-.02l-5.5-3.34h-.02l-5.6-3.7h-.02l-5.63-4.07h-.02v-.02.02l-5.6-4.43v-.02l-5.55-4.75-5.4-5.05h-.02l-5.2-5.3h-.02v-.02l-4.96-5.48v-.02l-4.7-5.63v-.02l-4.4-5.72-4.05-5.8h-.02l-3.7-5.8v-.02l-3.36-5.76v-.02l-3-5.7v-.02h-.02l-2.67-5.63v-.02l-2.35-5.5v-.02l-2.04-5.43v-.02l-1.75-5.3v-.02.02l-1.47-5.2-1.2-5.07v-.02l-.97-4.94v-.02l-.73-4.83v-.02l-.52-4.72-.3-4.63v-.02l-.1-4.52v-.02l.08-4.38h.95zm88.67-114.58l-9.43 4.7-8.74 4.84-7.76 4.73-6.92 4.63-6.2 4.54-5.58 4.44-5.02 4.37-4.54 4.28-4.1 4.22-3.74 4.16-3.38 4.1-3.07 4.08-2.8 4.05-2.52 4-2.3 4-2.06 3.98-1.86 3.98-1.65 4-1.48 4-1.3 4.03-.98 3.58h-1l1.06-3.84 1.3-4.06h.02v-.02l1.48-4.02v-.02l1.68-4v-.02l1.88-4v-.02l2.08-4v-.02l2.3-4h.02v-.02l2.54-4.03v-.02l2.8-4.04h.02l3.1-4.1 3.4-4.14 3.75-4.2 4.13-4.24h.02l4.55-4.3v-.02h.02l5.03-4.38h.02l5.6-4.46v-.02l6.23-4.54 6.95-4.65h.02l7.78-4.74 8.76-4.84h.02l9.44-4.73z" stroke="#3a414a" stroke-width=".05" fill="#3a414a"/><path d="M756.6-6428.15l-.32-.66h1.65z" fill="#3a414a"/><path stroke="#3a414a" stroke-width=".05" fill="#3a414a"/><path d="M802.68-6171.15l-18.6 9.34-.44-.86 16.3-8.17-6.72-.4.05-.95 6.72.4-15.23-10.03.52-.8z" stroke="#3a414a" stroke-width=".05" fill="#3a414a"/><g><use xlink:href="#y" transform="matrix(1,0,0,1,595.6738781456824,-6339.48922831126) translate(0 17.22222222222222)"/><use xlink:href="#F" transform="matrix(1,0,0,1,595.6738781456824,-6339.48922831126) translate(53.949652777777786 17.22222222222222)"/><use xlink:href="#G" transform="matrix(1,0,0,1,595.6738781456824,-6339.48922831126) translate(82.47395833333334 17.22222222222222)"/></g><path d="M1326.76-6222.4l-2.83 4.66v.02l-2.83 4.24v.02l-2.83 3.9-2.85 3.6v-.02.02l-2.86 3.3v.02h-.02l-2.87 3.06-.02.02-2.9 2.84-2.96 2.66h-.02v.02l-3 2.47-3.05 2.32-3.12 2.17-3.2 2.03v.02l-3.28 1.88h-.02l-3.37 1.78h-.02l-3.48 1.65-3.63 1.53h-.02l-3.78 1.4v.02h-.02l-3.94 1.28h-.02l-4.14 1.16h-.02l-4.35 1.03-4.63.87h-.02l-4.9.73h-.02l-5.24.55h-.02l-5.64.35h-.02l-5.58.12-.02-.95 5.57-.1 5.6-.37 5.22-.54 4.9-.72 4.58-.88 4.34-1.02 4.12-1.14 3.92-1.28 3.75-1.4 3.6-1.5 3.47-1.64 3.35-1.75 3.26-1.88 3.17-2 3.1-2.16 3.02-2.3 2.97-2.47 2.92-2.63 2.88-2.84 2.86-3.04 2.84-3.3 2.83-3.56 2.82-3.87 2.8-4.24 2.8-4.64 1.1-1.97h1.08zm31.52-248.58l-.15 82.05v.02l-1.58 39.42v.02l-2.15 25.96v.02l-2.46 19.6-2.63 15.64v.02l-2.73 12.9v.02l-2.8 10.9v.02l-2.83 9.37-2.83 8.15v.02l-.18.47h-1.03l.3-.8 2.84-8.14 2.8-9.34 2.8-10.88 2.73-12.88 2.63-15.62 2.46-19.57 2.14-25.93 1.58-39.4.15-82.05z" stroke="#3a414a" stroke-width=".05" fill="#3a414a"/><path d="M1235.26-6170.68h-.53v-.94h.5z" fill="#3a414a"/><path stroke="#3a414a" stroke-width=".05" fill="#3a414a"/><path d="M1368.2-6462.32l-.82.47-9.1-15.8v6.73h-.95v-6.73l-9.13 15.77-.82-.48 10.44-18z" stroke="#3a414a" stroke-width=".05" fill="#3a414a"/><g><use xlink:href="#H" transform="matrix(1,0,0,1,1262.6177486925405,-6246.365150010947) translate(0 17.22222222222222)"/><use xlink:href="#I" transform="matrix(1,0,0,1,1262.6177486925405,-6246.365150010947) translate(59.84375 17.22222222222222)"/><use xlink:href="#F" transform="matrix(1,0,0,1,1262.6177486925405,-6246.365150010947) translate(83.18576388888889 17.22222222222222)"/><use xlink:href="#J" transform="matrix(1,0,0,1,1262.6177486925405,-6246.365150010947) translate(111.71006944444444 17.22222222222222)"/></g><path d="M1628.9-6249.8c-24.94 0-45.17 20.22-45.17 45.17v135.54c0 24.96 20.23 45.2 45.18 45.2h259.65c24.95 0 45.18-20.24 45.18-45.2v-135.53c0-24.95-20.23-45.18-45.18-45.18z" stroke="#000" stroke-width="2" fill="#fff"/><path d="M1583.75-6205.8h349.96" stroke="#000" stroke-width="2" fill="none"/><g><use xlink:href="#K" transform="matrix(1,0,0,1,1653.7301406231163,-6249.809435314723) translate(3.1662326388888857 30.08376736111111)"/><use xlink:href="#L" transform="matrix(1,0,0,1,1653.7301406231163,-6249.809435314723) translate(125.78993055555556 30.08376736111111)"/></g><g><use xlink:href="#c" transform="matrix(1,0,0,1,1618.7301406231163,-6189.809435314723) translate(56.37369791666667 66.95095486111111)"/><use xlink:href="#d" transform="matrix(1,0,0,1,1618.7301406231163,-6189.809435314723) translate(117.18098958333334 66.95095486111111)"/><use xlink:href="#D" transform="matrix(1,0,0,1,1618.7301406231163,-6189.809435314723) translate(131.43880208333331 66.95095486111111)"/><use xlink:href="#k" transform="matrix(1,0,0,1,1618.7301406231163,-6189.809435314723) translate(152.03342013888889 66.95095486111111)"/><use xlink:href="#E" transform="matrix(1,0,0,1,1618.7301406231163,-6189.809435314723) translate(179.38802083333331 66.95095486111111)"/><use xlink:href="#i" transform="matrix(1,0,0,1,1618.7301406231163,-6189.809435314723) translate(12.406684027777786 99.21657986111111)"/><use xlink:href="#d" transform="matrix(1,0,0,1,1618.7301406231163,-6189.809435314723) translate(45.58810763888889 99.21657986111111)"/><use xlink:href="#j" transform="matrix(1,0,0,1,1618.7301406231163,-6189.809435314723) translate(59.84592013888889 99.21657986111111)"/><use xlink:href="#k" transform="matrix(1,0,0,1,1618.7301406231163,-6189.809435314723) translate(119.1775173611111 99.21657986111111)"/><use xlink:href="#M" transform="matrix(1,0,0,1,1618.7301406231163,-6189.809435314723) translate(146.53211805555554 99.21657986111111)"/></g><path d="M1316.84-7014.58l-9.47.8-44.04 5.55-42.1 7.12-39.63 8.4-36.9 9.47-34 10.26-31.1 10.82-28.3 11.2-25.66 11.42-23.22 11.52-20.98 11.52-18.94 11.46-17.12 11.37-15.47 11.24-14 11.08-12.66 10.93-11.5 10.8-10.42 10.65-9.47 10.5-8.6 10.4-7.8 10.28-7.1 10.2-6.43 10.14-5.83 10.1-5.27 10.06-4.74 10.07-4.25 10.1-3.77 10.13-3.32 10.2-2.88 10.3-2.44 10.45-2.02 10.6-1.6 10.77-1.15 11-.7 11.28-.05 2.13-.95-.02.04-2.14v-.02l.72-11.3 1.16-11.03v-.02l1.6-10.8v-.02l2.03-10.6v-.02l2.46-10.46v-.02l2.9-10.33v-.02l3.32-10.22v-.02l3.78-10.15v-.02l4.26-10.1v-.02l4.75-10.08v-.02l5.28-10.08v-.02l5.85-10.1v-.02l6.46-10.16v-.02l7.1-10.22h.02l7.83-10.32h.02l8.6-10.42h.02l9.48-10.54 10.45-10.67h.02l11.5-10.8v-.02l12.7-10.95 14.03-11.1v-.02l15.5-11.25h.02v-.02l17.13-11.37v-.02h.02l18.96-11.48h.02l21-11.55 23.24-11.53h.02l25.68-11.44h.02l28.33-11.2v-.02l31.14-10.83h.02l34.03-10.27h.02l36.9-9.48h.02l39.65-8.43h.02l42.1-7.12h.02l44.06-5.56h.02l9.56-.8zm171.75-4.04l42.64 3.57h.02l40.3 5.1v-.02h.02l37.6 6.36h.02l34.78 7.37h.02l31.88 8.18h.02l29.08 8.78h.02l26.42 9.2h.02l23.95 9.47 21.7 9.66 19.64 9.74h.02l17.77 9.77h.02v.02l16.1 9.73h.02v.02l14.62 9.7 13.3 9.65v.02l12.1 9.56h-.02.02v.02l11 9.5h.02l10.04 9.43h.02v.02l9.16 9.35v.02h.02l8.38 9.3v.02l7.67 9.26h.02l7 9.24h.02v.02l6.4 9.2v.02h.02l5.86 9.23v.02l5.35 9.25v.02l4.86 9.27v.02l4.4 9.34h.02v.02l3.96 9.43h.02l3.55 9.55v.02l3.15 9.68v.02l2.76 9.85v.02l2.36 10.03v.02l1.96 10.25v.02l1.56 10.52 1.13 10.83v.02l.7 11.16v.02l.23 11.06-.95.02-.23-11.04-.7-11.14-1.14-10.8-1.54-10.5-1.95-10.24-2.34-10.02-2.74-9.82-3.14-9.66-3.54-9.53-3.96-9.4-4.4-9.35-4.84-9.26-5.33-9.23-5.83-9.2-6.4-9.2-7-9.2-7.64-9.25-8.37-9.3-9.16-9.33-10.02-9.4-11-9.5-12.06-9.55-13.26-9.64-14.6-9.7-16.1-9.73-17.75-9.75-19.6-9.73-21.67-9.64-23.93-9.46-26.4-9.2-29.06-8.75-31.87-8.17-34.74-7.38-37.6-6.34-40.28-5.08-42.6-3.57-43.35-1.8v-.96z" stroke="#3a414a" stroke-width=".05" fill="#3a414a"/><path d="M1972.34-6687.1h-.95l-.02-.52.95-.02z" fill="#3a414a"/><path stroke="#3a414a" stroke-width=".05" fill="#3a414a"/><path d="M802.83-6653.6l.14-6.72.95.02-.14 6.73 9.44-15.6.8.5-10.77 17.8-10.03-18.23.83-.46z" stroke="#3a414a" stroke-width=".05" fill="#3a414a"/><g><use xlink:href="#N" transform="matrix(1,0,0,1,1316.840609973047,-7030.01407704975) translate(0 17.22222222222222)"/><use xlink:href="#O" transform="matrix(1,0,0,1,1316.840609973047,-7030.01407704975) translate(60.69444444444444 17.22222222222222)"/></g><path d="M1759.52-6355.35v.02l-.3 104.02h-.96l.3-104-.7-11.3h.96zm-97.3-150.83h.02l17.3 7.2h.02l8.9 4.33h.02l6.24 3.5h.02l5.1 3.25v.02h.02l4.66 3.36h.02l4.82 3.92h.02v.02l5.97 5.44h.02v.02l18.9 19.7v.02h.02l1.1 1.23v.02l1.27 1.53v.02h.02l1.28 1.7v.02l1.34 1.92v.02l1.38 2.14v.02l1.4 2.43h.02v.02l1.44 2.76v.02l1.5 3.16v.02l1.54 3.67 1.6 4.28v.02l1.64 5.05 1.68 6.04 1.72 7.33v.02l1.72 9.06v.02l1.7 11.5v.02l.33 3.23h-.96l-.33-3.12-1.67-11.47-1.72-9.04-1.7-7.3-1.67-6-1.63-5.03-1.58-4.25-1.53-3.64-1.5-3.14-1.42-2.74-1.4-2.4-1.34-2.15-1.32-1.9-1.3-1.7-1.25-1.5-1.08-1.23-18.9-19.7-5.95-5.4-4.8-3.9-4.64-3.34-5.05-3.23-6.2-3.47-8.9-4.32-17.26-7.18-7.75-2.88.33-.9z" stroke="#3a414a" stroke-width=".05" fill="#3a414a"/><path d="M1759.2-6251.32v.5h-.94v-.5z" fill="#3a414a"/><path stroke="#3a414a" stroke-width=".05" fill="#3a414a"/><path d="M1666.2-6514.43l-17.97 3.03 6.3 2.35-.33.9-6.3-2.36 11.6 14.04-.72.6-13.26-16.05 20.53-3.47z" stroke="#3a414a" stroke-width=".05" fill="#3a414a"/><g><use xlink:href="#y" transform="matrix(1,0,0,1,1688.8295996233026,-6388.125041184996) translate(0 17.22222222222222)"/><use xlink:href="#z" transform="matrix(1,0,0,1,1688.8295996233026,-6388.125041184996) translate(53.949652777777786 17.22222222222222)"/><use xlink:href="#P" transform="matrix(1,0,0,1,1688.8295996233026,-6388.125041184996) translate(70.71180555555557 17.22222222222222)"/></g><path d="M2044.32-6292.7v.02l-1.83 22.05v.02h-.02l-2.1 16.8-2.28 13.5v.02l-2.37 11.2-2.43 9.48v.02l-2.47 8.15v.02l-2.48 7.1v.02l-2.48 6.28v.02l-2.5 5.58v.02l-2.5 5v.02l-2.5 4.53v.02l-2.48 4.1h-.02v.02l-2.5 3.76-2.52 3.46v.02l-2.53 3.18-2.55 2.95-2.57 2.74-2.6 2.55h-.02l-2.63 2.38h-.02l-2.67 2.23v.02h-.02l-2.73 2.08-2.8 1.95h-.02v.02l-2.88 1.82-2.97 1.7h-.02v.02l-3.04 1.6h-.02l-3.17 1.5-3.3 1.38h-.02l-3.44 1.3-3.6 1.16h-.02l-3.8 1.07h-.02l-4 .94h-.02l-4.25.8h-.02v.02l-4.54.65h-.02l-4.85.52h-.02l-5.23.32h-.02l-5.16.1-.02-.95 5.16-.1 5.2-.33 4.84-.5 4.5-.67 4.23-.8 3.98-.94 3.77-1.04 3.6-1.17 3.4-1.28 3.28-1.37 3.15-1.48 3.03-1.6 2.94-1.7 2.86-1.8 2.78-1.93 2.72-2.07 2.66-2.2 2.62-2.36 2.58-2.52 2.55-2.72 2.53-2.92 2.5-3.16 2.5-3.44 2.48-3.74 2.48-4.1 2.47-4.5 2.48-5 2.48-5.56 2.48-6.26 2.47-7.1 2.45-8.13 2.42-9.45 2.37-11.16 2.27-13.48 2.1-16.78 1.83-22.02.7-17.17h.94zm1.28-38.72h-.95l-.37-91.65h.95z" stroke="#3a414a" stroke-width=".05" fill="#3a414a"/><path d="M1935.26-6136.4h-.53v-.94h.5z" fill="#3a414a"/><path stroke="#3a414a" stroke-width=".05" fill="#3a414a"/><path d="M2055.2-6414.48l-.82.48-9.17-15.75.03 6.73h-.94l-.04-6.72-9.05 15.82-.82-.48 10.34-18.07z" stroke="#3a414a" stroke-width=".05" fill="#3a414a"/><g><use xlink:href="#H" transform="matrix(1,0,0,1,1971.835517463229,-6331.418358126503) translate(0 17.22222222222222)"/><use xlink:href="#Q" transform="matrix(1,0,0,1,1971.835517463229,-6331.418358126503) translate(59.84375 17.22222222222222)"/><use xlink:href="#R" transform="matrix(1,0,0,1,1971.835517463229,-6331.418358126503) translate(73.02083333333333 17.22222222222222)"/><use xlink:href="#F" transform="matrix(1,0,0,1,1971.835517463229,-6331.418358126503) translate(89.49652777777777 17.22222222222222)"/><use xlink:href="#S" transform="matrix(1,0,0,1,1971.835517463229,-6331.418358126503) translate(118.02083333333333 17.22222222222222)"/></g><path d="M1497.08-6271.98l-.42 18.8.28 14.13.7 11.22.97 9.24 1.15 7.8 1.28 6.7 1.37 5.85 1.43 5.15 1.5 4.6 1.53 4.1 1.57 3.75 1.6 3.4 1.63 3.13 1.66 2.9 1.7 2.66 1.72 2.48 1.76 2.32 1.8 2.18 1.85 2.05 1.9 1.93 1.93 1.82 2 1.73 2.08 1.65 2.15 1.56 2.24 1.48 2.34 1.4 2.44 1.36 2.56 1.27 2.7 1.2 2.87 1.14 3.05 1.07 3.25.98 3.5.9 3.76.8 4.1.68 4.46.57 3.88.32-.08.95-3.88-.33h-.02l-4.5-.56-4.12-.7h-.02l-3.78-.8h-.02l-3.52-.9v-.02h-.02l-3.27-1-3.07-1.06h-.02l-2.87-1.15h-.02.02l-2.73-1.22h-.02l-2.6-1.3-2.47-1.35-2.36-1.43-2.26-1.5h-.02v-.02l-2.17-1.57h-.02l-2.1-1.67v-.02l-2.03-1.74v-.02l-1.97-1.84-1.92-1.96-1.87-2.07h-.02v-.02l-1.8-2.2h-.02l-1.78-2.34v-.02l-1.75-2.5v-.02l-1.7-2.7h-.02l-1.67-2.9v-.02l-1.65-3.15v-.02l-1.62-3.43v-.02l-1.6-3.76v-.02l-1.53-4.14-1.5-4.62v-.02l-1.45-5.17v-.02l-1.38-5.87-1.28-6.73v-.02l-1.15-7.8v-.02l-.98-9.27v-.02l-.7-11.25v-.02l-.3-14.14v-.02l.43-18.84v-.02l7.34-73.9h.95zm18.1-207.93l-.4 19.44h-.02v.02l-1.92 29.7v.02l-6.28 63.26h-.96l6.3-63.35 1.9-29.7.44-19.43z" stroke="#3a414a" stroke-width=".05" fill="#3a414a"/><path d="M1515.2-6479.9l-.96-.02.02-.5h.94z" fill="#3a414a"/><path stroke="#3a414a" stroke-width=".05" fill="#3a414a"/><path d="M1582.68-6136.86l-18.4 9.74-.44-.84 16.1-8.53-6.72-.23.03-.95 6.73.24-15.45-9.68.5-.8z" stroke="#3a414a" stroke-width=".05" fill="#3a414a"/><g><use xlink:href="#y" transform="matrix(1,0,0,1,1430.3254233725709,-6367.458456175083) translate(0 17.22222222222222)"/><use xlink:href="#F" transform="matrix(1,0,0,1,1430.3254233725709,-6367.458456175083) translate(53.949652777777786 17.22222222222222)"/><use xlink:href="#P" transform="matrix(1,0,0,1,1430.3254233725709,-6367.458456175083) translate(82.47395833333334 17.22222222222222)"/></g><path d="M1023.66-6329.68l-3.04 28.33-1.13 17.54-.28 12.5-.95-.02.27-12.53 1.13-17.57v-.02l3.04-28.35 7.1-53.95h.96zm-38.7-210.1h.02l3.4.44h.02l3.1.53h.02l2.86.6 2.65.67h.02l2.44.75 2.3.8 2.14.85h.02l2 .9h.02l1.9.95h.02l1.8 1h.02l1.73 1.05 1.66 1.1h.02v.02l1.58 1.13 1.53 1.2v.02l1.47 1.27h.02l1.4 1.33h.02v.02l1.37 1.4h.02l1.33 1.5h.02l1.3 1.57 1.27 1.68 1.24 1.78v.02l1.2 1.9h.02v.02l1.18 2.04v.02l1.16 2.2v.02l1.14 2.4 1.1 2.62v.02l1.08 2.87v.02l1.04 3.18 1 3.56.93 4 .86 4.55v.02l.77 5.22v.02l.64 6.12v.02l.47 7.3v.02l.18 9v.02l-.25 11.52-1.02 15.88v.02l-3.6 27.3h-.95l3.6-27.4 1.02-15.84.25-11.5-.18-8.96-.46-7.3-.63-6.1-.77-5.2-.86-4.52-.93-3.97-.98-3.52-1.04-3.15-1.06-2.85-1.08-2.6-1.12-2.37-1.14-2.2-1.17-2-1.2-1.9-1.23-1.75-1.25-1.64-1.28-1.55-1.3-1.48-1.37-1.38-1.4-1.3-1.44-1.26-1.5-1.2-1.56-1.12-1.62-1.08-1.7-1.03-1.8-.98-1.87-.93-2-.9-2.12-.83-2.25-.78-2.42-.73-2.6-.68-2.84-.6-3.1-.52-3.37-.43-.75-.06.08-.94z" stroke="#3a414a" stroke-width=".05" fill="#3a414a"/><path d="M1019.22-6271.3v.5h-.97l.02-.54z" fill="#3a414a"/><path stroke="#3a414a" stroke-width=".05" fill="#3a414a"/><path d="M993.72-6548.5l-16.2 8.35 6.72.32-.04.94-6.72-.3 15.33 9.85-.5.8-17.52-11.26 18.5-9.55z" stroke="#3a414a" stroke-width=".05" fill="#3a414a"/><g><use xlink:href="#y" transform="matrix(1,0,0,1,964.6933759665432,-6405.2650219850175) translate(0 17.22222222222222)"/><use xlink:href="#z" transform="matrix(1,0,0,1,964.6933759665432,-6405.2650219850175) translate(53.949652777777786 17.22222222222222)"/><use xlink:href="#G" transform="matrix(1,0,0,1,964.6933759665432,-6405.2650219850175) translate(70.71180555555557 17.22222222222222)"/></g><defs><path d="M135 0v-1490h305v602h649v-602h306V0h-306v-635H440V0H135" id="T"/><path d="M440 22C227 22 68-92 68-313c0-250 202-322 422-343 195-21 271-24 271-105 0-95-63-149-175-149-116 0-187 57-211 129l-275-46c57-194 237-305 487-305 240 0 474 108 474 379V0H777v-155h-10C713-51 605 22 440 22zm85-211c140 0 238-93 238-211v-121c-37 26-156 42-222 51-111 16-185 59-185 149 0 87 70 132 169 132" id="U"/><path d="M428-647V0H128v-1118h283l4 231c63-156 176-245 348-245 232 0 384 159 384 421V0H847v-659c0-139-76-222-202-222-128 0-217 86-217 234" id="V"/><path d="M625 442c-280 0-454-114-503-274l258-72c28 63 97 128 243 128 153 0 246-69 246-216v-206h-23C805-108 717-16 536-16 284-16 81-191 81-561c0-378 208-571 456-571 188 0 280 113 321 202h13v-188h295V-9c0 303-226 451-541 451zm5-686c153 0 240-119 240-319 0-198-86-329-240-329-158 0-241 137-241 329 0 195 85 319 241 319" id="W"/><path d="M128 0v-1118h290v195h12c54-169 184-238 367-200v268c-27-8-86-15-130-15-138 0-239 95-239 234V0H128" id="X"/><path d="M75-1237v-253h1217v253H837V0H531v-1237H75" id="Y"/><path d="M572 22C302 22 117-98 78-306l279-48c29 105 101 156 224 156 114 0 185-48 185-115 0-118-228-130-337-155-215-49-322-150-322-317 0-215 187-347 470-347 265 0 424 116 466 298l-266 47c-24-76-87-130-196-130-98 0-174 46-174 113 0 56 38 95 144 117l201 40c216 44 320 143 320 302 0 220-207 367-500 367" id="Z"/><path d="M128 0v-1490h300v802h17l366-430h347L740-633 1179 0H826L514-456l-86 97V0H128" id="aa"/><g id="a"><use transform="matrix(0.010850694444444444,0,0,0.010850694444444444,0,0)" xlink:href="#T"/><use transform="matrix(0.010850694444444444,0,0,0.010850694444444444,16.6015625,0)" xlink:href="#U"/><use transform="matrix(0.010850694444444444,0,0,0.010850694444444444,29.503038194444443,0)" xlink:href="#V"/><use transform="matrix(0.010850694444444444,0,0,0.010850694444444444,43.33767361111111,0)" xlink:href="#W"/><use transform="matrix(0.010850694444444444,0,0,0.010850694444444444,57.37847222222221,0)" xlink:href="#U"/><use transform="matrix(0.010850694444444444,0,0,0.010850694444444444,70.27994791666666,0)" xlink:href="#X"/><use transform="matrix(0.010850694444444444,0,0,0.010850694444444444,78.07074652777777,0)" xlink:href="#Y"/><use transform="matrix(0.010850694444444444,0,0,0.010850694444444444,91.27604166666666,0)" xlink:href="#U"/><use transform="matrix(0.010850694444444444,0,0,0.010850694444444444,104.17751736111111,0)" xlink:href="#Z"/><use transform="matrix(0.010850694444444444,0,0,0.010850694444444444,116.62326388888887,0)" xlink:href="#aa"/></g><path d="M135 0v-1490h340l471 754c59 97 122 210 187 365-32-387-14-721-19-1119h312V0h-341C855-382 627-689 427-1113c32 420 16 695 20 1113H135" id="ab"/><path d="M789 20C394 20 94-260 94-744c0-487 300-766 695-766s695 279 695 766c0 485-300 764-695 764zm0-271c231 0 385-174 385-493 0-321-154-495-385-495s-385 175-385 495c0 319 154 493 385 493" id="ac"/><path d="M135 0v-1490h581c339 0 533 192 533 485 0 204-94 351-264 424L1302 0H964L680-532H440V0H135zm305-779h220c186 0 274-77 274-226 0-150-88-233-275-233H440v459" id="ad"/><path d="M135 0v-1490h468l242 684c30 94 76 293 111 455 34-161 80-360 110-455l238-684h470V0h-307c0-447-3-765 11-1227-122 503-246 788-395 1227H826C676-435 552-717 427-1215c15 453 11 775 11 1215H135" id="ae"/><path d="M49 0l509-1490h400L1480 0h-339l-115-346H497L386 0H49zm524-585h374c-75-213-124-402-192-666-66 268-110 453-182 666" id="af"/><path d="M135 0v-1490h305v1237h643V0H135" id="ag"/><g id="b"><use transform="matrix(0.010850694444444444,0,0,0.010850694444444444,0,0)" xlink:href="#ab"/><use transform="matrix(0.010850694444444444,0,0,0.010850694444444444,16.93793402777778,0)" xlink:href="#ac"/><use transform="matrix(0.010850694444444444,0,0,0.010850694444444444,34.060329861111114,0)" xlink:href="#ad"/><use transform="matrix(0.010850694444444444,0,0,0.010850694444444444,48.6545138888889,0)" xlink:href="#ae"/><use transform="matrix(0.010850694444444444,0,0,0.010850694444444444,69.35763888888889,0)" xlink:href="#af"/><use transform="matrix(0.010850694444444444,0,0,0.010850694444444444,85.94835069444444,0)" xlink:href="#ag"/></g><path d="M628 24c-324 0-524-230-524-574 0-343 198-582 503-582 237 0 487 146 487 559v75H286c9 234 145 362 343 362 132 0 231-58 273-172l174 48C1024-91 857 24 628 24zM287-650h624c-17-190-120-322-304-322-192 0-309 151-320 322" id="ah"/><path d="M338-670V0H158v-1118h173l1 207c72-158 192-221 342-221 226 0 378 139 378 422V0H872v-695c0-172-96-275-252-275-161 0-282 109-282 300" id="ai"/><path d="M598-1118v154H368v674c0 100 37 144 132 144 23 0 62-6 92-12L629-6c-37 13-88 20-134 20-193 0-307-107-307-290v-688H20v-154h168v-266h180v266h230" id="aj"/><path d="M158 0v-1118h174v172h12c41-113 157-188 290-188 26 0 70 2 91 3v181c-11-2-60-10-108-10-161 0-279 109-279 260V0H158" id="ak"/><path d="M140 405l46-156c120 36 205 19 263-150l32-93L54-1118h197c107 313 237 620 324 950 87-331 219-637 326-950h196L606 167c-68 178-176 259-334 259-64 0-113-12-132-21" id="al"/><g id="c"><use transform="matrix(0.010850694444444444,0,0,0.010850694444444444,0,0)" xlink:href="#ah"/><use transform="matrix(0.010850694444444444,0,0,0.010850694444444444,12.955729166666666,0)" xlink:href="#ai"/><use transform="matrix(0.010850694444444444,0,0,0.010850694444444444,26.085069444444443,0)" xlink:href="#aj"/><use transform="matrix(0.010850694444444444,0,0,0.010850694444444444,33.35503472222222,0)" xlink:href="#ak"/><use transform="matrix(0.010850694444444444,0,0,0.010850694444444444,42.06814236111111,0)" xlink:href="#al"/></g><path d="M692-1560L212 224H46l480-1784h166" id="am"/><use transform="matrix(0.010850694444444444,0,0,0.010850694444444444,0,0)" xlink:href="#am" id="d"/><path d="M538 24C308 24 148-78 108-271l171-41c32 123 123 178 257 178 156 0 256-77 256-169 0-77-54-128-164-154l-186-44c-203-48-300-148-300-305 0-192 176-326 414-326 230 0 351 112 402 269l-163 42c-31-80-94-158-238-158-133 0-233 69-233 162 0 83 57 129 188 160l169 40c203 48 298 149 298 302 0 196-179 339-441 339" id="an"/><path d="M52 0l541-1490h220L1361 0h-200l-149-416H398L254 0H52zm404-582h497c-103-290-145-390-251-756-108 377-145 460-246 756" id="ao"/><path d="M338-1490V0H158v-1490h180" id="ap"/><path d="M471 26C259 26 90-98 90-318c0-256 228-303 435-329 202-27 287-16 287-108 0-139-79-219-234-219-161 0-248 86-283 164l-173-57c86-203 278-265 451-265 150 0 419 46 419 395V0H815v-152h-12C765-73 660 26 471 26zm31-159c199 0 310-134 310-271v-155c-30 35-226 55-295 64-131 17-246 59-246 186 0 116 97 176 231 176" id="aq"/><path d="M158 0v-1118h175l1 205c55-151 181-225 313-225 147 0 245 90 285 228 53-141 190-228 352-228 194 0 352 125 352 384V0h-181v-749c0-161-105-225-225-225-151 0-243 103-243 244V0H807v-767c0-124-93-207-219-207-131 0-250 92-250 270V0H158" id="ar"/><path d="M218-607c0-325 108-727 258-974h175c-155 315-250 682-250 974 0 265 78 531 250 886H476C306-10 218-315 218-607" id="as"/><path d="M678-1118v154H420V0H240v-964H20v-154h220v-149c0-194 155-293 318-293 85 0 141 18 168 30l-50 154c-19-6-47-17-97-17-111 0-159 58-159 166v109h258" id="at"/><path d="M96 279C273-86 346-350 346-607c0-292-95-659-250-974h175c150 246 258 650 258 974 0 297-91 602-258 886H96" id="au"/><path d="M128 359l88-567h206L266 359H128zM323-796c-75 0-135-60-135-135s60-135 135-135 135 60 135 135-60 135-135 135" id="av"/><g id="e"><use transform="matrix(0.010850694444444444,0,0,0.010850694444444444,0,0)" xlink:href="#an"/><use transform="matrix(0.010850694444444444,0,0,0.010850694444444444,11.729600694444445,0)" xlink:href="#ah"/><use transform="matrix(0.010850694444444444,0,0,0.010850694444444444,24.68532986111111,0)" xlink:href="#aj"/><use transform="matrix(0.010850694444444444,0,0,0.010850694444444444,31.95529513888889,0)" xlink:href="#ao"/><use transform="matrix(0.010850694444444444,0,0,0.010850694444444444,47.287326388888886,0)" xlink:href="#ap"/><use transform="matrix(0.010850694444444444,0,0,0.010850694444444444,52.66927083333333,0)" xlink:href="#aq"/><use transform="matrix(0.010850694444444444,0,0,0.010850694444444444,65.14756944444444,0)" xlink:href="#ak"/><use transform="matrix(0.010850694444444444,0,0,0.010850694444444444,73.86067708333334,0)" xlink:href="#ar"/><use transform="matrix(0.010850694444444444,0,0,0.010850694444444444,93.32682291666666,0)" xlink:href="#as"/><use transform="matrix(0.010850694444444444,0,0,0.010850694444444444,101.43229166666666,0)" xlink:href="#at"/><use transform="matrix(0.010850694444444444,0,0,0.010850694444444444,109.30989583333333,0)" xlink:href="#aq"/><use transform="matrix(0.010850694444444444,0,0,0.010850694444444444,121.78819444444444,0)" xlink:href="#ap"/><use transform="matrix(0.010850694444444444,0,0,0.010850694444444444,127.17013888888889,0)" xlink:href="#an"/><use transform="matrix(0.010850694444444444,0,0,0.010850694444444444,138.89973958333334,0)" xlink:href="#ah"/><use transform="matrix(0.010850694444444444,0,0,0.010850694444444444,151.60590277777777,0)" xlink:href="#au"/><use transform="matrix(0.010850694444444444,0,0,0.010850694444444444,159.71137152777777,0)" xlink:href="#av"/></g><path d="M613 24c-304 0-509-231-509-576 0-350 205-580 509-580 305 0 511 230 511 580 0 345-206 576-511 576zm0-161c226 0 329-195 329-415 0-222-103-419-329-419-223 0-326 196-326 419 0 220 103 415 326 415" id="aw"/><g id="f"><use transform="matrix(0.010850694444444444,0,0,0.010850694444444444,0,0)" xlink:href="#aw"/><use transform="matrix(0.010850694444444444,0,0,0.010850694444444444,13.324652777777777,0)" xlink:href="#at"/><use transform="matrix(0.010850694444444444,0,0,0.010850694444444444,20.68142361111111,0)" xlink:href="#at"/></g><path d="M180 0v-1490h190v1322h690V0H180" id="ax"/><path d="M635 20c-292 0-500-160-510-396h192c11 142 145 229 315 229 187 0 323-105 323-260 0-161-125-274-346-274H488v-165h121c174 0 294-100 294-254 0-148-104-245-266-245-152 0-291 85-297 230H157c8-234 222-395 484-395 278 0 448 188 448 400 0 168-95 291-247 336v12c190 31 301 169 301 357 0 244-216 425-508 425" id="ay"/><g id="g"><use transform="matrix(0.010850694444444444,0,0,0.010850694444444444,0,0)" xlink:href="#ax"/><use transform="matrix(0.010850694444444444,0,0,0.010850694444444444,12.565104166666666,0)" xlink:href="#ay"/><use transform="matrix(0.010850694444444444,0,0,0.010850694444444444,26.29123263888889,0)" xlink:href="#av"/></g><path d="M180 0v-1490h510c348 0 508 209 508 474 0 266-160 477-507 477H370V0H180zm190-706h312c236 0 327-133 327-310 0-176-91-307-329-307H370v617" id="az"/><g id="h"><use transform="matrix(0.010850694444444444,0,0,0.010850694444444444,0,0)" xlink:href="#an"/><use transform="matrix(0.010850694444444444,0,0,0.010850694444444444,11.729600694444445,0)" xlink:href="#ah"/><use transform="matrix(0.010850694444444444,0,0,0.010850694444444444,24.68532986111111,0)" xlink:href="#aj"/><use transform="matrix(0.010850694444444444,0,0,0.010850694444444444,31.95529513888889,0)" xlink:href="#az"/><use transform="matrix(0.010850694444444444,0,0,0.010850694444444444,46.14800347222222,0)" xlink:href="#ak"/><use transform="matrix(0.010850694444444444,0,0,0.010850694444444444,54.14496527777778,0)" xlink:href="#ah"/><use transform="matrix(0.010850694444444444,0,0,0.010850694444444444,66.35199652777777,0)" xlink:href="#ao"/><use transform="matrix(0.010850694444444444,0,0,0.010850694444444444,81.68402777777777,0)" xlink:href="#ap"/><use transform="matrix(0.010850694444444444,0,0,0.010850694444444444,87.06597222222221,0)" xlink:href="#aq"/><use transform="matrix(0.010850694444444444,0,0,0.010850694444444444,99.54427083333333,0)" xlink:href="#ak"/><use transform="matrix(0.010850694444444444,0,0,0.010850694444444444,108.25737847222224,0)" xlink:href="#ar"/><use transform="matrix(0.010850694444444444,0,0,0.010850694444444444,127.72352430555556,0)" xlink:href="#as"/><use transform="matrix(0.010850694444444444,0,0,0.010850694444444444,135.82899305555554,0)" xlink:href="#at"/><use transform="matrix(0.010850694444444444,0,0,0.010850694444444444,143.7065972222222,0)" xlink:href="#aq"/><use transform="matrix(0.010850694444444444,0,0,0.010850694444444444,156.18489583333331,0)" xlink:href="#ap"/><use transform="matrix(0.010850694444444444,0,0,0.010850694444444444,161.56684027777777,0)" xlink:href="#an"/><use transform="matrix(0.010850694444444444,0,0,0.010850694444444444,173.29644097222223,0)" xlink:href="#ah"/><use transform="matrix(0.010850694444444444,0,0,0.010850694444444444,186.00260416666666,0)" xlink:href="#au"/></g><path d="M577 24c-279 0-473-224-473-580 0-354 195-576 474-576 218 0 287 134 324 193h14v-551h180V0H922v-173h-20C865-111 790 24 577 24zm27-161c203 0 314-172 314-421 0-247-108-413-314-413-212 0-317 181-317 413 0 235 108 421 317 421" id="aA"/><g id="i"><use transform="matrix(0.010850694444444444,0,0,0.010850694444444444,0,0)" xlink:href="#aA"/><use transform="matrix(0.010850694444444444,0,0,0.010850694444444444,13.606770833333332,0)" xlink:href="#aw"/></g><path d="M158 418v-1536h174v179h20c37-59 106-193 324-193 279 0 474 222 474 576 0 356-194 580-473 580-213 0-288-135-325-197h-14v591H158zm492-555c209 0 317-186 317-421 0-232-105-413-317-413-206 0-314 166-314 413 0 249 111 421 314 421" id="aB"/><g id="j"><use transform="matrix(0.010850694444444444,0,0,0.010850694444444444,0,0)" xlink:href="#aj"/><use transform="matrix(0.010850694444444444,0,0,0.010850694444444444,7.052951388888888,0)" xlink:href="#ah"/><use transform="matrix(0.010850694444444444,0,0,0.010850694444444444,20.008680555555554,0)" xlink:href="#ar"/><use transform="matrix(0.010850694444444444,0,0,0.010850694444444444,39.474826388888886,0)" xlink:href="#aB"/></g><path d="M295 13c-75 0-135-60-135-135s60-135 135-135 135 60 135 135S370 13 295 13zm0-809c-75 0-135-60-135-135s60-135 135-135 135 60 135 135-60 135-135 135" id="aC"/><path d="M226-283v-166h904v166H226zm0-434v-166h904v166H226" id="aD"/><g id="k"><use transform="matrix(0.010850694444444444,0,0,0.010850694444444444,0,0)" xlink:href="#aC"/><use transform="matrix(0.010850694444444444,0,0,0.010850694444444444,6.401909722222222,0)" xlink:href="#aD"/></g><path d="M613 24c-304 0-509-231-509-576 0-350 205-580 509-580 216 0 392 114 453 309l-173 49c-33-115-133-197-280-197-223 0-326 196-326 419 0 220 103 415 326 415 150 0 252-85 285-206l172 49C1010-95 832 24 613 24" id="aE"/><path d="M338-670V0H158v-1490h180v566c73-149 190-208 336-208 226 0 379 139 379 422V0H872v-695c0-172-96-275-252-275-161 0-282 109-282 300" id="aF"/><path d="M158 0v-1490h180v865h22l478-493h223L593-638 1096 0H865L456-523 338-412V0H158" id="aG"/><path d="M98-1322v-168h1126v168H757V0H567v-1322H98" id="aH"/><g id="l"><use transform="matrix(0.010850694444444444,0,0,0.010850694444444444,0,0)" xlink:href="#aE"/><use transform="matrix(0.010850694444444444,0,0,0.010850694444444444,12.6953125,0)" xlink:href="#aF"/><use transform="matrix(0.010850694444444444,0,0,0.010850694444444444,25.83550347222222,0)" xlink:href="#ah"/><use transform="matrix(0.010850694444444444,0,0,0.010850694444444444,38.791232638888886,0)" xlink:href="#aE"/><use transform="matrix(0.010850694444444444,0,0,0.010850694444444444,51.486545138888886,0)" xlink:href="#aG"/><use transform="matrix(0.010850694444444444,0,0,0.010850694444444444,62.424045138888886,0)" xlink:href="#aH"/><use transform="matrix(0.010850694444444444,0,0,0.010850694444444444,75.03255208333333,0)" xlink:href="#ah"/><use transform="matrix(0.010850694444444444,0,0,0.010850694444444444,87.98828125,0)" xlink:href="#ar"/><use transform="matrix(0.010850694444444444,0,0,0.010850694444444444,107.45442708333333,0)" xlink:href="#aB"/></g><path d="M135 0v-1490h581c339 0 533 210 533 503 0 295-197 500-540 500H440V0H135zm305-733h220c186 0 274-104 274-254s-88-251-275-251H440v505" id="aI"/><path d="M135 0v-1490h997v253H440v360h640v249H440v375h694V0H135" id="aJ"/><g id="m"><use transform="matrix(0.010850694444444444,0,0,0.010850694444444444,0,0)" xlink:href="#aI"/><use transform="matrix(0.010850694444444444,0,0,0.010850694444444444,14.398871527777777,0)" xlink:href="#ad"/><use transform="matrix(0.010850694444444444,0,0,0.010850694444444444,28.993055555555554,0)" xlink:href="#aJ"/><use transform="matrix(0.010850694444444444,0,0,0.010850694444444444,42.49131944444444,0)" xlink:href="#af"/><use transform="matrix(0.010850694444444444,0,0,0.010850694444444444,59.08203125,0)" xlink:href="#ag"/><use transform="matrix(0.010850694444444444,0,0,0.010850694444444444,71.64713541666667,0)" xlink:href="#af"/><use transform="matrix(0.010850694444444444,0,0,0.010850694444444444,88.23784722222223,0)" xlink:href="#ad"/><use transform="matrix(0.010850694444444444,0,0,0.010850694444444444,102.83203125,0)" xlink:href="#ae"/></g><path d="M537 14c-226 0-379-139-379-422v-710h180v695c0 172 97 275 253 275 160 0 281-109 281-300v-670h181V0H879v-209C806-46 684 14 537 14" id="aK"/><g id="n"><use transform="matrix(0.010850694444444444,0,0,0.010850694444444444,0,0)" xlink:href="#an"/><use transform="matrix(0.010850694444444444,0,0,0.010850694444444444,11.729600694444445,0)" xlink:href="#ah"/><use transform="matrix(0.010850694444444444,0,0,0.010850694444444444,24.68532986111111,0)" xlink:href="#aj"/><use transform="matrix(0.010850694444444444,0,0,0.010850694444444444,31.95529513888889,0)" xlink:href="#az"/><use transform="matrix(0.010850694444444444,0,0,0.010850694444444444,46.14800347222222,0)" xlink:href="#ak"/><use transform="matrix(0.010850694444444444,0,0,0.010850694444444444,54.14496527777778,0)" xlink:href="#ah"/><use transform="matrix(0.010850694444444444,0,0,0.010850694444444444,66.35199652777777,0)" xlink:href="#ao"/><use transform="matrix(0.010850694444444444,0,0,0.010850694444444444,81.68402777777777,0)" xlink:href="#ap"/><use transform="matrix(0.010850694444444444,0,0,0.010850694444444444,87.06597222222221,0)" xlink:href="#aq"/><use transform="matrix(0.010850694444444444,0,0,0.010850694444444444,99.54427083333333,0)" xlink:href="#ak"/><use transform="matrix(0.010850694444444444,0,0,0.010850694444444444,108.25737847222224,0)" xlink:href="#ar"/><use transform="matrix(0.010850694444444444,0,0,0.010850694444444444,127.72352430555556,0)" xlink:href="#as"/><use transform="matrix(0.010850694444444444,0,0,0.010850694444444444,135.82899305555554,0)" xlink:href="#aj"/><use transform="matrix(0.010850694444444444,0,0,0.010850694444444444,143.09895833333331,0)" xlink:href="#ak"/><use transform="matrix(0.010850694444444444,0,0,0.010850694444444444,151.46484374999997,0)" xlink:href="#aK"/><use transform="matrix(0.010850694444444444,0,0,0.010850694444444444,164.6050347222222,0)" xlink:href="#ah"/><use transform="matrix(0.010850694444444444,0,0,0.010850694444444444,177.31119791666663,0)" xlink:href="#au"/></g><g id="o"><use transform="matrix(0.010850694444444444,0,0,0.010850694444444444,0,0)" xlink:href="#af"/><use transform="matrix(0.010850694444444444,0,0,0.010850694444444444,16.590711805555554,0)" xlink:href="#ag"/><use transform="matrix(0.010850694444444444,0,0,0.010850694444444444,29.15581597222222,0)" xlink:href="#af"/><use transform="matrix(0.010850694444444444,0,0,0.010850694444444444,45.74652777777778,0)" xlink:href="#ad"/><use transform="matrix(0.010850694444444444,0,0,0.010850694444444444,60.34071180555555,0)" xlink:href="#ae"/></g><g id="p"><use transform="matrix(0.010850694444444444,0,0,0.010850694444444444,0,0)" xlink:href="#ah"/><use transform="matrix(0.010850694444444444,0,0,0.010850694444444444,12.955729166666666,0)" xlink:href="#ai"/><use transform="matrix(0.010850694444444444,0,0,0.010850694444444444,26.085069444444443,0)" xlink:href="#aj"/><use transform="matrix(0.010850694444444444,0,0,0.010850694444444444,33.35503472222222,0)" xlink:href="#ak"/><use transform="matrix(0.010850694444444444,0,0,0.010850694444444444,42.06814236111111,0)" xlink:href="#al"/></g><use transform="matrix(0.010850694444444444,0,0,0.010850694444444444,0,0)" xlink:href="#am" id="q"/><g id="r"><use transform="matrix(0.010850694444444444,0,0,0.010850694444444444,0,0)" xlink:href="#an"/><use transform="matrix(0.010850694444444444,0,0,0.010850694444444444,11.729600694444445,0)" xlink:href="#ah"/><use transform="matrix(0.010850694444444444,0,0,0.010850694444444444,24.68532986111111,0)" xlink:href="#aj"/><use transform="matrix(0.010850694444444444,0,0,0.010850694444444444,31.95529513888889,0)" xlink:href="#az"/><use transform="matrix(0.010850694444444444,0,0,0.010850694444444444,46.14800347222222,0)" xlink:href="#ak"/><use transform="matrix(0.010850694444444444,0,0,0.010850694444444444,54.14496527777778,0)" xlink:href="#ah"/><use transform="matrix(0.010850694444444444,0,0,0.010850694444444444,66.35199652777777,0)" xlink:href="#ao"/><use transform="matrix(0.010850694444444444,0,0,0.010850694444444444,81.68402777777777,0)" xlink:href="#ap"/><use transform="matrix(0.010850694444444444,0,0,0.010850694444444444,87.06597222222221,0)" xlink:href="#aq"/><use transform="matrix(0.010850694444444444,0,0,0.010850694444444444,99.54427083333333,0)" xlink:href="#ak"/><use transform="matrix(0.010850694444444444,0,0,0.010850694444444444,108.25737847222224,0)" xlink:href="#ar"/><use transform="matrix(0.010850694444444444,0,0,0.010850694444444444,127.72352430555556,0)" xlink:href="#as"/><use transform="matrix(0.010850694444444444,0,0,0.010850694444444444,135.82899305555554,0)" xlink:href="#at"/><use transform="matrix(0.010850694444444444,0,0,0.010850694444444444,143.7065972222222,0)" xlink:href="#aq"/><use transform="matrix(0.010850694444444444,0,0,0.010850694444444444,156.18489583333331,0)" xlink:href="#ap"/><use transform="matrix(0.010850694444444444,0,0,0.010850694444444444,161.56684027777777,0)" xlink:href="#an"/><use transform="matrix(0.010850694444444444,0,0,0.010850694444444444,173.29644097222223,0)" xlink:href="#ah"/><use transform="matrix(0.010850694444444444,0,0,0.010850694444444444,186.00260416666666,0)" xlink:href="#au"/><use transform="matrix(0.010850694444444444,0,0,0.010850694444444444,194.10807291666666,0)" xlink:href="#av"/></g><g id="s"><use transform="matrix(0.010850694444444444,0,0,0.010850694444444444,0,0)" xlink:href="#an"/><use transform="matrix(0.010850694444444444,0,0,0.010850694444444444,11.729600694444445,0)" xlink:href="#ah"/><use transform="matrix(0.010850694444444444,0,0,0.010850694444444444,24.68532986111111,0)" xlink:href="#aj"/><use transform="matrix(0.010850694444444444,0,0,0.010850694444444444,31.95529513888889,0)" xlink:href="#ao"/><use transform="matrix(0.010850694444444444,0,0,0.010850694444444444,47.287326388888886,0)" xlink:href="#ap"/><use transform="matrix(0.010850694444444444,0,0,0.010850694444444444,52.66927083333333,0)" xlink:href="#aq"/><use transform="matrix(0.010850694444444444,0,0,0.010850694444444444,65.14756944444444,0)" xlink:href="#ak"/><use transform="matrix(0.010850694444444444,0,0,0.010850694444444444,73.86067708333334,0)" xlink:href="#ar"/><use transform="matrix(0.010850694444444444,0,0,0.010850694444444444,93.32682291666666,0)" xlink:href="#as"/><use transform="matrix(0.010850694444444444,0,0,0.010850694444444444,101.43229166666666,0)" xlink:href="#aj"/><use transform="matrix(0.010850694444444444,0,0,0.010850694444444444,108.70225694444444,0)" xlink:href="#ak"/><use transform="matrix(0.010850694444444444,0,0,0.010850694444444444,117.0681423611111,0)" xlink:href="#aK"/><use transform="matrix(0.010850694444444444,0,0,0.010850694444444444,130.20833333333334,0)" xlink:href="#ah"/><use transform="matrix(0.010850694444444444,0,0,0.010850694444444444,142.91449652777777,0)" xlink:href="#au"/><use transform="matrix(0.010850694444444444,0,0,0.010850694444444444,151.01996527777777,0)" xlink:href="#av"/></g><g id="t"><use transform="matrix(0.010850694444444444,0,0,0.010850694444444444,0,0)" xlink:href="#aw"/><use transform="matrix(0.010850694444444444,0,0,0.010850694444444444,13.324652777777777,0)" xlink:href="#ai"/></g><g id="u"><use transform="matrix(0.010850694444444444,0,0,0.010850694444444444,0,0)" xlink:href="#ax"/><use transform="matrix(0.010850694444444444,0,0,0.010850694444444444,12.565104166666666,0)" xlink:href="#ay"/><use transform="matrix(0.010850694444444444,0,0,0.010850694444444444,26.29123263888889,0)" xlink:href="#av"/></g><g id="w"><use transform="matrix(0.010850694444444444,0,0,0.010850694444444444,0,0)" xlink:href="#ap"/><use transform="matrix(0.010850694444444444,0,0,0.010850694444444444,5.381944444444445,0)" xlink:href="#aE"/><use transform="matrix(0.010850694444444444,0,0,0.010850694444444444,18.077256944444443,0)" xlink:href="#aA"/></g><path d="M611 442c-248 0-391-105-460-228l146-94c47 65 117 165 314 165 178 0 307-82 307-266v-224h-17C863-141 792-18 576-18c-268 0-472-195-472-546 0-346 197-568 476-568 216 0 288 133 326 193h17v-179h175V29c0 289-215 413-487 413zm-5-620c203 0 314-146 314-390 0-237-108-403-314-403-213 0-319 180-319 403 0 230 109 390 319 390" id="aL"/><path d="M232-923l-22-567h194l-22 567H232zm340 0l-22-567h194l-22 567H572" id="aM"/><path d="M180 0v-1490h510c348 0 508 194 508 460 0 198-88 351-276 417L1256 0h-220L726-579c-117 2-238 0-356 1V0H180zm190-747h312c235 0 327-108 327-283 0-177-92-293-329-293H370v576" id="aN"/><path d="M180 0v-1490h270l367 940c28 72 75 218 110 339 35-117 81-264 110-339l362-940h271V0h-187c2-448-5-837 7-1287-157 497-311 829-483 1287H842C666-458 514-784 354-1284c12 438 5 843 7 1284H180" id="aO"/><g id="x"><use transform="matrix(0.010850694444444444,0,0,0.010850694444444444,0,0)" xlink:href="#ar"/><use transform="matrix(0.010850694444444444,0,0,0.010850694444444444,19.466145833333332,0)" xlink:href="#an"/><use transform="matrix(0.010850694444444444,0,0,0.010850694444444444,31.195746527777775,0)" xlink:href="#aL"/><use transform="matrix(0.010850694444444444,0,0,0.010850694444444444,44.82421875,0)" xlink:href="#as"/><use transform="matrix(0.010850694444444444,0,0,0.010850694444444444,52.9296875,0)" xlink:href="#aM"/><use transform="matrix(0.010850694444444444,0,0,0.010850694444444444,61.5234375,0)" xlink:href="#ao"/><use transform="matrix(0.010850694444444444,0,0,0.010850694444444444,76.85546875,0)" xlink:href="#ax"/><use transform="matrix(0.010850694444444444,0,0,0.010850694444444444,89.42057291666666,0)" xlink:href="#ao"/><use transform="matrix(0.010850694444444444,0,0,0.010850694444444444,104.75260416666666,0)" xlink:href="#aN"/><use transform="matrix(0.010850694444444444,0,0,0.010850694444444444,119.05381944444444,0)" xlink:href="#aO"/><use transform="matrix(0.010850694444444444,0,0,0.010850694444444444,139.12760416666666,0)" xlink:href="#aM"/><use transform="matrix(0.010850694444444444,0,0,0.010850694444444444,149.47916666666666,0)" xlink:href="#au"/></g><path d="M226 279v-1860h398v153H398V126h226v153H226" id="aP"/><g id="y"><use transform="matrix(0.008680555555555556,0,0,0.008680555555555556,0,0)" xlink:href="#aP"/><use transform="matrix(0.008680555555555556,0,0,0.008680555555555556,6.484375,0)" xlink:href="#aj"/><use transform="matrix(0.008680555555555556,0,0,0.008680555555555556,12.126736111111112,0)" xlink:href="#ah"/><use transform="matrix(0.008680555555555556,0,0,0.008680555555555556,22.491319444444443,0)" xlink:href="#ar"/><use transform="matrix(0.008680555555555556,0,0,0.008680555555555556,38.064236111111114,0)" xlink:href="#aB"/></g><path d="M174-520v-126l944-476v196L406-588v12l712 338v194" id="aQ"/><use transform="matrix(0.008680555555555556,0,0,0.008680555555555556,0,0)" xlink:href="#aQ" id="z"/><path d="M180 0v-1490h908v168H370v486h669v168H370v500h727V0H180" id="aR"/><path d="M653-1490V0H466v-1314h-10L96-1047v-204l324-239h233" id="aS"/><g id="A"><use transform="matrix(0.008680555555555556,0,0,0.008680555555555556,0,0)" xlink:href="#aH"/><use transform="matrix(0.008680555555555556,0,0,0.008680555555555556,11.475694444444445,0)" xlink:href="#aR"/><use transform="matrix(0.008680555555555556,0,0,0.008680555555555556,22.161458333333336,0)" xlink:href="#aO"/><use transform="matrix(0.008680555555555556,0,0,0.008680555555555556,38.220486111111114,0)" xlink:href="#az"/><use transform="matrix(0.008680555555555556,0,0,0.008680555555555556,49.574652777777786,0)" xlink:href="#aS"/></g><path d="M123 279V126h226v-1554H123v-153h398V279H123" id="aT"/><use transform="matrix(0.008680555555555556,0,0,0.008680555555555556,0,0)" xlink:href="#aT" id="B"/><path d="M786 20C389 20 94-260 94-744c0-487 299-766 692-766 339 0 597 194 641 529h-309c-28-162-156-258-326-258-233 0-388 179-388 495 0 323 157 493 387 493 170 0 298-97 328-259h309c-34 277-266 530-642 530" id="aU"/><path d="M135 0v-1490h305c1 251 0 501-5 746 157-254 405-512 598-746h373L849-845 1422 0h-361L638-644 440-426V0H135" id="aV"/><path d="M440-1490V0H135v-1490h305" id="aW"/><path d="M795 20C377 20 94-272 94-743c0-483 302-767 694-767 335 0 593 206 635 500h-310c-42-142-154-229-320-229-230 0-389 177-389 493s154 495 393 495c212 0 340-120 345-311H818v-232h620v186c0 391-269 628-643 628" id="aX"/><path d="M975 0v231H0V0h975" id="aY"/><g id="C"><use transform="matrix(0.010850694444444444,0,0,0.010850694444444444,0,0)" xlink:href="#Y"/><use transform="matrix(0.010850694444444444,0,0,0.010850694444444444,14.832899305555555,0)" xlink:href="#ad"/><use transform="matrix(0.010850694444444444,0,0,0.010850694444444444,29.427083333333332,0)" xlink:href="#af"/><use transform="matrix(0.010850694444444444,0,0,0.010850694444444444,45.084635416666664,0)" xlink:href="#aU"/><use transform="matrix(0.010850694444444444,0,0,0.010850694444444444,61.5234375,0)" xlink:href="#aV"/><use transform="matrix(0.010850694444444444,0,0,0.010850694444444444,77.50651041666667,0)" xlink:href="#aW"/><use transform="matrix(0.010850694444444444,0,0,0.010850694444444444,83.74565972222223,0)" xlink:href="#ab"/><use transform="matrix(0.010850694444444444,0,0,0.010850694444444444,100.68359375,0)" xlink:href="#aX"/><use transform="matrix(0.010850694444444444,0,0,0.010850694444444444,117.3611111111111,0)" xlink:href="#aY"/><use transform="matrix(0.010850694444444444,0,0,0.010850694444444444,128.68923611111111,0)" xlink:href="#aI"/><use transform="matrix(0.010850694444444444,0,0,0.010850694444444444,143.08810763888889,0)" xlink:href="#ad"/><use transform="matrix(0.010850694444444444,0,0,0.010850694444444444,157.68229166666666,0)" xlink:href="#aJ"/><use transform="matrix(0.010850694444444444,0,0,0.010850694444444444,171.18055555555554,0)" xlink:href="#aY"/><use transform="matrix(0.010850694444444444,0,0,0.010850694444444444,181.75998263888889,0)" xlink:href="#af"/><use transform="matrix(0.010850694444444444,0,0,0.010850694444444444,198.35069444444443,0)" xlink:href="#ag"/><use transform="matrix(0.010850694444444444,0,0,0.010850694444444444,210.91579861111111,0)" xlink:href="#af"/><use transform="matrix(0.010850694444444444,0,0,0.010850694444444444,227.50651041666663,0)" xlink:href="#ad"/><use transform="matrix(0.010850694444444444,0,0,0.010850694444444444,242.1006944444444,0)" xlink:href="#ae"/></g><use transform="matrix(0.010850694444444444,0,0,0.010850694444444444,0,0)" xlink:href="#aH" id="D"/><path d="M409 0L70-1118h191c89 329 165 560 243 925 75-353 154-601 240-925h192c85 325 161 564 235 922 77-354 157-598 244-922h191L1267 0h-179c-86-307-176-590-250-913C763-588 675-308 588 0H409" id="aZ"/><g id="E"><use transform="matrix(0.010850694444444444,0,0,0.010850694444444444,0,0)" xlink:href="#ai"/><use transform="matrix(0.010850694444444444,0,0,0.010850694444444444,13.129340277777777,0)" xlink:href="#aw"/><use transform="matrix(0.010850694444444444,0,0,0.010850694444444444,26.052517361111104,0)" xlink:href="#aZ"/></g><path d="M1181-520L237-44v-194l712-338v-12L237-926v-196l944 476v126" id="ba"/><g id="F"><use transform="matrix(0.008680555555555556,0,0,0.008680555555555556,0,0)" xlink:href="#ba"/><use transform="matrix(0.008680555555555556,0,0,0.008680555555555556,11.762152777777779,0)" xlink:href="#aD"/></g><g id="G"><use transform="matrix(0.008680555555555556,0,0,0.008680555555555556,0,0)" xlink:href="#aH"/><use transform="matrix(0.008680555555555556,0,0,0.008680555555555556,11.475694444444445,0)" xlink:href="#aR"/><use transform="matrix(0.008680555555555556,0,0,0.008680555555555556,22.161458333333336,0)" xlink:href="#aO"/><use transform="matrix(0.008680555555555556,0,0,0.008680555555555556,38.220486111111114,0)" xlink:href="#az"/><use transform="matrix(0.008680555555555556,0,0,0.008680555555555556,49.574652777777786,0)" xlink:href="#aS"/><use transform="matrix(0.008680555555555556,0,0,0.008680555555555556,56.805555555555564,0)" xlink:href="#aT"/></g><g id="H"><use transform="matrix(0.008680555555555556,0,0,0.008680555555555556,0,0)" xlink:href="#aP"/><use transform="matrix(0.008680555555555556,0,0,0.008680555555555556,6.484375,0)" xlink:href="#ai"/><use transform="matrix(0.008680555555555556,0,0,0.008680555555555556,16.98784722222222,0)" xlink:href="#aw"/><use transform="matrix(0.008680555555555556,0,0,0.008680555555555556,27.326388888888886,0)" xlink:href="#aZ"/><use transform="matrix(0.008680555555555556,0,0,0.008680555555555556,41.875,0)" xlink:href="#as"/><use transform="matrix(0.008680555555555556,0,0,0.008680555555555556,48.359375,0)" xlink:href="#au"/></g><path d="M798-719v166H144v-166h654" id="bb"/><g id="I"><use transform="matrix(0.008680555555555556,0,0,0.008680555555555556,0,0)" xlink:href="#bb"/><use transform="matrix(0.008680555555555556,0,0,0.008680555555555556,6.866319444444445,0)" xlink:href="#aH"/></g><g id="J"><use transform="matrix(0.008680555555555556,0,0,0.008680555555555556,0,0)" xlink:href="#aH"/><use transform="matrix(0.008680555555555556,0,0,0.008680555555555556,11.475694444444445,0)" xlink:href="#ay"/><use transform="matrix(0.008680555555555556,0,0,0.008680555555555556,22.456597222222225,0)" xlink:href="#aT"/></g><g id="K"><use transform="matrix(0.010850694444444444,0,0,0.010850694444444444,0,0)" xlink:href="#Y"/><use transform="matrix(0.010850694444444444,0,0,0.010850694444444444,14.832899305555555,0)" xlink:href="#ad"/><use transform="matrix(0.010850694444444444,0,0,0.010850694444444444,29.427083333333332,0)" xlink:href="#af"/><use transform="matrix(0.010850694444444444,0,0,0.010850694444444444,45.084635416666664,0)" xlink:href="#aU"/><use transform="matrix(0.010850694444444444,0,0,0.010850694444444444,61.5234375,0)" xlink:href="#aV"/><use transform="matrix(0.010850694444444444,0,0,0.010850694444444444,77.50651041666667,0)" xlink:href="#aW"/><use transform="matrix(0.010850694444444444,0,0,0.010850694444444444,83.74565972222223,0)" xlink:href="#ab"/><use transform="matrix(0.010850694444444444,0,0,0.010850694444444444,100.68359375,0)" xlink:href="#aX"/></g><g id="L"><use transform="matrix(0.010850694444444444,0,0,0.010850694444444444,0,0)" xlink:href="#af"/><use transform="matrix(0.010850694444444444,0,0,0.010850694444444444,16.590711805555554,0)" xlink:href="#ag"/><use transform="matrix(0.010850694444444444,0,0,0.010850694444444444,29.15581597222222,0)" xlink:href="#af"/><use transform="matrix(0.010850694444444444,0,0,0.010850694444444444,45.74652777777778,0)" xlink:href="#ad"/><use transform="matrix(0.010850694444444444,0,0,0.010850694444444444,60.34071180555555,0)" xlink:href="#ae"/></g><g id="M"><use transform="matrix(0.010850694444444444,0,0,0.010850694444444444,0,0)" xlink:href="#aE"/><use transform="matrix(0.010850694444444444,0,0,0.010850694444444444,12.6953125,0)" xlink:href="#aF"/><use transform="matrix(0.010850694444444444,0,0,0.010850694444444444,25.83550347222222,0)" xlink:href="#ah"/><use transform="matrix(0.010850694444444444,0,0,0.010850694444444444,38.791232638888886,0)" xlink:href="#aE"/><use transform="matrix(0.010850694444444444,0,0,0.010850694444444444,51.486545138888886,0)" xlink:href="#aG"/><use transform="matrix(0.010850694444444444,0,0,0.010850694444444444,62.424045138888886,0)" xlink:href="#aH"/><use transform="matrix(0.010850694444444444,0,0,0.010850694444444444,75.03255208333333,0)" xlink:href="#ah"/><use transform="matrix(0.010850694444444444,0,0,0.010850694444444444,87.98828125,0)" xlink:href="#ar"/><use transform="matrix(0.010850694444444444,0,0,0.010850694444444444,107.45442708333333,0)" xlink:href="#aB"/></g><path d="M657 26c-323 0-524-166-541-416h195c15 169 171 246 346 246 202 0 356-106 356-265 5-203-294-238-475-293-239-73-380-191-380-389 0-252 224-419 512-419 294 0 499 171 508 396H992c-17-145-151-228-328-228-193 0-321 102-321 242 0 156 175 211 284 241l149 41c160 44 422 134 422 412 0 244-197 432-541 432" id="bc"/><g id="N"><use transform="matrix(0.008680555555555556,0,0,0.008680555555555556,0,0)" xlink:href="#aN"/><use transform="matrix(0.008680555555555556,0,0,0.008680555555555556,11.440972222222223,0)" xlink:href="#aR"/><use transform="matrix(0.008680555555555556,0,0,0.008680555555555556,22.126736111111114,0)" xlink:href="#bc"/><use transform="matrix(0.008680555555555556,0,0,0.008680555555555556,33.532986111111114,0)" xlink:href="#aR"/><use transform="matrix(0.008680555555555556,0,0,0.008680555555555556,44.21875,0)" xlink:href="#aH"/></g><g id="O"><use transform="matrix(0.008680555555555556,0,0,0.008680555555555556,0,0)" xlink:href="#aB"/><use transform="matrix(0.008680555555555556,0,0,0.008680555555555556,10.885416666666668,0)" xlink:href="#ak"/><use transform="matrix(0.008680555555555556,0,0,0.008680555555555556,17.282986111111114,0)" xlink:href="#ah"/><use transform="matrix(0.008680555555555556,0,0,0.008680555555555556,27.64756944444445,0)" xlink:href="#an"/><use transform="matrix(0.008680555555555556,0,0,0.008680555555555556,37.03125000000001,0)" xlink:href="#an"/><use transform="matrix(0.008680555555555556,0,0,0.008680555555555556,46.414930555555564,0)" xlink:href="#ah"/><use transform="matrix(0.008680555555555556,0,0,0.008680555555555556,56.7795138888889,0)" xlink:href="#aA"/></g><path d="M154 0v-137l495-537c165-179 249-281 249-418 0-156-121-253-280-253-170 0-278 110-278 278H158c0-264 200-443 465-443 266 0 455 183 455 416 0 161-73 288-336 568L416-179v12h687V0H154" id="bd"/><g id="P"><use transform="matrix(0.008680555555555556,0,0,0.008680555555555556,0,0)" xlink:href="#aH"/><use transform="matrix(0.008680555555555556,0,0,0.008680555555555556,11.475694444444445,0)" xlink:href="#aR"/><use transform="matrix(0.008680555555555556,0,0,0.008680555555555556,22.161458333333336,0)" xlink:href="#aO"/><use transform="matrix(0.008680555555555556,0,0,0.008680555555555556,38.220486111111114,0)" xlink:href="#az"/><use transform="matrix(0.008680555555555556,0,0,0.008680555555555556,49.574652777777786,0)" xlink:href="#bd"/><use transform="matrix(0.008680555555555556,0,0,0.008680555555555556,60.41666666666667,0)" xlink:href="#aT"/></g><use transform="matrix(0.008680555555555556,0,0,0.008680555555555556,0,0)" xlink:href="#bb" id="Q"/><use transform="matrix(0.008680555555555556,0,0,0.008680555555555556,0,0)" xlink:href="#aH" id="R"/><path d="M120-303v-155l652-1032h231v1020h202v167h-202V0H821v-303H120zm702-167v-782h-12L323-482v12h499" id="be"/><g id="S"><use transform="matrix(0.008680555555555556,0,0,0.008680555555555556,0,0)" xlink:href="#aH"/><use transform="matrix(0.008680555555555556,0,0,0.008680555555555556,10.269097222222221,0)" xlink:href="#be"/><use transform="matrix(0.008680555555555556,0,0,0.008680555555555556,21.75347222222222,0)" xlink:href="#aT"/></g></defs></g></svg>