<svg xmlns="http://www.w3.org/2000/svg" xmlns:xlink="http://www.w3.org/1999/xlink" xmlns:lucid="lucid" width="1642" height="1007.1"><g transform="translate(-5375.269859376884 3440.204641735028)" lucid:page-tab-id="0_0"><path d="M-1500-6500h9000v5000h-9000z" fill="#fff"/><path d="M5400-3180.8a6 6 0 0 1 6-6h228a6 6 0 0 1 6 6v48a6 6 0 0 1-6 6h-228a6 6 0 0 1-6-6z" fill="none"/><use xlink:href="#a" transform="matrix(1,0,0,1,5400,-3186.8113262181114) translate(55.24305555555557 38.083767361111114)"/><path d="M5540-3116.3c0 11.06-8.95 20-20 20s-20-8.94-20-20c0-11.04 8.95-20 20-20s20 8.96 20 20z" stroke="#000" stroke-width="2"/><path d="M5420.27-3060c-24.3 0-44 19.7-44 44v132c0 24.3 19.7 44 44 44H5766c24.3 0 44-19.7 44-44v-132c0-24.3-19.7-44-44-44z" stroke="#000" stroke-width="2" fill="#fff"/><path d="M5376.27-3016H5810" stroke="#000" stroke-width="2" fill="none"/><use xlink:href="#b" transform="matrix(1,0,0,1,5463.015887501507,-3060) translate(81.24327256944444 30.08376736111111)"/><use xlink:href="#c" transform="matrix(1,0,0,1,5419.642873439196,-3000) translate(52.75889756944446 47.818142361111114)"/><use xlink:href="#d" transform="matrix(1,0,0,1,5419.642873439196,-3000) translate(113.56618923611111 47.818142361111114)"/><use xlink:href="#e" transform="matrix(1,0,0,1,5419.642873439196,-3000) translate(127.82400173611111 47.818142361111114)"/><use xlink:href="#f" transform="matrix(1,0,0,1,5419.642873439196,-3000) translate(39.244357638888914 80.08376736111111)"/><use xlink:href="#g" transform="matrix(1,0,0,1,5419.642873439196,-3000) translate(74.40060763888891 80.08376736111111)"/><use xlink:href="#h" transform="matrix(1,0,0,1,5419.642873439196,-3000) translate(113.64756944444446 80.08376736111111)"/><use xlink:href="#i" transform="matrix(1,0,0,1,5419.642873439196,-3000) translate(49.1076388888889 112.34939236111111)"/><use xlink:href="#d" transform="matrix(1,0,0,1,5419.642873439196,-3000) translate(82.2890625 112.34939236111111)"/><use xlink:href="#j" transform="matrix(1,0,0,1,5419.642873439196,-3000) translate(96.546875 112.34939236111111)"/><use xlink:href="#k" transform="matrix(1,0,0,1,5419.642873439196,-3000) translate(155.87847222222223 112.34939236111111)"/><use xlink:href="#l" transform="matrix(1,0,0,1,5419.642873439196,-3000) translate(176.83116319444446 112.34939236111111)"/><path d="M6097.04-3126.8c-25.98 0-47.04 21.05-47.04 47.03v141.12c0 25.98 21.06 47.04 47.04 47.04h339.65c25.97 0 47.03-21.07 47.03-47.05v-141.12c0-25.98-21.06-47.04-47.04-47.04z" stroke="#000" stroke-width="2" fill="#fff"/><path d="M6050.1-3082.8h433.53" stroke="#000" stroke-width="2" fill="none"/><use xlink:href="#m" transform="matrix(1,0,0,1,6136.746028124623,-3126.8113262181114) translate(68.732421875 30.08376736111111)"/><use xlink:href="#c" transform="matrix(1,0,0,1,6093.373014062312,-3066.8113262181114) translate(43.25911458333337 71.95095486111111)"/><use xlink:href="#d" transform="matrix(1,0,0,1,6093.373014062312,-3066.8113262181114) translate(104.06640625000003 71.95095486111111)"/><use xlink:href="#n" transform="matrix(1,0,0,1,6093.373014062312,-3066.8113262181114) translate(118.32421875000003 71.95095486111111)"/><use xlink:href="#i" transform="matrix(1,0,0,1,6093.373014062312,-3066.8113262181114) translate(49.1076388888889 104.21657986111111)"/><use xlink:href="#d" transform="matrix(1,0,0,1,6093.373014062312,-3066.8113262181114) translate(82.2890625 104.21657986111111)"/><use xlink:href="#j" transform="matrix(1,0,0,1,6093.373014062312,-3066.8113262181114) translate(96.546875 104.21657986111111)"/><use xlink:href="#k" transform="matrix(1,0,0,1,6093.373014062312,-3066.8113262181114) translate(155.87847222222223 104.21657986111111)"/><use xlink:href="#l" transform="matrix(1,0,0,1,6093.373014062312,-3066.8113262181114) translate(176.83116319444446 104.21657986111111)"/><path d="M6650.52-3096.3c-27.9 0-50.52 22.63-50.52 50.53v151.54c0 27.9 22.62 50.52 50.52 50.52h315.23c27.9 0 50.52-22.63 50.52-50.53v-151.54c0-27.9-22.62-50.52-50.52-50.52z" stroke="#000" stroke-width="2" fill="#fff"/><path d="M6600.42-3052.3h415.43" stroke="#000" stroke-width="2" fill="none"/><use xlink:href="#o" transform="matrix(1,0,0,1,6683.253971875377,-3096.290294330626) translate(84.47808159722223 30.08376736111111)"/><use xlink:href="#p" transform="matrix(1,0,0,1,6641.626985937688,-3036.290294330626) translate(29.060546875 48.185329861111114)"/><use xlink:href="#q" transform="matrix(1,0,0,1,6641.626985937688,-3036.290294330626) translate(89.86783854166666 48.185329861111114)"/><use xlink:href="#r" transform="matrix(1,0,0,1,6641.626985937688,-3036.290294330626) translate(104.12565104166666 48.185329861111114)"/><use xlink:href="#s" transform="matrix(1,0,0,1,6641.626985937688,-3036.290294330626) translate(88.13715277777779 80.45095486111111)"/><use xlink:href="#t" transform="matrix(1,0,0,1,6641.626985937688,-3036.290294330626) translate(134.14952256944446 112.71657986111111)"/><use xlink:href="#u" transform="matrix(1,0,0,1,6641.626985937688,-3036.290294330626) translate(166.853515625 112.71657986111111)"/><use xlink:href="#v" transform="matrix(1,0,0,1,6641.626985937688,-3036.290294330626) translate(66.11566840277779 144.98220486111111)"/><use xlink:href="#w" transform="matrix(1,0,0,1,6641.626985937688,-3036.290294330626) translate(72.36566840277779 144.98220486111111)"/><use xlink:href="#x" transform="matrix(1,0,0,1,6641.626985937688,-3036.290294330626) translate(110.29969618055556 144.98220486111111)"/><path d="M5541.5-3116.27l4.4.2 4.7.64 4.47 1.03 4.3 1.4 4.1 1.77 3.93 2.14 3.75 2.5 3.55 2.86 3.33 3.22 3.08 3.58 2.83 3.93 2.5 4.26 2.16 4.6 1.77 4.88 1.37 5.15.63 3.7" stroke="#3a414a" stroke-linejoin="round" fill="none"/><path d="M5541.53-3116.74l-.04.95-.55-.02.05-.43-.02-.52z" stroke="#3a414a" stroke-width=".05" fill="#3a414a"/><path d="M5601.62-3080.07l-8.57 18.07-11.36-16.45m11.35 16.45l-.68-8.47" stroke="#3a414a" fill="none"/><path d="M5892.9-3260.24l-16.7 4.64-16.25 5.25-15.6 5.77-14.88 6.2-14.02 6.58-13.1 6.83-12.2 7-11.27 7.12-10.35 7.16-9.48 7.18-8.64 7.12-7.86 7.06-7.14 6.97-6.47 6.86-5.86 6.75-5.3 6.64-4.75 6.52-4.3 6.43-3.83 6.32-3.45 6.23-3.07 6.15-2.72 6.07-2.4 6-2.07 5.95-1.8 5.9-1.53 5.9-1.26 5.86-1 5.86-.74 5.86-.48 5.64-.95-.08.48-5.66h.02v-.02l.75-5.88v-.02l1-5.88v-.02l1.27-5.88v-.02l1.54-5.9v-.02l1.8-5.93v-.02l2.1-5.98v-.02l2.4-6.02v-.02l2.74-6.1 3.08-6.17v-.02l3.46-6.25 3.86-6.35v-.02h.02l4.3-6.44v-.02l4.78-6.56 5.3-6.67h.02v-.02l5.87-6.77h.02l6.5-6.9 7.16-7h.02l7.88-7.07v-.02h.02l8.66-7.14 9.5-7.2h.02l10.37-7.18 11.3-7.14 12.22-7.02h.02l13.13-6.85 14.05-6.58h.02l14.88-6.23h.02l15.63-5.8h.02l16.26-5.25h.02l16.6-4.6h4.16zm146.57-13.84h.02l28.9 1.96 30.55 3.36h.02l30.8 4.7h.02l1.77.32 4.77 1.02h.02l5.08 1.3h.02l5.43 1.66 5.8 2.02 6.16 2.44h.02l6.5 2.9 6.84 3.4h.02l7.1 3.92h.02l7.34 4.45 7.46 4.96 7.46 5.42h.02l7.3 5.8h.02v.02l7.07 6.1 6.7 6.28v.02l6.2 6.33h.02v.02l5.68 6.3 5.1 6.17h.02l4.53 5.96v.02l3.98 5.7v.02l3.45 5.43h.02v.02l2.97 5.13v.02l2.53 4.84 2.16 4.57v.02l1.8 4.3 1.5 4.03v.02l1.24 3.8 1 3.58v.02l.8 3.37v.02l.6 3.2h.02l.44 3.03.3 2.88v.02l.18 2.74v.02l.05 2.12-.95.02-.05-2.1-.17-2.73-.3-2.85-.44-3-.6-3.17-.8-3.35-1-3.55-1.2-3.77-1.5-4-1.8-4.27-2.13-4.53-2.54-4.82-2.95-5.12-3.43-5.4-3.96-5.7-4.5-5.94-5.1-6.16-5.64-6.28-6.2-6.32-6.66-6.26-7.05-6.08-7.3-5.8-7.43-5.38-7.43-4.94-7.3-4.43-7.1-3.9-6.82-3.38-6.48-2.9-6.13-2.42-5.76-2-5.4-1.64-5.07-1.3-4.74-1-1.76-.32-30.8-4.7-30.52-3.35-28.9-1.96-11.5-.3v-.95z" stroke="#3a414a" stroke-width=".05" fill="#3a414a"/><path d="M6267.34-3127.8h-.95l-.02-.52.95-.02z" fill="#3a414a"/><path stroke="#3a414a" stroke-width=".05" fill="#3a414a"/><path d="M5683.2-3063.8l.23-6.7.95.02-.23 6.72 9.64-15.46.8.5-11 17.67-9.8-18.37.83-.45z" stroke="#3a414a" stroke-width=".05" fill="#3a414a"/><use xlink:href="#y" transform="matrix(1,0,0,1,5888.914480482395,-3282.622342435067) translate(0 17.22222222222222)"/><use xlink:href="#z" transform="matrix(1,0,0,1,5888.914480482395,-3282.622342435067) translate(53.949652777777786 17.22222222222222)"/><use xlink:href="#A" transform="matrix(1,0,0,1,5888.914480482395,-3282.622342435067) translate(70.71180555555557 17.22222222222222)"/><use xlink:href="#B" transform="matrix(1,0,0,1,5888.914480482395,-3282.622342435067) translate(132.51736111111114 17.22222222222222)"/><path d="M5679.47-2680c-21.8 0-39.47 17.67-39.47 39.47v118.4c0 21.8 17.67 39.46 39.47 39.46h351.06c21.8 0 39.47-17.67 39.47-39.46v-118.4c0-21.8-17.67-39.47-39.47-39.47z" stroke="#000" stroke-width="2" fill="#fff"/><path d="M5640-2636h430" stroke="#000" stroke-width="2" fill="none"/><use xlink:href="#C" transform="matrix(1,0,0,1,5726,-2680) translate(-2.4019097222222 30.08376736111111)"/><use xlink:href="#c" transform="matrix(1,0,0,1,5683,-2620) translate(91.57465277777779 52.950954861111114)"/><use xlink:href="#d" transform="matrix(1,0,0,1,5683,-2620) translate(152.38194444444446 52.950954861111114)"/><use xlink:href="#D" transform="matrix(1,0,0,1,5683,-2620) translate(166.63975694444446 52.950954861111114)"/><use xlink:href="#k" transform="matrix(1,0,0,1,5683,-2620) translate(187.234375 52.950954861111114)"/><use xlink:href="#E" transform="matrix(1,0,0,1,5683,-2620) translate(208.18706597222223 52.950954861111114)"/><use xlink:href="#i" transform="matrix(1,0,0,1,5683,-2620) translate(47.6076388888889 85.21657986111111)"/><use xlink:href="#d" transform="matrix(1,0,0,1,5683,-2620) translate(80.7890625 85.21657986111111)"/><use xlink:href="#j" transform="matrix(1,0,0,1,5683,-2620) translate(95.046875 85.21657986111111)"/><use xlink:href="#k" transform="matrix(1,0,0,1,5683,-2620) translate(154.37847222222223 85.21657986111111)"/><use xlink:href="#l" transform="matrix(1,0,0,1,5683,-2620) translate(175.33116319444446 85.21657986111111)"/><path d="M5504.22-2723.77l.1 4.5.3 4.6.52 4.7.72 4.8.96 4.92 1.2 5.04 1.45 5.15 1.73 5.3 2.03 5.38 2.34 5.5 2.65 5.62 3 5.7 3.34 5.73 3.7 5.78 4.02 5.76 4.37 5.72 4.67 5.62 4.96 5.47 5.2 5.27 5.37 5.03 5.52 4.73 5.6 4.4 5.6 4.07 5.6 3.68 5.5 3.33 5.38 2.94 5.24 2.58 5.06 2.24 4.9 1.9 4.68 1.63 4.5 1.35 4.3 1.1 4.1.85 3.94.66 2.86.34-.12.94-2.87-.35h-.02l-3.95-.66h-.02l-4.13-.87h-.02l-4.3-1.1h-.02l-4.52-1.36h-.02l-4.7-1.63h-.02l-4.92-1.92h-.02l-5.08-2.26h-.02l-5.26-2.6h-.02l-5.4-2.97h-.02l-5.52-3.33h-.02l-5.6-3.7v-.02l-5.64-4.07h-.02l-5.6-4.43h-.02l-5.54-4.76-5.4-5.05v-.02h-.02l-5.2-5.3h-.02l-4.97-5.5-4.7-5.64v-.02l-4.38-5.73v-.02l-4.06-5.8-3.7-5.8h-.02l-3.35-5.77h-.02l-3-5.72v-.02l-2.68-5.62v-.02l-2.35-5.53v-.02l-2.04-5.42v-.02l-1.74-5.3v-.02l-1.46-5.18v-.02l-1.2-5.06v-.02l-.97-4.94v-.02l-.73-4.82v-.02l-.52-4.72v-.02l-.3-4.62v-.02l-.1-4.52v-.02l.07-4.4h.95zm88.68-114.58l-9.44 4.7-8.73 4.84-7.76 4.72-6.92 4.62-6.2 4.53-5.58 4.45-5.02 4.36-4.54 4.28-4.1 4.22-3.73 4.16-3.38 4.1-3.08 4.08-2.8 4.04-2.52 4-2.3 4-2.06 3.98-1.86 3.98-1.66 4-1.48 4-1.3 4.02-.98 3.58h-1l1.07-3.85v-.02l1.3-4.04h.02l1.48-4.03v-.02l1.68-4v-.02h.02l1.86-4v-.02l2.1-4 2.3-4.02 2.55-4.04 2.8-4.07h.02l3.1-4.1 3.4-4.14 3.75-4.2 4.13-4.24v-.02h.02l4.55-4.3 5.05-4.4h.02l5.6-4.46 6.23-4.55 6.95-4.65h.02l7.78-4.75 8.76-4.84h.02l9.45-4.73z" stroke="#3a414a" stroke-width=".05" fill="#3a414a"/><path d="M5592.88-2838.34l-.32-.66h1.64z" fill="#3a414a"/><path stroke="#3a414a" stroke-width=".05" fill="#3a414a"/><path d="M5638.95-2581.34l-18.6 9.34-.44-.85 16.3-8.17-6.7-.4.04-.95 6.72.4-15.22-10.03.52-.8z" stroke="#3a414a" stroke-width=".05" fill="#3a414a"/><g><use xlink:href="#y" transform="matrix(1,0,0,1,5431.943737522566,-2749.6797929965383) translate(0 17.22222222222222)"/><use xlink:href="#F" transform="matrix(1,0,0,1,5431.943737522566,-2749.6797929965383) translate(53.949652777777786 17.22222222222222)"/><use xlink:href="#G" transform="matrix(1,0,0,1,5431.943737522566,-2749.6797929965383) translate(82.47395833333334 17.22222222222222)"/></g><path d="M6163.03-2632.6l-2.83 4.67v.02l-2.83 4.23v.02l-2.83 3.9-2.85 3.58h-.02v.02l-2.85 3.3v.02h-.02l-2.86 3.06-2.92 2.86-2.96 2.65v.02l-3 2.47h-.02l-3.04 2.32-3.12 2.17h-.02l-3.18 2.03h-.02l-3.27 1.9h-.02l-3.38 1.78h-.02l-3.48 1.65h-.02l-3.62 1.5v.02h-.02l-3.77 1.4h-.02l-3.94 1.3-4.15 1.15-4.37 1.03h-.02l-4.62.88h-.02l-4.9.73h-.02l-5.24.56h-.02l-5.63.35-5.6.13v-.95l5.56-.1 5.6-.37 5.23-.53 4.88-.72 4.6-.88 4.33-1.02 4.13-1.15 3.92-1.27 3.75-1.4 3.6-1.5 3.47-1.64 3.35-1.76 3.26-1.88 3.16-2 3.1-2.16 3.02-2.3 2.98-2.46 2.92-2.64 2.9-2.83 2.85-3.04 2.85-3.3 2.82-3.56 2.82-3.87 2.8-4.23 2.8-4.64 1.1-1.97h1.07zm31.52-248.57l-.15 82.05v.02l-1.58 39.43v.02l-2.15 25.96v.02l-2.46 19.6-2.62 15.65v.02l-2.74 12.9v.02l-2.8 10.9v.02l-2.83 9.36v.02l-2.82 8.14v.02l-.2.46h-1.02l.32-.8 2.83-8.13 2.82-9.32 2.8-10.88 2.72-12.9 2.63-15.6 2.46-19.58 2.14-25.94 1.58-39.4.15-82.05z" stroke="#3a414a" stroke-width=".05" fill="#3a414a"/><path d="M6071.53-2580.87h-.53v-.94l.5-.02z" fill="#3a414a"/><path stroke="#3a414a" stroke-width=".05" fill="#3a414a"/><path d="M6204.47-2872.5l-.82.46-9.1-15.8v6.73h-.95v-6.74l-9.13 15.77-.82-.48 10.44-18z" stroke="#3a414a" stroke-width=".05" fill="#3a414a"/><g><use xlink:href="#H" transform="matrix(1,0,0,1,6098.8876080694245,-2656.555714696226) translate(0 17.22222222222222)"/><use xlink:href="#I" transform="matrix(1,0,0,1,6098.8876080694245,-2656.555714696226) translate(59.84375 17.22222222222222)"/><use xlink:href="#F" transform="matrix(1,0,0,1,6098.8876080694245,-2656.555714696226) translate(83.18576388888889 17.22222222222222)"/><use xlink:href="#J" transform="matrix(1,0,0,1,6098.8876080694245,-2656.555714696226) translate(111.71006944444444 17.22222222222222)"/></g><path d="M6465.18-2660c-24.95 0-45.18 20.23-45.18 45.18v135.54c0 24.95 20.23 45.18 45.18 45.18h259.64c24.95 0 45.18-20.23 45.18-45.18v-135.54c0-24.95-20.23-45.18-45.18-45.18z" stroke="#000" stroke-width="2" fill="#fff"/><path d="M6420.02-2616h349.96" stroke="#000" stroke-width="2" fill="none"/><g><use xlink:href="#K" transform="matrix(1,0,0,1,6490,-2660) translate(3.1662326388888857 30.08376736111111)"/><use xlink:href="#L" transform="matrix(1,0,0,1,6490,-2660) translate(125.78993055555556 30.08376736111111)"/></g><g><use xlink:href="#c" transform="matrix(1,0,0,1,6455,-2600) translate(59.574652777777786 66.95095486111111)"/><use xlink:href="#d" transform="matrix(1,0,0,1,6455,-2600) translate(120.38194444444446 66.95095486111111)"/><use xlink:href="#D" transform="matrix(1,0,0,1,6455,-2600) translate(134.63975694444446 66.95095486111111)"/><use xlink:href="#k" transform="matrix(1,0,0,1,6455,-2600) translate(155.234375 66.95095486111111)"/><use xlink:href="#E" transform="matrix(1,0,0,1,6455,-2600) translate(176.18706597222223 66.95095486111111)"/><use xlink:href="#i" transform="matrix(1,0,0,1,6455,-2600) translate(15.6076388888889 99.21657986111111)"/><use xlink:href="#d" transform="matrix(1,0,0,1,6455,-2600) translate(48.78906250000001 99.21657986111111)"/><use xlink:href="#j" transform="matrix(1,0,0,1,6455,-2600) translate(63.04687500000001 99.21657986111111)"/><use xlink:href="#k" transform="matrix(1,0,0,1,6455,-2600) translate(122.37847222222221 99.21657986111111)"/><use xlink:href="#M" transform="matrix(1,0,0,1,6455,-2600) translate(143.33116319444446 99.21657986111111)"/></g><path d="M6153.1-3424.77l-9.46.8-44.04 5.55-42.1 7.12-39.63 8.4-36.9 9.48-34 10.26-31.1 10.82-28.3 11.2-25.66 11.42-23.2 11.52-21 11.52-18.93 11.47-17.12 11.36-15.47 11.24-14 11.1-12.67 10.92-11.48 10.8-10.43 10.64-9.48 10.5-8.6 10.4-7.8 10.28-7.1 10.2-6.43 10.14-5.84 10.1-5.26 10.06-4.74 10.07-4.24 10.1-3.77 10.14-3.32 10.2-2.88 10.3-2.44 10.45-2 10.58-1.6 10.78-1.16 11-.7 11.28-.05 2.13-.96-.02.04-2.14.7-11.3h.02v-.02l1.15-11.03v-.02l1.6-10.8v-.02l2.03-10.6v-.02l2.45-10.45v-.02l2.9-10.32v-.02l3.32-10.23 3.78-10.17v-.02l4.26-10.1v-.02l4.74-10.1 5.28-10.1 5.85-10.12v-.02l6.46-10.15v-.02l7.1-10.2h.02v-.02l7.82-10.3v-.02h.02l8.6-10.4v-.02l9.5-10.53 10.44-10.66h.02l11.5-10.82h.02l12.7-10.96 14.02-11.12 15.5-11.25v-.02h.02l17.13-11.38h.02l18.96-11.5h.02l21-11.54 23.24-11.53 25.7-11.44v-.02l28.34-11.2 31.14-10.84h.02l34.02-10.27h.02l36.9-9.48h.02l39.66-8.44h.02l42.1-7.12h.02l44.07-5.56h.02l9.56-.8zm171.76-4.04h.02l42.63 3.56h.02l40.3 5.08h.02l37.62 6.36h.02l34.77 7.38h.02l31.88 8.18h.02l29.08 8.78h.02l26.42 9.2 23.96 9.47v.02h.02l21.68 9.65h.02l19.63 9.74h.02v.02l17.78 9.76h.02l16.1 9.76h.02l14.62 9.72h.02l13.28 9.65v.02l12.1 9.57 11.02 9.5v.02l10.05 9.42h.02l9.16 9.37h.02v.02l8.4 9.3v.02l7.66 9.27v.02h.02l7 9.23v.02h.02l6.4 9.2v.02l5.87 9.22v.02l5.34 9.24v.02l4.86 9.28v.02l4.4 9.35h.02v.02l3.97 9.43v.02l3.54 9.54v.02l3.15 9.68v.02l2.75 9.84v.02l2.36 10.04v.02l1.97 10.26v.02l1.56 10.52v.02l1.14 10.82v.02l.7 11.16v.02l.23 11.05h-.95l-.23-11.03-.7-11.14-1.14-10.8-1.55-10.5-1.95-10.24-2.35-10.03-2.74-9.82-3.15-9.66-3.55-9.54-3.95-9.4-4.4-9.35-4.84-9.25-5.32-9.23-5.84-9.2-6.4-9.2-7-9.22-7.64-9.24-8.37-9.3-9.16-9.33-10.02-9.4-11-9.5-12.06-9.55-13.27-9.64-14.6-9.7-16.1-9.73-17.75-9.74-19.6-9.73-21.68-9.64-23.93-9.47-26.4-9.2-29.06-8.75-31.86-8.17-34.74-7.37-37.6-6.34-40.28-5.1-42.6-3.56-43.35-1.8v-.96z" stroke="#3a414a" stroke-width=".05" fill="#3a414a"/><path d="M6808.6-3097.3h-.94v-.5l.94-.03z" fill="#3a414a"/><path stroke="#3a414a" stroke-width=".05" fill="#3a414a"/><path d="M5639.1-3063.78l.14-6.73h.95l-.15 6.74 9.44-15.6.8.5-10.78 17.8-10.03-18.24.82-.45z" stroke="#3a414a" stroke-width=".05" fill="#3a414a"/><g><use xlink:href="#N" transform="matrix(1,0,0,1,6153.11046934993,-3440.204641735028) translate(0 17.22222222222222)"/><use xlink:href="#O" transform="matrix(1,0,0,1,6153.11046934993,-3440.204641735028) translate(60.69444444444444 17.22222222222222)"/></g><path d="M6595.8-2765.54v.02l-.32 104.02h-.95l.3-104-.7-11.3h.96zm-97.3-150.83h.02l17.28 7.18v.02h.02l8.9 4.34h.04l6.23 3.5 5.1 3.25v.02h.02l4.67 3.36v.02l4.83 3.9v.02h.02l5.97 5.45h.02v.02l18.9 19.7h.02l1.1 1.24v.02l1.28 1.53h.02l1.3 1.72v.02l1.33 1.9v.02l1.37 2.15v.02l1.4 2.44h.02v.02l1.43 2.76v.02l1.5 3.16v.02l1.54 3.66v.02l1.6 4.27 1.64 5.05v.02l1.7 6.03v.02l1.7 7.32v.02l1.73 9.06v.02l1.7 11.5.33 3.24h-.95l-.32-3.12-1.68-11.47-1.72-9.05-1.7-7.3-1.68-6-1.63-5.04-1.58-4.24-1.54-3.64-1.48-3.15-1.43-2.74-1.4-2.42-1.34-2.12-1.3-1.9-1.3-1.7-1.26-1.5-1.08-1.23-18.9-19.7-5.94-5.4-4.8-3.9-4.64-3.35-5.06-3.22-6.2-3.47-8.9-4.3-17.26-7.2-7.74-2.87.33-.9z" stroke="#3a414a" stroke-width=".05" fill="#3a414a"/><path d="M6595.48-2661.5v.5h-.95v-.52z" fill="#3a414a"/><path stroke="#3a414a" stroke-width=".05" fill="#3a414a"/><path d="M6502.48-2924.62l-17.98 3.03 6.3 2.36-.33.9-6.3-2.36 11.6 14.05-.73.6-13.26-16.05 20.54-3.45z" stroke="#3a414a" stroke-width=".05" fill="#3a414a"/><g><use xlink:href="#P" transform="matrix(1,0,0,1,6525.099459000185,-2798.315605870274) translate(0 17.22222222222222)"/><use xlink:href="#Q" transform="matrix(1,0,0,1,6525.099459000185,-2798.315605870274) translate(53.949652777777786 17.22222222222222)"/><use xlink:href="#R" transform="matrix(1,0,0,1,6525.099459000185,-2798.315605870274) translate(70.71180555555557 17.22222222222222)"/></g><path d="M6880.6-2702.9l-.02.02-1.82 22.06v.02l-2.1 16.8v.02h-.02l-2.27 13.5-2.37 11.2v.02l-2.43 9.47v.02l-2.47 8.16v.02l-2.48 7.12-2.48 6.3-2.5 5.6-2.5 5.02v.02l-2.5 4.52v.02l-2.5 4.1v.02l-2.5 3.77-2.5 3.45h-.02v.02l-2.52 3.18-2.55 2.95v.02l-2.57 2.73h-.02l-2.6 2.55v.02l-2.64 2.37h-.02l-2.68 2.22-2.75 2.1-2.8 1.94h-.02l-2.88 1.84-2.97 1.7v.02h-.02l-3.05 1.6h-.02l-3.16 1.5h-.02l-3.3 1.4-3.44 1.28h-.02l-3.6 1.17h-.02l-3.8 1.07-4 .94h-.02l-4.26.8-.02.02-4.53.66-4.86.5v.02h-.02l-5.23.32h-.02l-5.17.1v-.94l5.15-.1 5.2-.33 4.83-.5 4.5-.67 4.24-.8 3.98-.94 3.77-1.05 3.6-1.17 3.4-1.27 3.28-1.37 3.15-1.5 3.03-1.57 2.94-1.7 2.86-1.82 2.78-1.94 2.73-2.06 2.66-2.2 2.6-2.36 2.6-2.53 2.54-2.73 2.52-2.92 2.5-3.16 2.5-3.45 2.5-3.74 2.47-4.08 2.47-4.5 2.48-5 2.48-5.57 2.47-6.26 2.47-7.1 2.45-8.14 2.42-9.45 2.37-11.15 2.27-13.48 2.1-16.78 1.84-22.04.7-17.16h.94zm1.26-38.7h-.95l-.34-91.66h.94z" stroke="#3a414a" stroke-width=".05" fill="#3a414a"/><path d="M6771.53-2546.6l-.53.02v-.95h.5z" fill="#3a414a"/><path stroke="#3a414a" stroke-width=".05" fill="#3a414a"/><path d="M6891.48-2824.67l-.83.48-9.17-15.74.03 6.73h-.94l-.03-6.74-9.05 15.83-.83-.5 10.34-18.06z" stroke="#3a414a" stroke-width=".05" fill="#3a414a"/><g><use xlink:href="#S" transform="matrix(1,0,0,1,6808.1053768401125,-2741.6089228117817) translate(0 17.22222222222222)"/><use xlink:href="#T" transform="matrix(1,0,0,1,6808.1053768401125,-2741.6089228117817) translate(59.84375 17.22222222222222)"/><use xlink:href="#U" transform="matrix(1,0,0,1,6808.1053768401125,-2741.6089228117817) translate(73.02083333333333 17.22222222222222)"/><use xlink:href="#V" transform="matrix(1,0,0,1,6808.1053768401125,-2741.6089228117817) translate(89.49652777777777 17.22222222222222)"/><use xlink:href="#W" transform="matrix(1,0,0,1,6808.1053768401125,-2741.6089228117817) translate(118.02083333333333 17.22222222222222)"/></g><path d="M6333.35-2682.17l-.42 18.8.28 14.13.7 11.22.98 9.24 1.14 7.8 1.28 6.7 1.36 5.83 1.44 5.16 1.5 4.6 1.52 4.12 1.57 3.74 1.6 3.4 1.63 3.13 1.66 2.87 1.7 2.67 1.7 2.5 1.77 2.3 1.8 2.2 1.85 2.03 1.9 1.94 1.93 1.83 2 1.73 2.08 1.65 2.15 1.57 2.24 1.48 2.33 1.4 2.44 1.36 2.55 1.28 2.7 1.2 2.87 1.14 3.05 1.05 3.25 1 3.5.88 3.76.8 4.1.7 4.45.56 3.88.33-.07.95-3.88-.33h-.02l-4.5-.57-4.12-.7-3.8-.8-3.53-.9h-.02l-3.27-1h-.02l-3.06-1.07h-.02l-2.88-1.14h-.02l-2.72-1.22h-.02l-2.58-1.3h-.02l-2.46-1.35v-.02h-.02l-2.35-1.42-2.25-1.5v-.02h-.02l-2.16-1.57h-.02l-2.1-1.67-2.02-1.76h-.02l-1.95-1.85v-.02l-1.92-1.95-1.87-2.07v-.02l-1.82-2.2h-.02l-1.77-2.34v-.02l-1.75-2.5v-.02l-1.72-2.7-1.68-2.9v-.02l-1.65-3.14v-.02l-1.62-3.42v-.02l-1.6-3.76h.02v-.02l-1.55-4.14v-.02l-1.5-4.6v-.02l-1.45-5.18v-.02l-1.38-5.86v-.02l-1.28-6.72h-.02v-.02l-1.14-7.8v-.02l-.97-9.27v-.02l-.7-11.25v-.02l-.3-14.13v-.02l.43-18.84v-.04l7.34-73.9h.95zm18.1-207.93l-.4 19.45h-.02v.02l-1.92 29.7-6.27 63.28h-.96l6.3-63.35 1.9-29.68.44-19.44z" stroke="#3a414a" stroke-width=".05" fill="#3a414a"/><path d="M6351.46-2890.1h-.95l.02-.5h.95z" fill="#3a414a"/><path stroke="#3a414a" stroke-width=".05" fill="#3a414a"/><path d="M6418.95-2547.05l-18.4 9.74-.45-.85 16.1-8.53-6.7-.24.02-.95 6.73.24-15.45-9.68.5-.82z" stroke="#3a414a" stroke-width=".05" fill="#3a414a"/><g><use xlink:href="#y" transform="matrix(1,0,0,1,6266.595282749454,-2777.64902086036) translate(0 17.22222222222222)"/><use xlink:href="#F" transform="matrix(1,0,0,1,6266.595282749454,-2777.64902086036) translate(53.949652777777786 17.22222222222222)"/><use xlink:href="#X" transform="matrix(1,0,0,1,6266.595282749454,-2777.64902086036) translate(82.47395833333334 17.22222222222222)"/></g><path d="M5859.93-2739.87l-3.05 28.33-1.12 17.53-.27 12.5h-.96l.27-12.53v-.02l1.14-17.56v-.04l3.04-28.34 7.1-53.97h.95zm-38.7-210.1h.02l3.4.44h.02l3.1.53h.02l2.85.6h.02l2.63.68h.02l2.44.75h.02l2.28.8 2.15.85h.02l2.02.9h.02l1.9.95h.02l1.8 1h.02l1.72 1.05 1.66 1.1v.02l1.6 1.14 1.52 1.2v.02l1.47 1.26v.02h.02l1.4 1.32v.02l1.38 1.4 1.34 1.5h.02l1.3 1.57 1.27 1.67v.02h.02l1.23 1.77v.02l1.22 1.9v.02l1.18 2.05 1.16 2.2h.02v.02l1.13 2.4v.02l1.1 2.6v.02l1.08 2.88v.02l1.03 3.17v.02l1 3.55.94 4v.02l.86 4.54v.02l.78 5.22v.02l.64 6.13v.02l.46 7.3v.02l.18 9-.25 11.52v.02l-1.02 15.86v.04l-3.6 27.3h-.95l3.6-27.4 1.02-15.85.25-11.5-.18-8.97-.47-7.3-.64-6.1-.77-5.2-.86-4.52-.93-3.96-.98-3.52-1.03-3.16-1.06-2.85-1.1-2.58-1.1-2.38-1.14-2.2-1.17-2-1.2-1.9-1.22-1.75-1.25-1.66-1.3-1.54-1.3-1.47-1.36-1.38-1.4-1.3-1.44-1.26-1.5-1.2-1.56-1.13-1.62-1.08-1.7-1.04-1.8-.98-1.87-.94-2-.88-2.12-.84-2.25-.8-2.43-.72-2.6-.67-2.84-.6-3.08-.52-3.38-.42-.75-.06.07-.95z" stroke="#3a414a" stroke-width=".05" fill="#3a414a"/><path d="M5855.5-2681.5l-.02.5h-.95v-.53z" fill="#3a414a"/><path stroke="#3a414a" stroke-width=".05" fill="#3a414a"/><path d="M5830-2958.7l-16.2 8.36 6.7.32-.03.94-6.72-.3 15.33 9.84-.5.8-17.53-11.26 18.5-9.54z" stroke="#3a414a" stroke-width=".05" fill="#3a414a"/><g><use xlink:href="#y" transform="matrix(1,0,0,1,5800.963235343427,-2815.4555866702945) translate(0 17.22222222222222)"/><use xlink:href="#z" transform="matrix(1,0,0,1,5800.963235343427,-2815.4555866702945) translate(53.949652777777786 17.22222222222222)"/><use xlink:href="#G" transform="matrix(1,0,0,1,5800.963235343427,-2815.4555866702945) translate(70.71180555555557 17.22222222222222)"/></g><defs><path d="M135 0v-1490h305v602h649v-602h306V0h-306v-635H440V0H135" id="Y"/><path d="M440 22C227 22 68-92 68-313c0-250 202-322 422-343 195-21 271-24 271-105 0-95-63-149-175-149-116 0-187 57-211 129l-275-46c57-194 237-305 487-305 240 0 474 108 474 379V0H777v-155h-10C713-51 605 22 440 22zm85-211c140 0 238-93 238-211v-121c-37 26-156 42-222 51-111 16-185 59-185 149 0 87 70 132 169 132" id="Z"/><path d="M428-647V0H128v-1118h283l4 231c63-156 176-245 348-245 232 0 384 159 384 421V0H847v-659c0-139-76-222-202-222-128 0-217 86-217 234" id="aa"/><path d="M625 442c-280 0-454-114-503-274l258-72c28 63 97 128 243 128 153 0 246-69 246-216v-206h-23C805-108 717-16 536-16 284-16 81-191 81-561c0-378 208-571 456-571 188 0 280 113 321 202h13v-188h295V-9c0 303-226 451-541 451zm5-686c153 0 240-119 240-319 0-198-86-329-240-329-158 0-241 137-241 329 0 195 85 319 241 319" id="ab"/><path d="M128 0v-1118h290v195h12c54-169 184-238 367-200v268c-27-8-86-15-130-15-138 0-239 95-239 234V0H128" id="ac"/><path d="M75-1237v-253h1217v253H837V0H531v-1237H75" id="ad"/><path d="M572 22C302 22 117-98 78-306l279-48c29 105 101 156 224 156 114 0 185-48 185-115 0-118-228-130-337-155-215-49-322-150-322-317 0-215 187-347 470-347 265 0 424 116 466 298l-266 47c-24-76-87-130-196-130-98 0-174 46-174 113 0 56 38 95 144 117l201 40c216 44 320 143 320 302 0 220-207 367-500 367" id="ae"/><path d="M128 0v-1490h300v802h17l366-430h347L740-633 1179 0H826L514-456l-86 97V0H128" id="af"/><g id="a"><use transform="matrix(0.010850694444444444,0,0,0.010850694444444444,0,0)" xlink:href="#Y"/><use transform="matrix(0.010850694444444444,0,0,0.010850694444444444,16.6015625,0)" xlink:href="#Z"/><use transform="matrix(0.010850694444444444,0,0,0.010850694444444444,29.503038194444443,0)" xlink:href="#aa"/><use transform="matrix(0.010850694444444444,0,0,0.010850694444444444,43.33767361111111,0)" xlink:href="#ab"/><use transform="matrix(0.010850694444444444,0,0,0.010850694444444444,57.37847222222221,0)" xlink:href="#Z"/><use transform="matrix(0.010850694444444444,0,0,0.010850694444444444,70.27994791666666,0)" xlink:href="#ac"/><use transform="matrix(0.010850694444444444,0,0,0.010850694444444444,78.07074652777777,0)" xlink:href="#ad"/><use transform="matrix(0.010850694444444444,0,0,0.010850694444444444,91.27604166666666,0)" xlink:href="#Z"/><use transform="matrix(0.010850694444444444,0,0,0.010850694444444444,104.17751736111111,0)" xlink:href="#ae"/><use transform="matrix(0.010850694444444444,0,0,0.010850694444444444,116.62326388888887,0)" xlink:href="#af"/></g><path d="M135 0v-1490h340l471 754c59 97 122 210 187 365-32-387-14-721-19-1119h312V0h-341C855-382 627-689 427-1113c32 420 16 695 20 1113H135" id="ag"/><path d="M789 20C394 20 94-260 94-744c0-487 300-766 695-766s695 279 695 766c0 485-300 764-695 764zm0-271c231 0 385-174 385-493 0-321-154-495-385-495s-385 175-385 495c0 319 154 493 385 493" id="ah"/><path d="M135 0v-1490h581c339 0 533 192 533 485 0 204-94 351-264 424L1302 0H964L680-532H440V0H135zm305-779h220c186 0 274-77 274-226 0-150-88-233-275-233H440v459" id="ai"/><path d="M135 0v-1490h468l242 684c30 94 76 293 111 455 34-161 80-360 110-455l238-684h470V0h-307c0-447-3-765 11-1227-122 503-246 788-395 1227H826C676-435 552-717 427-1215c15 453 11 775 11 1215H135" id="aj"/><path d="M49 0l509-1490h400L1480 0h-339l-115-346H497L386 0H49zm524-585h374c-75-213-124-402-192-666-66 268-110 453-182 666" id="ak"/><path d="M135 0v-1490h305v1237h643V0H135" id="al"/><g id="b"><use transform="matrix(0.010850694444444444,0,0,0.010850694444444444,0,0)" xlink:href="#ag"/><use transform="matrix(0.010850694444444444,0,0,0.010850694444444444,16.93793402777778,0)" xlink:href="#ah"/><use transform="matrix(0.010850694444444444,0,0,0.010850694444444444,34.060329861111114,0)" xlink:href="#ai"/><use transform="matrix(0.010850694444444444,0,0,0.010850694444444444,48.6545138888889,0)" xlink:href="#aj"/><use transform="matrix(0.010850694444444444,0,0,0.010850694444444444,69.35763888888889,0)" xlink:href="#ak"/><use transform="matrix(0.010850694444444444,0,0,0.010850694444444444,85.94835069444444,0)" xlink:href="#al"/></g><path d="M628 24c-324 0-524-230-524-574 0-343 198-582 503-582 237 0 487 146 487 559v75H286c9 234 145 362 343 362 132 0 231-58 273-172l174 48C1024-91 857 24 628 24zM287-650h624c-17-190-120-322-304-322-192 0-309 151-320 322" id="am"/><path d="M338-670V0H158v-1118h173l1 207c72-158 192-221 342-221 226 0 378 139 378 422V0H872v-695c0-172-96-275-252-275-161 0-282 109-282 300" id="an"/><path d="M598-1118v154H368v674c0 100 37 144 132 144 23 0 62-6 92-12L629-6c-37 13-88 20-134 20-193 0-307-107-307-290v-688H20v-154h168v-266h180v266h230" id="ao"/><path d="M158 0v-1118h174v172h12c41-113 157-188 290-188 26 0 70 2 91 3v181c-11-2-60-10-108-10-161 0-279 109-279 260V0H158" id="ap"/><path d="M140 405l46-156c120 36 205 19 263-150l32-93L54-1118h197c107 313 237 620 324 950 87-331 219-637 326-950h196L606 167c-68 178-176 259-334 259-64 0-113-12-132-21" id="aq"/><g id="c"><use transform="matrix(0.010850694444444444,0,0,0.010850694444444444,0,0)" xlink:href="#am"/><use transform="matrix(0.010850694444444444,0,0,0.010850694444444444,12.955729166666666,0)" xlink:href="#an"/><use transform="matrix(0.010850694444444444,0,0,0.010850694444444444,26.085069444444443,0)" xlink:href="#ao"/><use transform="matrix(0.010850694444444444,0,0,0.010850694444444444,33.35503472222222,0)" xlink:href="#ap"/><use transform="matrix(0.010850694444444444,0,0,0.010850694444444444,42.06814236111111,0)" xlink:href="#aq"/></g><path d="M692-1560L212 224H46l480-1784h166" id="ar"/><use transform="matrix(0.010850694444444444,0,0,0.010850694444444444,0,0)" xlink:href="#ar" id="d"/><path d="M538 24C308 24 148-78 108-271l171-41c32 123 123 178 257 178 156 0 256-77 256-169 0-77-54-128-164-154l-186-44c-203-48-300-148-300-305 0-192 176-326 414-326 230 0 351 112 402 269l-163 42c-31-80-94-158-238-158-133 0-233 69-233 162 0 83 57 129 188 160l169 40c203 48 298 149 298 302 0 196-179 339-441 339" id="as"/><path d="M52 0l541-1490h220L1361 0h-200l-149-416H398L254 0H52zm404-582h497c-103-290-145-390-251-756-108 377-145 460-246 756" id="at"/><path d="M338-1490V0H158v-1490h180" id="au"/><path d="M471 26C259 26 90-98 90-318c0-256 228-303 435-329 202-27 287-16 287-108 0-139-79-219-234-219-161 0-248 86-283 164l-173-57c86-203 278-265 451-265 150 0 419 46 419 395V0H815v-152h-12C765-73 660 26 471 26zm31-159c199 0 310-134 310-271v-155c-30 35-226 55-295 64-131 17-246 59-246 186 0 116 97 176 231 176" id="av"/><path d="M158 0v-1118h175l1 205c55-151 181-225 313-225 147 0 245 90 285 228 53-141 190-228 352-228 194 0 352 125 352 384V0h-181v-749c0-161-105-225-225-225-151 0-243 103-243 244V0H807v-767c0-124-93-207-219-207-131 0-250 92-250 270V0H158" id="aw"/><path d="M218-607c0-325 108-727 258-974h175c-155 315-250 682-250 974 0 265 78 531 250 886H476C306-10 218-315 218-607" id="ax"/><path d="M678-1118v154H420V0H240v-964H20v-154h220v-149c0-194 155-293 318-293 85 0 141 18 168 30l-50 154c-19-6-47-17-97-17-111 0-159 58-159 166v109h258" id="ay"/><path d="M96 279C273-86 346-350 346-607c0-292-95-659-250-974h175c150 246 258 650 258 974 0 297-91 602-258 886H96" id="az"/><path d="M128 359l88-567h206L266 359H128zM323-796c-75 0-135-60-135-135s60-135 135-135 135 60 135 135-60 135-135 135" id="aA"/><g id="e"><use transform="matrix(0.010850694444444444,0,0,0.010850694444444444,0,0)" xlink:href="#as"/><use transform="matrix(0.010850694444444444,0,0,0.010850694444444444,11.729600694444445,0)" xlink:href="#am"/><use transform="matrix(0.010850694444444444,0,0,0.010850694444444444,24.68532986111111,0)" xlink:href="#ao"/><use transform="matrix(0.010850694444444444,0,0,0.010850694444444444,31.95529513888889,0)" xlink:href="#at"/><use transform="matrix(0.010850694444444444,0,0,0.010850694444444444,47.287326388888886,0)" xlink:href="#au"/><use transform="matrix(0.010850694444444444,0,0,0.010850694444444444,52.66927083333333,0)" xlink:href="#av"/><use transform="matrix(0.010850694444444444,0,0,0.010850694444444444,65.14756944444444,0)" xlink:href="#ap"/><use transform="matrix(0.010850694444444444,0,0,0.010850694444444444,73.86067708333334,0)" xlink:href="#aw"/><use transform="matrix(0.010850694444444444,0,0,0.010850694444444444,93.32682291666666,0)" xlink:href="#ax"/><use transform="matrix(0.010850694444444444,0,0,0.010850694444444444,101.43229166666666,0)" xlink:href="#ay"/><use transform="matrix(0.010850694444444444,0,0,0.010850694444444444,109.30989583333333,0)" xlink:href="#av"/><use transform="matrix(0.010850694444444444,0,0,0.010850694444444444,121.78819444444444,0)" xlink:href="#au"/><use transform="matrix(0.010850694444444444,0,0,0.010850694444444444,127.17013888888889,0)" xlink:href="#as"/><use transform="matrix(0.010850694444444444,0,0,0.010850694444444444,138.89973958333334,0)" xlink:href="#am"/><use transform="matrix(0.010850694444444444,0,0,0.010850694444444444,151.60590277777777,0)" xlink:href="#az"/><use transform="matrix(0.010850694444444444,0,0,0.010850694444444444,159.71137152777777,0)" xlink:href="#aA"/></g><path d="M613 24c-304 0-509-231-509-576 0-350 205-580 509-580 305 0 511 230 511 580 0 345-206 576-511 576zm0-161c226 0 329-195 329-415 0-222-103-419-329-419-223 0-326 196-326 419 0 220 103 415 326 415" id="aB"/><g id="f"><use transform="matrix(0.010850694444444444,0,0,0.010850694444444444,0,0)" xlink:href="#aB"/><use transform="matrix(0.010850694444444444,0,0,0.010850694444444444,13.324652777777777,0)" xlink:href="#ay"/><use transform="matrix(0.010850694444444444,0,0,0.010850694444444444,20.68142361111111,0)" xlink:href="#ay"/></g><path d="M180 0v-1490h190v1322h690V0H180" id="aC"/><path d="M635 20c-292 0-500-160-510-396h192c11 142 145 229 315 229 187 0 323-105 323-260 0-161-125-274-346-274H488v-165h121c174 0 294-100 294-254 0-148-104-245-266-245-152 0-291 85-297 230H157c8-234 222-395 484-395 278 0 448 188 448 400 0 168-95 291-247 336v12c190 31 301 169 301 357 0 244-216 425-508 425" id="aD"/><g id="g"><use transform="matrix(0.010850694444444444,0,0,0.010850694444444444,0,0)" xlink:href="#aC"/><use transform="matrix(0.010850694444444444,0,0,0.010850694444444444,12.565104166666666,0)" xlink:href="#aD"/><use transform="matrix(0.010850694444444444,0,0,0.010850694444444444,26.29123263888889,0)" xlink:href="#aA"/></g><path d="M180 0v-1490h510c348 0 508 209 508 474 0 266-160 477-507 477H370V0H180zm190-706h312c236 0 327-133 327-310 0-176-91-307-329-307H370v617" id="aE"/><g id="h"><use transform="matrix(0.010850694444444444,0,0,0.010850694444444444,0,0)" xlink:href="#as"/><use transform="matrix(0.010850694444444444,0,0,0.010850694444444444,11.729600694444445,0)" xlink:href="#am"/><use transform="matrix(0.010850694444444444,0,0,0.010850694444444444,24.68532986111111,0)" xlink:href="#ao"/><use transform="matrix(0.010850694444444444,0,0,0.010850694444444444,31.95529513888889,0)" xlink:href="#aE"/><use transform="matrix(0.010850694444444444,0,0,0.010850694444444444,46.14800347222222,0)" xlink:href="#ap"/><use transform="matrix(0.010850694444444444,0,0,0.010850694444444444,54.14496527777778,0)" xlink:href="#am"/><use transform="matrix(0.010850694444444444,0,0,0.010850694444444444,66.35199652777777,0)" xlink:href="#at"/><use transform="matrix(0.010850694444444444,0,0,0.010850694444444444,81.68402777777777,0)" xlink:href="#au"/><use transform="matrix(0.010850694444444444,0,0,0.010850694444444444,87.06597222222221,0)" xlink:href="#av"/><use transform="matrix(0.010850694444444444,0,0,0.010850694444444444,99.54427083333333,0)" xlink:href="#ap"/><use transform="matrix(0.010850694444444444,0,0,0.010850694444444444,108.25737847222224,0)" xlink:href="#aw"/><use transform="matrix(0.010850694444444444,0,0,0.010850694444444444,127.72352430555556,0)" xlink:href="#ax"/><use transform="matrix(0.010850694444444444,0,0,0.010850694444444444,135.82899305555554,0)" xlink:href="#ay"/><use transform="matrix(0.010850694444444444,0,0,0.010850694444444444,143.7065972222222,0)" xlink:href="#av"/><use transform="matrix(0.010850694444444444,0,0,0.010850694444444444,156.18489583333331,0)" xlink:href="#au"/><use transform="matrix(0.010850694444444444,0,0,0.010850694444444444,161.56684027777777,0)" xlink:href="#as"/><use transform="matrix(0.010850694444444444,0,0,0.010850694444444444,173.29644097222223,0)" xlink:href="#am"/><use transform="matrix(0.010850694444444444,0,0,0.010850694444444444,186.00260416666666,0)" xlink:href="#az"/></g><path d="M577 24c-279 0-473-224-473-580 0-354 195-576 474-576 218 0 287 134 324 193h14v-551h180V0H922v-173h-20C865-111 790 24 577 24zm27-161c203 0 314-172 314-421 0-247-108-413-314-413-212 0-317 181-317 413 0 235 108 421 317 421" id="aF"/><g id="i"><use transform="matrix(0.010850694444444444,0,0,0.010850694444444444,0,0)" xlink:href="#aF"/><use transform="matrix(0.010850694444444444,0,0,0.010850694444444444,13.606770833333332,0)" xlink:href="#aB"/></g><path d="M158 418v-1536h174v179h20c37-59 106-193 324-193 279 0 474 222 474 576 0 356-194 580-473 580-213 0-288-135-325-197h-14v591H158zm492-555c209 0 317-186 317-421 0-232-105-413-317-413-206 0-314 166-314 413 0 249 111 421 314 421" id="aG"/><g id="j"><use transform="matrix(0.010850694444444444,0,0,0.010850694444444444,0,0)" xlink:href="#ao"/><use transform="matrix(0.010850694444444444,0,0,0.010850694444444444,7.052951388888888,0)" xlink:href="#am"/><use transform="matrix(0.010850694444444444,0,0,0.010850694444444444,20.008680555555554,0)" xlink:href="#aw"/><use transform="matrix(0.010850694444444444,0,0,0.010850694444444444,39.474826388888886,0)" xlink:href="#aG"/></g><path d="M226-283v-166h904v166H226zm0-434v-166h904v166H226" id="aH"/><use transform="matrix(0.010850694444444444,0,0,0.010850694444444444,0,0)" xlink:href="#aH" id="k"/><path d="M613 24c-304 0-509-231-509-576 0-350 205-580 509-580 216 0 392 114 453 309l-173 49c-33-115-133-197-280-197-223 0-326 196-326 419 0 220 103 415 326 415 150 0 252-85 285-206l172 49C1010-95 832 24 613 24" id="aI"/><path d="M338-670V0H158v-1490h180v566c73-149 190-208 336-208 226 0 379 139 379 422V0H872v-695c0-172-96-275-252-275-161 0-282 109-282 300" id="aJ"/><path d="M158 0v-1490h180v865h22l478-493h223L593-638 1096 0H865L456-523 338-412V0H158" id="aK"/><path d="M98-1322v-168h1126v168H757V0H567v-1322H98" id="aL"/><g id="l"><use transform="matrix(0.010850694444444444,0,0,0.010850694444444444,0,0)" xlink:href="#aI"/><use transform="matrix(0.010850694444444444,0,0,0.010850694444444444,12.6953125,0)" xlink:href="#aJ"/><use transform="matrix(0.010850694444444444,0,0,0.010850694444444444,25.83550347222222,0)" xlink:href="#am"/><use transform="matrix(0.010850694444444444,0,0,0.010850694444444444,38.791232638888886,0)" xlink:href="#aI"/><use transform="matrix(0.010850694444444444,0,0,0.010850694444444444,51.486545138888886,0)" xlink:href="#aK"/><use transform="matrix(0.010850694444444444,0,0,0.010850694444444444,62.424045138888886,0)" xlink:href="#aL"/><use transform="matrix(0.010850694444444444,0,0,0.010850694444444444,75.03255208333333,0)" xlink:href="#am"/><use transform="matrix(0.010850694444444444,0,0,0.010850694444444444,87.98828125,0)" xlink:href="#aw"/><use transform="matrix(0.010850694444444444,0,0,0.010850694444444444,107.45442708333333,0)" xlink:href="#aG"/></g><path d="M135 0v-1490h581c339 0 533 210 533 503 0 295-197 500-540 500H440V0H135zm305-733h220c186 0 274-104 274-254s-88-251-275-251H440v505" id="aM"/><path d="M135 0v-1490h997v253H440v360h640v249H440v375h694V0H135" id="aN"/><g id="m"><use transform="matrix(0.010850694444444444,0,0,0.010850694444444444,0,0)" xlink:href="#aM"/><use transform="matrix(0.010850694444444444,0,0,0.010850694444444444,14.398871527777777,0)" xlink:href="#ai"/><use transform="matrix(0.010850694444444444,0,0,0.010850694444444444,28.993055555555554,0)" xlink:href="#aN"/><use transform="matrix(0.010850694444444444,0,0,0.010850694444444444,42.49131944444444,0)" xlink:href="#ak"/><use transform="matrix(0.010850694444444444,0,0,0.010850694444444444,59.08203125,0)" xlink:href="#al"/><use transform="matrix(0.010850694444444444,0,0,0.010850694444444444,71.64713541666667,0)" xlink:href="#ak"/><use transform="matrix(0.010850694444444444,0,0,0.010850694444444444,88.23784722222223,0)" xlink:href="#ai"/><use transform="matrix(0.010850694444444444,0,0,0.010850694444444444,102.83203125,0)" xlink:href="#aj"/></g><path d="M537 14c-226 0-379-139-379-422v-710h180v695c0 172 97 275 253 275 160 0 281-109 281-300v-670h181V0H879v-209C806-46 684 14 537 14" id="aO"/><g id="n"><use transform="matrix(0.010850694444444444,0,0,0.010850694444444444,0,0)" xlink:href="#as"/><use transform="matrix(0.010850694444444444,0,0,0.010850694444444444,11.729600694444445,0)" xlink:href="#am"/><use transform="matrix(0.010850694444444444,0,0,0.010850694444444444,24.68532986111111,0)" xlink:href="#ao"/><use transform="matrix(0.010850694444444444,0,0,0.010850694444444444,31.95529513888889,0)" xlink:href="#aE"/><use transform="matrix(0.010850694444444444,0,0,0.010850694444444444,46.14800347222222,0)" xlink:href="#ap"/><use transform="matrix(0.010850694444444444,0,0,0.010850694444444444,54.14496527777778,0)" xlink:href="#am"/><use transform="matrix(0.010850694444444444,0,0,0.010850694444444444,66.35199652777777,0)" xlink:href="#at"/><use transform="matrix(0.010850694444444444,0,0,0.010850694444444444,81.68402777777777,0)" xlink:href="#au"/><use transform="matrix(0.010850694444444444,0,0,0.010850694444444444,87.06597222222221,0)" xlink:href="#av"/><use transform="matrix(0.010850694444444444,0,0,0.010850694444444444,99.54427083333333,0)" xlink:href="#ap"/><use transform="matrix(0.010850694444444444,0,0,0.010850694444444444,108.25737847222224,0)" xlink:href="#aw"/><use transform="matrix(0.010850694444444444,0,0,0.010850694444444444,127.72352430555556,0)" xlink:href="#ax"/><use transform="matrix(0.010850694444444444,0,0,0.010850694444444444,135.82899305555554,0)" xlink:href="#ao"/><use transform="matrix(0.010850694444444444,0,0,0.010850694444444444,143.09895833333331,0)" xlink:href="#ap"/><use transform="matrix(0.010850694444444444,0,0,0.010850694444444444,151.46484374999997,0)" xlink:href="#aO"/><use transform="matrix(0.010850694444444444,0,0,0.010850694444444444,164.6050347222222,0)" xlink:href="#am"/><use transform="matrix(0.010850694444444444,0,0,0.010850694444444444,177.31119791666663,0)" xlink:href="#az"/></g><g id="o"><use transform="matrix(0.010850694444444444,0,0,0.010850694444444444,0,0)" xlink:href="#ak"/><use transform="matrix(0.010850694444444444,0,0,0.010850694444444444,16.590711805555554,0)" xlink:href="#al"/><use transform="matrix(0.010850694444444444,0,0,0.010850694444444444,29.15581597222222,0)" xlink:href="#ak"/><use transform="matrix(0.010850694444444444,0,0,0.010850694444444444,45.74652777777778,0)" xlink:href="#ai"/><use transform="matrix(0.010850694444444444,0,0,0.010850694444444444,60.34071180555555,0)" xlink:href="#aj"/></g><g id="p"><use transform="matrix(0.010850694444444444,0,0,0.010850694444444444,0,0)" xlink:href="#am"/><use transform="matrix(0.010850694444444444,0,0,0.010850694444444444,12.955729166666666,0)" xlink:href="#an"/><use transform="matrix(0.010850694444444444,0,0,0.010850694444444444,26.085069444444443,0)" xlink:href="#ao"/><use transform="matrix(0.010850694444444444,0,0,0.010850694444444444,33.35503472222222,0)" xlink:href="#ap"/><use transform="matrix(0.010850694444444444,0,0,0.010850694444444444,42.06814236111111,0)" xlink:href="#aq"/></g><use transform="matrix(0.010850694444444444,0,0,0.010850694444444444,0,0)" xlink:href="#ar" id="q"/><g id="r"><use transform="matrix(0.010850694444444444,0,0,0.010850694444444444,0,0)" xlink:href="#as"/><use transform="matrix(0.010850694444444444,0,0,0.010850694444444444,11.729600694444445,0)" xlink:href="#am"/><use transform="matrix(0.010850694444444444,0,0,0.010850694444444444,24.68532986111111,0)" xlink:href="#ao"/><use transform="matrix(0.010850694444444444,0,0,0.010850694444444444,31.95529513888889,0)" xlink:href="#aE"/><use transform="matrix(0.010850694444444444,0,0,0.010850694444444444,46.14800347222222,0)" xlink:href="#ap"/><use transform="matrix(0.010850694444444444,0,0,0.010850694444444444,54.14496527777778,0)" xlink:href="#am"/><use transform="matrix(0.010850694444444444,0,0,0.010850694444444444,66.35199652777777,0)" xlink:href="#at"/><use transform="matrix(0.010850694444444444,0,0,0.010850694444444444,81.68402777777777,0)" xlink:href="#au"/><use transform="matrix(0.010850694444444444,0,0,0.010850694444444444,87.06597222222221,0)" xlink:href="#av"/><use transform="matrix(0.010850694444444444,0,0,0.010850694444444444,99.54427083333333,0)" xlink:href="#ap"/><use transform="matrix(0.010850694444444444,0,0,0.010850694444444444,108.25737847222224,0)" xlink:href="#aw"/><use transform="matrix(0.010850694444444444,0,0,0.010850694444444444,127.72352430555556,0)" xlink:href="#ax"/><use transform="matrix(0.010850694444444444,0,0,0.010850694444444444,135.82899305555554,0)" xlink:href="#ay"/><use transform="matrix(0.010850694444444444,0,0,0.010850694444444444,143.7065972222222,0)" xlink:href="#av"/><use transform="matrix(0.010850694444444444,0,0,0.010850694444444444,156.18489583333331,0)" xlink:href="#au"/><use transform="matrix(0.010850694444444444,0,0,0.010850694444444444,161.56684027777777,0)" xlink:href="#as"/><use transform="matrix(0.010850694444444444,0,0,0.010850694444444444,173.29644097222223,0)" xlink:href="#am"/><use transform="matrix(0.010850694444444444,0,0,0.010850694444444444,186.00260416666666,0)" xlink:href="#az"/><use transform="matrix(0.010850694444444444,0,0,0.010850694444444444,194.10807291666666,0)" xlink:href="#aA"/></g><g id="s"><use transform="matrix(0.010850694444444444,0,0,0.010850694444444444,0,0)" xlink:href="#as"/><use transform="matrix(0.010850694444444444,0,0,0.010850694444444444,11.729600694444445,0)" xlink:href="#am"/><use transform="matrix(0.010850694444444444,0,0,0.010850694444444444,24.68532986111111,0)" xlink:href="#ao"/><use transform="matrix(0.010850694444444444,0,0,0.010850694444444444,31.95529513888889,0)" xlink:href="#at"/><use transform="matrix(0.010850694444444444,0,0,0.010850694444444444,47.287326388888886,0)" xlink:href="#au"/><use transform="matrix(0.010850694444444444,0,0,0.010850694444444444,52.66927083333333,0)" xlink:href="#av"/><use transform="matrix(0.010850694444444444,0,0,0.010850694444444444,65.14756944444444,0)" xlink:href="#ap"/><use transform="matrix(0.010850694444444444,0,0,0.010850694444444444,73.86067708333334,0)" xlink:href="#aw"/><use transform="matrix(0.010850694444444444,0,0,0.010850694444444444,93.32682291666666,0)" xlink:href="#ax"/><use transform="matrix(0.010850694444444444,0,0,0.010850694444444444,101.43229166666666,0)" xlink:href="#ao"/><use transform="matrix(0.010850694444444444,0,0,0.010850694444444444,108.70225694444444,0)" xlink:href="#ap"/><use transform="matrix(0.010850694444444444,0,0,0.010850694444444444,117.0681423611111,0)" xlink:href="#aO"/><use transform="matrix(0.010850694444444444,0,0,0.010850694444444444,130.20833333333334,0)" xlink:href="#am"/><use transform="matrix(0.010850694444444444,0,0,0.010850694444444444,142.91449652777777,0)" xlink:href="#az"/><use transform="matrix(0.010850694444444444,0,0,0.010850694444444444,151.01996527777777,0)" xlink:href="#aA"/></g><g id="t"><use transform="matrix(0.010850694444444444,0,0,0.010850694444444444,0,0)" xlink:href="#aB"/><use transform="matrix(0.010850694444444444,0,0,0.010850694444444444,13.324652777777777,0)" xlink:href="#an"/></g><g id="u"><use transform="matrix(0.010850694444444444,0,0,0.010850694444444444,0,0)" xlink:href="#aC"/><use transform="matrix(0.010850694444444444,0,0,0.010850694444444444,12.565104166666666,0)" xlink:href="#aD"/><use transform="matrix(0.010850694444444444,0,0,0.010850694444444444,26.29123263888889,0)" xlink:href="#aA"/></g><g id="w"><use transform="matrix(0.010850694444444444,0,0,0.010850694444444444,0,0)" xlink:href="#au"/><use transform="matrix(0.010850694444444444,0,0,0.010850694444444444,5.381944444444445,0)" xlink:href="#aI"/><use transform="matrix(0.010850694444444444,0,0,0.010850694444444444,18.077256944444443,0)" xlink:href="#aF"/></g><path d="M611 442c-248 0-391-105-460-228l146-94c47 65 117 165 314 165 178 0 307-82 307-266v-224h-17C863-141 792-18 576-18c-268 0-472-195-472-546 0-346 197-568 476-568 216 0 288 133 326 193h17v-179h175V29c0 289-215 413-487 413zm-5-620c203 0 314-146 314-390 0-237-108-403-314-403-213 0-319 180-319 403 0 230 109 390 319 390" id="aP"/><path d="M232-923l-22-567h194l-22 567H232zm340 0l-22-567h194l-22 567H572" id="aQ"/><path d="M180 0v-1490h510c348 0 508 194 508 460 0 198-88 351-276 417L1256 0h-220L726-579c-117 2-238 0-356 1V0H180zm190-747h312c235 0 327-108 327-283 0-177-92-293-329-293H370v576" id="aR"/><path d="M180 0v-1490h270l367 940c28 72 75 218 110 339 35-117 81-264 110-339l362-940h271V0h-187c2-448-5-837 7-1287-157 497-311 829-483 1287H842C666-458 514-784 354-1284c12 438 5 843 7 1284H180" id="aS"/><g id="x"><use transform="matrix(0.010850694444444444,0,0,0.010850694444444444,0,0)" xlink:href="#aw"/><use transform="matrix(0.010850694444444444,0,0,0.010850694444444444,19.466145833333332,0)" xlink:href="#as"/><use transform="matrix(0.010850694444444444,0,0,0.010850694444444444,31.195746527777775,0)" xlink:href="#aP"/><use transform="matrix(0.010850694444444444,0,0,0.010850694444444444,44.82421875,0)" xlink:href="#ax"/><use transform="matrix(0.010850694444444444,0,0,0.010850694444444444,52.9296875,0)" xlink:href="#aQ"/><use transform="matrix(0.010850694444444444,0,0,0.010850694444444444,61.5234375,0)" xlink:href="#at"/><use transform="matrix(0.010850694444444444,0,0,0.010850694444444444,76.85546875,0)" xlink:href="#aC"/><use transform="matrix(0.010850694444444444,0,0,0.010850694444444444,89.42057291666666,0)" xlink:href="#at"/><use transform="matrix(0.010850694444444444,0,0,0.010850694444444444,104.75260416666666,0)" xlink:href="#aR"/><use transform="matrix(0.010850694444444444,0,0,0.010850694444444444,119.05381944444444,0)" xlink:href="#aS"/><use transform="matrix(0.010850694444444444,0,0,0.010850694444444444,139.12760416666666,0)" xlink:href="#aQ"/><use transform="matrix(0.010850694444444444,0,0,0.010850694444444444,149.47916666666666,0)" xlink:href="#az"/></g><path d="M226 279v-1860h398v153H398V126h226v153H226" id="aT"/><g id="y"><use transform="matrix(0.008680555555555556,0,0,0.008680555555555556,0,0)" xlink:href="#aT"/><use transform="matrix(0.008680555555555556,0,0,0.008680555555555556,6.484375,0)" xlink:href="#ao"/><use transform="matrix(0.008680555555555556,0,0,0.008680555555555556,12.126736111111112,0)" xlink:href="#am"/><use transform="matrix(0.008680555555555556,0,0,0.008680555555555556,22.491319444444443,0)" xlink:href="#aw"/><use transform="matrix(0.008680555555555556,0,0,0.008680555555555556,38.064236111111114,0)" xlink:href="#aG"/></g><path d="M174-520v-126l944-476v196L406-588v12l712 338v194" id="aU"/><use transform="matrix(0.008680555555555556,0,0,0.008680555555555556,0,0)" xlink:href="#aU" id="z"/><path d="M180 0v-1490h908v168H370v486h669v168H370v500h727V0H180" id="aV"/><path d="M653-1490V0H466v-1314h-10L96-1047v-204l324-239h233" id="aW"/><g id="A"><use transform="matrix(0.008680555555555556,0,0,0.008680555555555556,0,0)" xlink:href="#aL"/><use transform="matrix(0.008680555555555556,0,0,0.008680555555555556,11.475694444444445,0)" xlink:href="#aV"/><use transform="matrix(0.008680555555555556,0,0,0.008680555555555556,22.161458333333336,0)" xlink:href="#aS"/><use transform="matrix(0.008680555555555556,0,0,0.008680555555555556,38.220486111111114,0)" xlink:href="#aE"/><use transform="matrix(0.008680555555555556,0,0,0.008680555555555556,49.574652777777786,0)" xlink:href="#aW"/></g><path d="M123 279V126h226v-1554H123v-153h398V279H123" id="aX"/><use transform="matrix(0.008680555555555556,0,0,0.008680555555555556,0,0)" xlink:href="#aX" id="B"/><path d="M786 20C389 20 94-260 94-744c0-487 299-766 692-766 339 0 597 194 641 529h-309c-28-162-156-258-326-258-233 0-388 179-388 495 0 323 157 493 387 493 170 0 298-97 328-259h309c-34 277-266 530-642 530" id="aY"/><path d="M135 0v-1490h305c1 251 0 501-5 746 157-254 405-512 598-746h373L849-845 1422 0h-361L638-644 440-426V0H135" id="aZ"/><path d="M440-1490V0H135v-1490h305" id="ba"/><path d="M795 20C377 20 94-272 94-743c0-483 302-767 694-767 335 0 593 206 635 500h-310c-42-142-154-229-320-229-230 0-389 177-389 493s154 495 393 495c212 0 340-120 345-311H818v-232h620v186c0 391-269 628-643 628" id="bb"/><path d="M975 0v231H0V0h975" id="bc"/><g id="C"><use transform="matrix(0.010850694444444444,0,0,0.010850694444444444,0,0)" xlink:href="#ad"/><use transform="matrix(0.010850694444444444,0,0,0.010850694444444444,14.832899305555555,0)" xlink:href="#ai"/><use transform="matrix(0.010850694444444444,0,0,0.010850694444444444,29.427083333333332,0)" xlink:href="#ak"/><use transform="matrix(0.010850694444444444,0,0,0.010850694444444444,45.084635416666664,0)" xlink:href="#aY"/><use transform="matrix(0.010850694444444444,0,0,0.010850694444444444,61.5234375,0)" xlink:href="#aZ"/><use transform="matrix(0.010850694444444444,0,0,0.010850694444444444,77.50651041666667,0)" xlink:href="#ba"/><use transform="matrix(0.010850694444444444,0,0,0.010850694444444444,83.74565972222223,0)" xlink:href="#ag"/><use transform="matrix(0.010850694444444444,0,0,0.010850694444444444,100.68359375,0)" xlink:href="#bb"/><use transform="matrix(0.010850694444444444,0,0,0.010850694444444444,117.3611111111111,0)" xlink:href="#bc"/><use transform="matrix(0.010850694444444444,0,0,0.010850694444444444,128.68923611111111,0)" xlink:href="#aM"/><use transform="matrix(0.010850694444444444,0,0,0.010850694444444444,143.08810763888889,0)" xlink:href="#ai"/><use transform="matrix(0.010850694444444444,0,0,0.010850694444444444,157.68229166666666,0)" xlink:href="#aN"/><use transform="matrix(0.010850694444444444,0,0,0.010850694444444444,171.18055555555554,0)" xlink:href="#bc"/><use transform="matrix(0.010850694444444444,0,0,0.010850694444444444,181.75998263888889,0)" xlink:href="#ak"/><use transform="matrix(0.010850694444444444,0,0,0.010850694444444444,198.35069444444443,0)" xlink:href="#al"/><use transform="matrix(0.010850694444444444,0,0,0.010850694444444444,210.91579861111111,0)" xlink:href="#ak"/><use transform="matrix(0.010850694444444444,0,0,0.010850694444444444,227.50651041666663,0)" xlink:href="#ai"/><use transform="matrix(0.010850694444444444,0,0,0.010850694444444444,242.1006944444444,0)" xlink:href="#aj"/></g><use transform="matrix(0.010850694444444444,0,0,0.010850694444444444,0,0)" xlink:href="#aL" id="D"/><path d="M409 0L70-1118h191c89 329 165 560 243 925 75-353 154-601 240-925h192c85 325 161 564 235 922 77-354 157-598 244-922h191L1267 0h-179c-86-307-176-590-250-913C763-588 675-308 588 0H409" id="bd"/><g id="E"><use transform="matrix(0.010850694444444444,0,0,0.010850694444444444,0,0)" xlink:href="#an"/><use transform="matrix(0.010850694444444444,0,0,0.010850694444444444,13.129340277777777,0)" xlink:href="#aB"/><use transform="matrix(0.010850694444444444,0,0,0.010850694444444444,26.052517361111104,0)" xlink:href="#bd"/></g><path d="M1181-520L237-44v-194l712-338v-12L237-926v-196l944 476v126" id="be"/><g id="F"><use transform="matrix(0.008680555555555556,0,0,0.008680555555555556,0,0)" xlink:href="#be"/><use transform="matrix(0.008680555555555556,0,0,0.008680555555555556,11.762152777777779,0)" xlink:href="#aH"/></g><g id="G"><use transform="matrix(0.008680555555555556,0,0,0.008680555555555556,0,0)" xlink:href="#aL"/><use transform="matrix(0.008680555555555556,0,0,0.008680555555555556,11.475694444444445,0)" xlink:href="#aV"/><use transform="matrix(0.008680555555555556,0,0,0.008680555555555556,22.161458333333336,0)" xlink:href="#aS"/><use transform="matrix(0.008680555555555556,0,0,0.008680555555555556,38.220486111111114,0)" xlink:href="#aE"/><use transform="matrix(0.008680555555555556,0,0,0.008680555555555556,49.574652777777786,0)" xlink:href="#aW"/><use transform="matrix(0.008680555555555556,0,0,0.008680555555555556,56.805555555555564,0)" xlink:href="#aX"/></g><g id="H"><use transform="matrix(0.008680555555555556,0,0,0.008680555555555556,0,0)" xlink:href="#aT"/><use transform="matrix(0.008680555555555556,0,0,0.008680555555555556,6.484375,0)" xlink:href="#an"/><use transform="matrix(0.008680555555555556,0,0,0.008680555555555556,16.98784722222222,0)" xlink:href="#aB"/><use transform="matrix(0.008680555555555556,0,0,0.008680555555555556,27.326388888888886,0)" xlink:href="#bd"/><use transform="matrix(0.008680555555555556,0,0,0.008680555555555556,41.875,0)" xlink:href="#ax"/><use transform="matrix(0.008680555555555556,0,0,0.008680555555555556,48.359375,0)" xlink:href="#az"/></g><path d="M798-719v166H144v-166h654" id="bf"/><g id="I"><use transform="matrix(0.008680555555555556,0,0,0.008680555555555556,0,0)" xlink:href="#bf"/><use transform="matrix(0.008680555555555556,0,0,0.008680555555555556,6.866319444444445,0)" xlink:href="#aL"/></g><g id="J"><use transform="matrix(0.008680555555555556,0,0,0.008680555555555556,0,0)" xlink:href="#aL"/><use transform="matrix(0.008680555555555556,0,0,0.008680555555555556,11.475694444444445,0)" xlink:href="#aD"/><use transform="matrix(0.008680555555555556,0,0,0.008680555555555556,22.456597222222225,0)" xlink:href="#aX"/></g><g id="K"><use transform="matrix(0.010850694444444444,0,0,0.010850694444444444,0,0)" xlink:href="#ad"/><use transform="matrix(0.010850694444444444,0,0,0.010850694444444444,14.832899305555555,0)" xlink:href="#ai"/><use transform="matrix(0.010850694444444444,0,0,0.010850694444444444,29.427083333333332,0)" xlink:href="#ak"/><use transform="matrix(0.010850694444444444,0,0,0.010850694444444444,45.084635416666664,0)" xlink:href="#aY"/><use transform="matrix(0.010850694444444444,0,0,0.010850694444444444,61.5234375,0)" xlink:href="#aZ"/><use transform="matrix(0.010850694444444444,0,0,0.010850694444444444,77.50651041666667,0)" xlink:href="#ba"/><use transform="matrix(0.010850694444444444,0,0,0.010850694444444444,83.74565972222223,0)" xlink:href="#ag"/><use transform="matrix(0.010850694444444444,0,0,0.010850694444444444,100.68359375,0)" xlink:href="#bb"/></g><g id="L"><use transform="matrix(0.010850694444444444,0,0,0.010850694444444444,0,0)" xlink:href="#ak"/><use transform="matrix(0.010850694444444444,0,0,0.010850694444444444,16.590711805555554,0)" xlink:href="#al"/><use transform="matrix(0.010850694444444444,0,0,0.010850694444444444,29.15581597222222,0)" xlink:href="#ak"/><use transform="matrix(0.010850694444444444,0,0,0.010850694444444444,45.74652777777778,0)" xlink:href="#ai"/><use transform="matrix(0.010850694444444444,0,0,0.010850694444444444,60.34071180555555,0)" xlink:href="#aj"/></g><g id="M"><use transform="matrix(0.010850694444444444,0,0,0.010850694444444444,0,0)" xlink:href="#aI"/><use transform="matrix(0.010850694444444444,0,0,0.010850694444444444,12.6953125,0)" xlink:href="#aJ"/><use transform="matrix(0.010850694444444444,0,0,0.010850694444444444,25.83550347222222,0)" xlink:href="#am"/><use transform="matrix(0.010850694444444444,0,0,0.010850694444444444,38.791232638888886,0)" xlink:href="#aI"/><use transform="matrix(0.010850694444444444,0,0,0.010850694444444444,51.486545138888886,0)" xlink:href="#aK"/><use transform="matrix(0.010850694444444444,0,0,0.010850694444444444,62.424045138888886,0)" xlink:href="#aL"/><use transform="matrix(0.010850694444444444,0,0,0.010850694444444444,75.03255208333333,0)" xlink:href="#am"/><use transform="matrix(0.010850694444444444,0,0,0.010850694444444444,87.98828125,0)" xlink:href="#aw"/><use transform="matrix(0.010850694444444444,0,0,0.010850694444444444,107.45442708333333,0)" xlink:href="#aG"/></g><path d="M657 26c-323 0-524-166-541-416h195c15 169 171 246 346 246 202 0 356-106 356-265 5-203-294-238-475-293-239-73-380-191-380-389 0-252 224-419 512-419 294 0 499 171 508 396H992c-17-145-151-228-328-228-193 0-321 102-321 242 0 156 175 211 284 241l149 41c160 44 422 134 422 412 0 244-197 432-541 432" id="bg"/><g id="N"><use transform="matrix(0.008680555555555556,0,0,0.008680555555555556,0,0)" xlink:href="#aR"/><use transform="matrix(0.008680555555555556,0,0,0.008680555555555556,11.440972222222223,0)" xlink:href="#aV"/><use transform="matrix(0.008680555555555556,0,0,0.008680555555555556,22.126736111111114,0)" xlink:href="#bg"/><use transform="matrix(0.008680555555555556,0,0,0.008680555555555556,33.532986111111114,0)" xlink:href="#aV"/><use transform="matrix(0.008680555555555556,0,0,0.008680555555555556,44.21875,0)" xlink:href="#aL"/></g><g id="O"><use transform="matrix(0.008680555555555556,0,0,0.008680555555555556,0,0)" xlink:href="#aG"/><use transform="matrix(0.008680555555555556,0,0,0.008680555555555556,10.885416666666668,0)" xlink:href="#ap"/><use transform="matrix(0.008680555555555556,0,0,0.008680555555555556,17.282986111111114,0)" xlink:href="#am"/><use transform="matrix(0.008680555555555556,0,0,0.008680555555555556,27.64756944444445,0)" xlink:href="#as"/><use transform="matrix(0.008680555555555556,0,0,0.008680555555555556,37.03125000000001,0)" xlink:href="#as"/><use transform="matrix(0.008680555555555556,0,0,0.008680555555555556,46.414930555555564,0)" xlink:href="#am"/><use transform="matrix(0.008680555555555556,0,0,0.008680555555555556,56.7795138888889,0)" xlink:href="#aF"/></g><g id="P"><use transform="matrix(0.008680555555555556,0,0,0.008680555555555556,0,0)" xlink:href="#aT"/><use transform="matrix(0.008680555555555556,0,0,0.008680555555555556,6.484375,0)" xlink:href="#ao"/><use transform="matrix(0.008680555555555556,0,0,0.008680555555555556,12.126736111111112,0)" xlink:href="#am"/><use transform="matrix(0.008680555555555556,0,0,0.008680555555555556,22.491319444444443,0)" xlink:href="#aw"/><use transform="matrix(0.008680555555555556,0,0,0.008680555555555556,38.064236111111114,0)" xlink:href="#aG"/></g><use transform="matrix(0.008680555555555556,0,0,0.008680555555555556,0,0)" xlink:href="#aU" id="Q"/><path d="M154 0v-137l495-537c165-179 249-281 249-418 0-156-121-253-280-253-170 0-278 110-278 278H158c0-264 200-443 465-443 266 0 455 183 455 416 0 161-73 288-336 568L416-179v12h687V0H154" id="bh"/><g id="R"><use transform="matrix(0.008680555555555556,0,0,0.008680555555555556,0,0)" xlink:href="#aL"/><use transform="matrix(0.008680555555555556,0,0,0.008680555555555556,11.475694444444445,0)" xlink:href="#aV"/><use transform="matrix(0.008680555555555556,0,0,0.008680555555555556,22.161458333333336,0)" xlink:href="#aS"/><use transform="matrix(0.008680555555555556,0,0,0.008680555555555556,38.220486111111114,0)" xlink:href="#aE"/><use transform="matrix(0.008680555555555556,0,0,0.008680555555555556,49.574652777777786,0)" xlink:href="#bh"/><use transform="matrix(0.008680555555555556,0,0,0.008680555555555556,60.41666666666667,0)" xlink:href="#aX"/></g><g id="S"><use transform="matrix(0.008680555555555556,0,0,0.008680555555555556,0,0)" xlink:href="#aT"/><use transform="matrix(0.008680555555555556,0,0,0.008680555555555556,6.484375,0)" xlink:href="#an"/><use transform="matrix(0.008680555555555556,0,0,0.008680555555555556,16.98784722222222,0)" xlink:href="#aB"/><use transform="matrix(0.008680555555555556,0,0,0.008680555555555556,27.326388888888886,0)" xlink:href="#bd"/><use transform="matrix(0.008680555555555556,0,0,0.008680555555555556,41.875,0)" xlink:href="#ax"/><use transform="matrix(0.008680555555555556,0,0,0.008680555555555556,48.359375,0)" xlink:href="#az"/></g><use transform="matrix(0.008680555555555556,0,0,0.008680555555555556,0,0)" xlink:href="#bf" id="T"/><use transform="matrix(0.008680555555555556,0,0,0.008680555555555556,0,0)" xlink:href="#aL" id="U"/><g id="V"><use transform="matrix(0.008680555555555556,0,0,0.008680555555555556,0,0)" xlink:href="#be"/><use transform="matrix(0.008680555555555556,0,0,0.008680555555555556,11.762152777777779,0)" xlink:href="#aH"/></g><path d="M120-303v-155l652-1032h231v1020h202v167h-202V0H821v-303H120zm702-167v-782h-12L323-482v12h499" id="bi"/><g id="W"><use transform="matrix(0.008680555555555556,0,0,0.008680555555555556,0,0)" xlink:href="#aL"/><use transform="matrix(0.008680555555555556,0,0,0.008680555555555556,10.269097222222221,0)" xlink:href="#bi"/><use transform="matrix(0.008680555555555556,0,0,0.008680555555555556,21.75347222222222,0)" xlink:href="#aX"/></g><g id="X"><use transform="matrix(0.008680555555555556,0,0,0.008680555555555556,0,0)" xlink:href="#aL"/><use transform="matrix(0.008680555555555556,0,0,0.008680555555555556,11.475694444444445,0)" xlink:href="#aV"/><use transform="matrix(0.008680555555555556,0,0,0.008680555555555556,22.161458333333336,0)" xlink:href="#aS"/><use transform="matrix(0.008680555555555556,0,0,0.008680555555555556,38.220486111111114,0)" xlink:href="#aE"/><use transform="matrix(0.008680555555555556,0,0,0.008680555555555556,49.574652777777786,0)" xlink:href="#bh"/><use transform="matrix(0.008680555555555556,0,0,0.008680555555555556,60.41666666666667,0)" xlink:href="#aX"/></g></defs></g></svg>